<?xml version="1.0" encoding="UTF-8" standalone="no"?>
<!DOCTYPE svg PUBLIC "-//W3C//DTD SVG 1.1//EN" "http://www.w3.org/Graphics/SVG/1.1/DTD/svg11.dtd">
<svg width="100%" height="100%" viewBox="0 0 300 150" version="1.1" xmlns="http://www.w3.org/2000/svg" xmlns:xlink="http://www.w3.org/1999/xlink" xml:space="preserve" xmlns:serif="http://www.serif.com/" style="fill-rule:evenodd;clip-rule:evenodd;stroke-linejoin:round;stroke-miterlimit:2;">
    <g transform="matrix(0.0786927,0,0,0.0772128,49.5427,-24.4827)">
        <g transform="matrix(2.00993,0,0,2.04846,638.276,637.937)">
            <path d="M284.79,35.79C300.4,31.78 317.41,33.77 331.74,41.14C346.7,48.6 358.66,61.89 364.42,77.59C369.58,91.09 370.23,106.28 366.11,120.13C362.04,134.17 353.34,146.85 341.55,155.52C330.76,163.31 318.85,169.43 306.58,174.53C297.42,178.45 287.63,180.87 278.92,185.83C264.47,193.34 252.27,206.39 248.55,222.56C246.94,227.63 247.49,232.98 247.1,238.2C245.08,237.15 244.06,234.99 242.79,233.22C228.64,211.44 221.33,185.71 219.41,159.95C219.26,152.71 219.21,145.45 219.45,138.22C221.62,111.39 230.01,84.68 245.64,62.6C254.9,49.33 269.07,39.62 284.79,35.79Z" style="fill:rgb(65,183,57);fill-rule:nonzero;"/>
        </g>
        <g transform="matrix(2.00993,0,0,2.04846,638.276,637.937)">
            <path d="M142.87,407.08C153.09,406.29 164.5,409.7 170.4,418.58C174.49,424.16 174.48,431.31 175.14,437.89C186.76,438.2 198.4,437.84 210.03,438.04C226.76,438.65 243.05,446.32 254.33,458.65C264.95,470.04 271.2,485.43 271.37,501.02C271.73,516.34 266.36,531.76 256.47,543.48C246.97,554.98 233.33,562.96 218.65,565.59C205.48,568.19 191.54,566.23 179.42,560.52C158.22,550.63 143.05,528.5 142.63,504.96C142.64,475.97 142.63,446.99 142.64,418C142.64,414.36 142.43,410.7 142.87,407.08M175.23,470.31C174.69,477.85 175.14,485.43 175,492.99C175.11,500.22 174.16,507.86 177.45,514.58C183.26,529.16 200.87,537.86 215.9,532.93C231.13,528.8 241.66,512.12 238.43,496.59C236.01,482.18 222.67,470.62 208.06,470.33C197.12,470.3 186.17,470.31 175.23,470.31Z" style="fill:rgb(65,183,57);fill-rule:nonzero;"/>
        </g>
        <g transform="matrix(2.00993,0,0,2.04846,638.276,637.937)">
            <path d="M285.34,410.12C291.02,408.92 297,410.71 302.28,412.82C311.37,416.72 316.9,426.32 317.22,436.02C317.39,443.36 317.62,450.74 317.11,458.07C308.09,458.6 298.22,455.93 292.07,448.94C287.12,443.64 285.18,436.16 285.29,429.05C285.41,422.74 285.19,416.42 285.34,410.12Z" style="fill:rgb(65,183,57);fill-rule:nonzero;"/>
        </g>
        <g transform="matrix(2.00993,0,0,2.04846,638.276,637.937)">
            <path d="M385.43,438.52C398.3,436.87 411.74,438.69 423.34,444.65C439.03,452.43 451.23,466.86 456.28,483.63C460.65,498.25 459.77,514.45 453.48,528.39C446.64,543.95 433.34,556.49 417.43,562.48C407.16,566.61 395.85,567.12 384.96,565.95C370.8,563.82 357.4,556.88 347.61,546.42C336.9,535.07 330.36,519.69 330.18,504.04C329.56,488.06 335.37,471.94 345.98,459.99C355.96,448.38 370.29,440.67 385.43,438.52M390.41,470.54C379.56,471.99 369.77,479.29 365.34,489.31C361.58,497.54 361.64,507.41 365.49,515.6C369.68,524.77 378.42,531.67 388.32,533.63C401.86,536.64 416.67,529.22 422.92,516.95C427.35,508.51 427.7,497.96 423.75,489.28C418.26,476.7 404.04,468.57 390.41,470.54Z" style="fill:rgb(65,183,57);fill-rule:nonzero;"/>
        </g>
        <g transform="matrix(2.00993,0,0,2.04846,638.276,637.937)">
            <path d="M285.37,459.27C294.37,459.26 304.18,461.63 310.44,468.54C315.25,473.79 317.35,481.03 317.34,488.05C317.42,512.03 317.31,536.01 317.4,559.99C317.3,562.21 317.75,564.57 316.89,566.69C310.04,567.15 303.05,565.38 297.15,561.88C289.07,557 285.22,547.2 285.28,538.06C285.4,511.8 285.22,485.53 285.37,459.27Z" style="fill:rgb(65,183,57);fill-rule:nonzero;"/>
        </g>
        <g transform="matrix(2.00993,0,0,2.04846,638.276,637.937)">
            <path d="M323.85,186.29C350.66,183.34 377.85,189.6 402.15,200.86C428.99,213.5 452.38,233.65 468.26,258.78C475.99,271.18 482.43,285.07 482.71,299.93C483.58,318.66 476.02,337.55 462.66,350.67C451.97,361.13 437.77,368.06 422.87,369.68C406.78,371.73 390.11,367.37 376.76,358.25C359.86,346.81 348.74,327.29 347.64,306.89C346.46,289.14 348.38,271.31 351.92,253.91C354.56,239.27 354.17,223.37 347.17,209.93C343.75,202.77 338.34,196.71 332.1,191.87C329.47,189.82 326.31,188.55 323.85,186.29Z" style="fill:rgb(0,98,45);fill-rule:nonzero;"/>
        </g>
        <g transform="matrix(2.00993,0,0,2.04846,638.276,637.937)">
            <path d="M505.71,445.73C519.7,438.23 536.47,436.71 551.8,440.48C573.83,446.11 592.09,464.3 597.69,486.37C600.2,494.69 599.06,503.45 599.31,512C599.17,529.97 599.58,547.96 599.1,565.91C590.11,566.35 580.43,563.56 574.33,556.64C569.51,551.24 567.66,543.87 567.49,536.79C567.17,524.2 567.57,511.6 567.31,499.02C566.04,482.36 549.6,468.96 533.04,470.68C517.7,471.45 504.36,484.73 503.38,500.03C503.14,512.67 503.45,525.32 503.26,537.97C503.09,545.12 500.85,552.54 495.68,557.67C489.36,563.93 480,566.51 471.28,565.82C471.34,544.2 471.29,522.57 471.3,500.95C471.33,478.03 485.42,456.12 505.71,445.73Z" style="fill:rgb(0,98,45);fill-rule:nonzero;"/>
        </g>
        <g transform="matrix(2.00993,0,0,2.04846,638.276,637.937)">
            <path d="M141.57,249.62C160.35,233.35 188.45,229.01 211.28,238.79C227.44,245.91 242.11,256.03 255.56,267.39C266.26,276.73 278.95,284.47 293.14,286.83C301.92,288.03 311.07,287.64 319.41,284.43C323.53,283.16 327.02,280.54 331,278.95C330.46,281.46 329.4,283.82 328.19,286.07C318.62,304.81 304.27,320.8 288.01,334C263.91,353.35 234.17,365.63 203.37,368.47C192.57,369.41 181.59,369.26 170.93,367.15C151.41,363.06 134.12,349.75 125.11,331.97C117.91,318.34 115.9,302.14 119.11,287.1C122.25,272.61 130.11,259.08 141.57,249.62Z" style="fill:rgb(152,214,45);fill-rule:nonzero;"/>
        </g>
        <g transform="matrix(2.00993,0,0,2.04846,638.276,637.937)">
            <path d="M15.74,459.76C25.56,448.44 39.5,441.01 54.23,438.55C69.39,436.56 85.37,439.4 98.33,447.72C116.41,458.93 128.54,479.61 128.38,501.02C128.35,521.69 128.32,542.36 128.4,563.04C128.37,564.25 128.21,565.45 127.92,566.64C106.26,566.76 84.58,566.63 62.91,566.69C41.28,566.47 20.34,554.4 9.14,535.93C4.4,528.51 1.86,519.98 0,511.44L0,492.56C2.62,480.62 7.39,468.88 15.74,459.76M60.4,470.51C46.75,472.02 34.79,483.16 32.62,496.77C30.54,507.25 34.56,518.48 42.4,525.63C48.67,531.56 57.41,534.64 66.01,534.34C76.02,534.11 86.06,534.71 96.05,534.05C96.68,528.72 96.18,523.35 96.32,518C96.17,510.78 96.81,503.5 95.58,496.35C92.78,480.5 76.48,468.09 60.4,470.51Z" style="fill:rgb(152,214,45);fill-rule:nonzero;"/>
        </g>
    </g>
</svg>
