<?xml version="1.0" encoding="UTF-8" standalone="no"?>
<!DOCTYPE svg PUBLIC "-//W3C//DTD SVG 1.1//EN" "http://www.w3.org/Graphics/SVG/1.1/DTD/svg11.dtd">
<svg width="100%" height="100%" viewBox="0 0 300 150" version="1.1" xmlns="http://www.w3.org/2000/svg" xmlns:xlink="http://www.w3.org/1999/xlink" xml:space="preserve" xmlns:serif="http://www.serif.com/" style="fill-rule:evenodd;clip-rule:evenodd;stroke-linejoin:round;stroke-miterlimit:2;">
    <g transform="matrix(0.225864,0,0,0.225864,42.2946,-30.7968)">
        <path d="M394.98,362.77C407.98,362.43 420.99,362.39 434,362.22C444.65,361.4 455.33,361.91 466,361.77C475.33,361.9 484.69,361.41 494,362.2C504.99,362.41 515.99,362.44 526.98,362.75C536.07,363.74 545.24,363.2 554.36,363.82C561.51,364.89 568.8,364 575.95,365.08C581.6,365.77 587.35,365.09 592.98,366.12C641.76,368.71 690.43,373.33 739.03,378.56C792.71,384.49 846.29,391.52 899.64,400.01C905.12,401.07 910.82,401.11 916.1,403.06C903.42,403.67 890.7,403.14 878,403.32L192,403.32C134.2,403.26 76.39,403.42 18.58,403.24C18.66,402.91 18.83,402.24 18.92,401.91C23.79,401.65 28.56,400.66 33.33,399.72C118.24,383.72 204.27,374.13 290.34,367.87C295.17,367.25 300.08,367.77 304.9,367.02C310.2,366.17 315.6,366.78 320.92,366.15C328.19,364.93 335.62,365.98 342.89,364.8C350.24,364.16 357.66,364.8 364.98,363.81C374.97,363.18 385.01,363.77 394.98,362.77Z" style="fill:rgb(20,73,31);fill-rule:nonzero;"/>
    </g>
    <g transform="matrix(0.225864,0,0,0.225864,42.2946,-30.7968)">
        <path d="M17.33,411.67C317.78,411.75 618.22,411.72 918.67,411.68C918.97,413.76 919.27,415.84 919.24,417.96C919.18,448.16 919.23,478.37 919.21,508.57C715.14,508.72 511.07,508.59 307,508.63C210.26,508.6 113.53,508.71 16.8,508.58C16.77,478.37 16.82,448.16 16.77,417.95C16.74,415.84 17.04,413.75 17.33,411.67M88.77,431.7C80.69,432.58 72.57,432.67 64.5,433.59C64.41,440.2 64.5,446.8 64.43,453.41C60.1,453.45 55.77,453.43 51.44,453.47C51.39,456.82 51.39,460.17 51.44,463.53C55.77,463.57 60.1,463.55 64.44,463.58C64.46,471.21 64.5,478.85 64.42,486.49C68.38,486.64 72.34,486.58 76.29,486.64C76.64,478.95 76.35,471.25 76.48,463.56C91.86,463.55 107.25,463.57 122.63,463.55C122.82,471.22 122.49,478.89 122.84,486.56C127.01,486.61 131.18,486.63 135.35,486.5C135.37,478.86 135.27,471.22 135.42,463.58C139.45,463.55 143.49,463.56 147.52,463.54C147.53,460.18 147.53,456.82 147.52,453.46C143.49,453.44 139.46,453.44 135.42,453.42C135.27,446.83 135.38,440.25 135.33,433.67C119.85,432.34 104.33,430.83 88.77,431.7M378.57,430.69C378.4,448.57 378.53,466.47 378.5,484.36C385.47,485.71 392.6,485.19 399.61,486.2C415.63,487.26 431.67,486.02 447.59,484.42C447.61,478.39 447.58,472.35 447.62,466.32C444.25,466.28 440.88,466.29 437.51,466.37C437.58,469.33 437.49,472.3 437.46,475.27C433.94,475.46 430.4,475.45 426.9,475.87C414.13,477.47 401.31,475.83 388.55,475.3C388.41,460.43 388.65,445.56 388.42,430.69C385.13,430.66 381.85,430.65 378.57,430.69M470.34,433.47C469.92,440.06 470.24,446.68 470.12,453.28C463.89,453.61 457.66,453.36 451.43,453.46C451.38,456.81 451.37,460.18 451.43,463.54C457.45,463.58 463.47,463.54 469.49,463.58C469.56,470.5 469.51,477.42 469.53,484.34C476.62,485.69 483.86,485.19 490.98,486.23C500.65,486.73 510.36,486.69 520.03,486.2C526.77,485.1 533.66,485.77 540.37,484.42C540.38,481.1 540.39,477.78 540.39,474.47C523.46,475.24 506.48,477.85 489.53,475.73C486.16,475.42 482.67,475.75 479.44,474.53C479.62,471.3 479.45,468.08 479.58,464.86C479.9,464.54 480.55,463.91 480.87,463.59C495.76,463.49 510.65,463.59 525.53,463.55C525.54,459.99 525.59,456.44 525.36,452.89C510.29,452.85 495.23,452.93 480.17,452.84C480.15,449.52 480.15,446.2 480.23,442.88C493.1,442.2 506.02,440.55 518.88,442.29C526.08,442.37 533.2,443.53 540.4,443.58C540.39,440.27 540.38,436.96 540.38,433.65C534.26,432.9 528.12,432.48 521.97,432.31C504.78,430.25 487.5,432.28 470.34,433.47M577.46,431.68C569.17,432.51 560.84,432.73 552.55,433.61C552.53,450.54 552.51,467.47 552.56,484.4C559.63,485.78 566.88,485.13 573.99,486.22C585.32,486.73 596.72,486.91 608,485.6C613.15,485.42 618.32,485.37 623.41,484.43C623.42,481.1 623.42,477.78 623.43,474.45C616.62,474.63 609.87,475.64 603.06,475.73C589.59,477.55 576.06,475.84 562.59,475.27C562.56,464.43 562.47,453.6 562.63,442.77C575.71,442.46 588.82,440.42 601.88,442.29C609.09,442.37 616.22,443.51 623.43,443.59C623.42,440.26 623.41,436.94 623.42,433.61C608.13,432.41 592.82,430.83 577.46,431.68M646.96,432.36C641.08,432.42 635.26,433.09 629.41,433.64C629.42,436.96 629.41,440.28 629.46,443.61C635.33,443.61 641.12,442.46 647,442.48C651.42,442.64 655.94,440.73 660.23,442.51C660.11,457.13 660.2,471.74 660.19,486.36C663.28,486.48 666.37,486.5 669.47,486.46C669.61,471.56 669.53,456.66 669.51,441.77C679.78,441.81 690,443.41 700.29,443.54C700.27,440.24 700.27,436.95 700.27,433.66C682.56,432.19 664.71,430.28 646.96,432.36M708.36,433.54C708.23,451.16 708.27,468.79 708.34,486.41C711.51,485.76 716.1,487.97 718.25,484.99C718.5,478.56 718.13,472.11 718.42,465.67C731.97,465.68 745.52,465.73 759.08,465.73C761.14,465.72 763.3,465.82 765.21,466.76C766.58,468.49 767.42,470.68 767.42,472.91C767.58,477.4 767.52,481.9 767.59,486.39C771.47,486.43 775.36,486.45 779.25,486.33C779.39,482.2 779.62,478.07 779.4,473.95C778.99,468.84 777.44,463.03 772.22,460.89C774.81,459.34 778.52,458.06 778.84,454.55C779.75,447.93 778.95,441.18 779.25,434.51C772.58,432.96 765.66,432.86 758.86,432.29C742.04,430.18 725.15,432.47 708.36,433.54M831.98,432.32C825.83,432.41 819.72,433.1 813.59,433.65C813.56,450.56 813.59,467.46 813.57,484.37C821.1,485.6 828.74,485.28 836.29,486.28C846.83,486.67 857.44,486.94 867.94,485.66C873.49,485.5 879.05,485.24 884.56,484.39C884.56,481.06 884.57,477.74 884.51,474.42C878.41,474.64 872.38,475.58 866.28,475.63C852.12,477.47 837.86,476.08 823.69,475.24C823.65,464.42 823.63,453.6 823.71,442.78C828.8,442.51 833.93,442.59 838.99,441.88C854.21,440.67 869.37,443 884.55,443.62C884.56,440.27 884.56,436.92 884.53,433.57C867.07,432.34 849.48,430.23 831.98,432.32M158.37,433.53C157.98,435.65 157.6,437.79 157.67,439.96C157.71,452.99 157.69,466.03 157.68,479.07C157.66,480.89 158.04,482.68 158.34,484.48C175.16,486.23 192.12,487.24 209.04,486.15C215.49,485.12 222.08,485.7 228.52,484.46C228.55,481.11 228.55,477.77 228.52,474.43C222.09,474.59 215.74,475.64 209.3,475.66C196.36,477.42 183.32,476.08 170.37,475.38C170.31,464.48 170.21,453.56 170.42,442.66C182.61,442.26 194.83,440.53 207.01,442.28C214.2,442.36 221.32,443.44 228.51,443.59C228.55,440.25 228.55,436.9 228.5,433.57C219.99,432.87 211.46,432.4 202.95,431.65C188.05,430.86 173.2,432.45 158.37,433.53M298.49,433.59C298.4,440.19 298.5,446.79 298.4,453.39C292.43,453.49 286.47,453.4 280.5,453.49C280.49,456.83 280.49,460.17 280.5,463.52C286.47,463.6 292.44,463.52 298.41,463.6C298.58,470.77 298.23,477.96 298.64,485.13C305.76,485.36 312.92,485.26 319.99,486.25C330.99,486.67 342.06,486.96 353,485.64C358.46,485.41 363.94,485.41 369.33,484.38C369.35,481.08 369.35,477.79 369.36,474.5C362.65,474.52 356.01,475.64 349.3,475.7C335.74,477.55 322.11,475.86 308.54,475.29C308.49,471.38 308.48,467.48 308.54,463.58C323.91,463.52 339.28,463.58 354.65,463.55C354.71,460.19 354.71,456.82 354.66,453.46C339.29,453.41 323.91,453.47 308.54,453.42C308.49,449.86 308.48,446.3 308.58,442.74C313.72,442.55 318.89,442.54 324,441.84C338.94,440.77 353.82,442.89 368.71,443.62C368.78,440.26 368.78,436.9 368.69,433.54C351.17,432.33 333.54,430.2 316,432.36C310.14,432.47 304.31,432.92 298.49,433.59M793.4,431.31C793.39,449.7 793.34,468.1 793.42,486.49C796.79,486.51 800.17,486.51 803.55,486.49C803.65,468.1 803.59,449.71 803.58,431.32C800.18,431.26 796.79,431.26 793.4,431.31Z" style="fill:rgb(20,73,31);fill-rule:nonzero;"/>
    </g>
    <g transform="matrix(0.225864,0,0,0.225864,42.2946,-30.7968)">
        <path d="M76.49,441.61C91.82,440.02 107.37,439.82 122.68,441.64C122.68,444.99 122.69,448.35 122.69,451.71C107.28,451.73 91.86,451.79 76.44,451.68C76.44,448.32 76.45,444.97 76.49,441.61Z" style="fill:rgb(20,73,31);fill-rule:nonzero;"/>
    </g>
    <g transform="matrix(0.225864,0,0,0.225864,42.2946,-30.7968)">
        <path d="M719.66,442.76C731.46,442.61 743.25,440.57 755.05,442.02C760.19,442.69 765.41,442.38 770.5,443.5C770.52,446.38 770.51,449.27 770.28,452.15C767.56,452.67 764.84,453.33 762.06,453.29C747.92,453.34 733.79,453.23 719.66,453.24C719.59,449.75 719.59,446.25 719.66,442.76Z" style="fill:rgb(20,73,31);fill-rule:nonzero;"/>
    </g>
    <g transform="matrix(0.225864,0,0,0.225864,42.2946,-30.7968)">
        <path d="M18.05,516.97C20,516.58 21.91,515.95 23.9,515.79C319.29,515.77 614.68,515.83 910.07,515.76C912.4,515.92 914.69,516.57 916.99,517.01C901.64,518.39 886.54,521.7 871.26,523.65C809.82,532.73 748.16,540.21 686.35,546C661.58,548.27 636.83,550.49 612,551.9C607.02,552.79 601.95,552.39 596.93,552.8C590.66,553.85 584.27,553.3 577.99,554.27C565.74,554.48 553.56,555.71 541.3,555.67C527.92,557.04 514.41,555.94 501.02,557.25C478.98,557.42 456.93,557.39 434.89,557.3C417.3,556.04 399.6,557.17 382.02,555.72C372.01,555.49 361.98,555.58 352,554.64C342.3,554.76 332.69,553.64 323.01,553.43C230.74,547.94 138.58,538.26 47.44,522.18C37.63,520.52 27.95,518.07 18.05,516.97Z" style="fill:rgb(20,73,31);fill-rule:nonzero;"/>
    </g>
</svg>
