<?xml version="1.0" encoding="UTF-8" standalone="no"?>
<!DOCTYPE svg PUBLIC "-//W3C//DTD SVG 1.1//EN" "http://www.w3.org/Graphics/SVG/1.1/DTD/svg11.dtd">
<svg width="100%" height="100%" viewBox="0 0 300 150" version="1.1" xmlns="http://www.w3.org/2000/svg" xmlns:xlink="http://www.w3.org/1999/xlink" xml:space="preserve" xmlns:serif="http://www.serif.com/" style="fill-rule:evenodd;clip-rule:evenodd;stroke-linejoin:round;stroke-miterlimit:2;">
    <g transform="matrix(0.0786927,0,0,0.0772128,49.5427,-24.4827)">
        <g transform="matrix(1.75395,0,0,1.78757,-229.953,965.924)">
            <path d="M849.94,42.96C855.62,33.31 867.09,28.52 877.93,28.3C1118.69,28.39 1359.45,28.2 1600.2,28.4C1600.3,38.74 1600.28,49.09 1600.25,59.43C1361.2,59.52 1122.15,59.43 883.1,59.48C880.09,59.59 876.25,59.8 874.71,62.86C873.17,66.97 873.63,71.46 873.61,75.76C863.82,75.81 854.03,75.78 844.24,75.77C844.1,64.67 844.24,52.86 849.94,42.96Z" style="fill:rgb(243,72,65);fill-rule:nonzero;"/>
        </g>
        <g transform="matrix(1.75395,0,0,1.78757,-229.953,965.924)">
            <path d="M101.7,121.31C132.71,108.31 166.85,106.75 200.02,106.64C236.61,106.6 274.54,106.85 308.81,121.36C308.62,156.49 308.49,191.63 308.16,226.76C274.03,240.99 236.38,241.14 200.01,241.1C166.66,241 132.25,239.81 101.06,226.66C101.19,206.04 101.26,185.43 101.41,164.81C133.49,151.51 168.79,150.25 203.04,150.11C229.46,150.28 256.34,149.16 282.17,155.73C282.24,150.73 282.26,145.72 282.25,140.72C262.06,134.82 240.82,134.56 219.96,134.44C189.54,134.48 158.69,133.89 128.9,140.96C119.43,143.13 110.42,146.78 101.52,150.6C101.51,140.84 101.59,131.07 101.7,121.31M127.95,184.21C127.99,191.91 127.82,199.62 127.9,207.33C146.77,212.58 166.52,213.12 185.98,213.31C201.34,213.27 216.7,213.43 232.06,213.2C248.8,212.82 265.73,211.83 281.93,207.28C281.91,199.57 282.02,191.86 282,184.16C263.14,178.96 243.43,178.39 223.99,178.19C211,178.19 198.01,178.18 185.02,178.2C165.89,178.43 146.49,179.03 127.95,184.21Z" style="fill:rgb(109,105,102);fill-rule:nonzero;"/>
        </g>
        <g transform="matrix(1.75395,0,0,1.78757,-229.953,965.924)">
            <path d="M350.09,121.33C384.43,106.92 422.35,106.58 458.98,106.64C492.14,106.85 526.43,108.11 557.32,121.5C557.05,141.26 557.07,161.02 556.94,180.78C525.73,193.85 491.33,195.28 457.95,195.49C430.72,195.33 403.03,196.61 376.37,189.96C376.35,195.74 376.33,201.53 376.28,207.32C394.68,212.62 413.99,213.12 433.01,213.32C460.02,213.24 487.19,213.93 513.99,209.92C528.78,207.88 543.16,203.56 556.8,197.52C556.79,207.23 556.72,216.95 556.63,226.66C536.13,235.32 513.9,238.91 491.8,240.2C469.89,241.38 447.93,241.29 426,240.74C400.03,239.97 373.68,236.79 349.52,226.71C349.63,191.58 349.9,156.45 350.09,121.33M376.61,140.77C376.68,147.65 376.55,154.53 376.55,161.41C401.39,168.4 427.45,167.57 453,167.75C478.93,167.57 505.38,168.43 530.61,161.42C530.61,154.52 530.71,147.63 530.67,140.73C502.15,132.86 472.26,134.76 443,134.44C420.78,134.53 398.16,134.66 376.61,140.77Z" style="fill:rgb(109,105,102);fill-rule:nonzero;"/>
        </g>
        <g transform="matrix(1.75395,0,0,1.78757,-229.953,965.924)">
            <path d="M598.76,106.64C607.55,106.61 616.35,106.61 625.14,106.64C625.12,111.34 625.08,116.05 625.17,120.75C647.17,113.73 669.8,108 692.98,107.12C712.71,106.49 732.51,107.5 752.07,110.17C770.42,112.77 788.63,117.1 805.75,124.29C805.76,133.97 805.62,143.66 805.62,153.34C788.23,145.71 769.81,140.57 751,137.99C730.79,135.19 710.31,134.06 689.93,135.09C667.75,136.31 646.23,142.37 625.24,149.27C624.86,179.97 624.85,210.68 624.53,241.38C615.65,241.38 606.76,241.36 597.88,241.39C598.2,196.47 598.42,151.56 598.76,106.64Z" style="fill:rgb(109,105,102);fill-rule:nonzero;"/>
        </g>
        <g transform="matrix(1.75395,0,0,1.78757,-229.953,965.924)">
            <path d="M896.14,109.2C919.68,106.57 943.4,106.86 967.05,107.04C996.53,107.41 1026.72,109.73 1054.18,121.36C1054.02,156.53 1053.78,191.71 1053.59,226.88C1022.26,240.29 987.54,241.2 953.98,241.38C917.81,241.37 880.32,241.22 846.41,226.92C846.68,191.72 846.8,156.53 847.04,121.34C862.69,114.87 879.34,111.06 896.14,109.2M873.57,140.77C873.53,163.05 873.26,185.34 873.27,207.63C891.08,212.52 909.65,213.31 928.02,213.54C944.44,213.66 960.87,213.68 977.3,213.47C993.96,213.07 1010.83,212.18 1026.93,207.6C1027.79,205.63 1027.1,203.15 1027.31,200.99C1027.4,180.9 1027.59,160.81 1027.6,140.72C1002.68,133.87 976.57,134.84 950.98,134.69C925.12,134.85 898.73,133.8 873.57,140.77Z" style="fill:rgb(109,105,102);fill-rule:nonzero;"/>
        </g>
        <g transform="matrix(1.75395,0,0,1.78757,-229.953,965.924)">
            <path d="M1095.71,106.63C1104.51,106.62 1113.32,106.62 1122.14,106.63C1122.01,111.34 1122.05,116.06 1122.08,120.77C1145.36,113.28 1169.42,107.4 1193.99,106.99C1231.06,106.41 1268.35,113.13 1302.7,127.17C1302.5,165.24 1302.23,203.31 1301.99,241.37C1293.17,241.37 1284.35,241.39 1275.54,241.37C1275.84,209.76 1275.88,178.15 1276.21,146.54C1252.9,139.1 1228.47,135.24 1204.01,134.76C1176.04,133.83 1148.6,140.77 1122.17,149.27C1121.84,179.97 1121.77,210.68 1121.48,241.39C1112.6,241.37 1103.71,241.37 1094.83,241.38C1095.12,196.46 1095.39,151.54 1095.71,106.63Z" style="fill:rgb(109,105,102);fill-rule:nonzero;"/>
        </g>
        <g transform="matrix(1.75395,0,0,1.78757,-229.953,965.924)">
            <path d="M1344.18,106.64C1353.06,106.58 1361.95,106.67 1370.84,106.59C1370.88,115.77 1370.76,124.95 1370.74,134.13C1361.84,134.11 1352.94,134.15 1344.04,134.1C1344.16,124.95 1344.15,115.79 1344.18,106.64Z" style="fill:rgb(109,105,102);fill-rule:nonzero;"/>
        </g>
        <g transform="matrix(1.75395,0,0,1.78757,-229.953,965.924)">
            <path d="M1409.62,242.53C1409.87,197.6 1410.14,152.66 1410.47,107.72C1419.36,107.78 1428.26,107.71 1437.16,107.76C1436.93,127.66 1436.86,147.56 1436.73,167.46C1459.8,161.51 1482.79,155.28 1505.92,149.55C1526.42,143.84 1546.75,137.49 1566.99,130.9C1570.28,129.57 1574.14,129.06 1577.06,127.1C1577.29,120.76 1577.22,114.41 1577.33,108.06C1586.13,108.07 1594.95,108.05 1603.76,108.06C1603.65,120.64 1603.52,133.21 1603.38,145.79C1588.64,150.91 1573.87,155.95 1559.16,161.14C1568.39,163.7 1577.59,166.35 1586.7,169.3C1592.48,171.27 1598.47,173.14 1603.35,176.96C1603.08,198.83 1603.12,220.71 1602.84,242.58C1594.04,242.57 1585.25,242.55 1576.46,242.56C1576.49,225.95 1576.81,209.34 1576.66,192.73C1567.76,188.34 1558.6,184.33 1548.91,182.04C1536.52,178.99 1523.67,178.94 1510.98,178.87C1494.19,178.66 1477.28,180.51 1461.15,185.26C1452.47,187.93 1443.86,191.33 1436.51,196.74C1436.64,212.01 1436.67,227.28 1436.7,242.55C1427.67,242.56 1418.64,242.6 1409.62,242.53Z" style="fill:rgb(109,105,102);fill-rule:nonzero;"/>
        </g>
        <g transform="matrix(1.75395,0,0,1.78757,-229.953,965.924)">
            <path d="M1344.07,142.31L1370.75,142.31C1370.5,175.24 1370.26,208.18 1370.05,241.12C1361.15,241.1 1352.25,241.21 1343.35,241.05C1343.6,208.14 1343.81,175.22 1344.07,142.31Z" style="fill:rgb(109,105,102);fill-rule:nonzero;"/>
        </g>
        <g transform="matrix(1.75395,0,0,1.78757,-229.953,965.924)">
            <path d="M842.05,268.95C853.21,268.92 864.38,268.94 875.54,268.93C875.62,280.91 875.99,293.86 869.42,304.42C863.87,313.1 852.75,316.25 842.94,314.96C821.31,314.64 799.66,314.92 778.01,314.82C552.11,314.83 326.21,314.82 100.31,314.83C100.3,304.99 100.29,295.15 100.3,285.31C344.84,285.28 589.39,285.33 833.93,285.28C836.6,285.08 840.91,285.34 841.5,281.88C842.36,277.63 841.96,273.26 842.05,268.95Z" style="fill:rgb(51,73,131);fill-rule:nonzero;"/>
        </g>
    </g>
</svg>
