<?xml version="1.0" encoding="UTF-8" standalone="no"?>
<!DOCTYPE svg PUBLIC "-//W3C//DTD SVG 1.1//EN" "http://www.w3.org/Graphics/SVG/1.1/DTD/svg11.dtd">
<svg width="100%" height="100%" viewBox="0 0 300 150" version="1.1" xmlns="http://www.w3.org/2000/svg" xmlns:xlink="http://www.w3.org/1999/xlink" xml:space="preserve" xmlns:serif="http://www.serif.com/" style="fill-rule:evenodd;clip-rule:evenodd;stroke-linejoin:round;stroke-miterlimit:2;">
    <g transform="matrix(0.0869158,0,0,0.0822221,38.6975,-30.1829)">
        <path d="M36.756,1416.82L360.884,966.377C384.333,933.797 428.158,921.035 462.087,932.591C496.016,944.134 520.062,979.982 517.364,1040.15L510.659,1189.91L678.306,1189.91C703.195,1189.91 718.499,1195.14 726.424,1204.92C738.006,1219.21 733.829,1243.23 720.782,1274.85L691.716,1345.28C687.423,1355.69 686.347,1362.76 688.422,1367.44C691.094,1373.45 698.954,1375.44 711.833,1375.44L784.489,1375.44C790.611,1375.44 796.136,1372.46 800.909,1368C807.446,1361.86 812.556,1353.01 815.785,1345.28L881.724,1187.68L943.2,1191.04L932.422,1219.59L948.79,1210.04C956.844,1205.35 965.197,1200.31 975.3,1196.46C985.417,1192.61 997.323,1189.92 1012.5,1189.92L1187.97,1189.92L1221.49,1274.86C1226.27,1286.95 1230.75,1293.25 1235.88,1295.15C1244.4,1298.34 1254.45,1289.17 1270.67,1274.86L1375.73,1182.1L1411.5,1274.86L1478.58,1274.86L1572.56,1188.96L1643.2,1188.96L1584.74,1243.57L1661.84,1243.57L1673.54,1217.02C1676.65,1209.88 1681.62,1202.26 1687.7,1196.28C1694.37,1189.72 1702.42,1185.32 1710.98,1185.32L1904.89,1185.32C1915.74,1185.32 1924.19,1189.46 1929.29,1195.61C1935.06,1202.58 1936.54,1212.14 1932.33,1221.22L1917.79,1252.52C1914.19,1260 1908.2,1266.09 1900.78,1269.83C1893.24,1273.66 1884.27,1274.88 1876.44,1274.88L1715.49,1274.88L1703.2,1302.81C1700.23,1309.56 1700.67,1315.17 1703.41,1319.23C1706.5,1323.84 1712.55,1322.93 1719.97,1322.93L1958.29,1322.93C1972.43,1322.93 1978.68,1318.97 1985.37,1313.47C1996.49,1304.3 2003.28,1289.84 2009.48,1274.86L2156.96,918.324L2218.44,918.324L2070.09,1274.86C2059.96,1299.23 2055.82,1311.46 2058.95,1317.55C2062.96,1325.33 2078.96,1322.92 2109.56,1322.92L2180.44,1322.92C2194.02,1322.92 2203.59,1318.87 2210.92,1312.36C2221.25,1303.16 2227,1289.13 2232.98,1274.86L2382.74,917.209L2444.22,917.209L2295.55,1274.86C2285.29,1299.58 2277.66,1311.89 2283.21,1317.82C2287.01,1321.85 2296.21,1322.92 2317.92,1322.92L2463.22,1322.92L2424.1,1409L1689.79,1409C1658.94,1409 1632.54,1408.74 1620.24,1397.39C1611.3,1389.13 1609.77,1375.02 1619.38,1350.85L1649.55,1274.86L1553.44,1274.86L1392.49,1429.11L1339.94,1301.7C1336.76,1293.92 1331.26,1291.2 1325.12,1291.79C1318.99,1292.4 1312.26,1296.33 1306.43,1301.7L1181.25,1416.83L1119.77,1274.88C1115.97,1266.08 1112.59,1255.58 1106.22,1247.98C1101.28,1242.09 1094.45,1237.99 1084.01,1237.99L1051.6,1237.99L1042.66,1258.11L963.303,1258.11C948.998,1258.11 935.937,1264.91 924.809,1275.12C910.503,1288.27 899.388,1307.07 892.89,1324.27L879.48,1359.8C871.036,1382.2 862.865,1395.79 853.813,1404.06C840.57,1416.14 825.409,1416.82 804.605,1416.82L678.306,1416.82C650.68,1416.82 632.043,1410.01 622.782,1397.52C613.535,1385.03 613.651,1366.87 623.534,1344.17L653.715,1274.86L505.069,1274.86L502.838,1416.82L449.182,1416.82L453.656,1274.86L202.173,1274.86L99.361,1416.82L36.756,1416.82ZM261.419,1189.92L388.834,1012.21C408.184,985.209 428.819,973.913 444.072,978.374C459.324,982.823 469.207,1003.03 467.067,1039.03L458.131,1189.92L261.419,1189.92ZM742.934,1033.44C715.231,1033.44 692.637,1056.04 692.637,1083.74C692.637,1111.44 715.231,1134.04 742.934,1134.04C770.637,1134.04 793.231,1111.44 793.231,1083.74C793.231,1056.04 770.625,1033.44 742.934,1033.44ZM1744.2,1215.58L1882.61,1215.58C1887.1,1215.58 1889.71,1216.75 1890.82,1218.57C1891.94,1220.4 1891.56,1222.91 1890.14,1225.59L1882.26,1240.25L1739.57,1243.48C1734.89,1243.58 1732.35,1242.83 1731.59,1241.04C1730.8,1239.25 1731.8,1236.42 1734.2,1232.39L1744.2,1215.58ZM901.71,1525.52L901.71,1490.84C901.71,1488.48 903.902,1487.11 909.686,1487.11L932.267,1487.11C939.828,1487.11 945.198,1490.56 948.648,1494.13C949.465,1494.96 951.267,1497.02 952.642,1497.02C954.017,1497.02 954.432,1496.06 954.704,1494.82L953.057,1486.28C952.5,1483.81 951.41,1480.65 947,1479.95L886.029,1479.95C883.682,1479.95 881.075,1480.11 881.075,1482.99C881.075,1485.47 882.995,1485.88 884.927,1486.56C886.717,1487.11 889.324,1487.52 889.324,1489.59L889.324,1566.11C889.194,1571.61 889.739,1572.44 884.512,1574.22C882.722,1574.78 881.205,1575.33 881.205,1577.54C881.205,1580.43 883.825,1580.73 886.159,1580.73L904.875,1580.73C907.222,1580.73 909.972,1580.55 909.972,1577.54C909.972,1575.06 908.052,1574.65 905.99,1574.09C904.2,1573.53 901.723,1573.13 901.723,1570.92L901.58,1532.65L930.217,1532.65C934.342,1532.65 935.717,1532.65 938.752,1535.41C939.854,1536.53 940.399,1537.06 942.046,1537.06C944.808,1537.06 944.523,1533.21 944.666,1531.4C944.666,1529.23 946.041,1521.22 941.774,1521.22C940.256,1521.22 939.711,1521.94 938.609,1522.9C935.587,1525.35 934.069,1525.5 930.217,1525.5L901.71,1525.5L901.71,1525.52ZM1000.76,1571.07L1000.76,1537.5L1023.06,1533.49C1029.26,1539.82 1044.68,1562.4 1044.68,1569.96C1044.68,1575.06 1037.66,1573.53 1037.66,1577.81C1037.66,1580.73 1041.1,1580.73 1043.16,1580.73L1063.52,1580.73C1065.45,1580.73 1068.2,1580.73 1068.2,1577.94C1068.2,1575.74 1066.28,1575.33 1064.62,1574.65C1060.36,1572.73 1059.4,1570.79 1057.46,1566.51C1051.54,1553.57 1045.22,1540.9 1035.86,1530.19C1047.14,1525.09 1058.42,1516.84 1058.42,1503.05C1058.42,1495.48 1054.57,1488.89 1048.1,1484.77C1041.9,1480.64 1034.88,1479.93 1027.58,1479.93L984.781,1479.93C982.447,1479.93 979.827,1480.08 979.827,1483.09C979.827,1485.57 981.759,1485.99 983.822,1486.54C985.611,1487.1 988.361,1487.5 988.361,1489.71L988.361,1566.11C988.218,1571.61 988.776,1572.57 983.549,1574.22C981.759,1574.93 980.099,1575.33 980.099,1577.67C980.099,1580.56 982.849,1580.73 985.054,1580.73L1003.5,1580.73C1005.84,1580.73 1008.59,1580.73 1008.59,1577.67C1008.59,1575.19 1006.8,1574.93 1005.01,1574.1C1003.24,1573.41 1000.76,1573.14 1000.76,1571.07ZM1000.76,1530.33L1000.76,1497.42C1000.76,1494.53 1000.63,1490.68 1003.24,1488.92C1005.71,1487.11 1012.46,1487.11 1015.62,1487.11C1027.59,1487.11 1044.39,1489.16 1044.39,1504.71C1044.39,1524.96 1015.48,1527.99 1000.76,1530.33ZM1102,1554.83L1097.05,1569.02C1095.96,1571.78 1095.26,1572.58 1092.78,1574.23C1091.54,1575.06 1090.58,1575.9 1090.58,1577.55C1090.58,1581.56 1097.05,1580.74 1099.53,1580.74L1107.51,1580.74C1109.98,1580.74 1115.76,1581.7 1115.76,1577.68C1115.76,1573.56 1108.47,1575.63 1108.47,1567.1C1108.47,1562.29 1113.29,1550.86 1114.8,1545.49L1159.54,1545.49L1160.5,1548.1C1161.87,1551.66 1167.79,1567.79 1167.79,1570.39C1167.79,1574.8 1160.76,1573.28 1160.76,1577.56C1160.76,1580.46 1163.51,1580.76 1165.71,1580.76L1182.78,1580.76C1185.12,1580.76 1188.28,1580.88 1188.28,1577.69C1188.28,1576.05 1187.32,1575.36 1185.94,1574.68C1183.32,1573.3 1182.22,1572.48 1181.13,1569.72L1175.75,1554.85C1168.73,1532.69 1157.86,1506.54 1146.15,1486.58C1145.19,1484.93 1141.05,1477.23 1138.45,1477.23C1136.38,1477.23 1133.35,1483.29 1131.56,1486.58L1102,1554.83ZM1157.34,1538.31L1117.01,1538.31L1136.83,1493.44L1155.83,1534.86L1157.34,1538.31ZM1292.16,1496.89L1292.16,1554.83C1284.75,1542.72 1277.44,1531.02 1269.87,1520.99L1262.85,1511.61C1257.07,1503.91 1238.5,1479.82 1234.63,1479.95L1218.81,1479.95C1217.02,1479.95 1214.81,1480.38 1214.81,1482.59C1214.81,1485.04 1217.29,1485.32 1219.08,1485.75C1225.14,1487 1225.14,1491.52 1225.14,1496.75L1225.14,1564.34C1225.14,1570.95 1226.23,1572.87 1219.21,1574.24C1217.42,1574.67 1215.9,1575.36 1215.9,1577.56C1215.9,1579.77 1217.42,1580.76 1219.48,1580.76L1238.2,1580.76C1240.13,1580.76 1241.78,1579.77 1241.78,1577.56C1241.78,1574.67 1239.85,1574.4 1237.38,1573.84C1233.39,1572.75 1233.26,1570.95 1233.26,1567.23L1233.26,1493.05C1249.49,1510.25 1262.01,1530.34 1274.84,1550.03C1281.02,1559.52 1288.18,1568.63 1293.28,1578.81C1293.97,1580.17 1295.2,1582.82 1297.13,1582.82C1300.98,1582.82 1300.3,1578.13 1300.3,1575.5L1300.3,1496.09C1300.3,1494.73 1300.14,1490.72 1300.57,1489.34C1301.13,1487.54 1303.31,1487.01 1304.98,1486.31C1306.47,1485.78 1308.4,1485.22 1308.4,1483.14C1308.4,1480.81 1306.48,1479.98 1304.42,1479.98L1287.51,1479.98C1285.56,1479.98 1283.79,1480.69 1283.79,1483.02C1283.79,1485.78 1285.99,1486.02 1288.2,1486.74C1290.12,1487.27 1291.49,1487.7 1291.89,1489.9C1292.32,1491.52 1292.16,1495.09 1292.16,1496.89ZM1427.69,1505.15L1427.69,1495.22C1427.56,1493.3 1427.28,1491.37 1426.04,1489.59C1424.79,1487.79 1420.38,1485.47 1418.46,1484.35C1410.35,1480.11 1401.33,1477.9 1392.17,1477.89C1361.63,1477.89 1338.38,1504.44 1338.38,1534.18C1338.38,1562.4 1361.07,1582.79 1388.61,1582.79C1397.43,1582.79 1406.92,1580.29 1414.34,1575.62C1417.79,1573.54 1428.1,1565.68 1428.1,1561.16C1428.1,1559.36 1426.88,1557.86 1425.09,1557.86C1422.76,1557.86 1421.24,1560.2 1419.85,1561.56C1411.34,1570.09 1402.93,1574.93 1390.83,1574.93C1378.84,1574.93 1368.1,1570.65 1360.96,1560.6C1355.18,1552.34 1352.42,1539.95 1352.42,1530.06C1352.42,1518.36 1355.87,1508.32 1363.29,1499.23C1370.87,1489.88 1379.53,1484.91 1391.67,1484.91C1398.13,1484.91 1404.18,1486.71 1409.42,1490.41C1415.05,1494.53 1417.26,1498.67 1420.14,1504.6C1420.97,1506.24 1422.06,1509.84 1424.26,1509.84C1427,1509.84 1427.69,1507.48 1427.69,1505.15ZM1478.02,1557.03L1478.02,1530.06L1505.13,1530.06C1508.69,1530.06 1510.37,1530.06 1513.11,1532.53C1513.93,1533.36 1514.91,1534.34 1516.14,1534.34C1519.86,1534.34 1519.59,1531.02 1519.43,1528.28C1519.43,1526.2 1520.39,1518.34 1516.67,1518.34C1515.18,1518.34 1514.62,1519.17 1513.66,1520.15C1510.77,1522.75 1508.16,1522.91 1504.44,1522.91L1478.02,1522.91L1478.02,1497.85C1477.46,1489.88 1480.07,1487.11 1486.96,1487.11L1509.12,1487.11C1515.18,1487.11 1521.08,1491.37 1524.8,1496.05C1525.35,1496.78 1526.22,1497.2 1527.14,1497.16C1528.53,1497.16 1529.34,1496.34 1529.5,1494.96L1528.38,1486.56C1527.98,1483.79 1526.89,1480.78 1523.44,1479.94L1462.47,1479.94C1460.11,1479.94 1457.5,1480.1 1457.5,1482.98C1457.5,1485.45 1459.31,1485.87 1461.23,1486.43C1465.21,1487.11 1465.63,1490.12 1465.63,1493.44L1465.63,1566.12C1465.63,1571.5 1466.04,1572.58 1460.82,1574.23C1459.02,1574.79 1457.5,1575.35 1457.5,1577.55C1457.5,1580.56 1460.11,1580.74 1462.32,1580.74L1526.45,1580.74C1532.66,1580.56 1532.11,1580.87 1533.34,1573.83C1533.74,1571.35 1534.7,1567.22 1534.7,1564.89C1534.7,1563.65 1533.89,1562.53 1532.49,1562.53C1530.72,1562.53 1528.64,1564.89 1527.4,1565.98C1522.59,1570.55 1517.77,1573.56 1510.76,1573.56L1490.11,1573.56C1479.11,1573.54 1478.02,1568.33 1478.02,1557.03Z" style="fill:rgb(51,52,142);"/>
    </g>
</svg>
