<?xml version="1.0" encoding="UTF-8" standalone="no"?>
<!DOCTYPE svg PUBLIC "-//W3C//DTD SVG 1.1//EN" "http://www.w3.org/Graphics/SVG/1.1/DTD/svg11.dtd">
<svg width="100%" height="100%" viewBox="0 0 300 150" version="1.1" xmlns="http://www.w3.org/2000/svg" xmlns:xlink="http://www.w3.org/1999/xlink" xml:space="preserve" xmlns:serif="http://www.serif.com/" style="fill-rule:evenodd;clip-rule:evenodd;stroke-linejoin:round;stroke-miterlimit:2;">
    <g transform="matrix(0.0802734,0,0,0.0802734,50.1596,48.9592)">
        <path d="M229.02,8.94C266.35,0.23 305.39,-0.88 343.18,5.45C349.01,6.37 354.61,9 358.86,13.12C364.5,18.79 366.46,27.42 364.85,35.14C363.77,41.4 360.21,46.78 357.38,52.34C342.47,79.7 324.86,105.46 307.31,131.17C304.89,122.19 301.88,113.34 298.09,104.84C297.7,103.64 296.67,102.38 297.14,101.08C297.24,100.91 297.46,100.58 297.57,100.42C295.2,99.84 294.82,97.13 293.8,95.29C285.45,78.28 275.22,62.21 263.8,47.1C262.1,44.42 257.92,42.81 255.53,45.53C253.65,49.84 256.99,53.89 257.92,57.99C263.94,78.97 261.64,101.25 257.6,122.38C252.12,150.44 241.99,177.27 232.3,204.08C228.35,199.44 225.8,192.87 227.71,186.83C232.47,170.09 238.2,153.65 243,136.92C243.91,136.41 244.82,135.9 245.73,135.38C245.12,135.37 243.89,135.35 243.28,135.33C249.52,113.24 252.2,89.58 246.89,67C242.97,49.94 235.99,33.47 225.83,19.18C224.38,17.15 223.49,14.81 223.15,12.35C224.59,10.44 226.7,9.36 229.02,8.94Z" style="fill:rgb(1,89,157);fill-rule:nonzero;"/>
    </g>
    <g transform="matrix(0.0802734,0,0,0.0802734,50.1596,48.9592)">
        <path d="M441.12,46.05C442.59,42.73 446.78,44.38 449.04,45.9C481.92,66.32 510.59,93.47 532.86,125.12C536.38,130.35 538.48,136.75 537.68,143.1C536.86,150.7 531.81,157.36 525.35,161.22C521.25,163.83 516.53,165.13 511.92,166.48C481.21,175.89 449.55,181.62 418.07,187.72C420.49,182.8 423.49,178.15 425.43,173.01C426.69,172.83 427.95,172.66 429.2,172.38C428.36,172.38 426.68,172.37 425.84,172.37C436.28,150.06 442.29,125.89 445.99,101.61C446.38,101.39 447.14,100.95 447.53,100.73C445.81,97.83 447.87,93.49 444.7,91.31C442.18,89.48 438.94,91.43 438.11,94.09C431.58,109.65 419.81,122.32 406.98,132.98C381.23,154.14 350.97,168.77 320.87,182.62C320.8,182.27 320.67,181.56 320.6,181.2C320.56,181.6 320.48,182.39 320.44,182.78C318.1,184.14 315.54,185.05 313.06,186.1C314.02,181.86 315.25,177.5 318.11,174.11C320.23,171.42 323.52,170.17 326.42,168.54C342.13,159.78 358.5,152.24 373.89,142.91C389.88,133.55 404.67,121.69 415.74,106.71C425.97,92.63 433.49,76.57 437.77,59.7C438.95,55.17 439.11,50.33 441.12,46.05Z" style="fill:rgb(1,89,157);fill-rule:nonzero;"/>
    </g>
    <g transform="matrix(0.0802734,0,0,0.0802734,50.1596,48.9592)">
        <path d="M125.97,54.98C130.88,51.47 136.87,49.23 142.97,49.59C150.97,49.9 158.23,54.95 162.39,61.62C165.64,66.77 167,72.78 168.88,78.5C168.23,78.46 166.93,78.37 166.28,78.33C167.39,79.18 169.14,79.59 169.59,81.05C177.92,110.04 183.51,139.73 189.07,169.35C174.06,161.01 158.16,154.05 141.49,149.83C141.5,149.38 141.51,148.47 141.51,148.01C141.44,148.41 141.29,149.2 141.21,149.6C127.35,145.62 113.16,142.82 98.9,140.76C96.05,140.08 91.85,141.7 92.07,145.11C92.06,147.82 94.85,149.04 96.94,150C104.1,153.09 110.71,157.36 116.63,162.43C130.18,173.64 140.87,187.84 150.44,202.49C165.02,225.13 176.35,249.64 187.53,274.08C183.44,273.66 179.38,272.31 176.08,269.81C173.37,267.7 171.93,264.5 170.25,261.61C164.2,250.55 158.59,239.26 152.63,228.14C152.92,227.96 153.48,227.61 153.77,227.43C153.39,227.5 152.64,227.64 152.26,227.71C144.57,212.76 135.57,198.3 124.07,185.96C107.27,167.85 84.68,155.65 60.85,149.65C56.44,148.38 51.67,148.31 47.48,146.34C44.53,144.97 45.49,141.17 46.97,139.02C67.28,106.06 94.36,77.32 125.97,54.98Z" style="fill:rgb(1,89,157);fill-rule:nonzero;"/>
    </g>
    <g transform="matrix(0.0802734,0,0,0.0802734,50.1596,48.9592)">
        <path d="M11.68,232.04C16.13,225.46 24.12,221.64 32.03,222.04C37.43,222.2 42.65,224 47.34,226.62C76.81,241.99 104.27,260.82 131.71,279.47C131.72,279.68 131.74,280.11 131.75,280.32C103.92,287.92 78.34,302.1 55.02,318.86C51.79,321.36 47.7,323.2 45.73,326.98C44.59,329.68 47.08,331.48 48.05,333.7C48.09,333.36 48.17,332.69 48.21,332.35C49.03,332.36 50.67,332.39 51.49,332.4C71.52,323.89 94.03,324.96 115.09,328.24C143.16,332.95 170.35,341.97 196.82,352.18C198.54,353.36 200.18,354.64 201.84,355.9C200.85,356.91 199.88,357.93 198.86,358.91C195.88,360.58 192.1,360.76 188.85,359.82C161.19,352.31 134.35,340.84 105.56,338.22C78.27,335.48 50.55,343.06 27.24,357.2C23.18,359.53 19.68,363.07 15,364.16C12.28,364.21 11.18,361.21 10.54,359.06C8.74,351.67 7.35,344.18 6.21,336.65L7.96,336.51C7.49,336.5 6.53,336.49 6.06,336.48C2.07,308.82 1.72,280.62 5.58,252.92C6.62,245.76 7.28,238.09 11.68,232.04Z" style="fill:rgb(1,89,157);fill-rule:nonzero;"/>
    </g>
    <g transform="matrix(0.0802734,0,0,0.0802734,50.1596,48.9592)">
        <path d="M568.37,224.3C570.32,222.86 572.58,221.84 575.06,221.89C577.23,223.11 578.01,225.68 578.59,227.94C587.23,265.55 588.41,304.89 581.71,342.91C580.35,350.41 576.01,357.73 569.02,361.21C561.15,365.42 551.35,364.44 543.61,360.41C519.17,347.94 496.18,332.87 473.45,317.56C467.86,313.66 461.99,310.13 456.62,305.92C463.78,303.66 471.02,301.56 477.93,298.59C478.12,299.3 478.34,300 478.58,300.71C478.62,300.1 478.7,298.89 478.74,298.28C499.14,290.09 518.02,278.56 535.82,265.76C539.43,263.26 545.4,259.69 542.64,254.48C538.55,251.96 534.41,255.11 530.43,256.18C510.49,262.22 489.18,260.49 468.95,256.9C453.14,254.16 437.78,249.44 422.43,244.87C422.48,244.42 422.57,243.51 422.61,243.06C422.52,243.45 422.32,244.23 422.23,244.62C409.05,240.3 396.01,235.55 383.07,230.57C387.83,227.73 393.23,224.58 399,225.88C423.45,232.45 447.11,242.11 472.16,246.34C490.8,249.48 510.24,248.98 528.37,243.35C529.08,244.07 529.91,244.63 530.86,245.03C530.43,244.57 529.57,243.63 529.15,243.17C543.06,238.92 556.56,232.87 568.37,224.3Z" style="fill:rgb(1,89,157);fill-rule:nonzero;"/>
    </g>
    <g transform="matrix(0.0802734,0,0,0.0802734,50.1596,48.9592)">
        <path d="M401.28,311.75C405.59,312.46 409.96,313.82 413.38,316.66C415.79,318.67 417.04,321.63 418.55,324.3C429.12,343.4 438.06,363.45 450.29,381.6C451.1,383.19 453.24,384.57 452.59,386.56C452.87,386.51 453.45,386.41 453.73,386.37C471.7,412.73 500.74,430.54 531.72,437.11C531.77,437.51 531.87,438.32 531.92,438.72C532,438.34 532.17,437.57 532.25,437.19C535.51,437.95 538.99,438.28 541.97,439.95C544.23,441.76 543.25,444.92 541.9,446.97C521.51,480.1 494.23,508.92 462.45,531.34C456.84,535.25 449.76,537.36 442.94,536.06C436.58,534.94 431,530.89 427.36,525.64C423.45,520.46 422.12,514 420.19,507.95C411.28,478.04 405.54,447.31 399.81,416.66C427.61,432.52 459.01,440.88 490.52,445.3C492.99,445.53 496.22,444.54 496.77,441.78C497.26,439.16 494.99,437.17 492.74,436.39C478.73,430.44 467.11,420.13 457.19,408.79C437.49,385.93 423.46,358.92 410.54,331.84C411.14,331.74 412.33,331.53 412.93,331.42C412.03,331.46 411.14,331.51 410.25,331.56C407.52,324.84 404.18,318.39 401.28,311.75Z" style="fill:rgb(1,89,157);fill-rule:nonzero;"/>
    </g>
    <g transform="matrix(0.0802734,0,0,0.0802734,50.1596,48.9592)">
        <path d="M348.18,405.11C351.12,397.41 353.5,389.49 356.88,381.98C360.01,386.6 362.79,392.2 361.47,397.93C355.01,421.63 345.77,444.6 341.4,468.86C338.47,484.52 338.39,500.69 341.28,516.37C339.2,517.87 342.58,519.34 342.44,521.13C346.24,536.03 352.12,550.52 360.63,563.37C362.54,566.41 365.44,569.24 365.54,573.04C364.96,575.55 362.26,576.46 360.05,576.99C322.47,585.81 283.13,586.91 245.09,580.42C239.05,579.44 233.25,576.54 229.19,571.92C224.19,566.32 222.58,558.25 223.97,550.99C225.27,543.95 229.34,537.93 232.56,531.67C247.29,505.09 264.32,479.87 281.6,454.91C282.26,459.21 284.88,463.23 284.68,467.6C284.91,467.58 285.38,467.54 285.62,467.51C293.69,492.4 307.69,514.89 322.85,536.04C324.54,538.29 326.16,541.04 329.07,541.81C331.46,542.53 334.08,540.48 333.97,538.01C333.85,535.07 332.27,532.46 331.47,529.68C326.36,513.71 326.63,496.6 328.58,480.12C331.88,454.4 339.49,429.47 348.18,405.11Z" style="fill:rgb(1,89,157);fill-rule:nonzero;"/>
    </g>
    <g transform="matrix(0.0802734,0,0,0.0802734,50.1596,48.9592)">
        <path d="M78.18,419.09C108.54,410.02 139.72,404.18 170.82,398.32C155.06,425.84 146.74,456.96 142.23,488.16C141.74,490.77 142.37,493.97 144.94,495.28C147.89,496.16 150.2,493.68 151.08,491.15C160.06,470.55 177.62,455.37 195.55,442.62C220.52,425.28 248.13,412.23 275.82,399.91C274.76,404.33 273.46,408.95 270.36,412.42C267.95,414.87 264.69,416.19 261.76,417.89C240.8,429.37 218.72,439.08 199.42,453.35C187.18,462.36 176.4,473.47 168.28,486.34C160.45,498.86 154.5,512.59 150.96,526.94C149.85,531.22 149.68,535.79 147.81,539.86C146.48,542.78 142.59,541.93 140.43,540.47C107.56,520.15 78.82,493.15 56.51,461.58C52.8,456.54 50.57,450.26 51.1,443.96C51.56,436.15 56.49,429.13 63.02,425.06C67.56,421.94 73.02,420.79 78.18,419.09Z" style="fill:rgb(1,89,157);fill-rule:nonzero;"/>
    </g>
    <g transform="matrix(0.0802734,0,0,0.0802734,50.1596,48.9592)">
        <path d="M868.93,197.84C873.42,194.21 879.24,192.54 884.97,192.63C900.28,192.64 915.6,192.6 930.91,192.65C938.2,192.69 945.88,195.77 949.97,202.04C955.26,210.06 960.67,218 966.02,225.98C967.33,227.82 967.95,230.01 969,232C1009.45,292.53 1049.91,353.06 1090.36,413.6C1092.37,416.58 1094.49,419.49 1096.21,422.67C1077.24,422.77 1058.28,422.7 1039.31,422.72C1032.45,412.06 1025.53,401.43 1018.58,390.83C1019.16,390.73 1020.34,390.51 1020.92,390.4C1020.27,390.45 1018.95,390.55 1018.29,390.6C1015.94,386.56 1013.24,382.74 1010.84,378.73C998.57,378.58 986.29,378.69 974.03,378.65C967.82,378.32 962.83,382.68 958.83,386.88C945.83,400.19 932.78,413.45 919.76,426.72C917.36,429.1 914.22,430.6 911,431.46C909.52,432.51 908.59,430.69 907.28,430.55C906.62,431.01 905.31,431.93 904.66,432.39C904.49,431.88 904.15,430.86 903.99,430.34C903.88,430.71 903.68,431.45 903.57,431.82C899.97,430.64 896.43,429.04 893.77,426.28C881.52,414.18 869.69,401.66 857.6,389.42C854.22,386.22 851.38,382.22 846.95,380.4C843.24,378.52 838.98,378.61 834.94,378.64C824.4,378.74 813.85,378.53 803.31,378.72C793.89,393.44 784.21,408 774.77,422.71C755.78,422.76 736.78,422.67 717.78,422.75C726.76,408.47 736.65,394.77 745.66,380.5C747.72,381.17 748.04,380.66 746.62,379.46C757.37,362.92 768.67,346.73 779.32,330.12C779.72,330.51 780.51,331.29 780.91,331.68C780.47,331.1 780.03,330.53 779.61,329.96C807.36,288.57 834.97,247.09 862.7,205.69C864.58,202.94 866.2,199.88 868.93,197.84M897.32,234.19C874.05,270.52 850.2,306.48 826.87,342.77C834.93,342.73 842.99,342.76 851.06,342.75C858.21,342.78 865.7,344.11 871.61,348.39C874.98,350.73 877.4,354.1 880.25,357.01C888.56,365.65 896.54,374.6 904.97,383.11C906.23,384.52 908.37,383.9 909.48,382.62C919.7,372.1 929.56,361.24 939.68,350.62C945.28,345.12 953.36,343.02 961.02,342.78C969.75,342.71 978.48,342.77 987.21,342.73C983.31,336.41 979.13,330.27 975.1,324.04C972.38,319.62 968.95,315.56 967.29,310.57C950.88,285.04 934.06,259.75 917.74,234.15C910.93,233.98 904.12,233.94 897.32,234.19Z" style="fill:rgb(91,91,91);fill-rule:nonzero;"/>
    </g>
    <g transform="matrix(0.0802734,0,0,0.0802734,50.1596,48.9592)">
        <path d="M1117.13,206.08C1128.75,196.46 1144.19,192.68 1159.03,192.63C1225.7,192.62 1292.37,192.64 1359.03,192.62C1370.16,192.43 1380.63,199.87 1385.1,209.89C1388.67,217.44 1387.09,225.98 1387.43,234.03C1316.28,234.06 1245.14,234.04 1174,234.04C1167.26,234.04 1160.03,233.6 1154.01,237.17C1149.95,239.45 1148.68,244.33 1147.71,248.53C1146.04,257.28 1146.21,266.47 1148.74,275.04C1149.82,278.84 1152.55,282.26 1156.31,283.68C1160.34,285.23 1164.72,285.5 1169.01,285.57L1314.02,285.57C1326.02,285.85 1338.17,284.69 1350.04,286.99C1365.23,289.81 1380.46,298.12 1387.57,312.38C1396.1,328.96 1398.05,348.35 1396.03,366.69C1395.58,366.76 1394.68,366.9 1394.23,366.97C1394.69,367.05 1395.61,367.22 1396.07,367.31C1394.57,378.05 1391.89,388.85 1386.27,398.24C1385.01,400.16 1384.03,402.96 1381.27,402.71L1383.02,402.91C1371.83,416.84 1353.29,422.48 1335.97,422.68C1271.96,422.71 1207.95,422.69 1143.93,422.7C1133.25,422.85 1123.39,415.61 1118.76,406.25C1114.76,398.53 1116.36,389.6 1116.08,381.27C1185.74,381.29 1255.4,381.29 1325.06,381.27C1329.63,381.34 1334.26,380.82 1338.47,378.95C1338.86,380.73 1341,381.4 1339.1,378.6C1344.73,376.26 1344.45,369.53 1347.59,365.31L1347.24,364.96C1346.28,362.45 1347.49,359.62 1347.39,356.98C1347.46,348.85 1347.17,340.16 1343.02,332.94C1339.01,327.93 1331.98,327.06 1325.98,327.01C1269.98,326.92 1213.97,327.02 1157.97,326.96C1146.33,326.98 1134.78,324.11 1124.44,318.77C1124.46,318.1 1124.51,316.76 1124.53,316.09C1124.43,316.68 1124.23,317.85 1124.13,318.43C1114.19,312.92 1106.8,303.6 1102.94,292.99C1096.18,274.91 1095.57,254.76 1099.98,236.06C1102.83,224.81 1107.87,213.49 1117.13,206.08Z" style="fill:rgb(91,91,91);fill-rule:nonzero;"/>
    </g>
    <g transform="matrix(0.0802734,0,0,0.0802734,50.1596,48.9592)">
        <path d="M1433.13,192.7C1537.87,192.51 1642.61,192.7 1747.36,192.61C1747.4,206.42 1747.37,220.23 1747.37,234.04C1703.16,234.03 1658.96,234.08 1614.75,234.01C1614.62,296.89 1614.8,359.77 1614.67,422.65C1598.42,422.76 1582.18,422.65 1565.94,422.72C1565.73,359.84 1565.87,296.96 1565.87,234.07C1521.64,233.97 1477.4,234.12 1433.17,234C1433.15,220.24 1433.22,206.47 1433.13,192.7Z" style="fill:rgb(91,91,91);fill-rule:nonzero;"/>
    </g>
    <g transform="matrix(0.0802734,0,0,0.0802734,50.1596,48.9592)">
        <path d="M1833.03,193.84C1845.22,191.77 1857.64,192.93 1869.95,192.63C1940.23,192.7 2010.52,192.49 2080.8,192.73C2080.71,206.47 2080.72,220.21 2080.8,233.95C2007.54,234.16 1934.27,234 1861,234.03C1853.89,234.1 1845.98,233.45 1839.91,237.86C1834.87,241.52 1833.72,248.2 1833.81,254.03C1833.91,265.01 1833.69,275.99 1833.91,286.96C1909.38,286.97 1984.85,286.94 2060.31,286.97C2060.36,300.76 2060.32,314.55 2060.33,328.34C2000.87,328.42 1941.42,328.35 1881.96,328.37C1865.88,328.5 1849.79,328.12 1833.73,328.56C1834.05,340.67 1833.58,352.8 1833.97,364.91C1834.06,370.08 1836.39,375.39 1840.91,378.17C1846.32,381.41 1852.86,381.38 1858.98,381.28L2080.75,381.28C2080.37,389.09 2081.95,397.34 2078.71,404.74C2074.37,415.19 2063.51,423.14 2052,422.71C1983.65,422.67 1915.29,422.71 1846.94,422.69C1830.87,422.66 1814.09,418.1 1802.26,406.75C1793.75,398.63 1788.4,387.46 1786.62,375.89C1785.06,367.01 1785.71,357.96 1785.58,348.99C1785.58,316.67 1785.57,284.34 1785.58,252.02C1785.59,239.6 1788.38,226.88 1795.51,216.53C1804,203.99 1818.24,196.2 1833.03,193.84Z" style="fill:rgb(91,91,91);fill-rule:nonzero;"/>
    </g>
    <g transform="matrix(0.0802734,0,0,0.0802734,50.1596,48.9592)">
        <path d="M2166.5,201.48C2177.08,194.94 2189.72,192.69 2202.01,192.63C2260.33,192.64 2318.66,192.6 2376.98,192.65C2392.73,192.54 2408.39,199.23 2418.92,211.01C2428.36,221.3 2434.29,234.42 2437.37,247.96C2441.43,265.36 2441,283.78 2436.38,301.03C2432.06,316.66 2423.7,331.73 2410.46,341.49C2399.16,350.11 2384.61,352.93 2370.67,352.27C2373.18,356.61 2377.23,359.74 2380.35,363.62C2394.62,379.19 2408.45,395.18 2422.98,410.5C2422.52,410.8 2421.61,411.4 2421.16,411.7C2421.66,411.53 2422.67,411.21 2423.18,411.05C2426.52,414.93 2430.35,418.44 2433.24,422.7C2415.15,422.71 2397.06,422.67 2378.98,422.72C2377.66,422.6 2376.1,423 2375.21,421.82C2371.07,417.46 2367.35,412.7 2363,408.55C2363.22,407.78 2363.47,407 2363.75,406.23C2363.43,406.66 2362.78,407.52 2362.45,407.95C2346.19,389.11 2329.21,370.89 2312.72,352.26C2272.77,352.22 2232.81,352.29 2192.85,352.23C2192.74,375.72 2192.85,399.21 2192.8,422.7C2176.77,422.72 2160.74,422.63 2144.72,422.74C2144.37,365.85 2144.68,308.93 2144.57,252.03C2144.46,243.72 2144.97,235.3 2147.45,227.32C2150.38,216.79 2157.15,207.25 2166.5,201.48M2197.13,236.16C2192.87,239.33 2192.93,245.2 2192.81,249.98C2192.87,280.41 2192.69,310.84 2192.9,341.26C2203.75,331.66 2214.1,321.48 2224.78,311.69C2226.75,310.08 2229.59,311.11 2231.96,310.83C2278.66,310.86 2325.37,310.85 2372.08,310.84C2377.56,310.99 2382.79,308.17 2386.24,303.99C2391.89,297.28 2394.23,288.43 2395.22,279.88C2396.4,268.44 2395.07,256.46 2389.81,246.13C2386.39,239.49 2379.86,233.77 2372.01,234.04C2317.65,234.05 2263.3,234.04 2208.95,234.05C2204.96,234.21 2200.66,234.07 2197.13,236.16Z" style="fill:rgb(91,91,91);fill-rule:nonzero;"/>
    </g>
    <g transform="matrix(0.0802734,0,0,0.0802734,50.1596,48.9592)">
        <path d="M196.82,352.18C199.83,353 202.74,354.09 205.66,355.18C203.7,356.93 201.35,358.13 198.86,358.91C199.88,357.93 200.85,356.91 201.84,355.9C200.18,354.64 198.54,353.36 196.82,352.18Z" style="fill:rgb(91,91,91);fill-rule:nonzero;"/>
    </g>
</svg>
