<?xml version="1.0" encoding="UTF-8" standalone="no"?>
<!DOCTYPE svg PUBLIC "-//W3C//DTD SVG 1.1//EN" "http://www.w3.org/Graphics/SVG/1.1/DTD/svg11.dtd">
<svg width="100%" height="100%" viewBox="0 0 300 150" version="1.1" xmlns="http://www.w3.org/2000/svg" xmlns:xlink="http://www.w3.org/1999/xlink" xml:space="preserve" xmlns:serif="http://www.serif.com/" style="fill-rule:evenodd;clip-rule:evenodd;stroke-linejoin:round;stroke-miterlimit:2;">
    <g transform="matrix(0.0786927,0,0,0.0772128,49.5427,-24.4827)">
        <g transform="matrix(2.3881,0,0,2.43387,58.4062,33.2895)">
            <path d="M169.93,356C175.7,351.72 182.88,349.76 189.98,349.4C211.02,349.43 232.06,349.4 253.1,349.42C261.92,350.29 271.43,352.59 277.52,359.53C285.91,369.18 290.44,381.33 296.71,392.32C328.55,452.85 360.39,513.37 392.3,573.87C363.55,573.83 334.8,573.81 306.05,573.88C304.64,573.68 302.94,574.25 301.72,573.4C297.29,566.34 294.13,558.58 289.89,551.41C287.72,547.73 286.07,543.78 283.93,540.08C233.89,540.01 183.85,540.17 133.81,540C128.75,548.67 124.5,557.76 119.9,566.67C118.57,569.04 117.83,571.89 115.71,573.71C93.86,574.06 71.98,573.68 50.12,573.9C66.32,542.9 82.96,512.13 99.26,481.19C118.27,445.54 137.1,409.77 156.17,374.16C160.15,367.7 163.97,360.89 169.93,356M199.61,412.67C185.21,438.84 171.29,465.27 156.82,491.41C190.61,491.42 224.41,491.48 258.2,491.37C256.96,486.58 253.97,482.53 251.76,478.17C239.27,453.24 226.73,428.35 214.26,403.42C213.22,401.72 211.43,400.74 209.8,399.7C203.93,401.41 202.37,407.97 199.61,412.67Z" style="fill:rgb(5,55,108);fill-rule:nonzero;"/>
        </g>
        <g transform="matrix(2.3881,0,0,2.43387,58.4062,33.2895)">
            <path d="M383.21,349.4C413.16,349.41 443.11,349.44 473.06,349.39C473.07,402.94 473.05,456.5 473.07,510.06C473.59,521.41 482.48,530.24 492.25,534.84C508.68,542.28 527.48,543.46 545.04,540.01C555.03,537.81 565.06,533.9 572.31,526.42C576.58,521.65 579.06,515.36 579.2,508.96C579.14,463.98 579.22,419 579.16,374.03C578.79,366.04 583.14,358.08 589.82,353.79C594.8,350.43 600.99,349.15 606.94,349.4C650.62,349.43 694.3,349.41 737.98,349.41C745.27,349.5 752.78,348.73 759.8,351.21C764.99,353.26 769.97,356.12 773.87,360.17C787.58,376.48 801.2,392.88 814.93,409.19C817.44,406.63 820.06,404.17 822.52,401.55C828.17,394.33 835.39,388.54 841.27,381.52C847.45,374.93 853.86,368.57 860.19,362.13C863.92,357.64 868.15,353.6 872.16,349.36C897.32,349.55 922.48,349.24 947.63,349.51C937.95,358.54 929.53,368.73 920.1,378C915,384.24 909.05,389.71 903.5,395.53C898.5,401.78 892.48,407.09 887.03,412.92C880.83,420.74 872.89,426.98 866.69,434.79C860.89,440.36 855.75,446.57 849.99,452.17C863.43,469.29 877.63,485.85 891.36,502.77C908.5,523.54 925.6,544.36 942.74,565.13C944.92,568.13 947.95,570.54 949.43,574.02C934.96,573.62 920.48,573.95 906,573.84C886.29,573.93 866.57,573.67 846.86,573.97C829.62,552.92 812.28,531.94 795.14,510.8C792.77,513.24 790.26,515.56 788.23,518.31C783.02,524.37 776.76,529.46 771.82,535.76C768.04,539.98 763.8,543.75 760.01,547.95C754.99,554.3 748.71,559.5 743.49,565.67C741.09,568.57 738.37,571.18 735.73,573.86C714.15,573.82 692.57,573.85 670.98,573.84C666.06,573.88 661.13,573.65 656.23,574.14C665.56,563.87 675.3,553.97 685.18,544.22C693.82,534.26 703.5,525.26 712.67,515.79C719.69,507.18 728.41,500.12 735.52,491.59C743.47,483.4 751.54,475.32 759.54,467.18C734.83,437.33 710.33,407.29 685.34,377.68C682.39,374.23 677.95,372.93 673.7,371.92C670.83,372.69 667.01,374.34 667.31,377.9C667.22,422.94 667.33,467.97 667.26,513C666.31,517.44 666.92,522.09 665.47,526.43C662.31,537.22 654.92,546.27 646.12,553.05C636.27,560.93 624.64,566.19 612.96,570.74C581.26,581.94 547.37,585.42 513.93,584.75C509.95,584.31 505.97,583.89 501.95,584.11C491.2,583.13 480.43,581.97 469.81,579.85C457.37,577.49 445.16,573.94 433.33,569.46C419.14,563.14 404.82,555.45 395.17,542.89C387.74,534.03 383.95,522.48 383.85,510.99C383.85,470.32 383.81,429.66 383.86,388.99C382.67,375.84 383.59,362.6 383.21,349.4Z" style="fill:rgb(5,55,108);fill-rule:nonzero;"/>
        </g>
        <g transform="matrix(2.3881,0,0,2.43387,58.4062,33.2895)">
            <path d="M96.68,607.45C101.63,607.37 106.58,607.44 111.52,607.43C111.43,623.02 111.5,638.62 111.49,654.22C107.49,654.2 103.49,654.19 99.49,654.26C99.23,642.92 99.68,631.56 99.13,620.24C98.69,620.17 97.82,620.02 97.38,619.95C87.44,631.32 77.46,642.68 67.68,654.19C64.01,654.22 60.33,654.22 56.66,654.22C69.96,638.6 83.46,623.14 96.68,607.45Z" style="fill:rgb(5,55,108);fill-rule:nonzero;"/>
        </g>
        <g transform="matrix(2.3881,0,0,2.43387,58.4062,33.2895)">
            <path d="M152.56,607.4C165.06,607.45 177.55,607.44 190.05,607.41C192.41,607.42 194.63,608.37 197,608.39C197.36,608.57 198.08,608.92 198.44,609.1C203.19,609.95 206.72,613.62 208.46,617.97C208.43,620.72 208.6,623.67 207.1,626.11C205.07,629.07 201.85,630.96 198.47,632C195.32,633.04 192.03,633.42 188.76,633.85C190.3,634.61 191.93,635.18 193.62,635.52C201.55,640.56 207.6,647.78 214.31,654.22C210.36,654.22 206.42,654.2 202.47,654.23C196.22,648.27 190.68,641.48 183.7,636.35C181.85,635.46 179.81,635.18 177.9,634.48C172.48,634.34 167.05,634.52 161.63,634.36C161.6,640.98 161.6,647.6 161.64,654.22C158.62,654.21 155.6,654.21 152.58,654.23C152.59,638.62 152.63,623.01 152.56,607.4M161.62,612.83C161.61,617.93 161.61,623.04 161.62,628.14C169.43,628.14 177.25,628.1 185.06,628.16C188.65,628.35 191.98,626.8 195.44,626.15C196.78,624.85 198.12,623.55 199.49,622.29C199.81,619.29 198.58,616.6 196.31,614.71C193.93,614.32 191.57,613.76 189.32,612.9C180.09,612.76 170.85,612.89 161.62,612.83Z" style="fill:rgb(5,55,108);fill-rule:nonzero;"/>
        </g>
        <g transform="matrix(2.3881,0,0,2.43387,58.4062,33.2895)">
            <path d="M260.74,615.73C266.46,610.82 273.76,607.5 281.37,607.29C286.03,605.73 291.13,606.81 295.99,606.63C304.22,608.39 314.3,611.26 317.55,620.05C314.24,619.81 310.98,620.27 307.84,621.29C307.19,620.26 306.58,619.2 306.03,618.13C304.23,616.97 302.42,615.82 300.57,614.77C292.15,611.91 283.1,612.36 274.63,614.75C272.2,616.21 269.55,617.49 267.71,619.72C263.64,625.38 262.69,633.52 266.42,639.59C269.37,645.41 276.3,647.16 282.14,648.6C290.2,649.29 299.21,648.9 305.79,643.59C306.83,642.03 307.83,640.45 308.68,638.79C311.89,639.81 315.56,639.18 318.5,640.93C315.56,645.46 311.94,649.75 306.81,651.83C293.9,656.74 278.8,656.46 266.34,650.35C260.55,646.82 257,640.79 255.19,634.39C254.34,627.7 256.23,620.78 260.74,615.73Z" style="fill:rgb(5,55,108);fill-rule:nonzero;"/>
        </g>
        <g transform="matrix(2.3881,0,0,2.43387,58.4062,33.2895)">
            <path d="M330.04,617.01C335.14,610.98 342.89,607.36 350.81,607.3C353.35,605.92 356.3,606.72 359.04,606.54C361.9,606.67 364.94,606.02 367.64,607.3C370.37,607.21 373.03,607.79 375.49,609C381.48,610.62 387.29,614.4 390.22,620.04C394.35,627.3 393.83,636.95 388.89,643.72C386.97,647.4 382.9,648.82 379.87,651.35C365.63,656.61 348.89,657.04 335.41,649.34C331.04,646 326.9,641.64 325.91,636.02C325.05,633.12 325.39,630.06 325.43,627.1C326.76,623.64 327.58,619.9 330.04,617.01M343.26,616.2C335.73,620.05 332.44,629.7 335.39,637.51C338.09,643.05 343.92,645.89 349.49,647.74C350.79,647.89 352.08,648.22 353.28,648.76C357.22,648.82 361.16,648.83 365.11,648.73C371.72,646.87 379.74,644.59 382.38,637.43C385.96,630.53 383.34,621.62 376.92,617.42C374.23,615.91 371.34,614.78 368.4,613.86C360.1,612.16 350.9,612.17 343.26,616.2Z" style="fill:rgb(5,55,108);fill-rule:nonzero;"/>
        </g>
        <g transform="matrix(2.3881,0,0,2.43387,58.4062,33.2895)">
            <path d="M452.27,607.41C455.29,607.42 458.31,607.43 461.34,607.42C461.27,623.02 461.32,638.63 461.31,654.23C458.14,654.21 454.98,654.2 451.83,654.24C439.43,641.74 426.89,629.39 414.52,616.87C414.5,629.32 414.51,641.77 414.52,654.23C411.5,654.21 408.49,654.21 405.48,654.23C405.51,638.61 405.47,622.99 405.49,607.37C408.66,607.44 411.84,607.45 415.01,607.37C427.35,619.9 439.88,632.25 452.29,644.71C452.28,632.27 452.3,619.84 452.27,607.41Z" style="fill:rgb(5,55,108);fill-rule:nonzero;"/>
        </g>
        <g transform="matrix(2.3881,0,0,2.43387,58.4062,33.2895)">
            <path d="M548.55,607.42C551.57,607.42 554.59,607.41 557.62,607.4C557.63,623 557.56,638.6 557.66,654.2C554.63,654.21 551.6,654.22 548.58,654.22C548.58,638.62 548.65,623.02 548.55,607.42Z" style="fill:rgb(5,55,108);fill-rule:nonzero;"/>
        </g>
        <g transform="matrix(2.3881,0,0,2.43387,58.4062,33.2895)">
            <path d="M570.17,607.41C588.49,607.45 606.81,607.44 625.13,607.42C625.12,609.52 625.12,611.64 625.13,613.76C617.32,613.74 609.52,613.78 601.72,613.73C601.73,627.22 601.67,640.71 601.75,654.2C598.72,654.21 595.7,654.21 592.68,654.23C592.75,640.76 592.59,627.28 592.77,613.8C585.24,613.69 577.71,613.77 570.18,613.77C570.17,611.64 570.17,609.52 570.17,607.41Z" style="fill:rgb(5,55,108);fill-rule:nonzero;"/>
        </g>
        <g transform="matrix(2.3881,0,0,2.43387,58.4062,33.2895)">
            <path d="M635.93,607.36C638.92,607.44 641.91,607.44 644.92,607.43C644.88,623.02 644.86,638.61 644.92,654.21L635.87,654.21C635.91,638.59 635.79,622.97 635.93,607.36Z" style="fill:rgb(5,55,108);fill-rule:nonzero;"/>
        </g>
        <g transform="matrix(2.3881,0,0,2.43387,58.4062,33.2895)">
            <path d="M675.51,608.99C678.86,607.51 682.67,607.93 685.99,606.61C691.15,606.86 696.59,605.68 701.57,607.31C704.39,607.19 707.11,607.89 709.65,609.1C718.21,611.19 725.21,618.4 726.75,627.16C726.83,629.55 726.83,631.95 726.78,634.36C725.44,639.85 722.82,645.62 717.76,648.61C715.65,650.07 713.52,651.57 711,652.23C707.81,653.02 704.81,654.6 701.43,654.31C698.83,655.67 695.84,654.99 693.05,655.14C686.92,655.39 680.87,654.06 675.06,652.24C673.17,651.26 671.28,650.31 669.38,649.39C664.97,646.08 660.89,641.67 659.82,636.08C658.95,633.19 659.3,630.14 659.31,627.17C660.84,622.76 662.25,618.01 665.91,614.85C668.92,612.61 671.77,609.94 675.51,608.99M682.67,613.91C678.69,614.96 674.98,617.1 672.21,620.15C668.32,624.96 667.15,631.73 669.29,637.56C670.55,639.93 672.39,641.95 674.53,643.57C685.6,650.91 701.17,650.82 712.08,643.21C717.46,638.68 719.31,630.58 716.69,624.09C715.06,621.86 713.66,619.37 711.34,617.77C708.58,615.99 705.47,614.88 702.38,613.88C695.87,612.42 689.17,612.47 682.67,613.91Z" style="fill:rgb(5,55,108);fill-rule:nonzero;"/>
        </g>
        <g transform="matrix(2.3881,0,0,2.43387,58.4062,33.2895)">
            <path d="M785.28,607.4C788.32,607.4 791.37,607.41 794.42,607.48C794.16,623.06 794.37,638.65 794.31,654.23C791.15,654.21 787.99,654.2 784.84,654.25C772.44,641.74 759.86,629.41 747.53,616.84C747.48,629.3 747.51,641.76 747.52,654.23C744.5,654.21 741.49,654.21 738.48,654.23C738.51,638.61 738.47,622.99 738.5,607.37C741.66,607.43 744.84,607.45 748.02,607.38C760.35,619.9 772.87,632.25 785.29,644.69C785.28,632.26 785.28,619.83 785.28,607.4Z" style="fill:rgb(5,55,108);fill-rule:nonzero;"/>
        </g>
        <g transform="matrix(2.3881,0,0,2.43387,58.4062,33.2895)">
            <path d="M126.49,607.38C129.5,607.43 132.5,607.43 135.51,607.38C135.52,623 135.49,638.61 135.52,654.23C132.51,654.21 129.49,654.21 126.48,654.23C126.5,638.61 126.48,622.99 126.49,607.38Z" style="fill:rgb(5,55,108);fill-rule:nonzero;"/>
        </g>
        <g transform="matrix(2.3881,0,0,2.43387,58.4062,33.2895)">
            <path d="M475.69,607.38C486.45,607.5 497.21,607.39 507.97,607.43C511.84,608.03 515.85,608.25 519.51,609.82C524.91,611.54 529.23,615.65 532.17,620.41C533.87,624.86 534.74,629.51 534.14,634.3C533.08,638.15 532,642.19 529.28,645.26C526.27,648.46 522.26,650.45 518.34,652.3C515.33,653.06 512.07,652.84 509.21,654.1C498.04,654.37 486.86,654.12 475.69,654.23C475.7,638.61 475.7,623 475.69,607.38M484.72,613.74C484.71,625.14 484.7,636.55 484.73,647.96C495.01,647.33 505.56,649.25 515.54,645.99C517.3,644.97 519.04,643.88 520.82,642.89C521.98,641.07 523.16,639.26 524.17,637.35C524.45,636.3 524.76,635.27 525.11,634.26C525.24,631.35 525.47,628.37 524.54,625.58C523.82,623.81 523.05,622.08 522.31,620.33C520.11,617.38 516.57,616.25 513.42,614.69C503.96,613.01 494.29,614.04 484.72,613.74Z" style="fill:rgb(5,55,108);fill-rule:nonzero;"/>
        </g>
        <g transform="matrix(2.3881,0,0,2.43387,58.4062,33.2895)">
            <path d="M810.5,607.36C827.32,607.54 844.14,607.35 860.95,607.46C860.91,609.55 860.9,611.65 860.88,613.76C847.09,613.74 833.3,613.78 819.51,613.74C819.5,618.23 819.5,622.73 819.52,627.23C832.41,627.16 845.31,627.29 858.2,627.16C858.2,629.29 858.2,631.42 858.22,633.56C845.32,633.47 832.42,633.6 819.53,633.49C819.5,638.31 819.47,643.14 819.56,647.97C833.94,647.75 848.33,647.94 862.71,647.87C862.71,649.98 862.72,652.09 862.74,654.21C845.32,654.23 827.9,654.19 810.48,654.23C810.51,638.61 810.46,622.98 810.5,607.36Z" style="fill:rgb(5,55,108);fill-rule:nonzero;"/>
        </g>
        <g transform="matrix(2.3881,0,0,2.43387,58.4062,33.2895)">
            <path d="M876.13,607.46C887.08,607.39 898.04,607.46 909,607.43C915.35,607.19 922.12,608.05 927.55,611.59C931.93,614.9 933.17,620.97 931.01,625.93C926.96,631.35 919.99,633.08 913.6,633.64C913.35,633.76 912.86,634 912.61,634.12C914.03,634.68 915.5,635.09 917.02,635.35C924.96,640.48 931.24,647.58 937.86,654.24C933.95,654.07 930.01,654.5 926.14,654.05C920.89,649.27 916.13,643.97 910.96,639.1C908.56,637.27 906.08,635.18 902.91,635.04C897.17,633.63 891.07,634.81 885.2,634.43C885.23,641.03 885.19,647.62 885.22,654.22C882.19,654.21 879.17,654.21 876.16,654.21C876.19,638.63 876.25,623.04 876.13,607.46M885.21,612.85L885.21,628.13C894.28,628.07 903.36,628.27 912.43,628.03C914.48,627.07 916.71,626.61 918.94,626.22C920.57,624.37 923.67,622.89 923.02,619.96C922.8,617.9 921.59,615.91 919.77,614.89C916.26,613.87 912.71,612.61 909,612.82C901.07,612.88 893.14,612.82 885.21,612.85Z" style="fill:rgb(5,55,108);fill-rule:nonzero;"/>
        </g>
    </g>
</svg>
