<?xml version="1.0" encoding="UTF-8" standalone="no"?>
<!DOCTYPE svg PUBLIC "-//W3C//DTD SVG 1.1//EN" "http://www.w3.org/Graphics/SVG/1.1/DTD/svg11.dtd">
<svg width="100%" height="100%" viewBox="0 0 300 150" version="1.1" xmlns="http://www.w3.org/2000/svg" xmlns:xlink="http://www.w3.org/1999/xlink" xml:space="preserve" xmlns:serif="http://www.serif.com/" style="fill-rule:evenodd;clip-rule:evenodd;stroke-linejoin:round;stroke-miterlimit:2;">
    <g transform="matrix(0.194037,0,0,0.194037,61.066,33.4733)">
        <path d="M642.28,17.56C644.81,16.84 647.55,16.69 650.13,17.29C649.85,101.95 650,186.61 649.17,271.26C648.75,248.5 649.16,225.74 649.08,202.97C649.23,146 649.51,89.02 649.54,32.05C649.41,27.45 650.24,22.67 648.79,18.21C646.83,17.01 644.43,17.41 642.28,17.56Z" style="fill:rgb(139,138,143);fill-rule:nonzero;"/>
    </g>
    <g transform="matrix(0.194037,0,0,0.194037,61.066,33.4733)">
        <path d="M554.82,60.57L554.85,60.13C555.23,98.42 554.85,136.73 555.02,175.02C553.76,195.31 554.38,215.66 554.24,235.98C554.23,274.83 554.25,313.69 554.23,352.55C541.87,352.41 529.47,353.04 517.14,352.17C515.12,351.45 513.11,350.72 511.09,350.03C503.57,346.18 497.26,339.46 494.99,331.21C492.97,324.99 493.67,318.4 493.57,311.98C493.49,263.64 493.74,215.31 493.43,166.98C493.45,163.12 492.99,159.28 492.96,155.43C494.49,162.69 493.89,170.15 494.07,177.51C514.47,177.79 534.64,182.08 553.68,189.33C555.31,167.59 554.15,145.78 554.44,124C554.64,102.86 554.15,81.7 554.82,60.57Z" style="fill:rgb(139,138,143);fill-rule:nonzero;"/>
    </g>
    <g transform="matrix(0.194037,0,0,0.194037,61.066,33.4733)">
        <path d="M23.1,87.19C62.08,87.36 101.06,87.1 140.04,87.33C150.8,88.47 161.63,89.77 171.99,93.03C186.5,97.53 200.48,106.18 207.94,119.81C216.88,135.6 215.55,154.51 214.1,171.92C212.53,179.9 210.08,187.8 205.84,194.8C204.16,197.68 202,200.24 200.25,203.08C211.59,208.05 222.33,215.49 228.59,226.43C235.39,238.05 236.55,251.86 236.24,265.04C236.5,272.38 235.87,279.68 235.17,286.97C234.42,290.22 233.71,293.49 233.03,296.76C231.76,301.61 229.9,306.26 227.99,310.88C221.07,325.22 209.21,337.15 194.67,343.73C183.5,349.03 171.18,351.4 158.93,352.44C135.59,352.77 112.24,352.5 88.9,352.59C72.29,353.12 55.84,346.35 43.62,335.24C34.58,326.83 28.01,315.84 24.93,303.87C24.14,299.63 23.13,295.38 23.13,291.04C23.12,223.09 23.19,155.14 23.1,87.19M81.69,134.14C81.71,148.77 81.73,163.39 81.68,178.02C81.7,179.55 81.64,181.12 82.09,182.61C97.38,183.02 112.7,182.67 128.01,182.78C136.11,182.77 145.45,181.52 150.77,174.68C155.08,169.49 154.95,162.35 154.46,156C153.9,148.34 149.71,140.52 142.51,137.24C132.73,132.34 121.48,134.04 110.95,133.73C101.2,133.96 91.4,133.23 81.69,134.14M81.45,232.63C81.38,248.38 81.5,264.14 81.37,279.89C81.79,289.2 89.92,296.83 99.05,297.56C115.68,297.55 132.33,297.4 148.96,297.63C156.29,297.08 163.88,294.5 168.88,288.89C173.05,283.91 175.29,277.43 175.51,270.96C176.31,261 174.59,249.99 167.48,242.48C161.66,235.87 152.74,232.31 144,232.57C123.15,232.64 102.3,232.53 81.45,232.63Z" style="fill:rgb(139,138,143);fill-rule:nonzero;"/>
    </g>
    <g transform="matrix(0.194037,0,0,0.194037,61.066,33.4733)">
        <path d="M583.89,88.71C584.57,125.14 583.95,161.58 584.37,198.01C584.43,200.89 584.14,203.88 584.98,206.68C588.7,211.09 593.84,214.02 597.87,218.15C627.94,246.71 644.18,287.37 648.63,328.09C649.32,320.02 649.09,311.92 649.11,303.83C650.54,320.04 648.92,336.31 649.39,352.55C634.95,352.43 620.47,352.99 606.05,352.23C599.51,350.13 593.16,346.5 589.34,340.63C585.44,335.24 584.08,328.49 583.95,321.96C583.99,244.21 583.78,166.46 583.89,88.71Z" style="fill:rgb(139,138,143);fill-rule:nonzero;"/>
    </g>
    <g transform="matrix(0.194037,0,0,0.194037,61.066,33.4733)">
        <path d="M332.12,163.5C346.77,159.94 362.17,159.07 377.08,161.48C400.07,165.21 421.88,177.31 436.15,195.88C445.09,207.4 450.6,221.42 452.44,235.86C453.48,250.56 452.86,265.31 453.02,280.03C452.89,304.22 453.3,328.42 452.82,352.6C426.22,352.57 399.62,352.6 373.03,352.59C358.38,352.44 343.55,353.49 329.16,350.07C311.53,345.9 294.26,337.64 282.37,323.63C274.83,315.25 269.89,304.85 266.94,294.04C263.03,279.66 264.37,264.68 264.13,249.97C263.75,226.67 272.96,203.07 289.87,186.88C301.3,175.2 316.37,167.5 332.12,163.5M329.31,229.35C324.67,235.13 323.15,242.7 323.4,249.97C323.64,261.65 321.92,274.7 329.14,284.8C335.31,293.79 346.6,297.16 357,297.63C369.57,297.24 382.14,297.62 394.71,297.4C394.73,280.26 394.72,263.12 394.72,245.98C394.87,238.7 391.71,231.55 386.44,226.57C379.11,219.7 369,216.12 359.01,216.14C347.81,215.45 336.17,220.38 329.31,229.35Z" style="fill:rgb(139,138,143);fill-rule:nonzero;"/>
    </g>
    <g transform="matrix(0.194037,0,0,0.194037,61.066,33.4733)">
        <path d="M810.81,169.48C830.83,169.38 850.87,169.28 870.89,169.52C871.49,180.99 870.97,192.51 871.15,204C871.14,250.99 871.05,297.98 871.11,344.96C871.13,347.51 871.02,350.06 870.76,352.6C839.85,352.57 808.95,352.59 778.05,352.59C768.65,352.87 759.27,352.08 750.09,350.05C737.54,347.03 725.19,342.04 715.32,333.54C707.94,327.84 702.53,320.01 698.08,311.91C696.17,307.66 694.48,303.32 693.11,298.87C692.31,295.56 691.59,292.24 690.77,288.95C690.45,283.61 689.29,278.35 689.36,272.99C689.35,238.45 689.39,203.92 689.34,169.39C709.27,169.45 729.2,169.3 749.13,169.47C749.1,203.64 749.14,237.82 749.12,271.99C749.26,277.25 749.23,282.9 752.27,287.45C755.87,293.67 763.29,295.76 769.84,297.28C783.47,298.16 797.16,297.38 810.83,297.61C810.78,254.9 810.82,212.19 810.81,169.48Z" style="fill:rgb(139,138,143);fill-rule:nonzero;"/>
    </g>
    <g transform="matrix(0.194037,0,0,0.194037,61.066,33.4733)">
        <path d="M616.38,30.28C625.02,26.05 633.74,21.99 642.28,17.56C644.43,17.41 646.83,17.01 648.79,18.21C650.24,22.67 649.41,27.45 649.54,32.05C649.51,89.02 649.23,146 649.08,202.97C649.16,225.74 648.75,248.5 649.17,271.26C649.23,282.12 648.91,292.98 649.11,303.83C649.09,311.92 649.32,320.02 648.63,328.09C644.18,287.37 627.94,246.71 597.87,218.15C593.84,214.02 588.7,211.09 584.98,206.68C584.14,203.88 584.43,200.89 584.37,198.01C583.95,161.58 584.57,125.14 583.89,88.71C583.96,74.53 583.53,60.33 584.02,46.17C586.2,44.43 588.93,43.59 591.37,42.29C599.69,38.25 608.06,34.31 616.38,30.28Z" style="fill:rgb(88,186,71);fill-rule:nonzero;"/>
    </g>
    <g transform="matrix(0.194037,0,0,0.194037,61.066,33.4733)">
        <path d="M550.37,62.19C551.84,61.61 553.3,61.05 554.82,60.57C554.15,81.7 554.64,102.86 554.44,124C554.15,145.78 555.31,167.59 553.68,189.33C534.64,182.08 514.47,177.79 494.07,177.51C493.89,170.15 494.49,162.69 492.96,155.43C491.54,147.75 488.57,139.57 481.56,135.32C472.17,129.56 460.69,130.92 450.2,131.36C449.85,124.33 449.94,117.28 450.09,110.24C451.04,109.4 452.2,108.84 453.3,108.21C459.71,105.37 466.01,102.27 472.36,99.28C478.67,96.24 485.05,93.34 491.36,90.29C497.65,87.21 504.04,84.35 510.34,81.28C510.85,81.04 511.87,80.54 512.38,80.29C518.43,77.38 524.52,74.57 530.58,71.69C537.11,68.39 543.86,65.54 550.37,62.19Z" style="fill:rgb(88,186,71);fill-rule:nonzero;"/>
    </g>
</svg>
