<?xml version="1.0" encoding="UTF-8" standalone="no"?>
<!DOCTYPE svg PUBLIC "-//W3C//DTD SVG 1.1//EN" "http://www.w3.org/Graphics/SVG/1.1/DTD/svg11.dtd">
<svg width="100%" height="100%" viewBox="0 0 300 150" version="1.1" xmlns="http://www.w3.org/2000/svg" xmlns:xlink="http://www.w3.org/1999/xlink" xml:space="preserve" xmlns:serif="http://www.serif.com/" style="fill-rule:evenodd;clip-rule:evenodd;stroke-linejoin:round;stroke-miterlimit:2;">
    <g transform="matrix(0.0724242,0,0,0.0724242,57.1559,35.8967)">
        <path d="M2283.44,867.965C2246.93,867.965 2216.05,896.048 2216.05,934.139C2216.05,972.555 2246.93,1000.64 2283.44,1000.64C2319.63,1000.64 2350.47,972.555 2350.47,934.139C2350.51,896.048 2319.63,867.965 2283.44,867.965ZM2283.44,989.575C2253.09,989.575 2229.38,966.031 2229.38,934.099C2229.38,902.693 2253.09,879.028 2283.44,879.028C2313.43,879.028 2337.09,902.693 2337.09,934.099C2337.14,966.072 2313.47,989.575 2283.44,989.575Z" style="fill-rule:nonzero;"/>
    </g>
    <g transform="matrix(0.0724242,0,0,0.0724242,57.1559,35.8967)">
        <path d="M2314,917.768C2314,902.693 2305,896.048 2286.93,896.048L2257.79,896.048L2257.79,972.555L2269.38,972.555L2269.38,939.407L2282.67,939.407L2302.93,972.555L2315.9,972.555L2294.14,938.881C2305.36,937.503 2314,931.505 2314,917.768ZM2269.42,929.56L2269.42,905.895L2285.22,905.895C2293.29,905.895 2301.92,907.597 2301.92,917.079C2301.92,928.831 2293.13,929.56 2283.28,929.56L2269.42,929.56Z" style="fill-rule:nonzero;"/>
    </g>
    <g transform="matrix(0.0724242,0,0,0.0724242,57.1559,35.8967)">
        <path d="M1250.02,1007C1940.01,1007 2499.43,781.57 2499.43,503.459C2499.43,225.39 1940.01,0 1250.02,0C559.952,0 0.57,225.39 0.57,503.459C0.57,781.57 559.952,1007 1250.02,1007" style="fill:rgb(35,96,165);fill-rule:nonzero;"/>
    </g>
    <g transform="matrix(0.0724242,0,0,0.0724242,57.1559,35.8967)">
        <path d="M1250.02,949.579C1918.41,949.579 2460.33,749.881 2460.33,503.459C2460.33,257.16 1918.41,57.421 1250.02,57.421C581.591,57.421 39.675,257.16 39.675,503.459C39.635,749.881 581.551,949.579 1250.02,949.579" style="fill:white;fill-rule:nonzero;"/>
    </g>
    <g transform="matrix(0.0724242,0,0,0.0724242,57.1559,35.8967)">
        <path d="M1250.02,919.956C1909.17,919.956 2443.47,733.469 2443.47,503.459C2443.47,273.491 1909.13,87.003 1250.02,87.003C590.83,87.003 56.492,273.491 56.492,503.459C56.492,733.469 590.83,919.956 1250.02,919.956" style="fill:rgb(35,96,165);fill-rule:nonzero;"/>
    </g>
    <g transform="matrix(0.0724242,0,0,0.0724242,57.1559,35.8967)">
        <path d="M966.115,565.055C966.115,565.055 959.429,579.157 934.223,602.417C905.655,628.798 916.636,588.112 916.636,588.112L980.379,395.83L927.618,395.83L921.053,414.511C902.332,389.225 864.969,396.924 864.969,396.924C781.451,412.323 717.627,499.245 711.144,554.073C703.444,618.91 719.491,648.168 759.447,654.084C795.553,659.393 850.989,598.203 854.717,594.029C853.501,595.488 849.368,601.688 849.611,620.004C850.057,655.138 888.068,657.366 916.596,641.968C945.165,626.569 981.473,565.055 981.473,565.055L966.115,565.055ZM902.332,463.99C902.332,463.99 882.597,527.692 854.028,563.961C838.022,584.222 757.299,656.272 773.833,555.208L781.492,524.45C781.492,524.45 804.509,456.128 865.01,418.928C893.579,401.341 917.731,421.116 902.332,463.99ZM630.948,626.609C573.284,664.296 500.14,650.802 500.14,650.802C370.506,622.233 368.277,479.429 456.172,382.701C557.439,271.343 699.27,282.811 733.107,294.806C770.51,307.976 771.564,348.621 746.318,365.113C723.26,380.148 678.32,360.413 700.162,316.729C699.919,317.296 678.077,305.626 632.002,314.541C520.077,336.342 464.965,453.008 462.777,523.316C459.292,635.443 540.014,627.177 570.447,622.233C617.738,614.533 632.002,604.686 660.935,582.196L678.117,582.196C678.117,582.196 667.135,604.078 638.567,622.233L630.948,626.609M1081.44,645.29L1032.01,645.29C1032.01,645.29 1072.08,512.415 1086.91,465.084C1098.46,428.289 1082.54,430.477 1061.1,452.441L1039.14,480.483L1024.27,480.483C1024.27,480.483 1077.11,397.816 1118.77,394.776C1118.77,394.776 1154.51,392.021 1141.86,439.838L1128.09,496.976L1172.62,431.045C1191.87,401.908 1215.5,392.021 1242.93,400.247C1242.93,400.247 1270.44,423.872 1247.35,456.331C1227.65,484.008 1195.11,468.974 1198.96,434.894C1198.96,434.894 1164.88,437.083 1107.74,577.212L1081.44,645.29M1326.53,646.385L1277.05,646.385C1277.05,646.385 1317.17,513.509 1331.96,466.219C1343.47,429.383 1327.62,431.571 1306.14,453.575L1284.14,481.577L1269.35,481.577C1269.35,481.577 1322.19,398.91 1363.85,395.871C1363.85,395.871 1399.59,393.155 1386.91,440.932L1373.17,498.07L1417.66,432.139C1436.91,403.003 1460.58,393.155 1487.97,401.382C1487.97,401.382 1515.45,425.007 1492.35,457.425C1472.65,485.143 1440.15,470.068 1444.05,435.988C1444.05,435.988 1409.96,438.177 1352.83,578.306L1326.53,646.385M1558.36,400.814L1609.99,400.814C1609.99,400.814 1548.47,583.817 1547.38,589.287C1546.24,594.758 1535.26,637.591 1564.97,611.778C1594.63,585.965 1578.7,601.931 1601.76,576.077L1617.16,576.077C1617.16,576.077 1574.98,646.911 1524.89,657.407C1480.35,666.727 1482.54,627.744 1482.54,627.744C1482.54,627.744 1483.11,615.101 1496.28,572.268L1558.36,400.814M1583.49,373.015C1599.53,379.823 1619.88,368.112 1628.95,346.838C1637.99,325.603 1632.24,302.829 1616.19,295.981C1600.14,289.133 1579.84,300.884 1570.76,322.159C1561.72,343.393 1567.44,366.127 1583.49,373.015M1972.63,649.667L1923.23,649.667C1923.23,649.667 1963.31,516.792 1978.1,469.501C1989.65,432.706 1973.76,434.894 1952.29,456.858L1930.32,484.859L1915.49,484.859C1915.49,484.859 1968.37,402.192 2009.99,399.193C2009.99,399.193 2045.69,396.438 2033.05,444.174L2019.35,501.312L2063.81,435.421C2083.05,406.285 2106.68,396.397 2134.15,404.624C2134.15,404.624 2161.63,428.249 2138.53,460.667C2118.84,488.344 2086.34,473.31 2090.19,439.23C2090.19,439.23 2056.11,441.419 1998.97,581.507L1972.63,649.667M1840.77,394.776C1706.72,378.284 1659.51,511.24 1659.51,511.24C1615.5,677.182 1748.45,662.918 1748.45,662.918C1835.3,647.519 1861.64,580.453 1861.64,580.453L1847.33,580.453C1841.86,592.57 1800.08,616.722 1800.08,616.722C1684.67,651.896 1716.56,548.602 1716.56,548.602C1838.54,544.226 1868.2,499.124 1868.2,499.124C1930.89,426.587 1840.77,394.776 1840.77,394.776ZM1833.07,466.178C1833.07,466.178 1806.73,517.805 1751.74,525.504L1722.12,526.598C1722.12,526.598 1735.29,427.722 1805.63,414.471C1805.59,414.511 1849.56,410.135 1833.07,466.178Z" style="fill:white;fill-rule:nonzero;"/>
    </g>
</svg>
