<?xml version="1.0" encoding="UTF-8" standalone="no"?>
<!DOCTYPE svg PUBLIC "-//W3C//DTD SVG 1.1//EN" "http://www.w3.org/Graphics/SVG/1.1/DTD/svg11.dtd">
<svg width="100%" height="100%" viewBox="0 0 300 150" version="1.1" xmlns="http://www.w3.org/2000/svg" xmlns:xlink="http://www.w3.org/1999/xlink" xml:space="preserve" xmlns:serif="http://www.serif.com/" style="fill-rule:evenodd;clip-rule:evenodd;stroke-linejoin:round;stroke-miterlimit:2;">
    <g transform="matrix(0.0786927,0,0,0.0772128,49.5427,-24.4827)">
        <g transform="matrix(1.70795,0,0,1.74068,-191.281,989.35)">
            <path d="M87.96,23.95C87.6,21.05 89.9,18.16 92.93,18.44C134.61,18.32 176.3,18.41 217.98,18.4C229.72,18.18 241.48,22.86 249.72,31.26C258.08,39.51 262.72,51.27 262.49,62.99C262.45,104.7 262.56,146.4 262.44,188.11C262.63,190.98 259.9,193.22 257.12,192.86C231.41,192.86 205.69,192.93 179.97,192.82C177.31,193.03 175.09,190.64 175.28,188.02C175.19,160.57 175.28,133.11 175.24,105.65C148.16,105.61 121.09,105.64 94.01,105.64C92.27,105.63 90.2,105.53 89.05,104C87.77,102.28 87.96,100.03 87.9,98.02C87.97,73.33 87.87,48.64 87.96,23.95Z" style="fill:rgb(0,71,127);fill-rule:nonzero;"/>
        </g>
        <g transform="matrix(1.70795,0,0,1.74068,-191.281,989.35)">
            <path d="M472.01,130.95C471.98,116.36 485.47,103.48 500.06,104.31C514.16,104.26 526.57,116.97 526.56,130.99C526.55,162.54 526.4,194.1 526.36,225.66C537.54,225.79 548.72,225.55 559.89,225.83C568.84,226.28 576.62,231.84 581.62,239.01C581.63,203.66 581.8,168.3 581.86,132.95C581.74,126.24 583.9,119.44 588.37,114.37C594.85,106.47 605.96,102.75 615.87,105.39C627.77,108.18 636.8,119.79 636.5,132.02C636.43,173.01 636.3,214 636.18,254.98C636.27,267.91 625.99,279.9 613.2,281.77C600.67,284 587.43,276.1 583.27,264.11C578.67,273.24 569.46,280.24 558.99,280.39C538.67,280.47 518.34,280.38 498.02,280.28C483.83,280.08 471.36,267.2 471.63,253.01C471.75,212.32 471.81,171.63 472.01,130.95Z" style="fill:rgb(0,71,127);fill-rule:nonzero;"/>
        </g>
        <g transform="matrix(1.70795,0,0,1.74068,-191.281,989.35)">
            <path d="M671.11,114.14C677.41,106.89 687.73,103.33 697.14,105.4C706.02,107.12 713.7,113.63 717.01,122.03C725.81,143.06 734.75,164.03 743.39,185.13C753.26,163.82 761.87,141.9 771.44,120.45C774.73,113.63 781,108.31 788.28,106.22C796.44,103.82 805.67,105.48 812.43,110.66C817.98,114.8 821.73,121.13 822.92,127.94C827.69,154.98 832.13,182.08 836.96,209.11C850.67,179.65 863.73,149.88 877.37,120.39C882.7,109.28 896.18,103.08 908.09,106.19C914.7,107.72 920.63,111.91 924.37,117.57C926.44,120.7 927.79,124.23 929.32,127.64C946.67,166.43 963.92,205.25 981.28,244.03C983.75,249.44 984.42,255.64 983.2,261.46C981.23,271.11 973.6,279.37 964.1,282.02C954.93,284.8 944.49,282.05 937.69,275.37C934.08,272.08 931.95,267.61 930.01,263.22C920.69,242.02 911.08,220.95 901.78,199.74C901.06,200.4 900.5,201.16 900.09,202.04C891.47,220.77 882.79,239.47 874.14,258.18C872.22,262.17 870.65,266.37 868.07,269.99C863.07,276.99 854.63,281.29 846.04,281.29C836.06,281.28 826.07,281.38 816.1,281.2C807.6,280.95 799.42,276.44 794.62,269.44C791.75,265.47 790.38,260.66 789.57,255.89C787.97,246.81 786.32,237.73 784.72,228.65C778.38,241.63 773.45,255.27 767.23,268.31C761.17,280.18 745.63,285.71 733.37,280.53C725.22,277.48 719.46,270.19 716.7,262.13C711.97,250.74 707.12,239.4 702.4,228C700.38,238.98 698.69,250.01 696.51,260.95C694.07,272.37 683.61,281.42 671.94,282.13C658.91,283.51 646.13,273.8 643.41,261.1C641.73,254.76 643.49,248.28 644.54,242C651.19,204.32 657.82,166.64 664.47,128.96C665.33,123.55 667.43,118.26 671.11,114.14Z" style="fill:rgb(0,71,127);fill-rule:nonzero;"/>
        </g>
        <g transform="matrix(1.70795,0,0,1.74068,-191.281,989.35)">
            <path d="M378.1,105.17C409.27,100.98 442,115.23 460.28,140.78C465.18,148.12 466.17,157.89 462.84,166.06C458.86,176.38 448.04,183.53 436.98,183.2C429.19,183.01 421.6,179.32 416.67,173.28C413.2,169 409.06,165.19 404.09,162.74C390.41,155.46 372.07,159.28 362.46,171.44C351.72,184 352.33,204.3 363.72,216.24C374.12,228.1 393.01,230.79 406.35,222.4C414.04,218.32 417.69,209.34 425.92,206.04C437.47,200.34 452.74,204.43 459.78,215.25C464.94,222.61 465.99,232.54 462.66,240.85C460.74,245.78 457.17,249.81 453.63,253.64C438.25,270.07 416.56,280.61 394.02,281.73C373.11,282.95 351.81,276.6 335.21,263.78C319.84,252.21 308.49,235.45 303.36,216.91C297.38,195.47 299.75,171.75 310.17,152.04C323.35,126.57 349.54,108.31 378.1,105.17Z" style="fill:rgb(0,71,127);fill-rule:nonzero;"/>
        </g>
        <g transform="matrix(1.70795,0,0,1.74068,-191.281,989.35)">
            <path d="M965.23,106.16C977.27,103.49 990.54,110.09 995.57,121.39C1005.65,143.81 1015.48,166.35 1025.49,188.8C1026.77,188.76 1026.79,187.16 1027.4,186.33C1037.1,164.75 1046.87,143.21 1056.63,121.66C1060.46,113.29 1068.75,107.14 1077.94,106.15C1090.63,104.26 1103.74,112.8 1107.34,125.08C1109.52,131.84 1108.77,139.35 1105.58,145.68C1088.54,183.33 1071.51,220.98 1054.46,258.63C1051.41,265.38 1048.72,272.81 1042.52,277.38C1032.65,285.55 1017.1,285 1007.68,276.38C1002.94,272.43 1000.47,266.65 998.1,261.13C980.75,222.14 963.36,183.18 946,144.2C943.54,138.81 942.9,132.64 944.24,126.87C946.43,116.67 955.03,108.27 965.23,106.16Z" style="fill:rgb(0,71,127);fill-rule:nonzero;"/>
        </g>
        <g transform="matrix(1.70795,0,0,1.74068,-191.281,989.35)">
            <path d="M1248.17,111.18C1258.86,103.42 1274.98,105.52 1283.64,115.39C1298.82,133.21 1313.5,151.48 1328.83,169.17C1328.89,158.44 1328.91,147.71 1328.92,136.98C1328.89,132.1 1329.36,127.08 1331.51,122.63C1335.16,114.44 1343.12,108.4 1351.97,107.03C1361.11,105.43 1370.88,109.02 1376.9,116.06C1381.45,121.22 1383.87,128.12 1383.65,134.99C1383.52,175.66 1383.44,216.32 1383.31,256.98C1383.46,269.67 1373.59,281.54 1361.11,283.72C1351.71,285.68 1341.52,282.02 1335.39,274.67C1322.11,258.95 1308.95,243.12 1295.69,227.38C1294.05,225.47 1292.64,223.31 1290.53,221.87C1290.47,233.55 1290.48,245.24 1290.4,256.92C1290.33,264.83 1286.61,272.54 1280.51,277.55C1274.15,283.16 1265.01,285.15 1256.82,283.2C1247.05,280.91 1238.82,272.81 1236.58,263.01C1235.44,258.41 1235.84,253.64 1235.8,248.95C1235.84,210.63 1236.09,172.32 1236.19,134C1235.95,124.97 1240.77,116.24 1248.17,111.18Z" style="fill:rgb(0,71,127);fill-rule:nonzero;"/>
        </g>
        <g transform="matrix(1.70795,0,0,1.74068,-191.281,989.35)">
            <path d="M1685.98,114.19C1693.18,107.94 1703.79,106.04 1712.75,109.25C1720.1,111.8 1726.07,117.68 1729.09,124.81C1746.97,164.91 1764.85,205.02 1782.76,245.11C1783.98,247.95 1785.38,250.92 1785.04,254.12C1784.75,257.77 1785.36,261.47 1784.85,265.1C1781.79,277.15 1769.6,286.4 1757.07,285.29C1746.83,284.8 1737.39,278 1733.4,268.61C1723.48,246.34 1713.56,224.08 1703.72,201.79C1701.87,204.17 1700.96,207.08 1699.69,209.77C1690.76,229.49 1681.87,249.23 1672.91,268.94C1668.88,277.88 1659.84,284.31 1650.03,284.96C1636,286.38 1622.38,274.97 1620.96,261.02C1619.76,253.62 1622.92,246.6 1626.06,240.11C1643.4,201.8 1660.78,163.51 1678.13,125.2C1679.93,121.03 1682.44,117.09 1685.98,114.19Z" style="fill:rgb(0,71,127);fill-rule:nonzero;"/>
        </g>
        <g transform="matrix(1.70795,0,0,1.74068,-191.281,989.35)">
            <path d="M1115.37,137.04C1114.32,122.29 1127.12,108.31 1141.97,108.39C1159.28,108.34 1176.6,108.47 1193.92,108.47C1199.13,108.59 1204.48,108.03 1209.54,109.61C1219.48,112.54 1227.5,121.53 1228.86,131.87C1231.66,147.22 1218.55,162.78 1203.02,162.85C1192.71,162.92 1182.4,162.45 1172.1,162.6C1172.14,166.74 1172.09,170.89 1172.13,175.03C1180.09,174.97 1188.05,175.01 1196.02,175.15C1203.11,175.26 1209.87,179.5 1213.23,185.71C1216.97,192.34 1216.55,201.07 1212.18,207.3C1208.42,212.94 1201.7,216.25 1194.97,216.25C1187.29,216.3 1179.6,216.18 1171.92,216.16C1171.84,220.17 1171.84,224.17 1171.93,228.18C1179.59,228.26 1187.26,228.22 1194.93,228.29C1199.82,228.36 1204.87,227.95 1209.59,229.56C1216.12,231.45 1221.59,236.14 1225.11,241.88C1230.41,250.7 1229.96,262.6 1224,270.99C1218.32,279.43 1208.03,283.91 1197.97,282.93C1179,282.81 1160.02,282.92 1141.05,282.73C1127.16,282.43 1115.03,269.88 1115.08,256.02C1115.14,216.36 1115.3,176.7 1115.37,137.04Z" style="fill:rgb(0,71,127);fill-rule:nonzero;"/>
        </g>
        <g transform="matrix(1.70795,0,0,1.74068,-191.281,989.35)">
            <path d="M1393.04,135.94C1393,122.14 1405.06,109.57 1418.89,109.25C1436.91,109.1 1454.93,109.31 1472.96,109.26C1478.13,109.29 1483.48,108.93 1488.43,110.78C1497.44,113.91 1504.65,122.05 1506.38,131.48C1507.34,136.88 1506.8,142.61 1504.51,147.63C1500.29,157.08 1490.34,163.76 1479.94,163.68C1469.89,163.68 1459.84,163.24 1449.8,163.35C1449.85,167.5 1449.75,171.65 1449.89,175.81C1457.59,175.78 1465.29,175.76 1472.99,175.84C1479.22,175.89 1485.38,178.8 1489.18,183.78C1493.86,189.59 1494.86,198.02 1491.76,204.8C1488.8,211.8 1481.6,216.71 1474.01,216.99C1465.91,217.3 1457.81,216.96 1449.71,217.09C1449.69,221.04 1449.66,224.99 1449.65,228.94C1460.45,229.06 1471.26,228.73 1482.06,229.25C1495.07,230.29 1506.14,242.04 1506.51,255.08C1507.24,266.81 1499.36,278.33 1488.31,282.17C1482.15,284.52 1475.46,283.56 1469.03,283.73C1452.34,283.65 1435.65,283.67 1418.96,283.52C1408.07,283.33 1398.03,275.69 1394.36,265.54C1392.04,259.62 1392.78,253.18 1392.7,246.98C1392.84,209.96 1392.79,172.95 1393.04,135.94Z" style="fill:rgb(0,71,127);fill-rule:nonzero;"/>
        </g>
        <g transform="matrix(1.70795,0,0,1.74068,-191.281,989.35)">
            <path d="M1522.4,116.31C1527.54,111.2 1534.83,108.67 1542.02,108.83C1570.68,108.96 1599.35,108.77 1628.01,109.09C1641.53,108.97 1653.77,120.47 1654.67,133.93C1655.98,145.15 1649.19,156.35 1639.05,161.03C1630.42,165.08 1620.68,163.06 1611.52,163.54C1611.41,193.69 1611.34,223.84 1611.28,254C1611.38,258.8 1611.01,263.73 1609.07,268.19C1604.74,278.29 1594.07,285.49 1582.96,284.83C1568.95,284.65 1556.53,272.01 1556.64,257.99C1556.62,226.44 1556.83,194.9 1556.78,163.36C1547.84,162.95 1538.4,164.72 1529.96,160.97C1522.2,157.45 1516.01,150.25 1514.36,141.8C1512.31,132.67 1515.46,122.61 1522.4,116.31Z" style="fill:rgb(0,71,127);fill-rule:nonzero;"/>
        </g>
        <g transform="matrix(1.70795,0,0,1.74068,-191.281,989.35)">
            <path d="M0,110.08C1.3,108.01 3.39,106.58 5.93,106.89C29.95,106.81 53.98,106.94 78,106.83C80.21,106.89 82.51,106.67 84.64,107.41C86.87,108.3 87.33,110.91 87.28,113.04C87.29,140.04 87.27,167.04 87.29,194.04C112.19,194.35 137.11,194.1 162.03,194.17C165.36,194.31 168.85,193.69 172.08,194.73C174.86,196.07 174.51,199.47 174.56,202.03C174.44,226.98 174.65,251.94 174.46,276.88C174.62,279.81 171.67,281.64 168.99,281.39C127.35,281.43 85.69,281.4 44.05,281.4C33.55,281.49 23.11,277.63 15.17,270.78C6.33,263.28 0.92,252.12 0,240.61L0,110.08Z" style="fill:rgb(109,110,112);fill-rule:nonzero;"/>
        </g>
    </g>
</svg>
