<?xml version="1.0" encoding="UTF-8" standalone="no"?>
<!DOCTYPE svg PUBLIC "-//W3C//DTD SVG 1.1//EN" "http://www.w3.org/Graphics/SVG/1.1/DTD/svg11.dtd">
<svg width="100%" height="100%" viewBox="0 0 300 150" version="1.1" xmlns="http://www.w3.org/2000/svg" xmlns:xlink="http://www.w3.org/1999/xlink" xml:space="preserve" xmlns:serif="http://www.serif.com/" style="fill-rule:evenodd;clip-rule:evenodd;stroke-linejoin:round;stroke-miterlimit:2;">
    <g transform="matrix(0.218975,0,0,0.218975,42.5312,-31.8558)">
        <path d="M710.98,319.03C726.38,318.02 742.7,316.54 757.24,322.84C765.77,333.5 771.81,346.05 775.53,359.17C757.62,346.91 736.65,338.94 715,336.92C696.69,335.13 678.2,335.66 659.94,337.69C674.72,326.8 692.82,320.89 710.98,319.03Z" style="fill:rgb(46,48,146);fill-rule:nonzero;"/>
    </g>
    <g transform="matrix(0.218975,0,0,0.218975,42.5312,-31.8558)">
        <path d="M772.1,326.11C801.19,338.54 826.47,359.82 843.36,386.6C864.96,420.48 872.64,462.64 865.52,502.09C860.04,532.66 845.29,561.41 823.93,583.92C797.41,612.12 760.62,630.38 722.14,634.53C684.04,639 644.45,629.76 612.39,608.66C592.17,595.53 575,577.81 562.3,557.32C567.32,558.71 572.43,559.77 577.63,560.24C599.58,590.69 633.05,612.59 669.83,620.18C707.91,628.4 749.07,621.66 782.29,601.23C810.12,584.45 832.3,558.42 844.16,528.14C858.15,492.84 857.54,452.13 842.85,417.14C830.9,388.21 809.22,363.53 782.36,347.52C779.61,340.09 776.19,332.91 772.1,326.11Z" style="fill:rgb(46,48,146);fill-rule:nonzero;"/>
    </g>
    <g transform="matrix(0.218975,0,0,0.218975,42.5312,-31.8558)">
        <path d="M701.97,368.62C720.99,361.22 742.4,360.36 762.01,365.91C767.91,367.61 773.67,369.98 778.7,373.55C780.45,384.35 780.49,395.38 779.04,406.22C771.57,397.18 762.46,389.45 752.17,383.82C736.51,375.86 719.22,371.57 701.97,368.62Z" style="fill:rgb(46,48,146);fill-rule:nonzero;"/>
    </g>
    <g transform="matrix(0.218975,0,0,0.218975,42.5312,-31.8558)">
        <path d="M789.81,380.55C803.16,391.67 814.41,405.38 822.21,420.94C839.6,455.73 840.13,498.49 823.61,533.72C810.88,561.23 788.35,583.87 761.27,597.38C727.81,614.46 687.48,617.2 651.89,605.28C626.57,596.97 603.8,581.18 587.08,560.44C600.6,560.87 614.72,557.34 625.13,548.37C637.37,558.64 652.24,565.82 667.99,568.62C690.29,572.66 714.14,568.47 733.37,556.36C748.68,546.92 761.13,532.72 768.07,516.08C775.78,497.95 776.67,477.08 770.67,458.33C785.32,435.39 792.05,407.67 789.81,380.55Z" style="fill:rgb(46,48,146);fill-rule:nonzero;"/>
    </g>
    <g transform="matrix(0.218975,0,0,0.218975,42.5312,-31.8558)">
        <path d="M724.81,404.3C742.93,400.42 762.75,404.16 777.61,415.42C775.11,425.79 771.7,435.99 766.71,445.44C761.83,436.07 755.99,427.04 748.23,419.77C741.36,413.33 733.2,408.47 724.81,404.3Z" style="fill:rgb(46,48,146);fill-rule:nonzero;"/>
    </g>
    <g transform="matrix(0.218975,0,0,0.218975,42.5312,-31.8558)">
        <path d="M552.18,418.13C559.89,410.28 571.31,407.63 581.98,407.37C593.22,407.09 605.04,408.91 614.45,415.47C618.3,418.12 621.43,421.96 622.66,426.53C625.05,435.08 624.79,444.07 624.83,452.87C613.5,452.88 602.17,452.88 590.85,452.88C590.65,446.93 591.33,440.91 590.24,435.03C589.65,430.4 582.78,429.93 580.49,433.45C578.57,436.22 578.51,439.76 578.52,443.01C578.66,447.37 579.16,452.32 582.64,455.4C587.64,459.97 593.88,462.8 599.44,466.59C607.3,471.84 615.5,477.12 621.3,484.73C627.48,494.2 627.8,506.04 627.85,516.98C627.55,526.02 627.08,536.42 619.98,543C610.61,551.53 597.38,554.33 585.03,553.91C573.55,553.62 561.45,550.22 553.31,541.72C547.55,535.74 546.42,527.07 545.72,519.17C545.25,512.99 545.4,506.78 545.4,500.59C556.72,500.6 568.05,500.59 579.37,500.6C579.67,509.02 578.7,517.54 580.05,525.89C580.82,531.14 589,531.52 591.32,527.24C593.7,522.89 593.1,517.68 592.87,512.93C592.48,508.61 591.74,503.73 588.07,500.9C580.4,494.38 571.63,489.36 563.47,483.51C558.5,479.93 553.15,476.41 550.01,470.97C544.29,461.82 543.88,450.6 544.47,440.14C544.98,432.34 546.39,423.87 552.18,418.13Z" style="fill:rgb(46,48,146);fill-rule:nonzero;"/>
    </g>
    <g transform="matrix(0.218975,0,0,0.218975,42.5312,-31.8558)">
        <path d="M97.3,410.28C114.56,410.43 131.85,409.81 149.08,411.06C157.06,411.64 165.49,413.01 171.95,418.1C177.26,422.42 180.59,428.97 181.2,435.77C182.34,447.8 181.97,459.91 182.05,471.98C181.96,488.01 182.25,504.04 181.86,520.06C181.45,526.8 181.51,534.02 177.91,540C174.74,545.36 168.77,548.34 162.86,549.6C156.01,550.98 148.98,550.96 142.03,551C127.11,550.99 112.2,551.01 97.29,550.99C97.3,504.09 97.29,457.19 97.3,410.28M133.9,434.32C133.89,465.21 133.89,496.1 133.9,526.99C137.39,526.67 142.32,526.85 143.95,523C145.47,518.18 145.28,513.02 145.44,508.02C145.42,487.36 145.53,466.7 145.38,446.04C145.12,442.9 145.58,439.25 143.38,436.69C140.92,434.2 137.1,434.61 133.9,434.32Z" style="fill:rgb(46,48,146);fill-rule:nonzero;"/>
    </g>
    <g transform="matrix(0.218975,0,0,0.218975,42.5312,-31.8558)">
        <path d="M206.56,410.29C224.2,410.27 241.84,410.27 259.48,410.29C266.47,457.19 273.46,504.09 280.43,551L242.97,551C242.34,542.57 241.77,534.14 241.15,525.71C236.78,525.7 232.41,525.7 228.04,525.71C227.3,534.13 226.58,542.56 225.86,550.99C213.23,551.01 200.59,551 187.95,551C194.15,504.09 200.36,457.19 206.56,410.29M234.53,441.8C231.89,461.41 229.19,481.02 227.59,500.75C231.76,500.77 235.93,500.76 240.1,500.76C237.84,481.15 236.14,461.48 234.53,441.8Z" style="fill:rgb(46,48,146);fill-rule:nonzero;"/>
    </g>
    <g transform="matrix(0.218975,0,0,0.218975,42.5312,-31.8558)">
        <path d="M286.3,410.28C298.49,410.27 310.69,410.28 322.89,410.28C322.91,427.05 322.88,443.83 322.9,460.6C326.54,460.61 330.19,460.61 333.84,460.61C333.86,443.83 333.83,427.06 333.85,410.28C346.05,410.28 358.24,410.26 370.44,410.29L370.44,551L333.85,551C333.84,531.3 333.85,511.6 333.84,491.9C330.19,491.89 326.54,491.89 322.9,491.9C322.89,511.6 322.9,531.3 322.9,551C310.69,551 298.49,551.01 286.29,550.99C286.3,504.09 286.29,457.19 286.3,410.28Z" style="fill:rgb(46,48,146);fill-rule:nonzero;"/>
    </g>
    <g transform="matrix(0.218975,0,0,0.218975,42.5312,-31.8558)">
        <path d="M395.56,410.29C413.2,410.27 430.84,410.27 448.49,410.29C455.46,457.19 462.46,504.09 469.43,551L431.97,551C431.34,542.57 430.77,534.14 430.15,525.71C425.77,525.7 421.4,525.7 417.04,525.71C416.3,534.13 415.58,542.56 414.86,550.99C402.22,551 389.59,551 376.95,551C383.15,504.09 389.36,457.19 395.56,410.29M423.51,441.8C420.91,461.42 418.17,481.03 416.59,500.76L429.1,500.76C426.83,481.15 425.16,461.47 423.51,441.8Z" style="fill:rgb(46,48,146);fill-rule:nonzero;"/>
    </g>
    <g transform="matrix(0.218975,0,0,0.218975,42.5312,-31.8558)">
        <path d="M459.05,410.28C485.7,410.28 512.34,410.28 538.99,410.27C539.01,419.67 539,429.06 539,438.45C531.76,438.46 524.52,438.45 517.29,438.46C517.27,475.97 517.29,513.48 517.28,551L480.69,551C480.68,513.48 480.69,475.97 480.68,438.45C473.47,438.45 466.26,438.46 459.05,438.45C459.04,429.06 459.03,419.67 459.05,410.28Z" style="fill:rgb(46,48,146);fill-rule:nonzero;"/>
    </g>
    <g transform="matrix(0.218975,0,0,0.218975,42.5312,-31.8558)">
        <path d="M638.79,410.28C650.98,410.27 663.17,410.28 675.37,410.27C675.39,445.85 675.36,481.42 675.38,516.99C675.49,520.57 675.32,524.26 676.45,527.71C677.86,531.34 684.19,530.8 684.98,526.96C685.88,523.4 685.76,519.68 685.88,516.03C685.91,480.78 685.87,445.53 685.9,410.28C698.09,410.28 710.29,410.26 722.49,410.29C722.48,441.54 722.49,472.79 722.48,504.05C722.44,510.73 722.42,517.42 721.78,524.08C721.19,532.14 716.72,539.52 710.79,544.83C703.72,551.01 694.19,553.48 684.99,553.86C673.42,554.44 661.28,552.16 651.73,545.29C645.66,540.97 641.52,534.18 640.01,526.94C638.77,519.39 639.04,511.69 638.83,504.07C638.73,472.8 638.8,441.54 638.79,410.28Z" style="fill:rgb(46,48,146);fill-rule:nonzero;"/>
    </g>
</svg>
