<?xml version="1.0" encoding="UTF-8" standalone="no"?>
<!DOCTYPE svg PUBLIC "-//W3C//DTD SVG 1.1//EN" "http://www.w3.org/Graphics/SVG/1.1/DTD/svg11.dtd">
<svg width="100%" height="100%" viewBox="0 0 300 150" version="1.1" xmlns="http://www.w3.org/2000/svg" xmlns:xlink="http://www.w3.org/1999/xlink" xml:space="preserve" xmlns:serif="http://www.serif.com/" style="fill-rule:evenodd;clip-rule:evenodd;stroke-linejoin:round;stroke-miterlimit:2;">
    <g transform="matrix(0.0783265,0,0,0.0783265,50.4018,24.0499)">
        <path d="M569.381,367.843L0.009,367.843L0.009,893.157L569.381,367.843Z" style="fill:rgb(68,200,245);fill-rule:nonzero;"/>
    </g>
    <g transform="matrix(0.0783265,0,0,0.0783265,50.4018,24.0499)">
        <path d="M284.654,367.843L-0,367.843L-0,630.619L284.654,367.843Z" style="fill-rule:nonzero;"/>
    </g>
    <g transform="matrix(0.0783265,0,0,0.0783265,50.4018,24.0499)">
        <path d="M1364.47,481.878L1290.15,779.03L1421.46,779.03L1495.74,481.878L1364.47,481.878ZM1045.87,481.833L876.983,778.985L963.837,778.985L991.869,729.45L1112.44,729.45L1121.42,778.985L1249.61,778.985L1195.12,481.833L1045.87,481.833ZM1098.75,654.088L1034.44,654.088L1082.99,568.376L1098.75,654.088ZM1964.17,481.878L1890.05,779.03L2021.33,779.03L2095.51,481.878L1964.17,481.878ZM1905.5,481.878L1770.93,481.878L1658.31,579.082L1682.88,481.878L1557.03,481.878L1482.89,779.03L1608.36,779.03L1633.99,676.441L1701.08,779.03L1852.94,779.03L1740.46,623.415L1905.5,481.878ZM767.272,482.015L733.317,481.906L569.006,481.906L494.897,778.948L658.037,778.948L722.592,779.03C813.47,779.03 902.911,711.403 902.911,607.781C902.893,485.846 767.272,482.015 767.272,482.015M773.937,616.914C773.937,616.914 765.407,713.441 683.16,713.441L636.625,713.441L677.611,553.163L719.84,553.163C734.953,553.273 778.691,557.177 773.937,616.914M2409.09,481.833L2365.28,656.812L2306.95,481.833L2160.92,481.833L2086.74,779.03L2177.54,779.03L2221.76,602.524L2280.29,779.03L2425.68,779.03L2500,481.833L2409.09,481.833Z" style="fill:rgb(0,161,228);fill-rule:nonzero;"/>
    </g>
</svg>
