<?xml version="1.0" encoding="UTF-8" standalone="no"?>
<!DOCTYPE svg PUBLIC "-//W3C//DTD SVG 1.1//EN" "http://www.w3.org/Graphics/SVG/1.1/DTD/svg11.dtd">
<svg width="100%" height="100%" viewBox="0 0 300 150" version="1.1" xmlns="http://www.w3.org/2000/svg" xmlns:xlink="http://www.w3.org/1999/xlink" xml:space="preserve" xmlns:serif="http://www.serif.com/" style="fill-rule:evenodd;clip-rule:evenodd;stroke-linejoin:round;stroke-miterlimit:2;">
    <g transform="matrix(0.272381,0,0,0.272381,-22.2222,5.53226)">
        <path d="M315.36,174.51C327.74,170 342.55,172.7 352.26,181.72C358.39,187.59 364.26,193.72 370.33,199.65C370.95,200.33 372.11,201.22 371.31,202.24C367.46,209.69 361.9,216.33 354.74,220.8C351.19,217.86 347.97,214.47 344.01,212.07C335.27,206.53 323.59,205.58 314.26,210.23C310.55,211.97 307.18,214.4 304.31,217.33C297.32,224.35 290.31,231.35 283.3,238.35C280.53,241.02 278.78,245.17 279.98,248.99C280.75,252.12 283.08,254.48 285.31,256.67C297.42,268.59 309.3,280.76 321.26,292.84C323.88,295.52 327.03,298.36 331.01,298.39C335.86,297.76 339.34,293.88 342.68,290.66C348.95,283.94 355.6,277.59 362.05,271.04C366.22,266.8 369.3,261.43 370.5,255.58C371.97,246.4 368.76,236.96 362.85,229.92C370.91,225.52 376.62,218.02 380.9,210.07C386.72,216.25 393.4,221.69 398.46,228.55C408.24,242.29 406.72,262.77 394.88,274.83C381.27,288.54 367.58,302.17 353.91,315.82C347.82,321.62 339.76,326.47 331.05,325.79C325.35,325.56 319.32,326.67 314.02,323.98C305.73,320.95 300.15,313.89 294.03,307.95C282.72,296.61 271.36,285.32 260.07,273.96C247.61,260.79 247.62,238.18 260.07,225C273.68,211.29 287.4,197.68 301.03,183.98C305.07,179.87 309.9,176.44 315.36,174.51Z" style="fill:rgb(228,0,123);fill-rule:nonzero;"/>
    </g>
    <g transform="matrix(0.272381,0,0,0.272381,-22.2222,5.53226)">
        <path d="M306.21,233.15C311.68,227.56 317.74,221.24 325.96,220.39C332.74,219.58 338.58,223.85 343.28,228.2C338.94,231.23 333.99,233.48 330.4,237.49C327.35,240.5 325.27,244.28 323.29,248.04C325.68,251.48 328.8,254.37 332.13,256.89C334.79,254.11 335.85,250.26 338.32,247.33C341.7,242.69 346.81,239.78 351.96,237.51C355.66,242.08 358.67,248.04 356.98,254.06C354.67,262.1 347.69,267.34 342.17,273.16C338.85,276.23 336.06,279.96 332.16,282.33C330.09,283.25 328.26,281.45 326.85,280.16C317.15,270.52 307.5,260.82 297.82,251.16C296.15,249.45 293.83,246.87 295.49,244.41C298.51,240.18 302.7,236.95 306.21,233.15Z" style="fill:rgb(228,0,123);fill-rule:nonzero;"/>
    </g>
    <g transform="matrix(0.272381,0,0,0.272381,-22.2222,5.53226)">
        <path d="M559.18,226.15C562.8,220.02 570.74,219.91 577.02,219.73C583.25,219.78 590.99,220.35 594.46,226.4C604.36,243.69 614.06,261.09 623.96,278.38C614.95,278.4 605.95,278.39 596.95,278.38C594.88,274.51 592.83,270.63 590.87,266.7C581.52,266.44 572.16,266.69 562.81,266.57C560.69,270.45 558.64,274.37 556.67,278.33C547.58,278.45 538.5,278.38 529.42,278.36C539.44,261.01 549.16,243.49 559.18,226.15M568.92,253.19C574,253.26 579.08,253.23 584.17,253.21C582.42,247.72 579.35,242.79 576.97,237.58C573.47,242.28 571.46,247.93 568.92,253.19Z" style="fill:rgb(149,149,149);fill-rule:nonzero;"/>
    </g>
    <g transform="matrix(0.272381,0,0,0.272381,-22.2222,5.53226)">
        <path d="M644.39,221.48C650.73,219.31 657.69,219.3 664.18,220.82C668.06,221.71 671.25,224.3 673.9,227.17C681,234.74 688.24,242.16 695.49,249.58C698.02,252.08 700.2,255.01 703.31,256.84C704.33,244.77 703.47,232.6 703.76,220.48C710.3,220.52 716.84,220.49 723.39,220.5C723.37,236.68 723.41,252.85 723.38,269.02C723.6,273.13 720.24,276.46 716.54,277.62C710.5,279.57 703.91,279.66 697.74,278.28C694.57,277.61 691.69,275.94 689.46,273.6C680.39,264.33 671.29,255.08 662.37,245.66C661.02,244.2 659.52,242.81 657.6,242.18C656.79,254.23 657.46,266.34 657.25,278.41C650.7,278.37 644.15,278.39 637.61,278.4C637.62,262.25 637.61,246.1 637.61,229.95C637.29,225.81 640.79,222.72 644.39,221.48Z" style="fill:rgb(149,149,149);fill-rule:nonzero;"/>
    </g>
    <g transform="matrix(0.272381,0,0,0.272381,-22.2222,5.53226)">
        <path d="M445.38,221.5C447.8,220.54 450.44,220.49 453.02,220.47C464.02,220.52 475.03,220.5 486.04,220.49C494.86,220.35 504.33,222.01 511.33,227.74C517.32,232.97 518.09,241.51 518.25,248.96C518.05,255.95 517.73,263.55 513.55,269.47C508.49,275.97 499.78,277.97 491.96,278.36C478.32,278.43 464.68,278.37 451.05,278.39C447.3,278.39 443.07,277.41 440.8,274.16C439.01,271.82 439.5,268.71 439.38,265.97C439.53,253.66 439.2,241.34 439.55,229.04C439.57,225.52 442.08,222.52 445.38,221.5M466.33,235.48C464.6,236.7 465.37,239.23 465.15,241.03C465.41,248.14 464.75,255.3 465.47,262.38C468.4,264.83 472.61,263.72 476.12,263.86C481.5,263.66 488.77,262.98 490.73,256.94C492.28,250.97 492.79,243.52 488.36,238.6C484.73,234.66 478.9,234.81 473.98,234.57C471.44,234.69 468.62,234.12 466.33,235.48Z" style="fill:rgb(149,149,149);fill-rule:nonzero;"/>
    </g>
    <g transform="matrix(0.272381,0,0,0.272381,-22.2222,5.53226)">
        <path d="M739.4,220.51C766.68,220.51 793.95,220.45 821.23,220.54C821.13,225.13 821.38,229.73 821.17,234.31C820.93,234.52 820.47,234.94 820.23,235.15C811.18,235.35 802.12,235.17 793.06,235.22C793.08,249.6 793.07,263.99 793.07,278.38C784.55,278.4 776.02,278.37 767.5,278.4C767.5,264.01 767.48,249.62 767.51,235.24C758.16,235.2 748.8,235.24 739.45,235.22C739.37,230.32 739.4,225.42 739.4,220.51Z" style="fill:rgb(149,149,149);fill-rule:nonzero;"/>
    </g>
    <g transform="matrix(0.272381,0,0,0.272381,-22.2222,5.53226)">
        <path d="M837.24,227.91C837.9,222.5 844.28,220.46 848.99,220.51C868.26,220.5 887.54,220.47 906.81,220.53C906.78,225.28 906.79,230.04 906.77,234.8C893.85,234.79 880.92,234.79 868,234.78C866.17,234.86 863.58,234.86 862.93,236.98C862.68,238.83 862.75,240.69 862.73,242.55C877.02,242.63 891.31,242.6 905.6,242.57C905.64,246.81 905.74,251.05 905.5,255.29C891.27,255.12 877.04,255.26 862.8,255.22C862.77,257.5 862.63,259.79 862.9,262.06C863.48,264.28 866.2,264.12 868.02,264.36C881.09,264.56 894.17,264.25 907.25,264.51C907.19,269.13 907.22,273.75 907.21,278.38C887.8,278.41 868.39,278.37 848.98,278.4C844.77,278.49 839.9,277.25 837.66,273.37C836.92,271.33 837.18,269.09 837.11,266.97C837.24,253.95 836.96,240.92 837.24,227.91Z" style="fill:rgb(149,149,149);fill-rule:nonzero;"/>
    </g>
    <g transform="matrix(0.272381,0,0,0.272381,-22.2222,5.53226)">
        <path d="M926.1,220.54C936.37,220.46 946.65,220.5 956.92,220.52C961.3,225.63 965.71,230.71 970.09,235.83C974.64,230.7 978.91,225.33 983.67,220.39C993.77,220.66 1003.87,220.36 1013.97,220.57C1004.4,230.11 994.67,239.47 985.19,249.1C994.88,258.94 1005.03,268.34 1014.59,278.31C1005.02,278.47 995.45,278.36 985.88,278.38C984.09,278.7 983.1,277.07 982.05,275.99C978.17,271.35 974,266.96 970.11,262.34C965.4,267.67 960.77,273.06 956.04,278.38C945.79,278.39 935.55,278.4 925.3,278.37C935.29,268.64 945.16,258.78 955.18,249.07C945.44,239.61 935.86,229.99 926.1,220.54Z" style="fill:rgb(149,149,149);fill-rule:nonzero;"/>
    </g>
</svg>
