<?xml version="1.0" encoding="UTF-8" standalone="no"?>
<!DOCTYPE svg PUBLIC "-//W3C//DTD SVG 1.1//EN" "http://www.w3.org/Graphics/SVG/1.1/DTD/svg11.dtd">
<svg width="100%" height="100%" viewBox="0 0 300 150" version="1.1" xmlns="http://www.w3.org/2000/svg" xmlns:xlink="http://www.w3.org/1999/xlink" xml:space="preserve" xmlns:serif="http://www.serif.com/" style="fill-rule:evenodd;clip-rule:evenodd;stroke-linejoin:round;stroke-miterlimit:2;">
    <g transform="matrix(0.364946,0,0,0.364946,79.5519,39.2944)">
        <path d="M82.43,0L103.17,0C116.48,1.8 129.55,6.06 140.94,13.26C158.03,23.66 171.29,39.87 178.6,58.46C142.36,58.5 106.11,57.97 69.87,58.46C67.41,64.17 64.13,69.53 62.16,75.44C64.78,75.67 67.4,75.84 70.03,75.83C89.46,75.83 108.89,75.86 128.32,75.9C128.39,79.39 128.38,82.89 128.32,86.38C108.45,86.45 88.57,86.32 68.69,86.49C66.13,91.1 63.47,95.67 61.3,100.48C61.01,100.71 60.43,101.16 60.14,101.38C62.77,101.58 65.41,101.74 68.05,101.73C88.14,101.71 108.23,101.75 128.31,101.76C128.39,105.3 128.39,108.85 128.35,112.4C108.75,112.53 89.16,112.69 69.56,112.68C66.87,116.9 64.79,121.47 62.19,125.74C98.79,126.04 135.41,125.71 172.02,125.68C173.96,125.64 175.88,125.91 177.77,126.36C167.22,152.81 143.51,173.38 115.97,180.47C97.65,185.41 77.88,184.23 60.13,177.63C37.85,169.25 19.08,151.91 9.1,130.28C3.87,120.29 1.73,109.03 0.68,97.9C-1.15,72.21 8.39,45.91 26.47,27.53C41.15,12.18 61.36,2.44 82.43,0Z" style="fill:rgb(200,0,0);fill-rule:nonzero;"/>
    </g>
    <g transform="matrix(0.364946,0,0,0.364946,79.5519,39.2944)">
        <path d="M140.74,62.57C150.17,62.75 159.63,62.2 169.03,63C175.07,63.46 180.75,66.87 183.97,72C189.44,80.33 189.65,90.94 188.14,100.47C186.89,105.84 184.63,111.69 179.8,114.76C178.87,115.54 177.92,116.28 176.88,116.88C172.81,119.61 167.71,119.88 162.97,120.02C155.57,120.05 148.17,120.03 140.77,120.02C140.71,100.87 140.76,81.72 140.74,62.57M152.53,110.3C158.09,110.05 163.84,110.88 169.25,109.32C175.19,107.44 176.37,100.4 176.73,95.03C176.93,88.3 177.31,80.18 171.91,75.22C166.32,71.16 158.94,72.82 152.5,72.35C152.39,85 152.33,97.66 152.53,110.3Z" style="fill-rule:nonzero;"/>
    </g>
    <g transform="matrix(0.364946,0,0,0.364946,79.5519,39.2944)">
        <path d="M291.87,62.58C295.56,62.56 299.24,62.58 302.93,62.59C302.96,72.68 303.1,82.78 302.99,92.87C307.24,88.08 311.5,83.28 315.69,78.43C320.25,78.4 324.82,78.3 329.39,78.46C324.64,83.5 319.92,88.58 315.21,93.66C320.25,102.45 325.41,111.17 330.36,120.02C326.32,119.98 322.28,120.19 318.26,119.86C315.01,113.66 311.45,107.63 308.04,101.51C306.41,103.17 304.68,104.73 303.2,106.53C302.63,110.95 303.26,115.48 303.01,119.95C299.29,120.07 295.58,120.03 291.87,120.01C291.85,100.87 291.85,81.72 291.87,62.58Z" style="fill-rule:nonzero;"/>
    </g>
    <g transform="matrix(0.364946,0,0,0.364946,79.5519,39.2944)">
        <path d="M352.54,77.67C359.04,76.88 366.09,78.49 370.84,83.21C379.65,91.52 379.49,107.26 370.49,115.39C362.64,122.89 349.2,122.63 341.03,115.77C333.73,109.21 332.55,97.47 336.62,88.84C339.42,82.58 345.79,78.39 352.54,77.67M352.26,87.2C348.67,88.61 346.34,92.29 345.95,96.04C345.31,100.87 345.84,106.61 349.91,109.88C354.05,113.3 360.93,112.26 363.75,107.62C366.58,102.91 366.64,96.61 364.27,91.69C362.18,87.37 356.68,85.34 352.26,87.2Z" style="fill-rule:nonzero;"/>
    </g>
    <g transform="matrix(0.364946,0,0,0.364946,79.5519,39.2944)">
        <path d="M201.16,83.04C208.89,74.75 224.46,75.82 230.57,85.52C233.81,90.51 234.23,96.63 234.39,102.41C225.17,102.54 215.94,102.27 206.73,102.54C206.7,107.62 210.44,113.05 215.98,112.63C219.45,112.74 221.8,109.81 222.71,106.77C226.42,107.31 230.11,107.91 233.79,108.62C231.83,114.39 227.03,119.3 220.91,120.42C214.14,121.69 206.24,120.85 201.14,115.78C196.44,110.85 195,103.66 195.55,97.05C195.83,91.95 197.55,86.76 201.16,83.04M206.94,95.6C212.43,95.59 217.92,95.69 223.4,95.54C223.44,90.86 220.18,85.64 215.01,86C209.94,85.85 206.75,90.97 206.94,95.6Z" style="fill-rule:nonzero;"/>
    </g>
    <g transform="matrix(0.364946,0,0,0.364946,79.5519,39.2944)">
        <path d="M243.19,78.43C246.6,78.36 250.02,78.36 253.44,78.4C253.47,80.39 253.47,82.38 253.46,84.37C258.39,77.69 268.33,75.33 275.52,79.68C279.51,81.9 281.03,86.71 281.06,91.02C281.28,100.68 281.12,110.34 281.15,120C277.46,120.05 273.77,120.04 270.08,120.02C269.99,112.02 270.13,104.03 269.99,96.03C269.89,93.28 269.91,90.23 268.12,87.95C265.07,84.84 259.54,85.65 256.84,88.82C254.71,90.95 254.63,94.18 254.39,97C254.1,104.67 254.34,112.35 254.24,120.02C250.55,120.04 246.86,120.04 243.17,120.01C243.16,106.15 243.11,92.29 243.19,78.43Z" style="fill-rule:nonzero;"/>
    </g>
</svg>
