<?xml version="1.0" encoding="UTF-8" standalone="no"?>
<!DOCTYPE svg PUBLIC "-//W3C//DTD SVG 1.1//EN" "http://www.w3.org/Graphics/SVG/1.1/DTD/svg11.dtd">
<svg width="100%" height="100%" viewBox="0 0 300 150" version="1.1" xmlns="http://www.w3.org/2000/svg" xmlns:xlink="http://www.w3.org/1999/xlink" xml:space="preserve" xmlns:serif="http://www.serif.com/" style="fill-rule:evenodd;clip-rule:evenodd;stroke-linejoin:round;stroke-miterlimit:2;">
    <g transform="matrix(0.0786927,0,0,0.0772128,49.5427,-24.4827)">
        <g transform="matrix(3.16745,0,0,3.22816,-30.0657,403.932)">
            <path d="M518.92,44.91C522.18,41.5 525.12,37.77 528.67,34.65C530.92,70.38 533.32,106.12 535.38,141.87C594.36,142.26 653.35,141.75 712.33,142.12C704.33,146.96 696.15,151.54 687.9,155.92C672.95,156.41 657.95,155.98 642.98,156.13C611.97,156.36 580.98,155.33 549.98,154.85C540.39,154.58 530.79,154.63 521.22,154.19C519.87,126.41 518.88,98.6 517.7,70.8C492.61,89.57 468.17,109.23 443.01,127.9C468.17,100.11 493.64,72.6 518.92,44.91Z" style="fill:rgb(0,153,136);fill-rule:nonzero;"/>
        </g>
        <g transform="matrix(3.16745,0,0,3.22816,-30.0657,403.932)">
            <path d="M188.79,119.81C191.8,115.02 197.43,112.13 203.07,112.25C212.42,112.21 221.78,112.28 231.13,112.23C230.53,116.15 229.62,120.02 228.84,123.91C221.86,124.05 214.87,123.77 207.9,124.03C205.8,124.01 204.15,125.79 203.8,127.77C202.21,134.62 200.68,141.5 199.25,148.38C202.23,148.57 205.7,147.57 208.2,149.72C213.2,153.17 218.39,156.35 223.32,159.91C214.46,160.11 205.59,159.94 196.73,160.01C191.92,183.16 186.98,206.28 182.26,229.45C190.45,229.42 198.63,229.42 206.82,229.46C205.11,234.92 201.23,240.56 195,241.01C183.93,241.7 172.8,241.13 161.7,241.31C169.34,204.86 177.11,168.43 184.77,131.99C185.63,127.8 186.39,123.45 188.79,119.81Z" style="fill:rgb(0,153,136);fill-rule:nonzero;"/>
        </g>
        <g transform="matrix(3.16745,0,0,3.22816,-30.0657,403.932)">
            <path d="M233.29,164.38C236.2,161.18 240.75,160.17 244.92,160.09C253.13,159.98 261.33,160.13 269.54,160.02C267.62,170.11 265.42,180.14 263.76,190.27C258.65,190.35 253.54,190.3 248.43,190.33C249.49,183.84 250.83,177.41 251.99,170.94C250.12,171.08 248.09,170.66 246.35,171.48C244.31,172.57 244.13,175.05 243.65,177.05C240,194.91 235.94,212.69 232.44,230.59C234.26,230.5 236.14,230.68 237.92,230.18C239.68,229.55 240.09,227.59 240.52,226C242.03,219.34 243.61,212.69 245.11,206.02C250.23,205.98 255.35,206 260.47,206C258.86,213.2 257.14,220.38 255.43,227.56C254.45,231.39 253.47,235.67 250.09,238.13C246.72,240.93 242.17,241.26 237.98,241.31C230.22,241.32 222.46,241.32 214.7,241.3C219.65,219.43 223.99,197.43 228.65,175.5C229.57,171.6 230.67,167.53 233.29,164.38Z" style="fill:rgb(0,153,136);fill-rule:nonzero;"/>
        </g>
        <g transform="matrix(3.16745,0,0,3.22816,-30.0657,403.932)">
            <path d="M282.56,164.5C285.52,161.45 289.82,160.04 294.01,160.02C300.91,159.94 307.82,160.03 314.72,160C313,161.34 310.87,161.95 308.92,162.85C301.21,166.26 295.18,173.07 292.47,181.03C287.62,196.41 285.6,212.77 278.35,227.34C275.56,232.94 271.4,238.36 265.19,240.3C265.54,240.43 266.24,240.71 266.6,240.85C264,243.98 259.18,244.49 255.64,246.47C255.02,245.15 254.41,243.84 253.82,242.52C257.1,241.68 260.31,240.58 263.47,239.38C267.71,218.61 272.32,197.92 276.72,177.18C277.65,172.6 279.17,167.88 282.56,164.5Z" style="fill:rgb(0,153,136);fill-rule:nonzero;"/>
        </g>
        <g transform="matrix(3.16745,0,0,3.22816,-30.0657,403.932)">
            <path d="M314.16,161.96C315.15,160.38 316.83,160.02 318.59,159.88C313.67,179.96 309.68,200.26 305.33,220.47C304.03,226.67 302.87,233.51 298.09,238.09C293.32,242 286.74,241.21 281,241.32C276.51,241.11 271.95,241.7 267.52,241C269.17,238.96 272.56,239.29 274.69,237.66C285.88,231.12 290.79,218.04 293.57,206.04C296.09,193.02 298.14,179.21 306.2,168.25C308.35,165.68 310.64,162.56 314.16,161.96Z" style="fill:rgb(0,153,136);fill-rule:nonzero;"/>
        </g>
        <g transform="matrix(3.16745,0,0,3.22816,-30.0657,403.932)">
            <path d="M355.62,110.43C367.36,109.9 379.13,110.33 390.88,110.17C387.32,124.59 384.23,139.12 380.9,153.6C374.83,153.81 368.77,154.24 362.71,154.49C365.03,143.66 367.34,132.84 369.8,122.04C366.7,121.75 362.08,121.38 360.88,125.08C359.34,131.2 358.14,137.42 356.74,143.58C355.27,149.93 356.7,156.57 359.6,162.3C363.26,169.47 367.22,176.53 370.12,184.07C372.38,189.83 372.09,196.24 370.71,202.18C368.54,211.76 366.86,221.47 364.19,230.93C363.31,234.95 359.87,237.7 356.32,239.36C352.16,241.2 347.5,241.29 343.03,241.33C334.59,241.29 326.16,241.33 317.74,241.3C321.12,225.91 324.5,210.53 327.98,195.17C333.98,195.2 339.98,195.19 345.98,195.17C343.54,206.62 340.71,217.98 338.45,229.47C341.47,229.32 346.15,230.26 347.32,226.48C349,219.74 350.2,212.88 351.75,206.1C353.21,199.84 353.5,193 350.83,187.02C347.2,178.71 343.48,170.43 339.89,162.09C337.05,155.68 337.8,148.41 339.49,141.8C341.51,133.41 342.62,124.73 345.81,116.67C347.34,112.68 351.49,110.5 355.62,110.43Z" style="fill:rgb(0,174,239);fill-rule:nonzero;"/>
        </g>
        <g transform="matrix(3.16745,0,0,3.22816,-30.0657,403.932)">
            <path d="M405.38,110.23C410.52,110.15 415.66,110.17 420.79,110.22C418.46,120.8 416.2,131.4 413.91,141.99C438.94,142.01 463.97,141.99 488.99,142C496.64,142.02 504.31,141.82 511.94,142.49C478.57,144.82 445.29,148.32 411.95,151.14C406.77,174.89 401.69,198.67 396.52,222.43C396.11,224.71 395.38,227.85 397.78,229.32C400.33,230.33 403.2,229.84 405.89,230.06C405.04,233.79 404.25,237.52 403.48,241.27C397.96,241.21 392.36,241.77 386.93,240.56C383.72,239.79 380.69,237.43 380.06,234.05C379.35,230.34 380.43,226.59 381.14,222.96C386.2,199.5 391.27,176.03 396.29,152.56C392.53,152.86 388.78,153.2 385.04,153.55C385.85,149.74 386.74,145.94 387.51,142.12C391.22,141.97 394.93,142 398.65,141.94C400.79,131.35 403.22,120.82 405.38,110.23Z" style="fill:rgb(0,174,239);fill-rule:nonzero;"/>
        </g>
        <g transform="matrix(3.16745,0,0,3.22816,-30.0657,403.932)">
            <path d="M212.27,142.08C252.41,141.89 292.56,142.06 332.71,142C332.32,145.11 331.86,148.22 331.32,151.32C297.87,152.28 264.41,153.28 230.96,154.23C228.49,154.52 226.79,152.43 224.88,151.24C220.71,148.13 216.36,145.29 212.27,142.08Z" style="fill:rgb(0,174,239);fill-rule:nonzero;"/>
        </g>
        <g transform="matrix(3.16745,0,0,3.22816,-30.0657,403.932)">
            <path d="M431.12,164.11C434.33,161.22 438.79,160.26 443,160.21C450.86,160.1 458.73,160.29 466.59,160.11C462.35,182.65 457.2,205.02 452.61,227.49C451.52,233.98 446.94,240.69 439.86,241.17C430.76,241.53 421.64,241.21 412.53,241.31C414.06,231.81 415.9,222.36 417.79,212.93C418.49,209 420.89,205.57 423.96,203.1C429.23,198.51 436.37,197.07 441.91,192.91C444.51,191.06 445.68,187.92 446.33,184.91C447.31,180.32 448.37,175.73 449.14,171.1C446.59,171.24 443.02,170.67 441.7,173.49C439.99,179.04 438.98,184.79 437.43,190.39C432.35,190.37 427.27,190.37 422.19,190.39C423.46,184.52 424.89,178.68 426.27,172.83C427.06,169.56 428.54,166.35 431.12,164.11M433.72,212.93C431.38,219.19 430.57,225.86 429.4,232.39C432.17,232.22 436.05,232.22 437.03,228.95C438.83,221.44 440.22,213.81 441.62,206.21C438.64,207.88 434.84,209.36 433.72,212.93Z" style="fill:rgb(0,174,239);fill-rule:nonzero;"/>
        </g>
        <g transform="matrix(3.16745,0,0,3.22816,-30.0657,403.932)">
            <path d="M481.25,165.25C484.44,161.68 489.33,160.05 494.03,160.08C501.92,159.98 509.82,160.14 517.71,160.02C515.69,170.16 513.24,180.22 511.08,190.34C506,190.4 500.93,190.4 495.86,190.34C497.15,183.7 498.78,177.13 499.9,170.46C496.72,170.29 492.35,170.96 491.86,174.84C488.05,192.23 484.39,209.66 480.61,227.05C479.66,230.81 478.22,234.64 475.44,237.44C471.83,240.49 466.87,240.85 462.38,241.38C466.73,220.24 471.4,199.17 475.83,178.06C476.74,173.5 478.11,168.81 481.25,165.25Z" style="fill:rgb(0,174,239);fill-rule:nonzero;"/>
        </g>
        <g transform="matrix(3.16745,0,0,3.22816,-30.0657,403.932)">
            <path d="M522.59,162.7C526.71,161.5 530.89,165.9 529.63,169.96C528.66,174.16 522.5,175.91 519.69,172.44C516.71,169.39 518.27,163.47 522.59,162.7M519.29,166.41C518.09,168.87 519.78,171.2 521.05,173.2C523.03,173.31 525.02,173.28 527.01,173.11C525.77,171.3 524.39,169.57 522.56,168.32C522.5,169.26 522.37,171.13 522.3,172.06C520.73,170.2 521.59,167.56 521.37,165.33C522.73,165.38 524.09,165.39 525.46,165.55C525.92,166.77 525.8,168 525.09,169.21C525.81,170.33 526.13,172.33 527.94,171.94C529.1,169.89 529.34,167.21 528,165.18C525.78,162.31 520.5,162.84 519.29,166.41M522.91,166.28C522.37,167.85 522.95,168.39 524.66,167.9C525.17,166.32 524.58,165.78 522.91,166.28Z" style="fill:rgb(0,174,239);fill-rule:nonzero;"/>
        </g>
        <g transform="matrix(3.16745,0,0,3.22816,-30.0657,403.932)">
            <path d="M667.77,163.68C670.34,162.39 673.33,163.1 676.08,163.3C631.42,189.64 586.86,216.14 542.37,242.75C545.34,292.51 548.3,342.26 551,392.03C514.75,365.43 478.44,338.91 442.24,312.24C471.07,323.61 499.76,335.36 528.59,346.74C527.99,310.8 527.2,274.87 526.69,238.94C573.75,213.93 620.73,188.75 667.77,163.68Z" style="fill:rgb(0,174,239);fill-rule:nonzero;"/>
        </g>
        <g transform="matrix(3.16745,0,0,3.22816,-30.0657,403.932)">
            <path d="M178.57,254.72C180.36,254.34 182.65,254.55 183.59,256.37C185.71,261.16 180.65,267.71 175.4,265.58C171.16,262.86 174.18,255.59 178.57,254.72M177.31,256.2C175.27,257.72 174.15,260.51 174.71,263.02C175.25,265.08 177.83,265.48 179.5,264.59C182.02,263.27 183.42,260.03 182.65,257.3C181.95,255.07 178.95,255.13 177.31,256.2Z" style="fill:rgb(0,174,239);fill-rule:nonzero;"/>
        </g>
        <g transform="matrix(3.16745,0,0,3.22816,-30.0657,403.932)">
            <path d="M201.69,258.95C199,258.2 200.33,254.72 202.58,254.22C202.39,255.81 202.1,257.39 201.69,258.95Z" style="fill:rgb(0,174,239);fill-rule:nonzero;"/>
        </g>
        <g transform="matrix(3.16745,0,0,3.22816,-30.0657,403.932)">
            <path d="M250.52,254.62C252.91,254.82 258.22,254.03 257.07,258.06C256.43,261.3 252.69,261.11 250.14,261.25C249.7,263.05 249.32,264.93 248.15,266.43C248.39,262.4 249.59,258.52 250.52,254.62M251.22,255.7C250.95,257.23 250.69,258.77 250.43,260.3C251.9,260.21 253.35,260 254.79,259.68C256.04,258.99 255.73,257.28 256.13,256.13C254.49,255.96 252.86,255.82 251.22,255.7Z" style="fill:rgb(0,174,239);fill-rule:nonzero;"/>
        </g>
        <g transform="matrix(3.16745,0,0,3.22816,-30.0657,403.932)">
            <path d="M265.3,254.59C267.45,254.88 270.11,254.25 271.8,255.96C272.83,260.19 268.12,261.69 264.81,261.24C264.38,262.92 263.93,264.6 263.41,266.26C262.45,262.35 264.52,258.41 265.3,254.59M265.96,255.68C265.64,257.19 265.32,258.71 265.02,260.23C267.03,259.95 270.14,260.55 270.69,257.88C271.13,255.15 267.6,255.98 265.96,255.68Z" style="fill:rgb(0,174,239);fill-rule:nonzero;"/>
        </g>
        <g transform="matrix(3.16745,0,0,3.22816,-30.0657,403.932)">
            <path d="M334.07,264.83C330.97,260.42 335.89,253.01 341.26,254.83C342.89,255.19 342.93,257.04 343.43,258.3C342.3,257.33 341.31,256.19 340.01,255.46C335.72,255.11 332.39,261.45 335.45,264.53C338.17,266.24 340.44,263.26 342.49,261.89C341.51,265.28 336.85,267.43 334.07,264.83Z" style="fill:rgb(0,174,239);fill-rule:nonzero;"/>
        </g>
        <g transform="matrix(3.16745,0,0,3.22816,-30.0657,403.932)">
            <path d="M351.52,254.7C354.01,254.72 356.51,254.71 359,254.86C357.1,256.31 354.5,255.59 352.28,255.86C352.11,256.81 351.75,258.71 351.57,259.66C353.27,259.61 354.98,259.58 356.7,259.53C356.71,259.8 356.75,260.32 356.77,260.58C354.9,260.58 353.03,260.59 351.17,260.62C350.97,261.66 350.57,263.73 350.37,264.77C352.45,264.9 354.77,264.35 356.65,265.53C354.11,265.79 351.56,265.78 349.01,265.79C349.78,262.08 350.64,258.39 351.52,254.7Z" style="fill:rgb(0,174,239);fill-rule:nonzero;"/>
        </g>
        <g transform="matrix(3.16745,0,0,3.22816,-30.0657,403.932)">
            <path d="M375.78,254.71C377.54,254.75 379.32,254.64 381.06,254.96C383.12,255.61 382.74,258.33 381.6,259.62C380.18,261.51 377.54,260.99 375.51,261.2C374.9,262.91 374.98,265.09 373.32,266.2C373.84,262.31 374.93,258.53 375.78,254.71M376.62,255.72C376.29,257.23 375.96,258.73 375.65,260.25C377.32,259.84 379.8,260.62 380.86,258.89C380.99,258.17 381.23,256.72 381.35,255.99C379.77,255.89 378.19,255.8 376.62,255.72Z" style="fill:rgb(0,174,239);fill-rule:nonzero;"/>
        </g>
        <g transform="matrix(3.16745,0,0,3.22816,-30.0657,403.932)">
            <path d="M409.6,254.65C411.37,254.32 413.67,254.83 414.37,256.71C416.12,261.64 410.76,268.04 405.61,265.36C401.91,262.17 405.07,255.23 409.6,254.65M408.19,256.08C405.56,257.71 403.91,262.14 406.39,264.56C410.98,266.81 415.31,260.09 412.75,256.29C411.44,255.25 409.59,255.25 408.19,256.08Z" style="fill:rgb(0,174,239);fill-rule:nonzero;"/>
        </g>
        <g transform="matrix(3.16745,0,0,3.22816,-30.0657,403.932)">
            <path d="M423.31,254.6C425.68,254.98 428.97,254.01 430.55,256.32C431.63,259.02 430.6,262.36 428.57,264.36C426.39,266.35 423.27,265.69 420.6,265.6C421.49,261.93 422.27,258.23 423.31,254.6M424.01,255.69C423.3,258.77 422.61,261.86 422.05,264.97C424.3,264.59 427.41,265.1 428.66,262.64C429.64,260.8 430.63,258.03 428.92,256.29C427.38,255.6 425.64,255.84 424.01,255.69Z" style="fill:rgb(0,174,239);fill-rule:nonzero;"/>
        </g>
        <g transform="matrix(3.16745,0,0,3.22816,-30.0657,403.932)">
            <path d="M454.99,265.05C451.94,260.81 456.09,253.68 461.39,254.64C463.33,254.71 463.85,256.77 464.38,258.25C463.25,257.34 462.2,256.36 461.03,255.53C456.61,254.85 453.13,261.54 456.33,264.58C459.09,266.21 461.29,263.19 463.39,261.84C462.33,265.22 458.02,267.27 454.99,265.05Z" style="fill:rgb(0,174,239);fill-rule:nonzero;"/>
        </g>
        <g transform="matrix(3.16745,0,0,3.22816,-30.0657,403.932)">
            <path d="M470.63,255.48C473.24,254.16 476.73,254.31 479.42,255.38C478.23,256.02 475.58,255.11 475.28,256.9C474.04,259.91 474.73,263.91 472.25,266.28C472.63,262.75 473.62,259.32 474.36,255.86C473.42,255.76 471.56,255.58 470.63,255.48Z" style="fill:rgb(0,174,239);fill-rule:nonzero;"/>
        </g>
        <g transform="matrix(3.16745,0,0,3.22816,-30.0657,403.932)">
            <path d="M485.42,259.35C483.64,254.62 492.46,252.34 492.86,257.56C492.59,257.6 492.03,257.68 491.75,257.72C491.38,254.52 486.38,254.97 486.23,258.01C487.58,260.01 491.58,259.29 491.77,262.1C491.55,266.65 483.62,267.59 483.32,262.54C483.58,262.47 484.1,262.35 484.36,262.28C484.68,266.18 490.82,265.65 490.65,261.92C489.06,260.76 487.1,260.33 485.42,259.35Z" style="fill:rgb(0,174,239);fill-rule:nonzero;"/>
        </g>
        <g transform="matrix(3.16745,0,0,3.22816,-30.0657,403.932)">
            <path d="M156.39,266.1C157.52,262.31 157.15,257.61 159.88,254.57C159.63,256.21 159.3,257.84 158.95,259.47C161,259.48 163.06,259.48 165.12,259.47C165.57,257.69 165.87,255.8 167.13,254.37C166.42,258.38 166.23,262.76 164.02,266.29C164.16,264.3 164.48,262.33 164.79,260.36C162.75,260.41 160.72,260.45 158.69,260.51C158,262.35 158.41,265.04 156.39,266.1Z" style="fill:rgb(0,174,239);fill-rule:nonzero;"/>
        </g>
        <g transform="matrix(3.16745,0,0,3.22816,-30.0657,403.932)">
            <path d="M192.32,255.25C194.14,253.23 195.77,257.09 193.36,257.65C191.84,259.48 191.17,256.04 192.32,255.25Z" style="fill:rgb(0,174,239);fill-rule:nonzero;"/>
        </g>
        <g transform="matrix(3.16745,0,0,3.22816,-30.0657,403.932)">
            <path d="M210.47,255.04C212.83,254.74 215.22,254.61 217.58,255C215.66,256.04 213.41,255.79 211.31,256.08C211.17,256.97 210.87,258.75 210.73,259.63C212.38,259.6 214.04,259.58 215.7,259.54C215.74,259.8 215.82,260.34 215.87,260.6C214.02,260.6 212.19,260.61 210.35,260.65C210.13,261.64 209.68,263.63 209.45,264.62C211.48,264.82 213.68,264.51 215.51,265.6C213.05,265.8 210.58,265.77 208.12,265.75C208.95,262.19 209.78,258.63 210.47,255.04Z" style="fill:rgb(0,174,239);fill-rule:nonzero;"/>
        </g>
        <g transform="matrix(3.16745,0,0,3.22816,-30.0657,403.932)">
            <path d="M231.05,266.18C233.03,261.97 235.85,258.22 238.36,254.32C240.5,257.9 240.53,262.33 240.96,266.37C240.1,265.09 239.63,263.62 239.14,262.18C237.51,262.24 235.88,262.31 234.26,262.4C233.36,263.79 232.62,265.41 231.05,266.18M238.44,260.78C239.1,259.64 238.96,258.66 238.01,257.82C235.34,257.79 235.73,262.91 238.44,260.78Z" style="fill:rgb(0,174,239);fill-rule:nonzero;"/>
        </g>
        <g transform="matrix(3.16745,0,0,3.22816,-30.0657,403.932)">
            <path d="M279.69,255.54C279.97,255.34 280.52,254.93 280.8,254.73C280.15,258.09 279.22,261.4 278.65,264.78C280.56,264.9 282.69,264.44 284.38,265.62C281.99,265.79 279.59,265.76 277.2,265.73C278.08,262.35 278.54,258.84 279.69,255.54Z" style="fill:rgb(0,174,239);fill-rule:nonzero;"/>
        </g>
        <g transform="matrix(3.16745,0,0,3.22816,-30.0657,403.932)">
            <path d="M291.38,266.11C292.53,262.27 292.15,257.57 294.85,254.43C294.4,257.71 293.65,260.94 292.82,264.14C292.69,265.04 292.21,265.69 291.38,266.11Z" style="fill:rgb(0,174,239);fill-rule:nonzero;"/>
        </g>
        <g transform="matrix(3.16745,0,0,3.22816,-30.0657,403.932)">
            <path d="M306.32,254.82C306.61,254.93 307.17,255.13 307.46,255.24C308.33,258.79 308.94,262.41 309.6,266.01C307.77,265.73 308.2,263.61 307.74,262.33C306.16,262.28 304.59,262.18 303.02,262.32C301.8,263.58 300.91,265.28 299.23,266.01C301.47,262.21 303.81,258.45 306.32,254.82M303.33,261.29C304.37,261.32 306.46,261.37 307.5,261.4C307.21,259.65 306.92,257.9 306.62,256.16C305.45,257.82 304.35,259.53 303.33,261.29Z" style="fill:rgb(0,174,239);fill-rule:nonzero;"/>
        </g>
        <g transform="matrix(3.16745,0,0,3.22816,-30.0657,403.932)">
            <path d="M316.26,266.22C317.14,262.27 317.15,257.76 319.56,254.38C321,257.33 322.23,260.38 323.64,263.34C325.35,260.53 324.72,256.8 326.97,254.29C326.48,258.35 325.42,262.31 324.37,266.25C321.82,263.66 321.17,259.9 319.25,256.89C318.01,259.85 318.79,263.92 316.26,266.22Z" style="fill:rgb(0,174,239);fill-rule:nonzero;"/>
        </g>
        <g transform="matrix(3.16745,0,0,3.22816,-30.0657,403.932)">
            <path d="M390.33,254.81C392.72,255.13 396.49,253.64 397.77,256.35C398.24,258.65 396.29,259.96 394.49,260.78C395.36,262.49 396.18,264.22 396.88,266.01C394.46,265.54 394.54,262.46 392.93,261.04C392.24,260.94 390.86,260.74 390.17,260.63C389.69,262.61 389.5,264.78 388.08,266.37C388.37,262.44 389.56,258.66 390.33,254.81M391.19,255.78C391,256.8 390.61,258.84 390.42,259.87C392.29,259.63 394.36,259.98 396.06,258.95C396.18,258.18 396.42,256.64 396.55,255.87C394.75,255.82 392.97,255.79 391.19,255.78Z" style="fill:rgb(0,174,239);fill-rule:nonzero;"/>
        </g>
        <g transform="matrix(3.16745,0,0,3.22816,-30.0657,403.932)">
            <path d="M437.88,262.1C438.69,259.76 438.03,256.03 440.63,254.82C440.07,257.54 439.16,260.2 438.9,262.98C438.89,265.62 442.67,265.5 444.05,264.04C446.33,261.29 445.12,256.89 447.8,254.38C447.3,257.7 446.93,261.19 445.28,264.17C443.34,267.07 436.55,266.58 437.88,262.1Z" style="fill:rgb(0,174,239);fill-rule:nonzero;"/>
        </g>
        <g transform="matrix(3.16745,0,0,3.22816,-30.0657,403.932)">
            <path d="M195.35,263.54C197.08,261.47 198.4,259.09 200.1,256.99C199.18,260.44 197.23,263.63 194.68,266.11C194.37,263.84 193.51,261.46 194.21,259.19C195.92,259.5 194.6,262.42 195.35,263.54Z" style="fill:rgb(0,174,239);fill-rule:nonzero;"/>
        </g>
        <g transform="matrix(3.16745,0,0,3.22816,-30.0657,403.932)">
            <path d="M190.13,266.22C190.6,263.73 190.47,260.73 192.39,258.83C191.9,261.32 192.18,264.35 190.13,266.22Z" style="fill:rgb(0,174,239);fill-rule:nonzero;"/>
        </g>
        <g transform="matrix(3.16745,0,0,3.22816,-30.0657,403.932)">
            <path d="M199.16,266.25C199.66,264.3 199.3,261.62 200.8,260.15C201.37,262.25 200.76,264.74 199.16,266.25Z" style="fill:rgb(0,174,239);fill-rule:nonzero;"/>
        </g>
        <g transform="matrix(3.16745,0,0,3.22816,-30.0657,403.932)">
            <path d="M190.16,401.08C228.07,358.44 266.18,315.97 303.95,273.21C294.19,287.9 283.63,302.05 273.55,316.53C253.13,345.33 232.77,374.18 212.3,402.96C294.85,360.03 377.16,316.61 459.64,273.55C461.3,272.74 463.21,273.05 465,272.97C472.77,273.12 480.54,272.79 488.31,273.17C378.8,337.03 269.25,400.83 159.72,464.67C141.75,475.05 123.95,485.72 105.87,495.91C133.76,464.12 162.1,432.72 190.16,401.08Z" style="fill:rgb(0,174,239);fill-rule:nonzero;"/>
        </g>
    </g>
</svg>
