<?xml version="1.0" encoding="UTF-8" standalone="no"?>
<!DOCTYPE svg PUBLIC "-//W3C//DTD SVG 1.1//EN" "http://www.w3.org/Graphics/SVG/1.1/DTD/svg11.dtd">
<svg width="100%" height="100%" viewBox="0 0 300 150" version="1.1" xmlns="http://www.w3.org/2000/svg" xmlns:xlink="http://www.w3.org/1999/xlink" xml:space="preserve" xmlns:serif="http://www.serif.com/" style="fill-rule:evenodd;clip-rule:evenodd;stroke-linejoin:round;stroke-miterlimit:2;">
    <g id="path3363" transform="matrix(0.202928,0,0,0.202928,14.2792,-24.1817)">
        <path d="M158.5,595.4L387.8,595.4L387.8,367.7L158.5,367.7L158.5,595.4ZM305.5,385.1C346.1,398.3 375.3,436.4 375.4,481.5C375.5,525.9 346.8,563.9 305.5,578L305.5,385.1ZM273.1,379.9C280.4,379.9 288.2,380.8 294.7,382.2C294.7,433.8 244.4,476.2 192.6,476.2L170.9,476.2C174.5,423.3 218.6,379.9 273.1,379.9M192.6,486.9C244.5,486.9 294.7,529.3 294.7,580.9C288.2,582.2 280,583.2 273.1,583.2C218.5,583.1 173,539.6 170.9,486.9L192.6,486.9Z" style="fill:rgb(0,45,98);fill-rule:nonzero;"/>
    </g>
    <g id="path3365" transform="matrix(0.202928,0,0,0.202928,14.2792,-24.1817)">
        <path d="M464.6,501.5L464.6,487.2L512.3,487.2L512.3,468.9L464.6,468.9L464.6,442.3L515.4,442.3L515.4,424.1L445.1,424.1L445.1,500.9C445.1,520.3 453.4,533.6 472.9,536.3C473.3,536.4 473.7,536.4 474,536.4L474.4,536.4C476.4,536.6 478.4,536.8 480.6,536.8L516.7,536.8L516.7,518.6L480.7,518.6C474.5,518.4 464.6,515.4 464.6,501.5" style="fill:rgb(0,45,98);fill-rule:nonzero;"/>
    </g>
    <g id="path3367" transform="matrix(0.202928,0,0,0.202928,14.2792,-24.1817)">
        <path d="M530.6,424L530.6,536.7L550.2,536.7L550.2,424L530.6,424Z" style="fill:rgb(0,45,98);fill-rule:nonzero;"/>
    </g>
    <g id="path3369" transform="matrix(0.202928,0,0,0.202928,14.2792,-24.1817)">
        <path d="M606.2,452.6C581.5,452.6 563,469.5 563,495.8L563,496.5C563,522.2 580.9,538.8 606.7,538.8C619.1,538.8 630.7,535.4 641.4,524.2L629.6,512.8C623.4,519 617.3,522.2 607.3,522.2C592.8,522.2 583.1,513.8 582.5,500.8L646.6,500.8C646.9,497.6 646.9,494 646.9,494C646.9,470.9 630.7,452.6 606.2,452.6M582.9,487C583.8,477.1 593.9,469.1 606.1,469.1C617.6,469.1 626.9,477.2 626.9,487L582.9,487Z" style="fill:rgb(0,45,98);fill-rule:nonzero;"/>
    </g>
    <g id="path3371" transform="matrix(0.202928,0,0,0.202928,14.2792,-24.1817)">
        <path d="M701.9,470C710.7,470 717.2,473.2 722.8,478.9L734.9,466.4C725.4,456.4 714.1,452.3 701.9,452.3C677,452.3 657,470.6 657,495.6C657,520.6 676.9,539 701.8,539C714,539 725.3,534.9 734.8,524.8L722.7,512.3C717.1,518 710.6,521.3 701.8,521.3C687.4,521.3 676.4,510.4 676.4,495.6C676.5,480.9 687.4,470 701.9,470" style="fill:rgb(0,45,98);fill-rule:nonzero;"/>
    </g>
    <g id="path3373" transform="matrix(0.202928,0,0,0.202928,14.2792,-24.1817)">
        <path d="M766.6,501.5L766.6,472.8L784.4,472.8L784.4,455.1L766.7,455.1L766.7,423.9L747.1,423.9L747.1,502.7C747.7,521 756,533.5 774.9,536.1C775.3,536.2 775.7,536.3 776.1,536.3L776.4,536.3C778.4,536.5 780.5,536.7 782.6,536.7L784.7,536.7L784.7,518.5L782.7,518.5C776.5,518.4 766.6,515.4 766.6,501.5" style="fill:rgb(0,45,98);fill-rule:nonzero;"/>
    </g>
    <g id="path3375" transform="matrix(0.202928,0,0,0.202928,14.2792,-24.1817)">
        <path d="M820.2,467.3L820.2,455.2L800.8,455.2L800.8,536.7L820.2,536.7L820.2,493.8C820.2,480.4 828.8,471.9 842.3,471.9C845.4,471.9 848.2,472.2 850.4,472.7L850.4,453.9C849.6,453.7 846.7,453.4 844.6,453.4C832.9,453.5 824.1,458.9 820.2,467.3" style="fill:rgb(0,45,98);fill-rule:nonzero;"/>
    </g>
    <g id="path3377" transform="matrix(0.202928,0,0,0.202928,14.2792,-24.1817)">
        <path d="M898.2,452.7C873.3,452.7 853.4,471.5 853.4,495.9C853.4,520.3 873.2,539.1 898.2,539.1C922.9,539.1 943,520.3 943,495.9C943,471.5 923,452.7 898.2,452.7M898.2,521.5C883.7,521.5 872.8,510.3 872.8,495.9C872.8,481.5 883.7,470.3 898.2,470.3C912.6,470.3 923.6,481.5 923.6,495.9C923.6,510.3 912.6,521.5 898.2,521.5" style="fill:rgb(0,45,98);fill-rule:nonzero;"/>
    </g>
    <g id="path3379" transform="matrix(0.202928,0,0,0.202928,14.2792,-24.1817)">
        <path d="M955,423.9L955,536.6L974.6,536.6L974.6,423.9L955,423.9Z" style="fill:rgb(0,45,98);fill-rule:nonzero;"/>
    </g>
    <g id="path3381" transform="matrix(0.202928,0,0,0.202928,14.2792,-24.1817)">
        <path d="M1045.1,502.5C1045.1,515.4 1037.5,520.9 1027.2,520.9C1017,520.9 1009.3,515.4 1009.3,502.7L1009.3,455.1L989.6,455.1L989.6,504.3C989.6,527.6 1006.7,538.8 1027,538.8C1047.5,538.8 1064.8,527.5 1064.8,503.9L1064.8,455.2L1045.1,455.2L1045.1,502.5Z" style="fill:rgb(0,45,98);fill-rule:nonzero;"/>
    </g>
    <g id="path3383" transform="matrix(0.202928,0,0,0.202928,14.2792,-24.1817)">
        <path d="M1138.7,510.6L1126.4,493.5L1141.7,472.9L1154.7,455.2L1133.4,455.2L1115.6,479.6L1097.7,455.2L1076.5,455.2L1088.6,471.7L1104.8,493.7L1087.8,517.2L1073.7,536.8L1094.7,536.8L1115.5,508L1136.4,536.8L1157.4,536.8L1138.7,510.6Z" style="fill:rgb(0,45,98);fill-rule:nonzero;"/>
    </g>
</svg>
