<?xml version="1.0" encoding="UTF-8" standalone="no"?>
<!DOCTYPE svg PUBLIC "-//W3C//DTD SVG 1.1//EN" "http://www.w3.org/Graphics/SVG/1.1/DTD/svg11.dtd">
<svg width="100%" height="100%" viewBox="0 0 300 150" version="1.1" xmlns="http://www.w3.org/2000/svg" xmlns:xlink="http://www.w3.org/1999/xlink" xml:space="preserve" xmlns:serif="http://www.serif.com/" style="fill-rule:evenodd;clip-rule:evenodd;stroke-linejoin:round;stroke-miterlimit:2;">
    <g transform="matrix(0.0769195,0,0,0.0769195,51.8504,49.5396)">
        <g transform="matrix(5.35196,0,0,5.35196,-85.0006,-27.8602)">
            <path d="M431.18,39.05C437.58,45.29 443.82,51.7 450.19,57.98C456.6,51.74 462.82,45.32 469.2,39.05C470.89,40.76 472.61,42.44 474.32,44.14C468.22,50.65 461.72,56.75 455.52,63.16C461.63,69.67 468.12,75.81 474.35,82.2C472.6,83.88 470.89,85.58 469.19,87.3C462.82,81.08 456.69,74.61 450.19,68.51C443.86,74.43 438.19,81.07 431.64,86.75C429.33,85.99 427.85,83.79 426.05,82.25C432.3,75.83 438.76,69.6 445,63.16C438.73,56.79 432.35,50.54 426.09,44.17C427.79,42.47 429.49,40.76 431.18,39.05Z" style="fill:white;fill-rule:nonzero;"/>
        </g>
        <g transform="matrix(5.35196,0,0,5.35196,-85.0006,-27.8602)">
            <path d="M14.12,8.91C29.03,8.84 43.94,8.83 58.86,8.92C58.86,11.72 58.87,14.52 58.9,17.32C46.85,17.48 34.8,17.43 22.75,17.34C22.48,25.63 22.56,33.92 22.68,42.21C34.73,42.32 46.79,42.26 58.85,42.24C58.85,45.08 58.85,47.93 58.86,50.77C46.8,50.76 34.74,50.7 22.68,50.8C22.77,57.42 21.93,64.14 23.28,70.67C24.78,76.81 30.62,81.68 36.98,81.83C44.27,82.03 51.58,81.75 58.88,81.91C58.86,84.87 58.85,87.83 58.85,90.79C51.26,90.64 43.66,91.07 36.09,90.6C26.79,90.08 18.33,83.4 15.39,74.62C14.2,71.22 14.07,67.58 14.07,64.02C14.16,45.65 14.09,27.28 14.12,8.91Z" style="fill:rgb(55,55,55);fill-rule:nonzero;"/>
        </g>
        <g transform="matrix(5.35196,0,0,5.35196,-85.0006,-27.8602)">
            <path d="M339.71,8.88C342.51,8.88 345.32,8.88 348.13,8.87C348.18,36.18 348.24,63.49 348.1,90.8C345.31,90.8 342.52,90.8 339.73,90.82C339.56,63.51 339.61,36.19 339.71,8.88Z" style="fill:rgb(55,55,55);fill-rule:nonzero;"/>
        </g>
        <g transform="matrix(5.35196,0,0,5.35196,-85.0006,-27.8602)">
            <path d="M130.23,45.26C136.91,36.77 148.76,33.02 159.16,35.81C164.82,37.08 169.66,40.53 173.54,44.73C162.48,56.04 151.08,67.01 140.11,78.4C144.94,81.68 151.03,83.74 156.81,81.91C162.91,80.55 167.23,75.63 170.44,70.59C173.05,71.68 175.68,72.72 178.31,73.77C174.48,82.2 166.94,89.01 157.67,90.63C144.91,93.45 130.91,86.02 126.09,73.88C122.33,64.5 123.74,53.11 130.23,45.26M133.25,58.22C131.89,62.61 133.08,67.17 134.25,71.46C139.51,67 144.15,61.89 149.05,57.06C152.97,53.2 156.96,49.39 160.49,45.17C157.06,44.29 153.54,43.37 149.96,43.74C142.13,44.53 135.1,50.54 133.25,58.22Z" style="fill:rgb(55,55,55);fill-rule:nonzero;"/>
        </g>
        <g transform="matrix(5.35196,0,0,5.35196,-85.0006,-27.8602)">
            <path d="M195.66,39.68C198.97,37.03 203.09,35.81 207.11,34.7C207.58,37.46 208.03,40.22 208.51,42.97C204.57,44.56 200.45,46.35 197.84,49.87C195.27,52.95 194.72,57.09 194.75,60.97C194.79,70.91 194.82,80.85 194.8,90.79C191.85,90.78 188.91,90.78 185.96,90.8C185.87,80.51 185.78,70.22 185.95,59.94C185.97,52.18 189.37,44.36 195.66,39.68Z" style="fill:rgb(55,55,55);fill-rule:nonzero;"/>
        </g>
        <g transform="matrix(5.35196,0,0,5.35196,-85.0006,-27.8602)">
            <path d="M224.47,39.52C229.64,36.16 235.92,34.71 242.05,35.22C252.62,35.76 262.21,43.32 265.9,53.12C268.56,60.45 267.61,68.38 267.77,76C267.63,83.63 268.53,91.55 265.9,98.89C262.14,109.56 251.34,117.17 240.01,117.1C231.97,117.43 224.49,113.56 218.82,108.1C220.87,106.07 222.91,104.02 224.92,101.96C227.83,104.22 230.8,106.59 234.4,107.64C243.17,110.6 253.45,105.56 257.18,97.24C259.25,93.11 258.86,88.38 258.98,83.91C254.61,86.76 250.08,89.78 244.8,90.54C238.79,91.34 232.42,90.84 226.98,88.01C218.1,83.51 211.96,74.02 211.8,64.03C211.34,54.4 216.34,44.71 224.47,39.52M234.4,44.48C224.96,47.07 218.45,57.57 220.82,67.16C222.77,76.17 231.76,83.1 241.02,82.29C251.48,81.82 260.28,71.54 258.84,61.08C258.11,49.57 245.38,40.91 234.4,44.48Z" style="fill:rgb(55,55,55);fill-rule:nonzero;"/>
        </g>
        <g transform="matrix(5.35196,0,0,5.35196,-85.0006,-27.8602)">
            <path d="M298.38,35.56C307.64,33.87 317.65,36.97 324.05,43.93C332.63,52.93 333.93,67.79 327.15,78.2C322.38,85.67 313.9,90.69 305.01,90.96C296.35,91.46 287.51,87.78 282.04,81C275.36,73.11 273.68,61.39 277.92,51.95C281.44,43.53 289.37,37.1 298.38,35.56M298.4,44.48C291.82,46.39 286.3,51.89 284.77,58.62C282.84,66.29 286.34,74.75 292.87,79.11C298.9,83.26 307.36,83.42 313.55,79.53C321.25,75.02 325.05,64.71 321.65,56.37C318.31,47.38 307.72,41.51 298.4,44.48Z" style="fill:rgb(55,55,55);fill-rule:nonzero;"/>
        </g>
        <g transform="matrix(5.35196,0,0,5.35196,-85.0006,-27.8602)">
            <path d="M355.91,34.83C358.87,34.84 361.84,34.85 364.81,34.85C364.77,43.9 364.83,52.95 364.74,62C364.76,65.86 364.6,69.96 366.49,73.47C368.99,78.52 374.42,81.82 380,82.14C386.16,82.27 392.28,78.59 394.89,72.98C396.55,69.57 396.32,65.68 396.35,62C396.25,52.96 396.33,43.93 396.27,34.89C399.23,34.87 402.19,34.84 405.16,34.8C405.24,43.53 405.19,52.26 405.23,61C405.22,66.55 405.03,72.37 402.39,77.4C399.07,83.68 393.09,88.72 386.04,90.15C377.56,92.12 368.05,89.29 362.34,82.63C357.81,77.98 355.97,71.41 355.91,65.05C355.8,54.97 355.9,44.9 355.91,34.83Z" style="fill:rgb(55,55,55);fill-rule:nonzero;"/>
        </g>
        <g transform="matrix(5.35196,0,0,5.35196,-85.0006,-27.8602)">
            <path d="M75.46,41.49C81.41,36.25 90.01,34.36 97.65,36.35C105.84,38.28 112.67,44.9 114.99,52.97C115.95,56.21 115.93,59.63 115.93,62.99C115.87,72.12 115.86,81.26 115.93,90.4C113.06,90.37 110.2,90.31 107.33,90.28C107.42,80.51 107.44,70.74 107.41,60.97C107.58,55.19 104.68,49.34 99.57,46.47C92.86,42.17 83.27,44.3 78.77,50.8C74.97,55.68 75.55,62.19 75.54,68C75.62,75.42 75.51,82.85 75.64,90.27C72.78,90.31 69.91,90.37 67.05,90.41C67.15,80.27 67.02,70.13 67.07,59.98C67.08,53 70.13,46.05 75.46,41.49Z" style="fill:rgb(55,55,55);fill-rule:nonzero;"/>
        </g>
        <g transform="matrix(5.35196,0,0,5.35196,-85.0006,-27.8602)">
            <path d="M415.15,26.73C438.74,26.57 462.33,26.61 485.92,26.71C485.82,45.16 485.94,63.61 485.89,82.06C486.19,90.07 479.11,97.59 471.04,97.43C452.41,97.41 433.78,97.54 415.15,97.33C415.19,73.8 415.2,50.26 415.15,26.73M431.18,39.05C429.49,40.76 427.79,42.47 426.09,44.17C432.35,50.54 438.73,56.79 445,63.16C438.76,69.6 432.3,75.83 426.05,82.25C427.85,83.79 429.33,85.99 431.64,86.75C438.19,81.07 443.86,74.43 450.19,68.51C456.69,74.61 462.82,81.08 469.19,87.3C470.89,85.58 472.6,83.88 474.35,82.2C468.12,75.81 461.63,69.67 455.52,63.16C461.72,56.75 468.22,50.65 474.32,44.14C472.61,42.44 470.89,40.76 469.2,39.05C462.82,45.32 456.6,51.74 450.19,57.98C443.82,51.7 437.58,45.29 431.18,39.05Z" style="fill:rgb(209,9,17);fill-rule:nonzero;"/>
        </g>
    </g>
</svg>
