<?xml version="1.0" encoding="UTF-8" standalone="no"?>
<!DOCTYPE svg PUBLIC "-//W3C//DTD SVG 1.1//EN" "http://www.w3.org/Graphics/SVG/1.1/DTD/svg11.dtd">
<svg width="100%" height="100%" viewBox="0 0 300 150" version="1.1" xmlns="http://www.w3.org/2000/svg" xmlns:xlink="http://www.w3.org/1999/xlink" xml:space="preserve" xmlns:serif="http://www.serif.com/" style="fill-rule:evenodd;clip-rule:evenodd;stroke-linejoin:round;stroke-miterlimit:2;">
    <g id="_-010606ff" serif:id="#010606ff" transform="matrix(0.511916,0,0,0.544752,-30.2474,36.2473)">
        <path d="M326.32,15.12C334.86,14.53 343.44,14.97 352,14.86C348.63,29.48 344.65,43.97 341,58.53C340.45,60.19 340.44,62.24 338.88,63.36C334.5,47.33 330.77,31.13 326.32,15.12Z" style="fill:rgb(1,6,6);fill-rule:nonzero;"/>
        <path d="M166.43,36.43C170.3,31.48 176.79,29.25 182.92,29.42C195.42,29.51 207.93,29.23 220.43,29.58C220.64,34.55 220.63,39.52 220.45,44.49C209.63,44.96 198.79,44.53 187.96,44.7C186.09,44.78 184.27,45.19 182.44,45.53C178.25,50.25 180.2,56.89 179.67,62.59C191.57,63.9 203.6,62.63 215.55,63.29C215.76,68.03 215.81,72.77 215.48,77.5C204.27,77.88 193.05,77.56 181.84,77.66C179.68,77 179.64,79.62 179.72,80.95C179.59,91.36 180.12,101.8 179.43,112.2C173.84,112.27 168.25,112.26 162.66,112.19C161.51,108.21 161.93,104.05 161.89,99.97C161.89,84.33 161.9,68.69 161.88,53.05C161.92,47.28 162.59,41.03 166.43,36.43Z" style="fill:rgb(1,6,6);fill-rule:nonzero;"/>
        <path d="M246.57,35.4C247.4,32.72 249.17,29.68 252.3,29.51C256.97,29.21 261.7,29.16 266.36,29.56C269.66,30.1 270.72,33.79 271.73,36.48C278.82,57.9 286,79.28 293.06,100.71C294.25,104.49 296.01,108.15 296.36,112.15C290.09,112.07 283.74,112.83 277.55,111.65C275.69,106.05 274.18,100.34 272.33,94.74C263.39,94.72 254.44,94.83 245.5,94.68C243.47,100.17 241.95,105.82 240.22,111.41C236.93,112.65 233.39,112.19 229.97,112.26C227.08,112.26 224.09,112.54 221.37,111.37C229.68,86.02 238.18,60.73 246.57,35.4M254.44,63.98C252.99,69.45 250.9,74.75 249.86,80.33C255.91,80.38 261.95,80.36 268,80.34C266.87,75.59 265.29,70.97 263.92,66.29C262.16,60.08 260.92,53.72 258.95,47.57C257.06,52.93 255.96,58.51 254.44,63.98Z" style="fill:rgb(1,6,6);fill-rule:nonzero;"/>
        <path d="M305.61,29.7C311.52,29.39 317.46,29.43 323.38,29.66C323.94,46.77 323.37,63.91 323.67,81.02C323.97,85.69 324.93,91 329.04,93.87C334.54,97.49 342.04,97.67 347.93,94.86C352.01,92.9 354.27,88.45 354.57,84.07C355.82,72.42 354.92,60.66 355.14,48.96C355.39,42.5 354.75,36.02 355.45,29.57C361.02,29.6 366.62,29.22 372.17,29.71C373.87,30.93 373.24,33.16 373.4,34.95C373.28,49.63 373.36,64.31 373.26,79C372.79,87.61 371.81,97.11 365.65,103.72C359.15,110.67 349.07,112.16 340.03,112.57C330.79,112.43 320.6,111.05 313.59,104.45C306.58,97.28 305.38,86.59 305.43,77.02C305.58,61.25 305.09,45.46 305.61,29.7Z" style="fill:rgb(1,6,6);fill-rule:nonzero;"/>
        <path d="M390.28,37.01C389.96,33.94 391.23,29.63 394.95,29.55C405.97,29.24 417,29.49 428.03,29.43C436.4,29.41 445.61,32.66 449.83,40.37C454.03,48.31 454.82,58.45 450.42,66.49C447.71,71.8 442.34,75.39 436.41,75.92C437.02,87.66 442.56,98.94 451,107.04C452.4,108.15 452.62,109.93 452.95,111.57C448.03,112.7 442.93,112.25 437.93,112.14C434.18,112.2 431.76,109.08 429.71,106.39C422.63,96.4 419.19,84.14 418.69,71.99C418.59,70.11 418.94,68.26 419.37,66.44C423.8,65.4 429.26,66.4 432.55,62.6C435.28,59.87 435.04,55.66 434.57,52.13C434.05,48.1 430,45.12 426.03,45.31C420.19,45.2 414.34,45.31 408.5,45.31C408.49,67.42 408.51,89.53 408.39,111.65C402.44,111.95 396.48,111.85 390.53,111.72C389.97,86.83 390.45,61.91 390.28,37.01Z" style="fill:rgb(1,6,6);fill-rule:nonzero;"/>
        <path d="M487.68,36.21C488.56,33.21 490.4,29.6 493.97,29.48C498.59,29.24 503.26,29.14 507.87,29.58C510.57,30.09 511.86,32.88 512.74,35.2C520.29,57.9 527.8,80.61 535.41,103.3C536.33,106.2 537.68,109.08 537.45,112.21C531.25,111.92 524.88,113.05 518.81,111.47C517.23,106.27 515.78,101.02 514.08,95.86C513.85,95.61 513.4,95.1 513.18,94.84C504.38,94.59 495.57,94.83 486.77,94.75C485.05,100.38 483.37,106.03 481.47,111.6C475.38,112.55 469,112.75 462.96,111.49C470.74,86.26 479.64,61.37 487.68,36.21M499.96,48.63C497.2,59.26 494.14,69.8 491.08,80.34C497.25,80.37 503.41,80.37 509.57,80.34C506.49,70.33 503.68,60.25 501.13,50.1C500.83,49.73 500.25,48.99 499.96,48.63Z" style="fill:rgb(1,6,6);fill-rule:nonzero;"/>
    </g>
</svg>
