<?xml version="1.0" encoding="UTF-8" standalone="no"?>
<!DOCTYPE svg PUBLIC "-//W3C//DTD SVG 1.1//EN" "http://www.w3.org/Graphics/SVG/1.1/DTD/svg11.dtd">
<svg width="100%" height="100%" viewBox="0 0 300 150" version="1.1" xmlns="http://www.w3.org/2000/svg" xmlns:xlink="http://www.w3.org/1999/xlink" xml:space="preserve" xmlns:serif="http://www.serif.com/" style="fill-rule:evenodd;clip-rule:evenodd;stroke-linejoin:round;stroke-miterlimit:2;">
    <g transform="matrix(0.0889922,0,0,0.0889922,32.0096,-40.6801)">
        <path d="M217.062,1266.17L348.173,1266.17L348.173,1193.93L552.862,1193.93L552.862,1088.24L348.173,1088.24L348.173,1049.44L566.234,1049.44L566.234,937.066L282.611,937.066C246.676,937.129 217.126,966.68 217.062,1002.62L217.062,1266.17ZM650.524,1200.62C650.524,1236.75 681.289,1266.17 717.41,1266.17L1033.15,1266.17L1033.15,937.066L902.034,937.066L902.034,1153.79L782.959,1153.79L782.959,937.066L598.334,937.066L598.334,1049.45L650.512,1049.45L650.512,1200.62L650.524,1200.62ZM1348.86,1049.45L1402.38,1049.45L1402.38,937.066L1217.76,937.066L1217.76,1153.79L1066.58,1153.79L1066.58,1266.17L1283.32,1266.17C1319.25,1266.11 1348.8,1236.56 1348.86,1200.62L1348.86,1049.45ZM1488.01,1049.45L1434.51,1049.45L1434.51,937.066L1619.12,937.066L1619.12,1266.17L1488.01,1266.17L1488.01,1049.45ZM489.972,1347.77L489.972,1394.6L302.675,1394.6L302.675,1444.09L473.915,1444.09L473.915,1482.88L302.675,1482.88L302.675,1532.38L489.972,1532.38L489.972,1579.21L282.611,1579.21C282.577,1579.21 282.542,1579.21 282.507,1579.21C255.413,1579.21 233.118,1556.92 233.118,1529.82C233.118,1529.78 233.118,1529.75 233.119,1529.71L233.119,1347.77L489.972,1347.77ZM217.062,1331.72L217.062,1529.73C217.119,1565.67 246.671,1595.23 282.611,1595.29L506.028,1595.29L506.028,1516.36L318.732,1516.36L318.732,1500.3L489.972,1500.3L489.972,1428.08L318.732,1428.08L318.732,1410.68L506.028,1410.68L506.028,1331.74L217.062,1331.74L217.062,1331.72ZM1092.68,1347.77L1092.68,1394.6L905.38,1394.6L905.38,1444.09L1076.62,1444.09L1076.62,1482.88L905.38,1482.88L905.38,1532.38L1092.68,1532.38L1092.68,1579.21L885.303,1579.21C885.269,1579.21 885.234,1579.21 885.199,1579.21C858.105,1579.21 835.81,1556.92 835.81,1529.82C835.81,1529.78 835.81,1529.75 835.811,1529.71L835.811,1347.77L1092.68,1347.77ZM819.754,1331.72L819.754,1529.73C819.811,1565.67 849.363,1595.23 885.303,1595.29L1108.73,1595.29L1108.73,1516.36L921.424,1516.36L921.424,1500.3L1092.68,1500.3L1092.68,1428.08L921.424,1428.08L921.424,1410.68L1108.72,1410.68L1108.72,1331.74L819.754,1331.74L819.754,1331.72ZM690.653,1331.71L690.653,1516.35L805.695,1516.35L805.695,1595.28L650.524,1595.28C614.582,1595.22 585.026,1565.66 584.962,1529.72L584.962,1410.66L526.106,1410.66L526.106,1331.71L690.653,1331.71ZM542.149,1347.78L542.149,1394.6L602.355,1394.6L602.355,1529.72C602.355,1556.48 623.755,1579.23 650.524,1579.23L789.651,1579.23L789.651,1532.39L674.596,1532.39L674.596,1347.78L542.149,1347.78ZM2372.3,1347.78L2372.3,1394.6L2191.71,1394.6L2191.71,1532.39L2372.3,1532.39L2372.3,1579.23L2171.64,1579.23C2144.88,1579.23 2122.13,1556.48 2122.13,1529.72L2122.13,1397.27C2122.13,1370.53 2144.88,1347.78 2171.64,1347.78L2372.3,1347.78ZM2171.64,1331.72C2135.7,1331.79 2106.15,1361.34 2106.08,1397.29L2106.08,1529.73C2106.15,1565.67 2135.7,1595.23 2171.64,1595.29L2389.69,1595.29L2389.69,1516.36L2207.76,1516.36L2207.76,1410.68L2389.69,1410.68L2389.69,1331.74L2171.64,1331.74L2171.64,1331.72ZM2083.35,1331.72L2083.35,1595.28L1974.98,1595.28L1974.98,1331.72L2083.35,1331.72ZM1991.04,1347.78L1991.04,1579.24L2067.29,1579.24L2067.29,1347.78L1991.04,1347.78ZM1193.68,1331.72C1157.74,1331.79 1128.19,1361.34 1128.12,1397.29L1128.12,1529.73C1128.19,1565.67 1157.74,1595.23 1193.68,1595.29L1371.61,1595.29L1371.61,1516.36L1231.14,1516.36L1231.14,1410.68L1431.82,1410.68L1431.82,1595.28L1540.19,1595.28L1540.19,1410.67L1619.12,1410.67L1619.12,1331.72L1193.68,1331.72ZM1603.06,1347.78L1603.06,1394.6L1524.13,1394.6L1524.13,1579.23L1447.85,1579.23L1447.85,1394.6L1213.75,1394.6L1213.75,1532.39L1355.57,1532.39L1355.57,1579.23L1193.68,1579.23C1166.93,1579.23 1145.53,1556.48 1145.53,1529.72L1145.53,1397.27C1145.53,1370.53 1166.93,1347.78 1193.68,1347.78L1603.06,1347.78ZM1867.94,1331.72C1913.44,1331.72 1950.89,1369.19 1950.89,1416.01C1950.89,1462.83 1913.44,1500.29 1867.94,1500.29L1859.92,1500.29C1859.92,1508.32 1866.61,1516.35 1875.97,1516.35L1950.87,1516.35L1950.87,1595.28L1855.91,1595.28C1855.83,1595.28 1855.75,1595.28 1855.67,1595.28C1801.48,1595.28 1756.88,1550.69 1756.88,1496.49C1756.88,1496.42 1756.88,1496.35 1756.88,1496.28L1756.88,1428.05L1842.54,1428.05L1842.54,1410.66L1740.85,1410.66L1740.85,1595.28L1639.17,1595.28L1639.17,1331.72L1867.94,1331.72ZM1655.24,1347.78L1655.24,1579.24L1724.8,1579.24L1724.8,1394.61L1859.92,1394.61L1859.92,1444.11L1774.29,1444.11L1774.29,1496.28C1774.29,1541.77 1810.41,1579.24 1855.91,1579.24L1934.84,1579.24L1934.84,1532.4L1875.97,1532.4C1857.23,1532.4 1842.54,1517.7 1842.54,1500.29L1842.54,1482.9L1867.94,1482.9C1905.41,1482.9 1934.84,1453.47 1934.84,1416.01C1934.84,1378.56 1905.4,1347.78 1867.94,1347.78L1655.24,1347.78Z" style="fill:rgb(51,123,204);"/>
    </g>
</svg>
