<?xml version="1.0" encoding="UTF-8" standalone="no"?>
<!DOCTYPE svg PUBLIC "-//W3C//DTD SVG 1.1//EN" "http://www.w3.org/Graphics/SVG/1.1/DTD/svg11.dtd">
<svg width="100%" height="100%" viewBox="0 0 300 150" version="1.1" xmlns="http://www.w3.org/2000/svg" xmlns:xlink="http://www.w3.org/1999/xlink" xml:space="preserve" xmlns:serif="http://www.serif.com/" style="fill-rule:evenodd;clip-rule:evenodd;stroke-linejoin:round;stroke-miterlimit:2;">
    <g transform="matrix(0.0716228,0,0,0.0716228,59.4706,-15.5282)">
        <path d="M259.953,1598.91L110.295,1598.91C110.295,1598.91 138.426,1584.84 138.426,1557.98L138.426,1112.85C138.426,1082.14 110.295,1074.48 110.295,1074.48L423.683,1074.48L423.683,1162.74C423.683,1162.74 416.005,1133.31 391.713,1133.31L231.822,1133.31L231.822,1277.86L394.268,1277.86L394.268,1358.44C394.268,1358.44 389.145,1339.26 366.136,1339.26L231.822,1339.26L231.822,1556.72C231.809,1586.12 259.953,1598.91 259.953,1598.91ZM2179.93,1608.92C2069.74,1608.55 1993.17,1541.31 1993.17,1472.29L1993.17,1112.85C1993.17,1087.26 1962.47,1074.48 1962.47,1074.48L2113.42,1074.48C2113.42,1074.48 2082.72,1087.27 2082.72,1111.57L2082.72,1472.29C2082.72,1506.75 2130.91,1550.96 2177.39,1550.64C2222.99,1550.33 2269.47,1507.13 2269.47,1472.29L2269.47,1112.21C2269.47,1085.35 2238.8,1075.12 2238.8,1075.12L2389.73,1075.12C2389.73,1075.12 2359.03,1085.35 2359.03,1112.21L2359.03,1472.29C2359.01,1539.45 2282.65,1609.26 2179.93,1608.92ZM660.317,1608.92C550.126,1608.55 473.565,1541.31 473.565,1472.29L473.565,1112.85C473.565,1087.26 442.866,1074.48 442.866,1074.48L593.808,1074.48C593.808,1074.48 563.108,1087.27 563.108,1111.57L563.108,1472.29C563.108,1506.75 611.278,1550.96 657.762,1550.64C703.376,1550.33 749.86,1507.13 749.86,1472.29L749.86,1111.57C749.86,1084.71 719.16,1074.48 719.16,1074.48L870.09,1074.48C870.09,1074.48 839.39,1084.71 839.39,1111.57L839.39,1472.29C839.39,1539.45 763.05,1609.26 660.317,1608.92ZM1059.41,1074.47C1059.41,1074.47 1028.71,1087.26 1028.71,1114.12L1028.71,1666.69C1028.71,1666.69 1027.14,1762.62 864.98,1804.83C861.646,1805.7 937.896,1724.25 937.896,1666.69C937.896,1628.32 938.816,1134.56 937.896,1114.12C936.625,1085.97 907.196,1074.47 907.196,1074.47L1059.41,1074.47ZM1212.91,1557.98C1214.19,1586.12 1243.61,1597.63 1243.61,1597.63L1091.39,1597.63C1091.39,1597.63 1122.08,1584.85 1122.08,1557.98L1122.24,1557.98C1122.45,1399.41 1122.75,1128.93 1122.08,1114.12C1120.8,1085.97 1091.39,1074.47 1091.39,1074.47L1243.61,1074.47C1243.61,1074.47 1212.91,1087.26 1212.91,1114.12L1212.91,1557.98ZM1489.19,1133.31L1489.19,1557.99C1490.49,1586.14 1519.89,1597.64 1519.89,1597.64L1367.67,1597.64C1367.67,1597.64 1398.37,1584.87 1398.37,1557.99L1398.53,1557.99C1398.71,1421.79 1398.96,1201.67 1398.61,1133.32L1297.33,1133.32C1265.33,1133.32 1247.43,1169.13 1247.43,1169.13L1278.12,1074.48L1635.02,1074.48L1613.26,1161.47C1613.26,1161.47 1611.99,1133.32 1581.29,1133.32L1489.19,1133.31ZM1045.57,917.702C1063.96,957.726 1116.26,988.192 1171.97,988.192C1252.89,988.192 1318.48,922.591 1318.48,841.673C1318.48,760.755 1252.89,695.153 1171.97,695.153C1127.88,695.153 1088.32,714.621 1061.46,745.463L1062.46,823.074C1067.11,769.846 1124.91,739.744 1171.97,741.015C1227.6,742.519 1272.74,786.136 1272.74,841.777C1272.74,897.417 1227.61,942.552 1171.97,942.552C1136.2,942.552 1105.41,923.266 1087.54,895.173L1082.88,886.211C1062.79,848.962 1022.03,820.247 974.989,820.247C974.985,820.247 974.98,820.247 974.976,820.247C908.494,820.247 853.787,874.954 853.787,941.436L853.787,941.462C853.787,1007.95 908.494,1062.65 974.976,1062.65C974.98,1062.65 974.985,1062.65 974.989,1062.65C1011.86,1062.68 1046.79,1045.86 1069.76,1017.01L1069.76,962.564L1026.01,998.957C1012.94,1007.97 993.821,1015.62 974.989,1015.62C934.829,1014.87 902.202,981.629 902.202,941.462C902.202,901.295 934.829,868.052 974.989,867.301C1005.29,867.301 1030.12,886.133 1044.7,916.106L1045.57,917.702ZM1908.1,1156.33L1908.1,1091.74C1908.1,1082.79 1849.58,1069.4 1812.5,1069.03C1785.65,1068.76 1629.91,1075.09 1629.91,1211.34C1629.91,1323.25 1747.57,1367.39 1762.93,1375.07C1778.28,1382.75 1864.61,1421.12 1864.61,1467.18C1864.61,1527.29 1813.47,1557.36 1752.06,1557.36C1690.65,1557.36 1640.7,1517.57 1626.69,1505.54C1625.6,1504.62 1647.82,1597.64 1647.82,1597.64C1647.82,1597.64 1703.29,1611.71 1750.14,1611.71C1771.9,1611.71 1956.09,1611.71 1956.09,1465.89C1956.09,1355.26 1842.87,1315.61 1820.51,1304.73C1799.92,1294.73 1720.08,1263.8 1720.08,1206.24C1720.08,1160.2 1775.09,1121.82 1816.03,1121.82C1873.65,1121.79 1894.04,1140.35 1908.1,1156.33Z" style="fill:rgb(207,64,55);"/>
    </g>
</svg>
