<?xml version="1.0" encoding="UTF-8" standalone="no"?>
<!DOCTYPE svg PUBLIC "-//W3C//DTD SVG 1.1//EN" "http://www.w3.org/Graphics/SVG/1.1/DTD/svg11.dtd">
<svg width="100%" height="100%" viewBox="0 0 300 150" version="1.1" xmlns="http://www.w3.org/2000/svg" xmlns:xlink="http://www.w3.org/1999/xlink" xml:space="preserve" xmlns:serif="http://www.serif.com/" style="fill-rule:evenodd;clip-rule:evenodd;stroke-linejoin:round;stroke-miterlimit:2;">
    <g id="_-ed1c24ff" serif:id="#ed1c24ff" transform="matrix(0.35266,0,0,0.35266,24.2109,50.0192)">
        <path d="M327.54,3.7C335.04,2.1 342.78,-0.32 350.49,1.21C357.21,2.62 361.57,8.41 365.24,13.75C380.6,37.27 395.18,61.29 410.41,84.9C410.65,57.43 410.47,29.95 410.43,2.48C419.83,2.42 429.23,2.49 438.62,2.44C438.57,45.07 438.67,87.69 438.58,130.32C431.37,130.5 424.1,131.22 416.93,130.22C410.41,129 406.2,123.44 402.92,118.13C386.73,93.61 371.41,68.53 355.71,43.69C355.53,72.52 355.82,101.36 355.57,130.19C346.24,130.12 336.92,130.16 327.59,130.17C327.49,88.01 327.59,45.85 327.54,3.7Z" style="fill:rgb(237,28,36);fill-rule:nonzero;"/>
        <path d="M513.85,2.42C518.99,1.62 524.41,-0.17 529.51,1.73C533.45,3.24 535.52,7.23 537.16,10.85C554.59,50.65 572.26,90.34 589.6,130.17C579.65,130.17 569.7,130.1 559.75,130.21C554.16,118.81 549.72,106.89 544.67,95.25C530.12,95.27 515.57,95.18 501.02,95.29C496.11,106.92 491.36,118.62 486.3,130.18C476.19,130.13 466.09,130.16 455.98,130.17C460.29,118.62 465.66,107.45 470.43,96.07C483.63,65.44 496.92,34.85 510.11,4.21C510.63,2.69 512.58,2.84 513.85,2.42M522.59,43.94C517.78,55.71 512.5,67.3 508.01,79.18C517.91,79.17 527.81,79.15 537.71,79.19C534.49,70.83 530.74,62.67 527.29,54.4C525.65,50.95 524.62,47.2 522.59,43.94Z" style="fill:rgb(237,28,36);fill-rule:nonzero;"/>
        <path d="M84.35,2.53C111.37,2.39 138.41,2.41 165.43,2.43C165.37,7.91 165.41,13.38 165.4,18.86C146.28,18.87 127.15,18.84 108.03,18.8C104.96,18.9 101.55,19.01 99.05,21.01C97.61,22.29 97.69,24.3 97.67,26.06C97.68,35.58 97.62,45.11 97.61,54.64C117.47,54.64 137.34,54.59 157.21,54.66C157.18,60.22 157.2,65.78 157.19,71.34C137.33,71.39 117.48,71.36 97.62,71.35C97.66,90.84 97.58,110.34 97.66,129.83C87.94,129.89 78.22,129.84 68.5,129.85C68.53,92.25 68.47,54.64 68.54,17.04C68.47,8.74 76.41,2.46 84.35,2.53Z" style="fill:rgb(237,28,36);fill-rule:nonzero;"/>
        <path d="M184.71,2.37C194.44,2.38 204.18,2.33 213.91,2.4C213.69,31.94 213.71,61.49 213.83,91.03C213.85,98.5 216.06,106.95 222.82,111.11C229.71,115.25 238.24,115.53 246.04,114.76C251.86,114.36 257.91,112.35 261.8,107.8C265.39,103.42 266.83,97.63 266.81,92.06C266.9,62.19 266.87,32.31 266.84,2.44C276.64,2.32 286.43,2.33 296.23,2.43C296.2,31.28 296.48,60.13 296.29,88.97C296.25,99.54 292.3,110.23 284.68,117.68C275.21,127.37 261.29,131.38 248.03,131.34C236.6,131.3 224.78,132.25 213.81,128.38C205.03,125.48 196.96,120.03 191.64,112.39C187.01,105.92 184.68,97.95 184.63,90.02C184.55,60.81 184.68,31.59 184.71,2.37Z" style="fill:rgb(237,28,36);fill-rule:nonzero;"/>
        <path d="M606.6,2.33C616.33,2.33 626.07,2.31 635.8,2.34C635.64,44.98 635.91,87.61 635.67,130.24C625.99,130.17 616.32,130.21 606.65,130.22C606.57,87.59 606.67,44.96 606.6,2.33Z" style="fill:rgb(237,28,36);fill-rule:nonzero;"/>
    </g>
</svg>
