<?xml version="1.0" encoding="UTF-8" standalone="no"?>
<!DOCTYPE svg PUBLIC "-//W3C//DTD SVG 1.1//EN" "http://www.w3.org/Graphics/SVG/1.1/DTD/svg11.dtd">
<svg width="100%" height="100%" viewBox="0 0 300 150" version="1.1" xmlns="http://www.w3.org/2000/svg" xmlns:xlink="http://www.w3.org/1999/xlink" xml:space="preserve" xmlns:serif="http://www.serif.com/" style="fill-rule:evenodd;clip-rule:evenodd;stroke-linejoin:round;stroke-miterlimit:2;">
    <g transform="matrix(0.084056,0,0,0.084056,42.93,-32.07)">
        <path d="M184.949,1101.5C266.697,1101.5 333.128,1167.91 333.128,1249.68C333.128,1331.42 266.697,1398.5 184.949,1398.5C103.187,1398.5 36.756,1331.42 36.756,1249.68C36.756,1167.91 103.187,1101.5 184.949,1101.5ZM239.876,1134.71L187.504,1134.71C179.839,1138.55 175.364,1143.65 172.809,1150.04L130.657,1305.9C125.547,1325.06 129.386,1337.18 142.797,1343.56L175.377,1344.86L177.284,1380.63L237.321,1258C238.605,1253.52 237.321,1251.61 233.495,1250.96L171.538,1249.69C161.318,1246.5 161.318,1233.07 172.187,1230.52L211.148,1231.17C213.703,1230.52 214.974,1229.25 216.258,1227.33L239.876,1134.71ZM664.623,1114.91L501.748,1114.91L497.274,1115.54C448.728,1121.94 414.877,1148.76 396.356,1183.25C386.136,1202.41 380.39,1224.12 380.39,1245.84C379.848,1267.82 384.905,1289.59 395.085,1309.08C412.97,1343.55 446.821,1371.67 496.638,1379.98L501.748,1380.62L663.987,1380.62L663.987,1248.4L602.031,1248.4L602.031,1317.39L503.668,1317.39C477.482,1312.27 460.232,1298.21 450.66,1280.34C445.55,1270.13 442.995,1257.99 442.995,1246.5C442.995,1234.36 446.186,1222.87 451.296,1212.65C460.881,1195.4 478.117,1181.99 503.032,1178.16L664.623,1178.16L664.623,1114.91ZM708.694,1117.46L708.694,1376.78L955.236,1375.51L955.236,1314.84L779.587,1314.84L779.587,1277.15L928.415,1277.15L928.415,1215.84L779.587,1215.84L779.587,1178.78L946.3,1178.78L946.3,1117.46L708.694,1117.46ZM1184.54,1376.77L1251.6,1376.77L1251.6,1116.83L1182.62,1116.83L1182.62,1257.33L1059.34,1116.83L995.468,1116.83L995.468,1376.77L1064.45,1376.77L1064.45,1228.6L1184.54,1376.77ZM1295.03,1117.46L1295.03,1376.78L1540.95,1375.51L1540.95,1314.84L1365.3,1314.84L1365.3,1277.15L1514.13,1277.15L1514.13,1215.84L1365.3,1215.84L1365.3,1178.78L1532.64,1178.78L1532.64,1117.46L1295.03,1117.46ZM2226.26,1112.99L2226.26,1374.24L2463.24,1374.24L2463.24,1310.35L2290.15,1310.35L2290.15,1112.99L2226.26,1112.99ZM2038.48,1324.41C2059.56,1324.41 2076.81,1307.16 2076.81,1286.72C2076.75,1265.72 2059.48,1248.46 2038.48,1248.4C2018.04,1248.4 2000.82,1265.64 2000.82,1286.72C2000.82,1307.16 2018.04,1324.41 2038.48,1324.41ZM1955.46,1372.32L1955.46,1236.27C1959.93,1205.6 1976.54,1185.16 1997.62,1174.94C2009.76,1169.2 2023.15,1166.64 2037.21,1166.64C2051.27,1167.28 2065.3,1170.47 2077.45,1176.21C2099.18,1187.07 2116.43,1207.51 2120.26,1236.25L2120.26,1370.37L2180.3,1370.37L2180.3,1231.15C2173.91,1178.77 2143.24,1141.73 2104.28,1122.57C2083.2,1112.35 2060.86,1106.61 2037.86,1106.61C2014.86,1105.99 1992.04,1111.03 1971.44,1121.29C1933.12,1139.81 1902.47,1176.21 1895.43,1230.51L1894.79,1234.35L1894.79,1372.31L1955.46,1372.31L1955.46,1372.32ZM1792.59,1278.43L1866.05,1375.5L1785.57,1375.5L1713.38,1281.62L1645.03,1281.62L1645.03,1374.24L1579.91,1374.24L1579.91,1116.83L1743.4,1116.83L1768.32,1117.46C1813.67,1116.83 1846.25,1142.38 1849.44,1208.16C1843.68,1241.38 1825.17,1265.64 1792.59,1278.43ZM1645.03,1172.4L1645.03,1225.41L1718.49,1225.41L1755.55,1226.68C1763.25,1226.7 1770.8,1224.49 1777.26,1220.3C1792.59,1196.67 1788.1,1180.7 1762.57,1172.4L1645.03,1172.4Z" style="fill:rgb(204,34,41);"/>
    </g>
</svg>
