<?xml version="1.0" encoding="UTF-8" standalone="no"?>
<!DOCTYPE svg PUBLIC "-//W3C//DTD SVG 1.1//EN" "http://www.w3.org/Graphics/SVG/1.1/DTD/svg11.dtd">
<svg width="100%" height="100%" viewBox="0 0 300 150" version="1.1" xmlns="http://www.w3.org/2000/svg" xmlns:xlink="http://www.w3.org/1999/xlink" xml:space="preserve" xmlns:serif="http://www.serif.com/" style="fill-rule:evenodd;clip-rule:evenodd;stroke-linejoin:round;stroke-miterlimit:2;">
    <g transform="matrix(0.0989575,0,0,0.101442,52.5213,42.3859)">
        <path d="M917,0L1004.78,0L1003.81,0.85C993.54,1.26 983.26,0.88 972.99,0.77C954.28,0.42 935.57,1.23 916.85,0.98L917,0Z" style="fill:rgb(88,166,215);fill-rule:nonzero;"/>
    </g>
    <g transform="matrix(0.0989575,0,0,0.101442,52.5213,42.3859)">
        <path d="M859.28,2.07C864.16,1.88 869.09,2.23 873.94,1.42C880.68,1.59 887.46,1.69 894.2,1.11C901.74,0.84 909.3,0.97 916.85,0.98C935.57,1.23 954.28,0.42 972.99,0.77C983.26,0.88 993.54,1.26 1003.81,0.85C1011.47,1.11 1019.13,0.78 1026.8,1.11C1033.62,1.76 1040.49,1.42 1047.35,1.49C1052.1,2.24 1056.93,1.86 1061.73,2.05C1067.57,3.13 1073.55,3.41 1079.45,2.6C1081.52,2.81 1083.6,2.95 1085.69,3.08C1091.22,4.11 1096.87,4.44 1102.45,3.55C1103.53,3.71 1104.63,3.87 1105.74,4.01C1110.93,5.06 1116.27,5.43 1121.52,4.52C1123.23,4.71 1124.94,4.84 1126.67,4.97C1130.83,6.04 1135.13,6.3 1139.38,5.62C1141.91,5.75 1144.45,5.81 1147,5.89C1149.11,7.34 1151.71,7.46 1154.08,6.56C1156.71,6.7 1159.34,6.75 1161.98,6.84C1163.76,8.24 1166.1,8.45 1168.17,7.49C1169.98,7.62 1171.81,7.72 1173.65,7.83C1176.47,8.88 1179.47,9.06 1182.44,8.53C1183.82,8.62 1185.21,8.7 1186.62,8.79C1189.47,9.86 1192.49,10.03 1195.5,9.46C1196.1,9.54 1197.3,9.68 1197.91,9.76C1222.06,11.14 1246.14,13.77 1270.2,16.26C1281.21,17.42 1292.18,18.99 1303.24,19.75C1307.13,20.04 1311.01,20.61 1314.88,21.22C1316.08,22.3 1317.78,22.55 1319.29,21.87C1319.69,21.94 1320.5,22.09 1320.91,22.16C1322.81,23.27 1325.14,23.86 1327.23,22.79L1327.86,23.11C1329.74,24.52 1332.19,24.58 1334.33,23.63C1334.71,23.75 1335.49,23.99 1335.88,24.11C1337.38,25.37 1339.43,25.58 1341.21,24.73C1347.8,25.2 1354.3,26.42 1360.84,27.35C1385.99,30.83 1411.09,34.76 1436.06,39.41C1442.78,40.49 1449.42,42.18 1456.23,42.69C1464.85,44.29 1473.49,45.84 1481.99,48.02C1483.03,49.28 1484.8,49.61 1486.23,48.72C1513.29,54.24 1540.36,59.81 1567.03,67.03C1567.97,68.34 1569.68,68.73 1571.14,67.95C1604.86,76.79 1638.56,85.98 1671.44,97.6C1681.98,101.48 1692.71,104.8 1703.2,108.8C1703.76,110.17 1704.75,110.64 1706.17,110.22C1706.66,110.43 1707.66,110.86 1708.16,111.07C1709.38,113.03 1711.83,114.49 1714.02,112.94C1714.51,113.19 1715.48,113.69 1715.97,113.95C1716.62,115.27 1717.64,115.65 1719.01,115.11C1720.92,115.75 1722.82,116.43 1724.68,117.26C1742.27,124.88 1760.09,132.02 1777.06,140.96C1786.33,145.97 1796.03,150.21 1804.94,155.88C1806.76,157.33 1808.81,158.42 1811,159.25C1819.25,163.71 1826.81,169.28 1834.68,174.36C1848.05,183 1860.38,193.14 1872.09,203.9C1886.38,217.75 1899.79,232.97 1908.48,251.04C1907.89,252.41 1908.28,253.41 1909.65,254.04C1913.22,260.87 1915.62,268.3 1917.31,275.81C1916.41,277.23 1916.64,279 1917.92,280.12C1917.98,280.79 1918.08,282.11 1918.14,282.77C1917.43,284.22 1917.71,285.89 1918.83,287.08C1919,289.04 1919.21,291.01 1919.55,292.96C1918.39,295.19 1918.39,297.83 1919.54,300.07C1919.21,302 1919,303.95 1918.84,305.91C1917.72,307.1 1917.44,308.78 1918.16,310.25C1918.1,310.65 1917.97,311.46 1917.9,311.87C1916.65,312.99 1916.41,314.75 1917.3,316.18C1913.24,335.85 1903.23,354.02 1890.13,369.11C1889.79,369.6 1889.1,370.59 1888.76,371.08C1886.01,374.24 1882.86,377.04 1880.42,380.45C1876.89,385.26 1871.7,388.38 1867.57,392.58C1865.26,394.92 1862.64,396.88 1860.04,398.85C1857.95,398.82 1856.26,400.18 1856.11,402.28C1839.71,416.03 1821.41,427.35 1802.83,437.86C1800.89,438.85 1799,439.91 1797.16,441.03C1786.78,446.87 1775.93,451.84 1765.38,457.39C1759.12,460.83 1752.37,463.22 1745.85,466.08C1735.6,470.51 1725.42,475.1 1715,479.1C1712.84,477.5 1710.37,478.92 1709.17,480.9C1708.68,481.17 1707.7,481.71 1707.22,481.98C1705.84,481.48 1704.78,481.84 1704.05,483.08C1703.55,483.33 1702.54,483.83 1702.04,484.08C1699.87,482.49 1697.32,483.88 1696.23,485.98C1677.72,493.46 1658.48,499 1639.61,505.45C1617.27,512.24 1594.73,518.38 1572.14,524.25C1569.44,524.67 1566.78,525.26 1564.22,526.16C1539.19,533.12 1513.65,538.01 1488.23,543.28C1486.78,542.42 1485.05,542.73 1483.97,543.95L1483.26,544.13C1481.9,543.5 1480.83,543.8 1480.04,545.04C1479.61,545.15 1478.76,545.35 1478.34,545.45C1474.52,545.19 1470.6,544.65 1466.93,546.03C1458.42,548.78 1449.24,548.08 1440.77,550.93C1430.61,554.31 1419.88,555.26 1409.41,557.25C1395.24,559.83 1380.93,561.66 1366.76,564.22C1366.37,564.29 1365.59,564.42 1365.2,564.49C1362.72,564.73 1360.28,565.18 1357.85,565.64C1353.63,566.22 1349.43,566.86 1345.2,567.19C1343.88,566.55 1342.78,566.79 1341.91,567.93C1340.33,568.01 1338.78,568.1 1337.25,568.21C1335.74,567.45 1334.01,567.75 1332.83,568.9C1332.42,568.97 1331.58,569.12 1331.16,569.19C1328.73,568.33 1326.11,568.48 1323.94,569.88L1323.3,570.11C1321.45,569.41 1319.42,569.65 1317.88,570.87C1317.23,570.96 1315.91,571.15 1315.25,571.25C1313.45,570.43 1311.41,570.59 1309.85,571.8C1309.18,571.85 1307.84,571.96 1307.16,572.01C1305.36,571.36 1303.41,571.6 1301.91,572.76C1300.68,572.91 1299.47,573.07 1298.28,573.24C1262.84,576.83 1227.43,581.16 1191.86,583.22C1191.25,583.28 1190.02,583.38 1189.4,583.44C1186.1,582.83 1182.75,582.93 1179.63,584.21C1177.77,584.31 1175.92,584.4 1174.09,584.52C1171.72,583.6 1169.12,583.71 1167.01,585.17C1165.01,585.26 1163.01,585.34 1161.03,585.44C1158.67,584.54 1156.09,584.65 1154.03,586.15C1151.05,586.23 1148.07,586.29 1145.11,586.5C1142.75,585.52 1140.12,585.63 1138.01,587.1C1135.14,587.19 1132.29,587.23 1129.44,587.44C1124.55,586.7 1119.59,586.88 1114.78,587.98C1114.18,588.08 1112.98,588.27 1112.38,588.37C1106.82,587.51 1101.19,587.91 1095.7,589.01C1094.25,589.11 1092.81,589.22 1091.39,589.36C1084.5,588.54 1077.53,588.84 1070.69,589.91C1069.24,590.03 1067.81,590.17 1066.39,590.34C1058.85,589.61 1051.22,589.8 1043.73,590.95C1037.93,591.24 1032.09,590.65 1026.33,591.49C1012.83,591.65 999.31,591.2 985.82,591.87C969.28,592.15 952.72,592.16 936.18,591.87C922.02,591.21 907.83,591.65 893.66,591.49C888.23,590.69 882.72,591.21 877.26,590.94C869.77,589.82 862.14,589.6 854.6,590.34C852.83,590.17 851.07,590.03 849.31,589.91C842.47,588.87 835.5,588.53 828.61,589.35C827.16,589.21 825.73,589.1 824.3,589C818.8,587.9 813.15,587.53 807.59,588.38C806.48,588.26 805.38,588.14 804.29,588.03C799.45,586.92 794.45,586.59 789.54,587.43C787.04,587.25 784.53,587.19 782.03,587.11C780.22,585.72 777.89,585.51 775.85,586.46C773,586.3 770.16,586.25 767.33,586.16C764.51,585.16 761.53,584.96 758.59,585.43C756.85,585.33 755.11,585.26 753.39,585.18C750.53,584.1 747.51,583.94 744.53,584.52C743.14,584.4 741.75,584.3 740.38,584.21C737.49,583.11 734.43,582.93 731.42,583.59C730.33,583.45 729.25,583.32 728.17,583.22C692.6,581.11 657.17,576.82 621.72,573.24C620.51,573.07 619.3,572.91 618.1,572.76C616.57,571.6 614.61,571.36 612.84,572.01C612.16,571.96 610.82,571.85 610.14,571.8C608.54,570.61 606.48,570.44 604.68,571.25C604.29,571.14 603.49,570.94 603.1,570.84C601.15,569.75 598.79,569.15 596.72,570.24L596.08,569.93C593.93,568.39 591.24,568.42 588.82,569.17L588.16,568.93C586.63,567.63 584.54,567.41 582.77,568.31C575.85,567.77 569.03,566.46 562.15,565.64C557.06,564.5 551.86,564.05 546.69,563.44C526.71,560.54 506.79,557.21 486.93,553.58C481.9,552.71 476.89,551.71 471.81,551.21C462.8,549.85 453.89,547.91 445.01,545.88C444.08,544.74 442.97,544.52 441.69,545.23C441.28,545.16 440.46,545.01 440.05,544.94C439.15,543.79 438.05,543.53 436.74,544.16C436.33,544.11 435.5,543.99 435.09,543.94C434.17,542.79 433.07,542.56 431.79,543.25C417.62,540.58 403.5,537.61 389.47,534.25C377.82,532.13 366.38,529.07 354.96,525.97C353.98,524.66 352.26,524.27 350.83,525.07C307.92,513.96 265.19,501.8 223.77,485.98C222.67,483.88 220.12,482.5 217.96,484.08C217.46,483.83 216.46,483.33 215.96,483.08C215.19,481.85 214.14,481.48 212.79,481.99C212.3,481.72 211.32,481.17 210.84,480.9C209.63,478.91 207.15,477.51 205.01,479.09C189.98,473.29 175.39,466.41 160.47,460.32C148.62,454.31 136.71,448.43 124.97,442.24C122.59,440.36 119.91,438.95 117.11,437.86C116.83,437.66 116.27,437.26 115.99,437.06C114.22,435.57 112.14,434.57 110,433.77C93.88,424.39 78.26,414.09 63.76,402.34C64.05,400.08 61.9,398.92 59.96,398.84C55.53,395.79 51.78,391.96 47.96,388.23C45.43,384.67 42.35,381.55 38.79,379.03C36.28,376.38 33.61,373.87 31.24,371.08L31.32,370.22C30.96,369.95 30.24,369.39 29.88,369.11C22.92,361.24 16.97,352.45 12.23,343.09C13.06,341.3 12.16,339.3 10.21,338.89C6.93,331.62 4.14,324.06 2.71,316.19C3.56,314.76 3.32,313 2.1,311.87C2.04,311.47 1.91,310.66 1.84,310.25C2.53,308.78 2.27,307.1 1.17,305.91C0.98,303.94 0.77,301.97 0.45,300.03C1.59,297.81 1.59,295.17 0.47,292.95C0.82,290.68 0.99,288.39 1.12,286.1C2.22,285.18 2.44,284.08 1.79,282.81C2.15,276.94 3.36,271.11 5.45,265.62C8.98,255.97 13.28,246.55 18.97,237.98C23.58,229.87 30.15,223.16 36,215.98C51.57,199.36 69.16,184.61 88.38,172.36C93.62,169.03 98.53,165.15 104.06,162.28C105.89,162.68 107.64,161.64 108.04,159.79C124.91,149.72 142.67,141.29 160.13,132.33C173.73,126.57 187.23,120.57 200.94,115.07C202.3,115.59 203.33,115.21 204.04,113.93C204.53,113.71 205.5,113.25 205.99,113.03C208.24,114.24 210.64,113.18 211.85,111.09C212.35,110.87 213.34,110.43 213.83,110.21C215.22,110.63 216.21,110.17 216.8,108.8C220.91,106.97 225.24,105.75 229.53,104.42C234.27,102.95 238.71,100.6 243.53,99.34C251.12,97.31 258.15,93.62 265.8,91.78C292.19,83.12 319,75.75 345.87,68.77C348.55,68.34 351.21,67.75 353.79,66.85C370.34,62.06 387.27,58.83 404.01,54.84C423.93,50.79 443.78,46.38 463.77,42.69C469.99,42.27 476.05,40.7 482.2,39.74C506.48,35.37 530.8,31.21 555.26,27.95C555.89,27.88 557.14,27.74 557.77,27.67C559.18,28.5 560.91,28.21 562.05,27.04C567.59,26.05 573.16,25.12 578.79,24.73C580.55,25.58 582.6,25.38 584.13,24.12C584.52,24 585.29,23.75 585.68,23.63C587.78,24.59 590.24,24.53 592.14,23.11L592.76,22.79C594.84,23.86 597.18,23.26 599.1,22.16C599.5,22.08 600.31,21.91 600.71,21.83C602.5,22.57 604.51,22.36 606.09,21.2C609.61,20.46 613.17,20.01 616.76,19.74C625.92,19.27 634.98,17.79 644.09,16.85C669.77,14.23 695.44,11.43 721.19,9.77C722.28,9.67 723.37,9.56 724.48,9.44C727.47,10.04 730.51,9.87 733.38,8.79C734.76,8.7 736.15,8.62 737.55,8.53C740.52,9.05 743.52,8.88 746.37,7.84C748.19,7.72 750.02,7.6 751.86,7.45C754.2,8.45 756.84,8.32 758.97,6.87C761.28,6.77 763.59,6.69 765.91,6.55C768.26,7.47 770.87,7.33 773,5.89C775.53,5.8 778.07,5.75 780.61,5.62C784.53,6.28 788.51,6.05 792.33,4.96C794.38,4.84 796.43,4.73 798.49,4.53C803.4,5.4 808.41,5.05 813.28,4.03C814.36,3.88 815.45,3.72 816.55,3.56C822.45,4.47 828.45,4.13 834.31,3.08C836.38,2.95 838.46,2.81 840.55,2.6C846.78,3.43 853.09,3.12 859.28,2.07M863.36,19.37C839.23,20.05 815.1,20.9 791,22.12C763.59,23 736.3,25.91 708.98,28.08C688.94,29.47 668.95,31.5 648.96,33.43C611.87,37.18 574.94,42.39 538.05,47.74C512.49,50.94 487.12,55.52 461.85,60.5C444.22,63.8 426.57,66.94 409.12,71.08C385.82,76.04 362.55,81.16 339.56,87.38C325.08,90.68 311.03,95.58 296.72,99.52C284.89,103.09 273.03,106.52 261.32,110.45C239.73,118.58 217.55,125.12 196.34,134.25C179.05,141.63 161.93,149.45 145.22,158.09C134.46,163.04 124.54,169.53 114.25,175.33C103.79,182.51 92.81,188.92 82.91,196.87C76.17,201.36 70.79,207.46 64.59,212.59C57.43,219.45 50.51,226.58 44.5,234.49C39.33,240.29 36.05,247.38 31.93,253.91C27.81,261.82 23.66,270.02 22.68,279.03C21.89,286.33 19.88,293.63 20.88,301.02C21.44,305.69 22.31,310.32 22.84,314.99C23.79,322.63 27.46,329.5 30.61,336.4C38.15,352.8 51.04,365.78 63.02,378.95C70.4,385.3 77.56,391.94 85.63,397.42C107.7,414.68 132.47,427.96 157.18,440.97C180.55,451.58 204.09,461.89 228.24,470.61C264.99,484.05 302.6,494.9 340.27,505.42C352.29,508.14 364.04,512 376.21,514.05C410.07,521.67 443.99,529.11 478.2,535.03C498.93,539.22 519.72,543.11 540.74,545.59C571.82,550.19 602.95,554.53 634.22,557.58C661.76,560.52 689.37,562.8 716.98,564.96C743.3,567.11 769.58,569.83 795.96,570.87C827.26,572.75 858.63,573.78 890,573.83C898.66,574.46 907.34,574.24 916.02,574.39C948.01,574.8 980,574.65 1011.99,574.33C1022.67,574.44 1033.32,573.52 1044,573.73C1061.47,573.9 1078.91,572.68 1096.37,572.4C1106.58,571.84 1116.8,571.46 1126.99,570.61C1146.41,570.18 1165.72,568.01 1185.08,566.51C1229.86,562.79 1274.67,559.25 1319.29,553.82C1331.25,552.82 1343.04,550.37 1354.98,549.13C1377.66,545.68 1400.5,543.18 1423.02,538.73C1443.32,534.66 1463.73,531.15 1484.03,527.06C1509.14,521.71 1534.26,516.37 1559.26,510.5C1582.45,504.87 1605.41,498.35 1628.27,491.47C1647.93,486.03 1667.18,479.27 1686.42,472.55C1722.06,458.98 1758.05,445.57 1790.94,426.01C1810.09,414.98 1828.59,402.72 1845.74,388.74C1858.81,378.21 1870.36,365.85 1880.41,352.41C1883.61,346.89 1886.99,341.47 1889.96,335.81C1893.82,328.64 1896.04,320.73 1897.98,312.85C1899.82,301.92 1899.65,290.73 1898.02,279.78C1895.8,271.31 1893.77,262.54 1888.92,255.12C1886.1,250.56 1883.72,245.76 1880.99,241.15C1870.67,225.74 1856.56,213.5 1842.89,201.17C1833.28,194.02 1823.85,186.61 1813.67,180.27C1807,175.43 1799.57,171.83 1792.66,167.37C1784.52,162.14 1775.58,158.41 1767.09,153.83C1748.47,144.58 1729.37,136.37 1710.02,128.79C1697.3,124.2 1684.56,119.66 1671.83,115.1C1663.33,112.13 1654.94,108.82 1646.2,106.58C1633.23,102.33 1620.14,98.48 1607.03,94.7C1576.74,85.54 1545.82,78.65 1514.91,71.97C1489.64,66.21 1464.22,61.22 1438.7,56.71C1420.6,54.01 1402.68,50.16 1384.48,48.19C1348.05,42.57 1311.49,37.88 1274.88,33.66C1261.88,32.86 1248.99,30.96 1236,30.1C1194.37,26.92 1152.8,22.39 1111.03,21.33C1101.04,20.57 1091.02,20.45 1081.01,20.2C1069.35,19.48 1057.66,19.34 1045.98,19.22C1029.35,18.23 1012.66,18.45 996,18.31C951.79,18.28 907.55,17.87 863.36,19.37Z" style="fill:rgb(1,91,154);fill-rule:nonzero;"/>
    </g>
    <g transform="matrix(0.0989575,0,0,0.101442,52.5213,42.3859)">
        <path d="M873.94,1.42C880.64,0.59 887.45,1.39 894.2,1.11C887.46,1.69 880.68,1.59 873.94,1.42Z" style="fill:rgb(253,253,253);fill-rule:nonzero;"/>
    </g>
    <g transform="matrix(0.0989575,0,0,0.101442,52.5213,42.3859)">
        <path d="M1026.8,1.11C1033.64,1.47 1040.56,0.37 1047.35,1.49C1040.49,1.42 1033.62,1.76 1026.8,1.11Z" style="fill:rgb(253,253,253);fill-rule:nonzero;"/>
    </g>
    <g transform="matrix(0.0989575,0,0,0.101442,52.5213,42.3859)">
        <path d="M685.02,12.58C697.08,11.72 709.09,9.89 721.19,9.77C695.44,11.43 669.77,14.23 644.09,16.85C634.98,17.79 625.92,19.27 616.76,19.74C639.48,16.96 662.24,14.65 685.02,12.58Z" style="fill:rgb(253,253,253);fill-rule:nonzero;"/>
    </g>
    <g transform="matrix(0.0989575,0,0,0.101442,52.5213,42.3859)">
        <path d="M1197.91,9.76C1213.65,9.97 1229.3,12.24 1244.99,13.5C1264.44,15.19 1283.83,17.53 1303.24,19.75C1292.18,18.99 1281.21,17.42 1270.2,16.26C1246.14,13.77 1222.06,11.14 1197.91,9.76Z" style="fill:rgb(253,253,253);fill-rule:nonzero;"/>
    </g>
    <g transform="matrix(0.0989575,0,0,0.101442,52.5213,42.3859)">
        <path d="M863.36,19.37C907.55,17.87 951.79,18.28 996,18.31C1012.66,18.45 1029.35,18.23 1045.98,19.22C1057.66,19.34 1069.35,19.48 1081.01,20.2C1091.02,20.45 1101.04,20.57 1111.03,21.33C1152.8,22.39 1194.37,26.92 1236,30.1C1248.99,30.96 1261.88,32.86 1274.88,33.66C1311.49,37.88 1348.05,42.57 1384.48,48.19C1402.68,50.16 1420.6,54.01 1438.7,56.71C1464.22,61.22 1489.64,66.21 1514.91,71.97C1545.82,78.65 1576.74,85.54 1607.03,94.7C1620.14,98.48 1633.23,102.33 1646.2,106.58C1654.94,108.82 1663.33,112.13 1671.83,115.1C1684.56,119.66 1697.3,124.2 1710.02,128.79C1729.37,136.37 1748.47,144.58 1767.09,153.83C1775.58,158.41 1784.52,162.14 1792.66,167.37C1799.57,171.83 1807,175.43 1813.67,180.27C1823.85,186.61 1833.28,194.02 1842.89,201.17C1856.56,213.5 1870.67,225.74 1880.99,241.15C1883.72,245.76 1886.1,250.56 1888.92,255.12C1893.77,262.54 1895.8,271.31 1898.02,279.78C1899.65,290.73 1899.82,301.92 1897.98,312.85C1896.04,320.73 1893.82,328.64 1889.96,335.81C1886.99,341.47 1883.61,346.89 1880.41,352.41C1870.36,365.85 1858.81,378.21 1845.74,388.74C1828.59,402.72 1810.09,414.98 1790.94,426.01C1758.05,445.57 1722.06,458.98 1686.42,472.55C1667.18,479.27 1647.93,486.03 1628.27,491.47C1605.41,498.35 1582.45,504.87 1559.26,510.5C1534.26,516.37 1509.14,521.71 1484.03,527.06C1463.73,531.15 1443.32,534.66 1423.02,538.73C1400.5,543.18 1377.66,545.68 1354.98,549.13C1343.04,550.37 1331.25,552.82 1319.29,553.82C1274.67,559.25 1229.86,562.79 1185.08,566.51C1165.72,568.01 1146.41,570.18 1126.99,570.61C1116.8,571.46 1106.58,571.84 1096.37,572.4C1078.91,572.68 1061.47,573.9 1044,573.73C1033.32,573.52 1022.67,574.44 1011.99,574.33C980,574.65 948.01,574.8 916.02,574.39C907.34,574.24 898.66,574.46 890,573.83C858.63,573.78 827.26,572.75 795.96,570.87C769.58,569.83 743.3,567.11 716.98,564.96C689.37,562.8 661.76,560.52 634.22,557.58C602.95,554.53 571.82,550.19 540.74,545.59C519.72,543.11 498.93,539.22 478.2,535.03C443.99,529.11 410.07,521.67 376.21,514.05C364.04,512 352.29,508.14 340.27,505.42C302.6,494.9 264.99,484.05 228.24,470.61C204.09,461.89 180.55,451.58 157.18,440.97C132.47,427.96 107.7,414.68 85.63,397.42C77.56,391.94 70.4,385.3 63.02,378.95C51.04,365.78 38.15,352.8 30.61,336.4C27.46,329.5 23.79,322.63 22.84,314.99C22.31,310.32 21.44,305.69 20.88,301.02C19.88,293.63 21.89,286.33 22.68,279.03C23.66,270.02 27.81,261.82 31.93,253.91C36.05,247.38 39.33,240.29 44.5,234.49C50.51,226.58 57.43,219.45 64.59,212.59C70.79,207.46 76.17,201.36 82.91,196.87C92.81,188.92 103.79,182.51 114.25,175.33C124.54,169.53 134.46,163.04 145.22,158.09C161.93,149.45 179.05,141.63 196.34,134.25C217.55,125.12 239.73,118.58 261.32,110.45C273.03,106.52 284.89,103.09 296.72,99.52C311.03,95.58 325.08,90.68 339.56,87.38C362.55,81.16 385.82,76.04 409.12,71.08C426.57,66.94 444.22,63.8 461.85,60.5C487.12,55.52 512.49,50.94 538.05,47.74C574.94,42.39 611.87,37.18 648.96,33.43C668.95,31.5 688.94,29.47 708.98,28.08C736.3,25.91 763.59,23 791,22.12C815.1,20.9 839.23,20.05 863.36,19.37M898.44,33.6C890.94,33.42 883.5,34.54 876,34.35C866.67,34.63 857.31,34.17 848.02,35.19C836.68,35.75 825.29,35.12 814,36.39C806.05,36.37 798.18,37.59 790.24,37.57C779.8,38.69 769.26,38.38 758.87,40.06C738.88,40.67 718.98,42.61 699.03,43.84C681.15,45.25 663.31,47.2 645.45,48.79C623.97,51.46 602.41,53.31 580.97,56.28C523.69,63.45 466.68,72.86 410.11,84.41C390.08,88.51 370.07,92.76 350.33,98.11C338.93,100.66 327.7,103.88 316.5,107.21C303.67,110.25 291.17,114.52 278.55,118.34C257.15,125 235.84,132.02 214.83,139.84C198.93,146.04 183.35,152.99 167.77,159.91C159.43,164.15 150.99,168.21 142.76,172.66C120.2,184.17 98.72,197.98 79.41,214.41C69.77,222.43 61.7,232.1 53.59,241.61C44.99,254.81 36.57,268.96 34.9,284.96C33.97,296.02 34.01,307.44 37.63,318.07C39.74,326.56 44.65,333.87 48.68,341.51C51.43,346.53 55.49,350.64 58.88,355.21C62.99,360.68 68.31,365.06 72.7,370.29C76.08,374.29 80.49,377.2 84.43,380.6C90.82,386.35 98.26,390.74 105.05,395.98C119.17,405.41 133.83,413.99 148.85,421.92C185.74,439.76 223.95,454.78 262.74,467.97C277.73,473.39 293.34,476.73 308.62,481.2C349.94,492.89 391.72,502.97 433.89,511.11C445.68,513.55 457.64,515.09 469.47,517.38C491.02,520.81 512.43,525.13 534.05,528.16C571.74,533.74 609.57,538.32 647.46,542.3C686.74,545.01 725.84,550.24 765.19,551.66C774.08,552.86 783.09,552.19 792,553.19C800,553.6 808.02,553.6 816.01,554.35C831.69,554.42 847.32,555.71 863,555.69C875.62,557.03 888.37,555.89 900.99,557.27C938.99,557.84 977,557.73 1015,557.36C1019.68,557.33 1024.31,556.45 1029,556.59C1044.35,556.61 1059.64,555.33 1074.99,555.35C1084.96,554.38 1094.99,554.73 1105,554.21C1113.3,553.25 1121.69,553.78 1130,552.86C1137.33,552.34 1144.71,552.74 1152.01,551.74C1171.78,550.8 1191.53,549.58 1211.22,547.52C1236.78,544.68 1262.49,543.51 1288.02,540.38C1330.89,535.73 1373.69,530.24 1416.21,522.99C1441.06,518.21 1466.18,514.98 1490.95,509.79C1513.36,505.15 1535.76,500.44 1557.95,494.83C1581.99,489.21 1605.66,482.19 1629.45,475.65C1636.89,473.81 1644.24,471.65 1651.51,469.22C1674.32,461.43 1697.1,453.49 1719.35,444.18C1737.13,437.07 1754.34,428.66 1771.69,420.59C1797.57,406.85 1822.59,391.07 1844.39,371.38C1852.33,363.98 1859.54,355.83 1866.08,347.16C1869.18,341.89 1872.56,336.75 1875.14,331.18C1883.36,315.39 1885.84,296.76 1882.3,279.35C1879.27,268.36 1875.24,257.55 1868.99,247.96C1865.18,240.74 1859.06,235.28 1853.86,229.13C1847.65,222.96 1841.81,216.36 1834.61,211.31C1827.6,204.87 1819.58,199.75 1811.94,194.14C1802.39,188.28 1793.25,181.73 1783.13,176.88C1766.53,167.75 1749.31,159.85 1732.17,151.83C1722.12,146.79 1711.43,143.21 1701.11,138.78C1679.22,131 1657.1,123.85 1634.91,116.98C1615.86,110.72 1596.42,105.78 1577.16,100.22C1565.84,97.68 1554.67,94.54 1543.37,91.98C1519.37,87.19 1495.55,81.47 1471.42,77.3C1426.69,68.75 1381.64,61.83 1336.44,56.3C1315.75,53.28 1294.91,51.52 1274.17,48.91C1262.85,47.83 1251.51,46.91 1240.21,45.59C1219.48,43.68 1198.71,42.44 1177.96,41.02C1157.98,39.63 1138.01,38.06 1118.01,37.19C1111.38,36.2 1104.64,36.85 1098.02,35.85C1087.09,35.23 1076.09,35.87 1065.18,34.7C1055.79,34.41 1046.39,34.42 1036.99,34.29C1020.36,33.1 1003.66,33.59 987,33.47C957.48,33.55 927.96,33.31 898.44,33.6Z" style="fill:rgb(253,253,253);fill-rule:nonzero;"/>
    </g>
    <g transform="matrix(0.0989575,0,0,0.101442,52.5213,42.3859)">
        <path d="M1360.84,27.35C1392.8,31.38 1424.51,37.17 1456.23,42.69C1449.42,42.18 1442.78,40.49 1436.06,39.41C1411.09,34.76 1385.99,30.83 1360.84,27.35Z" style="fill:rgb(253,253,253);fill-rule:nonzero;"/>
    </g>
    <g transform="matrix(0.0989575,0,0,0.101442,52.5213,42.3859)">
        <path d="M463.77,42.69C494.22,37.51 524.61,31.81 555.26,27.95C530.8,31.21 506.48,35.37 482.2,39.74C476.05,40.7 469.99,42.27 463.77,42.69Z" style="fill:rgb(253,253,253);fill-rule:nonzero;"/>
    </g>
    <g transform="matrix(0.0989575,0,0,0.101442,52.5213,42.3859)">
        <path d="M345.87,68.77C348.46,67.95 351.1,67.31 353.79,66.85C351.21,67.75 348.55,68.34 345.87,68.77Z" style="fill:rgb(253,253,253);fill-rule:nonzero;"/>
    </g>
    <g transform="matrix(0.0989575,0,0,0.101442,52.5213,42.3859)">
        <path d="M213.83,110.21C214.47,109.03 215.46,108.56 216.8,108.8C216.21,110.17 215.22,110.63 213.83,110.21Z" style="fill:rgb(253,253,253);fill-rule:nonzero;"/>
    </g>
    <g transform="matrix(0.0989575,0,0,0.101442,52.5213,42.3859)">
        <path d="M1703.2,108.8C1704.51,108.56 1705.5,109.04 1706.17,110.22C1704.75,110.64 1703.76,110.17 1703.2,108.8Z" style="fill:rgb(253,253,253);fill-rule:nonzero;"/>
    </g>
    <g transform="matrix(0.0989575,0,0,0.101442,52.5213,42.3859)">
        <path d="M205.99,113.03C207.71,111.8 209.77,111.3 211.85,111.09C210.64,113.18 208.24,114.24 205.99,113.03Z" style="fill:rgb(253,253,253);fill-rule:nonzero;"/>
    </g>
    <g transform="matrix(0.0989575,0,0,0.101442,52.5213,42.3859)">
        <path d="M1708.16,111.07C1710.19,111.36 1712.24,111.82 1714.02,112.94C1711.83,114.49 1709.38,113.03 1708.16,111.07Z" style="fill:rgb(253,253,253);fill-rule:nonzero;"/>
    </g>
    <g transform="matrix(0.0989575,0,0,0.101442,52.5213,42.3859)">
        <path d="M1715.97,113.95C1717.23,113.59 1718.25,113.98 1719.01,115.11C1717.64,115.65 1716.62,115.27 1715.97,113.95Z" style="fill:rgb(253,253,253);fill-rule:nonzero;"/>
    </g>
    <g transform="matrix(0.0989575,0,0,0.101442,52.5213,42.3859)">
        <path d="M1908.48,251.04C1909.54,251.72 1909.93,252.72 1909.65,254.04C1908.28,253.41 1907.89,252.41 1908.48,251.04Z" style="fill:rgb(253,253,253);fill-rule:nonzero;"/>
    </g>
    <g transform="matrix(0.0989575,0,0,0.101442,52.5213,42.3859)">
        <path d="M10.21,338.89C12.16,339.3 13.06,341.3 12.23,343.09C11.04,341.98 10.37,340.49 10.21,338.89Z" style="fill:rgb(253,253,253);fill-rule:nonzero;"/>
    </g>
    <g transform="matrix(0.0989575,0,0,0.101442,52.5213,42.3859)">
        <path d="M29.88,369.11C30.24,369.39 30.96,369.95 31.32,370.22L31.24,371.08C30.9,370.59 30.22,369.61 29.88,369.11Z" style="fill:rgb(253,253,253);fill-rule:nonzero;"/>
    </g>
    <g transform="matrix(0.0989575,0,0,0.101442,52.5213,42.3859)">
        <path d="M1888.76,371.08C1889.1,370.59 1889.79,369.6 1890.13,369.11C1889.79,369.6 1889.1,370.59 1888.76,371.08Z" style="fill:rgb(253,253,253);fill-rule:nonzero;"/>
    </g>
    <g transform="matrix(0.0989575,0,0,0.101442,52.5213,42.3859)">
        <path d="M1797.16,441.03C1799,439.91 1800.89,438.85 1802.83,437.86C1800.94,438.94 1799.03,439.96 1797.16,441.03Z" style="fill:rgb(253,253,253);fill-rule:nonzero;"/>
    </g>
    <g transform="matrix(0.0989575,0,0,0.101442,52.5213,42.3859)">
        <path d="M205.01,479.09C207.15,477.51 209.63,478.91 210.84,480.9C208.79,480.69 206.8,480.12 205.01,479.09Z" style="fill:rgb(253,253,253);fill-rule:nonzero;"/>
    </g>
    <g transform="matrix(0.0989575,0,0,0.101442,52.5213,42.3859)">
        <path d="M1709.17,480.9C1710.37,478.92 1712.84,477.5 1715,479.1C1713.19,480.13 1711.2,480.68 1709.17,480.9Z" style="fill:rgb(253,253,253);fill-rule:nonzero;"/>
    </g>
    <g transform="matrix(0.0989575,0,0,0.101442,52.5213,42.3859)">
        <path d="M217.96,484.08C220.12,482.5 222.67,483.88 223.77,485.98C221.76,485.59 219.75,485.12 217.96,484.08Z" style="fill:rgb(253,253,253);fill-rule:nonzero;"/>
    </g>
    <g transform="matrix(0.0989575,0,0,0.101442,52.5213,42.3859)">
        <path d="M1696.23,485.98C1697.32,483.88 1699.87,482.49 1702.04,484.08C1700.24,485.11 1698.22,485.58 1696.23,485.98Z" style="fill:rgb(253,253,253);fill-rule:nonzero;"/>
    </g>
    <g transform="matrix(0.0989575,0,0,0.101442,52.5213,42.3859)">
        <path d="M1564.22,526.16C1566.78,525.26 1569.44,524.67 1572.14,524.25C1569.54,525.08 1566.89,525.7 1564.22,526.16Z" style="fill:rgb(253,253,253);fill-rule:nonzero;"/>
    </g>
    <g transform="matrix(0.0989575,0,0,0.101442,52.5213,42.3859)">
        <path d="M471.81,551.21C476.89,551.71 481.9,552.71 486.93,553.58C506.79,557.21 526.71,560.54 546.69,563.44C551.86,564.05 557.06,564.5 562.15,565.64C531.91,561.67 501.85,556.47 471.81,551.21Z" style="fill:rgb(253,253,253);fill-rule:nonzero;"/>
    </g>
    <g transform="matrix(0.0989575,0,0,0.101442,52.5213,42.3859)">
        <path d="M1357.85,565.64C1360.28,565.18 1362.72,564.73 1365.2,564.49C1362.77,565.03 1360.28,565.23 1357.85,565.64Z" style="fill:rgb(253,253,253);fill-rule:nonzero;"/>
    </g>
    <g transform="matrix(0.0989575,0,0,0.101442,52.5213,42.3859)">
        <path d="M621.72,573.24C657.17,576.82 692.6,581.11 728.17,583.22C722.4,583.72 716.73,582.47 710.99,582.31C681.22,579.48 651.4,577.07 621.72,573.24Z" style="fill:rgb(253,253,253);fill-rule:nonzero;"/>
    </g>
    <g transform="matrix(0.0989575,0,0,0.101442,52.5213,42.3859)">
        <path d="M1191.86,583.22C1227.43,581.16 1262.84,576.83 1298.28,573.24C1272.25,576.79 1246.07,578.65 1219.97,581.4C1210.58,581.8 1201.27,583.53 1191.86,583.22Z" style="fill:rgb(253,253,253);fill-rule:nonzero;"/>
    </g>
    <g transform="matrix(0.0989575,0,0,0.101442,52.5213,42.3859)">
        <path d="M893.66,591.49C907.83,591.65 922.02,591.21 936.18,591.87C926.45,591.76 916.73,591.89 907.01,591.91C902.56,591.86 898.04,592.47 893.66,591.49Z" style="fill:rgb(253,253,253);fill-rule:nonzero;"/>
    </g>
    <g transform="matrix(0.0989575,0,0,0.101442,52.5213,42.3859)">
        <path d="M985.82,591.87C999.31,591.2 1012.83,591.65 1026.33,591.49C1024.58,591.85 1022.81,592.05 1021.05,592.03C1009.3,591.85 997.56,591.78 985.82,591.87Z" style="fill:rgb(253,253,253);fill-rule:nonzero;"/>
    </g>
    <g transform="matrix(0.0989575,0,0,0.101442,52.5213,42.3859)">
        <path d="M840.55,2.6C846.69,1.19 853.04,2.19 859.28,2.07C853.09,3.12 846.78,3.43 840.55,2.6Z" style="fill:rgb(93,152,188);fill-rule:nonzero;"/>
    </g>
    <g transform="matrix(0.0989575,0,0,0.101442,52.5213,42.3859)">
        <path d="M1061.73,2.05C1067.63,2.17 1073.64,1.23 1079.45,2.6C1073.55,3.41 1067.57,3.13 1061.73,2.05Z" style="fill:rgb(93,155,189);fill-rule:nonzero;"/>
    </g>
    <g transform="matrix(0.0989575,0,0,0.101442,52.5213,42.3859)">
        <path d="M816.55,3.56C822.37,2.22 828.39,3.01 834.31,3.08C828.45,4.13 822.45,4.47 816.55,3.56Z" style="fill:rgb(91,144,179);fill-rule:nonzero;"/>
    </g>
    <g transform="matrix(0.0989575,0,0,0.101442,52.5213,42.3859)">
        <path d="M1085.69,3.08C1091.27,2.98 1096.95,2.28 1102.45,3.55C1096.87,4.44 1091.22,4.11 1085.69,3.08Z" style="fill:rgb(88,144,177);fill-rule:nonzero;"/>
    </g>
    <g transform="matrix(0.0989575,0,0,0.101442,52.5213,42.3859)">
        <path d="M798.49,4.53C803.33,3.33 808.35,3.88 813.28,4.03C808.41,5.05 803.4,5.4 798.49,4.53Z" style="fill:rgb(77,135,169);fill-rule:nonzero;"/>
    </g>
    <g transform="matrix(0.0989575,0,0,0.101442,52.5213,42.3859)">
        <path d="M1105.74,4.01C1110.99,3.92 1116.34,3.28 1121.52,4.52C1116.27,5.43 1110.93,5.06 1105.74,4.01Z" style="fill:rgb(73,133,173);fill-rule:nonzero;"/>
    </g>
    <g transform="matrix(0.0989575,0,0,0.101442,52.5213,42.3859)">
        <path d="M780.61,5.62C784.41,4.43 788.41,4.77 792.33,4.96C788.51,6.05 784.53,6.28 780.61,5.62Z" style="fill:rgb(71,128,167);fill-opacity:0.97;fill-rule:nonzero;"/>
    </g>
    <g transform="matrix(0.0989575,0,0,0.101442,52.5213,42.3859)">
        <path d="M1126.67,4.97C1130.91,4.79 1135.25,4.35 1139.38,5.62C1135.13,6.3 1130.83,6.04 1126.67,4.97Z" style="fill:rgb(70,125,167);fill-opacity:0.97;fill-rule:nonzero;"/>
    </g>
    <g transform="matrix(0.0989575,0,0,0.101442,52.5213,42.3859)">
        <path d="M765.91,6.55C768.07,5.27 770.61,5.54 773,5.89C770.87,7.33 768.26,7.47 765.91,6.55Z" style="fill:rgb(78,135,172);fill-rule:nonzero;"/>
    </g>
    <g transform="matrix(0.0989575,0,0,0.101442,52.5213,42.3859)">
        <path d="M1147,5.89C1149.37,5.54 1151.91,5.27 1154.08,6.56C1151.71,7.46 1149.11,7.34 1147,5.89Z" style="fill:rgb(80,135,169);fill-rule:nonzero;"/>
    </g>
    <g transform="matrix(0.0989575,0,0,0.101442,52.5213,42.3859)">
        <path d="M751.86,7.45C754.06,6.27 756.58,6.51 758.97,6.87C756.84,8.32 754.2,8.45 751.86,7.45Z" style="fill:rgb(65,135,177);fill-rule:nonzero;"/>
    </g>
    <g transform="matrix(0.0989575,0,0,0.101442,52.5213,42.3859)">
        <path d="M1161.98,6.84C1164.05,6.46 1166.29,6.31 1168.17,7.49C1166.1,8.45 1163.76,8.24 1161.98,6.84Z" style="fill:rgb(67,137,185);fill-rule:nonzero;"/>
    </g>
    <g transform="matrix(0.0989575,0,0,0.101442,52.5213,42.3859)">
        <path d="M737.55,8.53C740.4,7.58 743.4,7.6 746.37,7.84C743.52,8.88 740.52,9.05 737.55,8.53Z" style="fill:rgb(66,126,164);fill-opacity:0.98;fill-rule:nonzero;"/>
    </g>
    <g transform="matrix(0.0989575,0,0,0.101442,52.5213,42.3859)">
        <path d="M1173.65,7.83C1176.59,7.6 1179.59,7.58 1182.44,8.53C1179.47,9.06 1176.47,8.88 1173.65,7.83Z" style="fill:rgb(68,123,166);fill-opacity:0.98;fill-rule:nonzero;"/>
    </g>
    <g transform="matrix(0.0989575,0,0,0.101442,52.5213,42.3859)">
        <path d="M724.48,9.44C727.36,8.49 730.39,8.57 733.38,8.79C730.51,9.87 727.47,10.04 724.48,9.44Z" style="fill:rgb(64,129,173);fill-rule:nonzero;"/>
    </g>
    <g transform="matrix(0.0989575,0,0,0.101442,52.5213,42.3859)">
        <path d="M1186.62,8.79C1189.58,8.57 1192.62,8.48 1195.5,9.46C1192.49,10.03 1189.47,9.86 1186.62,8.79Z" style="fill:rgb(61,132,171);fill-rule:nonzero;"/>
    </g>
    <g transform="matrix(0.0989575,0,0,0.101442,52.5213,42.3859)">
        <path d="M600.71,21.83C602.21,20.5 604.29,20.69 606.09,21.2C604.51,22.36 602.5,22.57 600.71,21.83Z" style="fill:rgb(96,139,168);fill-opacity:0.9;fill-rule:nonzero;"/>
    </g>
    <g transform="matrix(0.0989575,0,0,0.101442,52.5213,42.3859)">
        <path d="M1314.88,21.22C1316.33,20.65 1318.13,20.59 1319.29,21.87C1317.78,22.55 1316.08,22.3 1314.88,21.22Z" style="fill:rgb(104,145,169);fill-opacity:0.9;fill-rule:nonzero;"/>
    </g>
    <g transform="matrix(0.0989575,0,0,0.101442,52.5213,42.3859)">
        <path d="M592.76,22.79C594.63,21.47 596.98,21.84 599.1,22.16C597.18,23.26 594.84,23.86 592.76,22.79Z" style="fill:rgb(84,139,169);fill-opacity:0.89;fill-rule:nonzero;"/>
    </g>
    <g transform="matrix(0.0989575,0,0,0.101442,52.5213,42.3859)">
        <path d="M1320.91,22.16C1323,21.84 1325.35,21.47 1327.23,22.79C1325.14,23.86 1322.81,23.27 1320.91,22.16Z" style="fill:rgb(85,137,165);fill-opacity:0.89;fill-rule:nonzero;"/>
    </g>
    <g transform="matrix(0.0989575,0,0,0.101442,52.5213,42.3859)">
        <path d="M585.68,23.63C587.67,22.56 589.97,22.8 592.14,23.11C590.24,24.53 587.78,24.59 585.68,23.63Z" style="fill:rgb(87,135,169);fill-opacity:0.98;fill-rule:nonzero;"/>
    </g>
    <g transform="matrix(0.0989575,0,0,0.101442,52.5213,42.3859)">
        <path d="M1327.86,23.11C1330,22.79 1332.31,22.56 1334.33,23.63C1332.19,24.58 1329.74,24.52 1327.86,23.11Z" style="fill:rgb(84,137,167);fill-opacity:0.98;fill-rule:nonzero;"/>
    </g>
    <g transform="matrix(0.0989575,0,0,0.101442,52.5213,42.3859)">
        <path d="M578.79,24.73C580.31,23.49 582.33,23.7 584.13,24.12C582.6,25.38 580.55,25.58 578.79,24.73Z" style="fill:rgb(82,137,168);fill-rule:nonzero;"/>
    </g>
    <g transform="matrix(0.0989575,0,0,0.101442,52.5213,42.3859)">
        <path d="M1335.88,24.11C1337.64,23.69 1339.67,23.49 1341.21,24.73C1339.43,25.58 1337.38,25.37 1335.88,24.11Z" style="fill:rgb(83,134,171);fill-rule:nonzero;"/>
    </g>
    <g transform="matrix(0.0989575,0,0,0.101442,52.5213,42.3859)">
        <path d="M557.77,27.67C558.91,26.5 560.6,26.49 562.05,27.04C560.91,28.21 559.18,28.5 557.77,27.67Z" style="fill:rgb(77,147,186);fill-rule:nonzero;"/>
    </g>
    <g transform="matrix(0.0989575,0,0,0.101442,52.5213,42.3859)">
        <path d="M898.44,33.6C927.96,33.31 957.48,33.55 987,33.47C1003.66,33.59 1020.36,33.1 1036.99,34.29C1046.39,34.42 1055.79,34.41 1065.18,34.7C1076.09,35.87 1087.09,35.23 1098.02,35.85C1104.64,36.85 1111.38,36.2 1118.01,37.19C1138.01,38.06 1157.98,39.63 1177.96,41.02C1198.71,42.44 1219.48,43.68 1240.21,45.59C1251.51,46.91 1262.85,47.83 1274.17,48.91C1294.91,51.52 1315.75,53.28 1336.44,56.3C1381.64,61.83 1426.69,68.75 1471.42,77.3C1495.55,81.47 1519.37,87.19 1543.37,91.98C1554.67,94.54 1565.84,97.68 1577.16,100.22C1596.42,105.78 1615.86,110.72 1634.91,116.98C1657.1,123.85 1679.22,131 1701.11,138.78C1711.43,143.21 1722.12,146.79 1732.17,151.83C1749.31,159.85 1766.53,167.75 1783.13,176.88C1793.25,181.73 1802.39,188.28 1811.94,194.14C1819.58,199.75 1827.6,204.87 1834.61,211.31C1841.81,216.36 1847.65,222.96 1853.86,229.13C1859.06,235.28 1865.18,240.74 1868.99,247.96C1875.24,257.55 1879.27,268.36 1882.3,279.35C1885.84,296.76 1883.36,315.39 1875.14,331.18C1872.56,336.75 1869.18,341.89 1866.08,347.16C1859.54,355.83 1852.33,363.98 1844.39,371.38C1822.59,391.07 1797.57,406.85 1771.69,420.59C1754.34,428.66 1737.13,437.07 1719.35,444.18C1697.1,453.49 1674.32,461.43 1651.51,469.22C1644.24,471.65 1636.89,473.81 1629.45,475.65C1605.66,482.19 1581.99,489.21 1557.95,494.83C1535.76,500.44 1513.36,505.15 1490.95,509.79C1466.18,514.98 1441.06,518.21 1416.21,522.99C1373.69,530.24 1330.89,535.73 1288.02,540.38C1262.49,543.51 1236.78,544.68 1211.22,547.52C1191.53,549.58 1171.78,550.8 1152.01,551.74C1144.71,552.74 1137.33,552.34 1130,552.86C1121.69,553.78 1113.3,553.25 1105,554.21C1094.99,554.73 1084.96,554.38 1074.99,555.35C1059.64,555.33 1044.35,556.61 1029,556.59C1024.31,556.45 1019.68,557.33 1015,557.36C977,557.73 938.99,557.84 900.99,557.27C888.37,555.89 875.62,557.03 863,555.69C847.32,555.71 831.69,554.42 816.01,554.35C808.02,553.6 800,553.6 792,553.19C783.09,552.19 774.08,552.86 765.19,551.66C725.84,550.24 686.74,545.01 647.46,542.3C609.57,538.32 571.74,533.74 534.05,528.16C512.43,525.13 491.02,520.81 469.47,517.38C457.64,515.09 445.68,513.55 433.89,511.11C391.72,502.97 349.94,492.89 308.62,481.2C293.34,476.73 277.73,473.39 262.74,467.97C223.95,454.78 185.74,439.76 148.85,421.92C133.83,413.99 119.17,405.41 105.05,395.98C98.26,390.74 90.82,386.35 84.43,380.6C80.49,377.2 76.08,374.29 72.7,370.29C68.31,365.06 62.99,360.68 58.88,355.21C55.49,350.64 51.43,346.53 48.68,341.51C44.65,333.87 39.74,326.56 37.63,318.07C34.01,307.44 33.97,296.02 34.9,284.96C36.57,268.96 44.99,254.81 53.59,241.61C61.7,232.1 69.77,222.43 79.41,214.41C98.72,197.98 120.2,184.17 142.76,172.66C150.99,168.21 159.43,164.15 167.77,159.91C183.35,152.99 198.93,146.04 214.83,139.84C235.84,132.02 257.15,125 278.55,118.34C291.17,114.52 303.67,110.25 316.5,107.21C327.7,103.88 338.93,100.66 350.33,98.11C370.07,92.76 390.08,88.51 410.11,84.41C466.68,72.86 523.69,63.45 580.97,56.28C602.41,53.31 623.97,51.46 645.45,48.79C663.31,47.2 681.15,45.25 699.03,43.84C718.98,42.61 738.88,40.67 758.87,40.06C769.26,38.38 779.8,38.69 790.24,37.57C798.18,37.59 806.05,36.37 814,36.39C825.29,35.12 836.68,35.75 848.02,35.19C857.31,34.17 866.67,34.63 876,34.35C883.5,34.54 890.94,33.42 898.44,33.6M935.96,108.39C935.28,120.24 935.83,132.13 935.66,144C935.72,187.45 935.54,230.91 935.75,274.36C973.97,274.61 1012.21,274.53 1050.43,274.4C1050.67,258.47 1050.65,242.52 1050.45,226.59C1034.06,226.41 1017.66,226.5 1001.27,226.55C1000.49,221.84 1000.54,217.03 1001.19,212.32C1015.85,212.13 1030.52,212.49 1045.19,212.14C1045.48,203.43 1045.23,194.71 1045.32,186C1045.22,180.8 1045.63,175.57 1044.98,170.4C1030.32,170.34 1015.64,170.7 1000.99,170.22C1000.64,166.24 1000.54,162.22 1001.21,158.27C1008.78,157.58 1016.4,157.8 1024,157.79C1030.33,158.11 1036.68,157.38 1043,158.09C1045.55,158.29 1048.09,157.8 1050.64,157.63C1050.58,141.22 1050.66,124.82 1050.61,108.41C1012.39,108.46 974.18,108.5 935.96,108.39M1294.3,108.43C1283.76,139.02 1273.18,169.6 1262.89,200.27C1255.68,221.63 1248.05,242.85 1241.01,264.27C1239.81,267.54 1238.48,270.78 1237.92,274.24C1259.36,274.86 1280.84,274.26 1302.3,274.54C1305.02,267.76 1306.87,260.66 1308.83,253.64C1322.57,253.31 1336.35,253.32 1350.1,253.63C1351.9,260.59 1353.49,267.63 1355.88,274.42C1378.48,274.51 1401.09,274.6 1423.7,274.38C1422.57,268.46 1419.91,263 1418.02,257.31C1415.17,248.63 1411.66,240.19 1408.69,231.55C1394.29,190.42 1378.95,149.61 1364.6,108.47C1341.16,108.42 1317.73,108.48 1294.3,108.43M1438.26,108.42C1437.25,114.9 1437.92,121.47 1437.74,128C1437.88,176.75 1437.48,225.51 1437.94,274.25C1446.28,274.77 1454.64,274.35 1463,274.48C1491.47,274.43 1519.94,274.61 1548.41,274.39C1548.57,260.31 1548.72,246.22 1548.34,232.14C1533.43,232.13 1518.52,232.36 1503.62,232.03C1503.12,222.03 1503.53,212.01 1503.41,202C1503.45,170.82 1503.3,139.63 1503.48,108.45C1481.74,108.44 1460,108.49 1438.26,108.42M431.26,112.46C413.75,118.04 397.46,128.66 386.85,143.85C376.5,158.3 370.75,176.19 371.47,194C371.69,208.64 376.92,222.9 385,235.01C403.25,262.32 437.3,278.1 469.94,273.92C487.6,271.99 505.31,265.76 518.69,253.76C531.48,243.34 540.28,228.54 544.82,212.78C546.75,201.11 547.96,189.18 546.57,177.37C516.82,177.41 487.07,177.42 457.32,177.36C457.2,189.27 457.3,201.18 457.25,213.08C468.48,213.55 479.74,213.06 490.98,213.34C487.73,218.24 482.9,222.08 477.34,224.03C470.77,226.2 463.77,225.55 456.97,225.67C447.41,225.9 438.15,221.18 431.88,214.11C421.53,202.46 420.84,183.91 428.83,170.84C434.84,162.15 445.45,156.95 455.99,157.3C463.02,157.36 470.29,156.84 477.05,159.21C481.41,160.62 485.29,163.25 488.42,166.57C489.54,167.58 490.8,169.47 492.53,168.43C506.62,162.02 520.63,155.39 534.87,149.3C534.35,147.58 533.51,145.99 532.38,144.61C522.89,132.27 510.25,122.27 495.96,116.06C475.67,107.38 452.39,106.12 431.26,112.46M604.74,109.34C591.4,110.44 578.34,114.53 566.59,120.92C566.66,134.53 565.13,148.09 565.55,161.71C579.62,157.33 593.86,153.21 608.54,151.38C616.95,150.01 625.51,150.43 634,150.53C646.26,150.92 657.69,156.49 670,156.34C683.73,156.25 697.36,154.18 710.78,151.36C711.81,147.32 711.28,143.12 711.39,139C711.29,130.17 711.61,121.33 711.21,112.5C706.43,113.76 701.96,116.03 697.09,116.96C683.25,120.07 668.98,117.57 655.44,114.2C638.98,109.87 621.75,107.06 604.74,109.34M739.54,108.58C739.35,163.85 739.32,219.13 739.56,274.39C760.01,274.53 780.47,274.57 800.92,274.38L801.55,273.77C801.91,247.77 801.23,221.73 801.89,195.73C804.86,198.27 805.9,202.18 807.75,205.49C819.72,227.52 831.29,249.78 843.02,271.95C843.71,272.98 844.35,274.75 845.95,274.47C865.79,274.48 885.63,274.59 905.48,274.42C905.78,249.62 905.52,224.81 905.61,200.01C905.54,169.53 905.75,139.04 905.51,108.57C885.2,108.46 864.89,108.4 844.59,108.59C844.39,133.72 844.48,158.86 844.55,184C841.26,179.88 839.16,175.02 836.51,170.5C829.32,157.96 822.29,145.32 815.31,132.67C810.63,124.78 806.21,116.76 801.97,108.64C781.16,108.36 760.35,108.47 739.54,108.58M1075.22,108.76C1075.3,163.91 1075.27,219.07 1075.24,274.22C1080.8,274.77 1086.41,274.37 1092,274.48C1108.09,274.39 1124.19,274.67 1140.28,274.34C1140.57,260.54 1140.24,246.73 1140.47,232.93C1143.42,237.08 1145.4,241.8 1147.83,246.26C1152.98,255.59 1157.79,265.1 1162.88,274.46C1186.82,274.44 1210.78,274.66 1234.73,274.34C1233.68,271 1231.66,268.11 1229.76,265.22C1219.03,247.76 1208.29,230.3 1197.64,212.78C1198.59,212.05 1199.56,211.34 1200.6,210.69C1221.34,199.22 1232.79,172.53 1225.32,149.76C1218.87,128.94 1199.71,113.87 1179.04,108.68C1156.38,108.22 1133.67,108.62 1111,108.49C1099.07,108.66 1087.12,108.13 1075.22,108.76M569.59,175.66C568.54,176.21 567.33,176.58 566.53,177.48C565.89,191.06 565.09,204.67 565.52,218.29C585.12,212.1 605.29,206.77 626,206.7C637.15,206.99 648.23,208.67 658.87,212.03C676.18,214.18 693.77,211.68 710.65,207.73C711.66,202.21 711.15,196.58 711.26,191C711.04,183.68 711.48,176.33 710.85,169.04C704.04,171.27 697.32,174.24 690.07,174.6C685.7,174.76 681.32,174.75 676.95,174.65C662.8,173.97 649.54,168.38 635.57,166.58C626.79,164.96 617.81,165.31 608.93,165.43C595.3,166.19 582.01,170.12 569.59,175.66M594.92,224.69C585,226.46 575.52,230.18 566.49,234.57C565.88,248.25 565.12,261.93 565.51,275.64C575.9,272.64 586.18,269.2 596.8,267.06C613.14,264.08 630.12,262.82 646.49,266.34C650.79,267.11 654.9,268.72 659.22,269.42C676.44,271.5 693.94,269.02 710.69,264.91C711.83,256.99 711,248.96 711.25,241C710.98,236.08 712.07,230.96 710.3,226.23C693.65,234.7 674.1,232.83 656.58,228.46C645.38,225.07 633.72,222.97 621.99,223.19C612.96,223.31 603.79,222.61 594.92,224.69M1051.31,226.72C1050.75,239.8 1051.31,252.91 1051.05,266C1051.14,268.73 1050.57,271.63 1051.77,274.2C1052.43,261.16 1051.8,248.07 1052.07,235.01C1051.97,232.25 1052.54,229.31 1051.31,226.72M937.3,275.48C974.83,275.64 1012.39,275.54 1049.93,275.52C1012.39,275.37 974.84,275.45 937.3,275.48M462.74,322.51C451.98,326.22 441.35,331.09 432.84,338.8C417.16,351.62 407.43,371.03 405.57,391.11C405.23,397.98 405.18,404.87 405.62,411.74C406.91,423.32 410.63,434.63 416.42,444.74C421.2,452.94 427.94,459.76 435.09,465.89C453.35,480 477.27,485.47 500,483.67C512.06,483.55 523.74,479.58 534.57,474.55C534.63,456.37 534.69,438.18 534.54,420C528.14,425.23 520.96,429.6 513,431.98C506.61,434.2 499.73,433.81 493.08,433.51C484.28,432.28 475.52,427.97 470.52,420.4C465.21,413.13 464.76,403.56 465.99,394.95C467.38,385.67 472.99,376.97 481.17,372.29C487.16,368.81 494.21,367.98 501.02,368.25C508.94,367.99 516.65,370.77 523.43,374.69C527.69,377.09 530.84,380.91 534.52,384.05C534.71,365.84 534.62,347.63 534.58,329.43C521.61,321.43 506.17,317.8 491,318.32C481.42,318.01 471.84,319.53 462.74,322.51M568.43,322.45C568.42,374.66 568.5,426.88 568.39,479.09C574.56,479.8 580.79,479.27 587,479.42C616.33,479.4 645.67,479.47 675,479.38C675.79,478.06 675.93,476.53 675.89,475.02C675.74,461.39 675.96,447.76 675.78,434.13L674.8,434.12C660.35,433.17 645.8,434.02 631.31,433.71C631.37,400.47 631.32,367.24 631.34,334C631.32,330.14 631.58,326.25 630.85,322.44C610.04,322.5 589.23,322.49 568.43,322.45M702.11,322.43C701.74,324.93 701.64,327.47 701.68,330C701.82,379.76 701.52,429.53 701.83,479.28C717.55,479.63 733.28,479.34 749,479.44C754.19,479.31 759.41,479.79 764.57,479.08C764.42,426.87 764.47,374.66 764.55,322.45C743.73,322.48 722.92,322.53 702.11,322.43M1372.32,322.44C1372.22,374.69 1372.34,426.93 1372.26,479.18C1397.82,479.78 1423.42,479.27 1449,479.44C1459.91,479.27 1470.84,479.79 1481.74,479.17C1481.67,464.16 1481.73,449.16 1481.71,434.15C1479.81,433.89 1477.91,433.71 1476.02,433.71C1462.35,433.71 1448.67,433.73 1435,433.72C1434.51,428.8 1434.57,423.84 1434.97,418.93C1448.98,418.38 1463.01,418.89 1477.03,418.67C1477.65,412.46 1477.21,406.22 1477.34,400C1477.2,393.79 1477.66,387.55 1477.02,381.36C1462.97,381.23 1448.92,381.58 1434.88,381.19C1434.66,376.88 1434.55,372.56 1434.99,368.27C1450.56,367.91 1466.19,368.89 1481.71,367.75C1481.68,352.64 1481.77,337.53 1481.67,322.42C1445.22,322.51 1408.77,322.48 1372.32,322.44M808.72,322.51C805.49,337.48 804.33,352.84 801.88,367.96C797.01,405.13 791.08,442.16 786.47,479.35C804.64,479.54 822.82,479.35 841,479.46C843.16,479.49 845.34,479.36 847.47,478.92C847.94,466.58 849.6,454.31 850.51,442C851.6,428.22 852.96,414.46 854.05,400.69C855.76,402.26 856.49,404.48 857.07,406.67C863.73,429.9 870.48,453.11 877.39,476.28C877.88,477.45 878.22,479.62 879.99,479.35C895,479.47 910.02,479.49 925.04,479.32C932.81,453.17 940.4,426.95 948.1,400.8C948.44,400.14 948.83,399.51 949.26,398.91C951.02,424.62 953.81,450.25 955.8,475.95C956.04,477.22 956.05,479.65 958.01,479.36C965.33,479.56 972.67,479.36 980,479.43C992.26,479.29 1004.55,479.7 1016.81,479.22C1014.67,457.28 1010.59,435.56 1008.06,413.66C1003.63,383.87 999.57,354.03 995.48,324.2C995.59,322.16 993.36,322.6 992.07,322.5C970.29,322.51 948.51,322.49 926.73,322.51C924.34,328.05 923.47,334.08 921.63,339.8C916.96,355.11 913.32,370.71 908.85,386.08C906.45,394.11 904.84,402.38 901.89,410.24C900.03,408.1 899.99,405.13 899.16,402.55C891.69,375.92 884.73,349.13 877.12,322.56C854.32,322.43 831.52,322.53 808.72,322.51M1084.01,322.64C1069.44,363.42 1055.15,404.31 1040.24,444.97C1036.79,456.58 1031.71,467.64 1028.45,479.29C1049.67,479.53 1070.92,479.5 1092.15,479.31C1094.95,471.82 1095.9,463.73 1099.14,456.41C1110.77,456.55 1122.41,456.47 1134.05,456.44C1135.41,456.52 1136.89,456.28 1138.22,456.83C1140.95,464.18 1142.08,472.04 1144.81,479.4C1165.88,479.33 1186.97,479.68 1208.04,479.23C1207.77,477.83 1207.57,476.44 1207.2,475.08C1189.21,424.22 1171.03,373.43 1153.04,322.57C1130.03,322.53 1107.02,322.4 1084.01,322.64M1218.29,322.83C1218.39,337.78 1218.32,352.74 1218.33,367.7C1229.18,368.83 1240.13,367.96 1251.03,368.24C1251.47,374.15 1251.16,380.08 1251.24,386C1251.24,417.07 1251.25,448.14 1251.24,479.21C1261.81,479.72 1272.41,479.29 1283,479.42C1293.24,479.26 1303.51,479.77 1313.74,479.16C1313.65,453.44 1313.72,427.72 1313.69,402C1313.93,390.76 1313.21,379.48 1314.07,368.27C1324.95,367.91 1335.88,368.85 1346.72,367.7C1346.73,352.73 1346.69,337.76 1346.76,322.78C1335.86,322.15 1324.92,322.69 1314,322.51L1253,322.51C1241.43,322.72 1229.83,322.09 1218.29,322.83Z" style="fill:rgb(0,91,154);fill-rule:nonzero;"/>
    </g>
    <g transform="matrix(0.0989575,0,0,0.101442,52.5213,42.3859)">
        <path d="M1481.99,48.02C1483.41,47.62 1485.08,47.57 1486.23,48.72C1484.8,49.61 1483.03,49.28 1481.99,48.02Z" style="fill:rgb(102,155,187);fill-rule:nonzero;"/>
    </g>
    <g transform="matrix(0.0989575,0,0,0.101442,52.5213,42.3859)">
        <path d="M1567.03,67.03C1568.46,66.55 1570.06,66.77 1571.14,67.95C1569.68,68.73 1567.97,68.34 1567.03,67.03Z" style="fill:rgb(74,118,141);fill-opacity:0.75;fill-rule:nonzero;"/>
    </g>
    <g transform="matrix(0.0989575,0,0,0.101442,52.5213,42.3859)">
        <path d="M935.96,108.39C974.18,108.5 1012.39,108.46 1050.61,108.41C1050.66,124.82 1050.58,141.22 1050.64,157.63C1048.09,157.8 1045.55,158.29 1043,158.09C1036.68,157.38 1030.33,158.11 1024,157.79C1016.4,157.8 1008.78,157.58 1001.21,158.27C1000.54,162.22 1000.64,166.24 1000.99,170.22C1015.64,170.7 1030.32,170.34 1044.98,170.4C1045.63,175.57 1045.22,180.8 1045.32,186C1045.23,194.71 1045.48,203.43 1045.19,212.14C1030.52,212.49 1015.85,212.13 1001.19,212.32C1000.54,217.03 1000.49,221.84 1001.27,226.55C1017.66,226.5 1034.06,226.41 1050.45,226.59C1050.65,242.52 1050.67,258.47 1050.43,274.4C1012.21,274.53 973.97,274.61 935.75,274.36C935.54,230.91 935.72,187.45 935.66,144C935.83,132.13 935.28,120.24 935.96,108.39Z" style="fill:rgb(254,254,254);fill-rule:nonzero;"/>
    </g>
    <g transform="matrix(0.0989575,0,0,0.101442,52.5213,42.3859)">
        <path d="M1294.3,108.43C1317.73,108.48 1341.16,108.42 1364.6,108.47C1378.95,149.61 1394.29,190.42 1408.69,231.55C1411.66,240.19 1415.17,248.63 1418.02,257.31C1419.91,263 1422.57,268.46 1423.7,274.38C1401.09,274.6 1378.48,274.51 1355.88,274.42C1353.49,267.63 1351.9,260.59 1350.1,253.63C1336.35,253.32 1322.57,253.31 1308.83,253.64C1306.87,260.66 1305.02,267.76 1302.3,274.54C1280.84,274.26 1259.36,274.86 1237.92,274.24C1238.48,270.78 1239.81,267.54 1241.01,264.27C1248.05,242.85 1255.68,221.63 1262.89,200.27C1273.18,169.6 1283.76,139.02 1294.3,108.43M1330.23,171.85C1328.46,176.79 1327.12,181.86 1325.88,186.95C1323.99,195.45 1320.7,203.61 1319.38,212.22C1326.44,212.36 1333.52,212.38 1340.59,212.22C1339.25,203.93 1336.43,195.98 1334.87,187.74C1333.29,182.46 1332.83,176.77 1330.23,171.85Z" style="fill:rgb(254,254,254);fill-rule:nonzero;"/>
    </g>
    <g transform="matrix(0.0989575,0,0,0.101442,52.5213,42.3859)">
        <path d="M1438.26,108.42C1460,108.49 1481.74,108.44 1503.48,108.45C1503.3,139.63 1503.45,170.82 1503.41,202C1503.53,212.01 1503.12,222.03 1503.62,232.03C1518.52,232.36 1533.43,232.13 1548.34,232.14C1548.72,246.22 1548.57,260.31 1548.41,274.39C1519.94,274.61 1491.47,274.43 1463,274.48C1454.64,274.35 1446.28,274.77 1437.94,274.25C1437.48,225.51 1437.88,176.75 1437.74,128C1437.92,121.47 1437.25,114.9 1438.26,108.42M1501.88,109.05C1501.98,149.05 1501.79,189.04 1501.9,229.04C1501.97,230.16 1502.21,231.26 1502.62,232.33C1503.37,221.58 1502.76,210.78 1502.94,200C1502.98,169.69 1502.98,139.39 1502.84,109.08L1501.88,109.05Z" style="fill:rgb(254,254,254);fill-rule:nonzero;"/>
    </g>
    <g transform="matrix(0.0989575,0,0,0.101442,52.5213,42.3859)">
        <path d="M431.26,112.46C452.39,106.12 475.67,107.38 495.96,116.06C510.25,122.27 522.89,132.27 532.38,144.61C533.51,145.99 534.35,147.58 534.87,149.3C520.63,155.39 506.62,162.02 492.53,168.43C490.8,169.47 489.54,167.58 488.42,166.57C485.29,163.25 481.41,160.62 477.05,159.21C470.29,156.84 463.02,157.36 455.99,157.3C445.45,156.95 434.84,162.15 428.83,170.84C420.84,183.91 421.53,202.46 431.88,214.11C438.15,221.18 447.41,225.9 456.97,225.67C463.77,225.55 470.77,226.2 477.34,224.03C482.9,222.08 487.73,218.24 490.98,213.34C479.74,213.06 468.48,213.55 457.25,213.08C457.3,201.18 457.2,189.27 457.32,177.36C487.07,177.42 516.82,177.41 546.57,177.37C547.96,189.18 546.75,201.11 544.82,212.78C540.28,228.54 531.48,243.34 518.69,253.76C505.31,265.76 487.6,271.99 469.94,273.92C437.3,278.1 403.25,262.32 385,235.01C376.92,222.9 371.69,208.64 371.47,194C370.75,176.19 376.5,158.3 386.85,143.85C397.46,128.66 413.75,118.04 431.26,112.46Z" style="fill:rgb(254,254,254);fill-rule:nonzero;"/>
    </g>
    <g transform="matrix(0.0989575,0,0,0.101442,52.5213,42.3859)">
        <path d="M604.74,109.34C621.75,107.06 638.98,109.87 655.44,114.2C668.98,117.57 683.25,120.07 697.09,116.96C701.96,116.03 706.43,113.76 711.21,112.5C711.61,121.33 711.29,130.17 711.39,139C711.28,143.12 711.81,147.32 710.78,151.36C697.36,154.18 683.73,156.25 670,156.34C657.69,156.49 646.26,150.92 634,150.53C625.51,150.43 616.95,150.01 608.54,151.38C593.86,153.21 579.62,157.33 565.55,161.71C565.13,148.09 566.66,134.53 566.59,120.92C578.34,114.53 591.4,110.44 604.74,109.34Z" style="fill:rgb(254,254,254);fill-rule:nonzero;"/>
    </g>
    <g transform="matrix(0.0989575,0,0,0.101442,52.5213,42.3859)">
        <path d="M739.54,108.58C760.35,108.47 781.16,108.36 801.97,108.64C806.21,116.76 810.63,124.78 815.31,132.67C822.29,145.32 829.32,157.96 836.51,170.5C839.16,175.02 841.26,179.88 844.55,184C844.48,158.86 844.39,133.72 844.59,108.59C864.89,108.4 885.2,108.46 905.51,108.57C905.75,139.04 905.54,169.53 905.61,200.01C905.52,224.81 905.78,249.62 905.48,274.42C885.63,274.59 865.79,274.48 845.95,274.47C844.35,274.75 843.71,272.98 843.02,271.95C831.29,249.78 819.72,227.52 807.75,205.49C805.9,202.18 804.86,198.27 801.89,195.73C801.23,221.73 801.91,247.77 801.55,273.77L800.92,274.38C780.47,274.57 760.01,274.53 739.56,274.39C739.32,219.13 739.35,163.85 739.54,108.58Z" style="fill:rgb(254,254,254);fill-rule:nonzero;"/>
    </g>
    <g transform="matrix(0.0989575,0,0,0.101442,52.5213,42.3859)">
        <path d="M1075.22,108.76C1087.12,108.13 1099.07,108.66 1111,108.49C1133.67,108.62 1156.38,108.22 1179.04,108.68C1199.71,113.87 1218.87,128.94 1225.32,149.76C1232.79,172.53 1221.34,199.22 1200.6,210.69C1199.56,211.34 1198.59,212.05 1197.64,212.78C1208.29,230.3 1219.03,247.76 1229.76,265.22C1231.66,268.11 1233.68,271 1234.73,274.34C1210.78,274.66 1186.82,274.44 1162.88,274.46C1157.79,265.1 1152.98,255.59 1147.83,246.26C1145.4,241.8 1143.42,237.08 1140.47,232.93C1140.24,246.73 1140.57,260.54 1140.28,274.34C1124.19,274.67 1108.09,274.39 1092,274.48C1086.41,274.37 1080.8,274.77 1075.24,274.22C1075.27,219.07 1075.3,163.91 1075.22,108.76M1141.43,156.32C1141.25,168.09 1141.27,179.87 1141.42,191.64C1148.2,191.94 1154.5,187.68 1157.69,181.87C1160.08,176.99 1160.08,171.01 1157.69,166.13C1154.55,160.27 1148.18,156.09 1141.43,156.32Z" style="fill:rgb(254,254,254);fill-rule:nonzero;"/>
    </g>
    <g transform="matrix(0.0989575,0,0,0.101442,52.5213,42.3859)">
        <path d="M569.59,175.66C582.01,170.12 595.3,166.19 608.93,165.43C617.81,165.31 626.79,164.96 635.57,166.58C649.54,168.38 662.8,173.97 676.95,174.65C681.32,174.75 685.7,174.76 690.07,174.6C697.32,174.24 704.04,171.27 710.85,169.04C711.48,176.33 711.04,183.68 711.26,191C711.15,196.58 711.66,202.21 710.65,207.73C693.77,211.68 676.18,214.18 658.87,212.03C648.23,208.67 637.15,206.99 626,206.7C605.29,206.77 585.12,212.1 565.52,218.29C565.09,204.67 565.89,191.06 566.53,177.48C567.33,176.58 568.54,176.21 569.59,175.66Z" style="fill:rgb(254,254,254);fill-rule:nonzero;"/>
    </g>
    <g transform="matrix(0.0989575,0,0,0.101442,52.5213,42.3859)">
        <path d="M594.92,224.69C603.79,222.61 612.96,223.31 621.99,223.19C633.72,222.97 645.38,225.07 656.58,228.46C674.1,232.83 693.65,234.7 710.3,226.23C712.07,230.96 710.98,236.08 711.25,241C711,248.96 711.83,256.99 710.69,264.91C693.94,269.02 676.44,271.5 659.22,269.42C654.9,268.72 650.79,267.11 646.49,266.34C630.12,262.82 613.14,264.08 596.8,267.06C586.18,269.2 575.9,272.64 565.51,275.64C565.12,261.93 565.88,248.25 566.49,234.57C575.52,230.18 585,226.46 594.92,224.69Z" style="fill:rgb(254,254,254);fill-rule:nonzero;"/>
    </g>
    <g transform="matrix(0.0989575,0,0,0.101442,52.5213,42.3859)">
        <path d="M937.3,275.48C974.84,275.45 1012.39,275.37 1049.93,275.52C1012.39,275.54 974.83,275.64 937.3,275.48Z" style="fill:rgb(254,254,254);fill-rule:nonzero;"/>
    </g>
    <g transform="matrix(0.0989575,0,0,0.101442,52.5213,42.3859)">
        <path d="M462.74,322.51C471.84,319.53 481.42,318.01 491,318.32C506.17,317.8 521.61,321.43 534.58,329.43C534.62,347.63 534.71,365.84 534.52,384.05C530.84,380.91 527.69,377.09 523.43,374.69C516.65,370.77 508.94,367.99 501.02,368.25C494.21,367.98 487.16,368.81 481.17,372.29C472.99,376.97 467.38,385.67 465.99,394.95C464.76,403.56 465.21,413.13 470.52,420.4C475.52,427.97 484.28,432.28 493.08,433.51C499.73,433.81 506.61,434.2 513,431.98C520.96,429.6 528.14,425.23 534.54,420C534.69,438.18 534.63,456.37 534.57,474.55C523.74,479.58 512.06,483.55 500,483.67C477.27,485.47 453.35,480 435.09,465.89C427.94,459.76 421.2,452.94 416.42,444.74C410.63,434.63 406.91,423.32 405.62,411.74C405.18,404.87 405.23,397.98 405.57,391.11C407.43,371.03 417.16,351.62 432.84,338.8C441.35,331.09 451.98,326.22 462.74,322.51Z" style="fill:rgb(254,254,254);fill-rule:nonzero;"/>
    </g>
    <g transform="matrix(0.0989575,0,0,0.101442,52.5213,42.3859)">
        <path d="M568.43,322.45C589.23,322.49 610.04,322.5 630.85,322.44C631.58,326.25 631.32,330.14 631.34,334C631.32,367.24 631.37,400.47 631.31,433.71C645.8,434.02 660.35,433.17 674.8,434.12C674.89,449.21 674.52,464.31 675,479.38C645.67,479.47 616.33,479.4 587,479.42C580.79,479.27 574.56,479.8 568.39,479.09C568.5,426.88 568.42,374.66 568.43,322.45Z" style="fill:rgb(254,254,254);fill-rule:nonzero;"/>
    </g>
    <g transform="matrix(0.0989575,0,0,0.101442,52.5213,42.3859)">
        <path d="M702.11,322.43C722.92,322.53 743.73,322.48 764.55,322.45C764.47,374.66 764.42,426.87 764.57,479.08C759.41,479.79 754.19,479.31 749,479.44C733.28,479.34 717.55,479.63 701.83,479.28C701.52,429.53 701.82,379.76 701.68,330C701.64,327.47 701.74,324.93 702.11,322.43Z" style="fill:rgb(254,254,254);fill-rule:nonzero;"/>
    </g>
    <g transform="matrix(0.0989575,0,0,0.101442,52.5213,42.3859)">
        <path d="M1372.32,322.44C1408.77,322.48 1445.22,322.51 1481.67,322.42C1481.77,337.53 1481.68,352.64 1481.71,367.75C1466.19,368.89 1450.56,367.91 1434.99,368.27C1434.55,372.56 1434.66,376.88 1434.88,381.19C1448.92,381.58 1462.97,381.23 1477.02,381.36C1477.66,387.55 1477.2,393.79 1477.34,400C1477.21,406.22 1477.65,412.46 1477.03,418.67C1463.01,418.89 1448.98,418.38 1434.97,418.93C1434.57,423.84 1434.51,428.8 1435,433.72C1448.67,433.73 1462.35,433.71 1476.02,433.71C1477.91,433.71 1479.81,433.89 1481.71,434.15C1481.73,449.16 1481.67,464.16 1481.74,479.17C1470.84,479.79 1459.91,479.27 1449,479.44C1423.42,479.27 1397.82,479.78 1372.26,479.18C1372.34,426.93 1372.22,374.69 1372.32,322.44Z" style="fill:rgb(254,254,254);fill-rule:nonzero;"/>
    </g>
    <g transform="matrix(0.0989575,0,0,0.101442,52.5213,42.3859)">
        <path d="M808.72,322.51C831.52,322.53 854.32,322.43 877.12,322.56C884.73,349.13 891.69,375.92 899.16,402.55C899.99,405.13 900.03,408.1 901.89,410.24C904.84,402.38 906.45,394.11 908.85,386.08C913.32,370.71 916.96,355.11 921.63,339.8C923.47,334.08 924.34,328.05 926.73,322.51C948.51,322.49 970.29,322.51 992.07,322.5C993.36,322.6 995.59,322.16 995.48,324.2C999.57,354.03 1003.63,383.87 1008.06,413.66C1010.59,435.56 1014.67,457.28 1016.81,479.22C1004.55,479.7 992.26,479.29 980,479.43C972.67,479.36 965.33,479.56 958.01,479.36C956.05,479.65 956.04,477.22 955.8,475.95C953.81,450.25 951.02,424.62 949.26,398.91C948.83,399.51 948.44,400.14 948.1,400.8C940.4,426.95 932.81,453.17 925.04,479.32C910.02,479.49 895,479.47 879.99,479.35C878.22,479.62 877.88,477.45 877.39,476.28C870.48,453.11 863.73,429.9 857.07,406.67C856.49,404.48 855.76,402.26 854.05,400.69C852.96,414.46 851.6,428.22 850.51,442C849.6,454.31 847.94,466.58 847.47,478.92C845.34,479.36 843.16,479.49 841,479.46C822.82,479.35 804.64,479.54 786.47,479.35C791.08,442.16 797.01,405.13 801.88,367.96C804.33,352.84 805.49,337.48 808.72,322.51Z" style="fill:rgb(254,254,254);fill-rule:nonzero;"/>
    </g>
    <g transform="matrix(0.0989575,0,0,0.101442,52.5213,42.3859)">
        <path d="M1084.01,322.64C1107.02,322.4 1130.03,322.53 1153.04,322.57C1171.03,373.43 1189.21,424.22 1207.2,475.08C1207.57,476.44 1207.77,477.83 1208.04,479.23C1186.97,479.68 1165.88,479.33 1144.81,479.4C1142.08,472.04 1140.95,464.18 1138.22,456.83C1136.89,456.28 1135.41,456.52 1134.05,456.44C1122.41,456.47 1110.77,456.55 1099.14,456.41C1095.9,463.73 1094.95,471.82 1092.15,479.31C1070.92,479.5 1049.67,479.53 1028.45,479.29C1031.71,467.64 1036.79,456.58 1040.24,444.97C1055.15,404.31 1069.44,363.42 1084.01,322.64M1118.2,378.88C1116.32,383.82 1115.44,389.07 1113.97,394.14C1111.9,401.82 1109.16,409.36 1107.95,417.25C1114.99,417.55 1122.06,417.51 1129.12,417.27C1127.03,406.92 1123.68,396.87 1121.1,386.64C1120.35,383.98 1120.05,381.05 1118.2,378.88Z" style="fill:rgb(254,254,254);fill-rule:nonzero;"/>
    </g>
    <g transform="matrix(0.0989575,0,0,0.101442,52.5213,42.3859)">
        <path d="M1218.29,322.83C1229.83,322.09 1241.43,322.72 1253,322.51L1314,322.51C1324.92,322.69 1335.86,322.15 1346.76,322.78C1346.69,337.76 1346.73,352.73 1346.72,367.7C1335.88,368.85 1324.95,367.91 1314.07,368.27C1313.21,379.48 1313.93,390.76 1313.69,402C1313.72,427.72 1313.65,453.44 1313.74,479.16C1303.51,479.77 1293.24,479.26 1283,479.42C1272.41,479.29 1261.81,479.72 1251.24,479.21C1251.25,448.14 1251.24,417.07 1251.24,386C1251.16,380.08 1251.47,374.15 1251.03,368.24C1240.13,367.96 1229.18,368.83 1218.33,367.7C1218.32,352.74 1218.39,337.78 1218.29,322.83Z" style="fill:rgb(254,254,254);fill-rule:nonzero;"/>
    </g>
    <g transform="matrix(0.0989575,0,0,0.101442,52.5213,42.3859)">
        <path d="M1501.88,109.05L1502.84,109.08C1502.98,139.39 1502.98,169.69 1502.94,200C1502.76,210.78 1503.37,221.58 1502.62,232.33C1502.21,231.26 1501.97,230.16 1501.9,229.04C1501.79,189.04 1501.98,149.05 1501.88,109.05Z" style="fill:rgb(211,238,247);fill-rule:nonzero;"/>
    </g>
    <g transform="matrix(0.0989575,0,0,0.101442,52.5213,42.3859)">
        <path d="M200.94,115.07C201.68,113.91 202.71,113.53 204.04,113.93C203.33,115.21 202.3,115.59 200.94,115.07Z" style="fill:rgb(62,94,115);fill-opacity:0.67;fill-rule:nonzero;"/>
    </g>
    <g transform="matrix(0.0989575,0,0,0.101442,52.5213,42.3859)">
        <path d="M1804.94,155.88C1807.01,156.89 1809.05,157.97 1811,159.25C1808.81,158.42 1806.76,157.33 1804.94,155.88Z" style="fill:rgb(46,80,103);fill-opacity:0.62;fill-rule:nonzero;"/>
    </g>
    <g transform="matrix(0.0989575,0,0,0.101442,52.5213,42.3859)">
        <path d="M1141.43,156.32C1148.18,156.09 1154.55,160.27 1157.69,166.13C1160.08,171.01 1160.08,176.99 1157.69,181.87C1154.5,187.68 1148.2,191.94 1141.42,191.64C1141.27,179.87 1141.25,168.09 1141.43,156.32Z" style="fill:rgb(1,91,152);fill-rule:nonzero;"/>
    </g>
    <g transform="matrix(0.0989575,0,0,0.101442,52.5213,42.3859)">
        <path d="M104.06,162.28C104.84,160.76 106.38,159.94 108.04,159.79C107.64,161.64 105.89,162.68 104.06,162.28Z" style="fill:rgb(47,85,102);fill-opacity:0.62;fill-rule:nonzero;"/>
    </g>
    <g transform="matrix(0.0989575,0,0,0.101442,52.5213,42.3859)">
        <path d="M1330.23,171.85C1332.83,176.77 1333.29,182.46 1334.87,187.74C1336.43,195.98 1339.25,203.93 1340.59,212.22C1333.52,212.38 1326.44,212.36 1319.38,212.22C1320.7,203.61 1323.99,195.45 1325.88,186.95C1327.12,181.86 1328.46,176.79 1330.23,171.85Z" style="fill:rgb(2,91,151);fill-rule:nonzero;"/>
    </g>
    <g transform="matrix(0.0989575,0,0,0.101442,52.5213,42.3859)">
        <path d="M1051.31,226.72C1052.54,229.31 1051.97,232.25 1052.07,235.01C1051.8,248.07 1052.43,261.16 1051.77,274.2C1050.57,271.63 1051.14,268.73 1051.05,266C1051.31,252.91 1050.75,239.8 1051.31,226.72Z" style="fill:rgb(34,106,151);fill-rule:nonzero;"/>
    </g>
    <g transform="matrix(0.0989575,0,0,0.101442,52.5213,42.3859)">
        <path d="M1917.31,275.81C1918.3,277.02 1918.43,278.66 1917.92,280.12C1916.64,279 1916.41,277.23 1917.31,275.81Z" style="fill:rgb(95,143,175);fill-opacity:0.92;fill-rule:nonzero;"/>
    </g>
    <g transform="matrix(0.0989575,0,0,0.101442,52.5213,42.3859)">
        <path d="M1.12,286.1C0.48,284.81 0.71,283.71 1.79,282.81C2.44,284.08 2.22,285.18 1.12,286.1Z" style="fill:rgb(97,147,179);fill-opacity:0.98;fill-rule:nonzero;"/>
    </g>
    <g transform="matrix(0.0989575,0,0,0.101442,52.5213,42.3859)">
        <path d="M1918.14,282.77C1919.44,283.83 1919.38,285.63 1918.83,287.08C1917.71,285.89 1917.43,284.22 1918.14,282.77Z" style="fill:rgb(91,143,174);fill-rule:nonzero;"/>
    </g>
    <g transform="matrix(0.0989575,0,0,0.101442,52.5213,42.3859)">
        <path d="M0,293.37L0.47,292.95C1.59,295.17 1.59,297.81 0.45,300.03L0,299.58L0,293.37Z" style="fill:rgb(123,190,233);fill-rule:nonzero;"/>
    </g>
    <g transform="matrix(0.0989575,0,0,0.101442,52.5213,42.3859)">
        <path d="M1919.55,292.96L1920,293.42L1920,299.64L1919.54,300.07C1918.39,297.83 1918.39,295.19 1919.55,292.96Z" style="fill:rgb(120,195,234);fill-rule:nonzero;"/>
    </g>
    <g transform="matrix(0.0989575,0,0,0.101442,52.5213,42.3859)">
        <path d="M1.17,305.91C2.27,307.1 2.53,308.78 1.84,310.25C0.55,309.14 0.59,307.36 1.17,305.91Z" style="fill:rgb(96,147,176);fill-rule:nonzero;"/>
    </g>
    <g transform="matrix(0.0989575,0,0,0.101442,52.5213,42.3859)">
        <path d="M1918.16,310.25C1917.44,308.78 1917.72,307.1 1918.84,305.91C1919.38,307.36 1919.43,309.15 1918.16,310.25Z" style="fill:rgb(95,149,176);fill-rule:nonzero;"/>
    </g>
    <g transform="matrix(0.0989575,0,0,0.101442,52.5213,42.3859)">
        <path d="M2.1,311.87C3.32,313 3.56,314.76 2.71,316.19C1.64,314.98 1.54,313.33 2.1,311.87Z" style="fill:rgb(86,136,169);fill-opacity:0.93;fill-rule:nonzero;"/>
    </g>
    <g transform="matrix(0.0989575,0,0,0.101442,52.5213,42.3859)">
        <path d="M1917.3,316.18C1916.41,314.75 1916.65,312.99 1917.9,311.87C1918.43,313.32 1918.33,314.97 1917.3,316.18Z" style="fill:rgb(89,138,170);fill-opacity:0.93;fill-rule:nonzero;"/>
    </g>
    <g transform="matrix(0.0989575,0,0,0.101442,52.5213,42.3859)">
        <path d="M38.79,379.03C42.35,381.55 45.43,384.67 47.96,388.23C44.09,386.11 40.89,382.91 38.79,379.03Z" style="fill:rgb(70,112,138);fill-opacity:0.77;fill-rule:nonzero;"/>
    </g>
    <g transform="matrix(0.0989575,0,0,0.101442,52.5213,42.3859)">
        <path d="M1118.2,378.88C1120.05,381.05 1120.35,383.98 1121.1,386.64C1123.68,396.87 1127.03,406.92 1129.12,417.27C1122.06,417.51 1114.99,417.55 1107.95,417.25C1109.16,409.36 1111.9,401.82 1113.97,394.14C1115.44,389.07 1116.32,383.82 1118.2,378.88Z" style="fill:rgb(2,91,152);fill-rule:nonzero;"/>
    </g>
    <g transform="matrix(0.0989575,0,0,0.101442,52.5213,42.3859)">
        <path d="M59.96,398.84C61.9,398.92 64.05,400.08 63.76,402.34C62,401.8 60.67,400.52 59.96,398.84Z" style="fill:rgb(70,115,137);fill-opacity:0.81;fill-rule:nonzero;"/>
    </g>
    <g transform="matrix(0.0989575,0,0,0.101442,52.5213,42.3859)">
        <path d="M1856.11,402.28C1856.26,400.18 1857.95,398.82 1860.04,398.85C1859.33,400.59 1857.95,401.92 1856.11,402.28Z" style="fill:rgb(72,114,137);fill-opacity:0.81;fill-rule:nonzero;"/>
    </g>
    <g transform="matrix(0.0989575,0,0,0.101442,52.5213,42.3859)">
        <path d="M110,433.77C112.14,434.57 114.22,435.57 115.99,437.06C113.93,436.07 111.91,435.01 110,433.77Z" style="fill:rgb(44,80,101);fill-opacity:0.63;fill-rule:nonzero;"/>
    </g>
    <g transform="matrix(0.0989575,0,0,0.101442,52.5213,42.3859)">
        <path d="M674.8,434.12L675.78,434.13C675.96,447.76 675.74,461.39 675.89,475.02C675.93,476.53 675.79,478.06 675,479.38C674.52,464.31 674.89,449.21 674.8,434.12Z" style="fill:rgb(63,121,152);fill-rule:nonzero;"/>
    </g>
    <g transform="matrix(0.0989575,0,0,0.101442,52.5213,42.3859)">
        <path d="M117.11,437.86C119.91,438.95 122.59,440.36 124.97,442.24C122.12,441.22 119.38,439.89 117.11,437.86Z" style="fill:rgb(31,57,70);fill-opacity:0.44;fill-rule:nonzero;"/>
    </g>
    <g transform="matrix(0.0989575,0,0,0.101442,52.5213,42.3859)">
        <path d="M212.79,481.99C214.14,481.48 215.19,481.85 215.96,483.08C214.61,483.52 213.55,483.16 212.79,481.99Z" style="fill:rgb(46,79,105);fill-opacity:0.63;fill-rule:nonzero;"/>
    </g>
    <g transform="matrix(0.0989575,0,0,0.101442,52.5213,42.3859)">
        <path d="M1704.05,483.08C1704.78,481.84 1705.84,481.48 1707.22,481.98C1706.43,483.15 1705.38,483.52 1704.05,483.08Z" style="fill:rgb(44,82,100);fill-opacity:0.63;fill-rule:nonzero;"/>
    </g>
    <g transform="matrix(0.0989575,0,0,0.101442,52.5213,42.3859)">
        <path d="M350.83,525.07C352.26,524.27 353.98,524.66 354.96,525.97C353.5,526.43 351.89,526.24 350.83,525.07Z" style="fill:rgb(82,121,142);fill-opacity:0.76;fill-rule:nonzero;"/>
    </g>
    <g transform="matrix(0.0989575,0,0,0.101442,52.5213,42.3859)">
        <path d="M431.79,543.25C433.07,542.56 434.17,542.79 435.09,543.94C433.79,544.52 432.69,544.29 431.79,543.25Z" style="fill:rgb(101,154,175);fill-rule:nonzero;"/>
    </g>
    <g transform="matrix(0.0989575,0,0,0.101442,52.5213,42.3859)">
        <path d="M1483.97,543.95C1485.05,542.73 1486.78,542.42 1488.23,543.28C1487.08,544.44 1485.39,544.42 1483.97,543.95Z" style="fill:rgb(87,145,173);fill-rule:nonzero;"/>
    </g>
    <g transform="matrix(0.0989575,0,0,0.101442,52.5213,42.3859)">
        <path d="M436.74,544.16C438.05,543.53 439.15,543.79 440.05,544.94C438.72,545.49 437.62,545.23 436.74,544.16Z" style="fill:rgb(101,155,186);fill-rule:nonzero;"/>
    </g>
    <g transform="matrix(0.0989575,0,0,0.101442,52.5213,42.3859)">
        <path d="M1466.93,546.03C1470.6,544.65 1474.52,545.19 1478.34,545.45C1464.74,548.29 1451.13,551.14 1437.43,553.46C1425.79,555.17 1414.31,557.77 1402.65,559.34C1390.7,561.04 1378.85,563.67 1366.76,564.22C1380.93,561.66 1395.24,559.83 1409.41,557.25C1419.88,555.26 1430.61,554.31 1440.77,550.93C1449.24,548.08 1458.42,548.78 1466.93,546.03Z" style="fill:rgb(33,82,113);fill-opacity:0.7;fill-rule:nonzero;"/>
    </g>
    <g transform="matrix(0.0989575,0,0,0.101442,52.5213,42.3859)">
        <path d="M1480.04,545.04C1480.83,543.8 1481.9,543.5 1483.26,544.13C1482.41,545.19 1481.34,545.5 1480.04,545.04Z" style="fill:rgb(106,154,191);fill-rule:nonzero;"/>
    </g>
    <g transform="matrix(0.0989575,0,0,0.101442,52.5213,42.3859)">
        <path d="M441.69,545.23C442.97,544.52 444.08,544.74 445.01,545.88C443.72,546.46 442.61,546.25 441.69,545.23Z" style="fill:rgb(94,153,175);fill-rule:nonzero;"/>
    </g>
    <g transform="matrix(0.0989575,0,0,0.101442,52.5213,42.3859)">
        <path d="M1341.91,567.93C1342.78,566.79 1343.88,566.55 1345.2,567.19C1344.3,568.26 1343.2,568.51 1341.91,567.93Z" style="fill:rgb(99,167,204);fill-rule:nonzero;"/>
    </g>
    <g transform="matrix(0.0989575,0,0,0.101442,52.5213,42.3859)">
        <path d="M582.77,568.31C584.54,567.41 586.63,567.63 588.16,568.93C586.35,569.3 584.33,569.47 582.77,568.31Z" style="fill:rgb(75,134,164);fill-rule:nonzero;"/>
    </g>
    <g transform="matrix(0.0989575,0,0,0.101442,52.5213,42.3859)">
        <path d="M1332.83,568.9C1334.01,567.75 1335.74,567.45 1337.25,568.21C1336.07,569.43 1334.3,569.36 1332.83,568.9Z" style="fill:rgb(89,138,171);fill-rule:nonzero;"/>
    </g>
    <g transform="matrix(0.0989575,0,0,0.101442,52.5213,42.3859)">
        <path d="M588.82,569.17C591.24,568.42 593.93,568.39 596.08,569.93C593.64,570.18 591.02,570.5 588.82,569.17Z" style="fill:rgb(85,134,163);fill-opacity:0.92;fill-rule:nonzero;"/>
    </g>
    <g transform="matrix(0.0989575,0,0,0.101442,52.5213,42.3859)">
        <path d="M1323.94,569.88C1326.11,568.48 1328.73,568.33 1331.16,569.19C1328.95,570.5 1326.35,570.23 1323.94,569.88Z" style="fill:rgb(86,131,164);fill-opacity:0.92;fill-rule:nonzero;"/>
    </g>
    <g transform="matrix(0.0989575,0,0,0.101442,52.5213,42.3859)">
        <path d="M596.72,570.24C598.79,569.15 601.15,569.75 603.1,570.84C600.97,571.14 598.6,571.55 596.72,570.24Z" style="fill:rgb(88,142,171);fill-opacity:0.92;fill-rule:nonzero;"/>
    </g>
    <g transform="matrix(0.0989575,0,0,0.101442,52.5213,42.3859)">
        <path d="M1317.88,570.87C1319.42,569.65 1321.45,569.41 1323.3,570.11C1321.77,571.44 1319.69,571.32 1317.88,570.87Z" style="fill:rgb(95,146,170);fill-opacity:0.91;fill-rule:nonzero;"/>
    </g>
    <g transform="matrix(0.0989575,0,0,0.101442,52.5213,42.3859)">
        <path d="M604.68,571.25C606.48,570.44 608.54,570.61 610.14,571.8C608.32,572.28 606.26,572.46 604.68,571.25Z" style="fill:rgb(100,141,164);fill-opacity:0.9;fill-rule:nonzero;"/>
    </g>
    <g transform="matrix(0.0989575,0,0,0.101442,52.5213,42.3859)">
        <path d="M1309.85,571.8C1311.41,570.59 1313.45,570.43 1315.25,571.25C1313.68,572.47 1311.63,572.29 1309.85,571.8Z" style="fill:rgb(98,140,163);fill-opacity:0.9;fill-rule:nonzero;"/>
    </g>
    <g transform="matrix(0.0989575,0,0,0.101442,52.5213,42.3859)">
        <path d="M612.84,572.01C614.61,571.36 616.57,571.6 618.1,572.76C616.32,573.37 614.26,573.39 612.84,572.01Z" style="fill:rgb(72,122,147);fill-opacity:0.78;fill-rule:nonzero;"/>
    </g>
    <g transform="matrix(0.0989575,0,0,0.101442,52.5213,42.3859)">
        <path d="M1301.91,572.76C1303.41,571.6 1305.36,571.36 1307.16,572.01C1305.72,573.39 1303.66,573.38 1301.91,572.76Z" style="fill:rgb(73,119,150);fill-opacity:0.78;fill-rule:nonzero;"/>
    </g>
    <g transform="matrix(0.0989575,0,0,0.101442,52.5213,42.3859)">
        <path d="M731.42,583.59C734.43,582.93 737.49,583.11 740.38,584.21C737.37,584.42 734.32,584.5 731.42,583.59Z" style="fill:rgb(62,130,167);fill-rule:nonzero;"/>
    </g>
    <g transform="matrix(0.0989575,0,0,0.101442,52.5213,42.3859)">
        <path d="M1179.63,584.21C1182.75,582.93 1186.1,582.83 1189.4,583.44C1186.25,584.57 1182.9,584.46 1179.63,584.21Z" style="fill:rgb(61,125,163);fill-opacity:0.96;fill-rule:nonzero;"/>
    </g>
    <g transform="matrix(0.0989575,0,0,0.101442,52.5213,42.3859)">
        <path d="M744.53,584.52C747.51,583.94 750.53,584.1 753.39,585.18C750.41,585.38 747.4,585.44 744.53,584.52Z" style="fill:rgb(70,131,169);fill-rule:nonzero;"/>
    </g>
    <g transform="matrix(0.0989575,0,0,0.101442,52.5213,42.3859)">
        <path d="M1167.01,585.17C1169.12,583.71 1171.72,583.6 1174.09,584.52C1171.91,585.78 1169.38,585.53 1167.01,585.17Z" style="fill:rgb(68,129,169);fill-rule:nonzero;"/>
    </g>
    <g transform="matrix(0.0989575,0,0,0.101442,52.5213,42.3859)">
        <path d="M758.59,585.43C761.53,584.96 764.51,585.16 767.33,586.16C764.39,586.35 761.41,586.34 758.59,585.43Z" style="fill:rgb(63,128,174);fill-opacity:0.97;fill-rule:nonzero;"/>
    </g>
    <g transform="matrix(0.0989575,0,0,0.101442,52.5213,42.3859)">
        <path d="M1154.03,586.15C1156.09,584.65 1158.67,584.54 1161.03,585.44C1158.88,586.7 1156.37,586.52 1154.03,586.15Z" style="fill:rgb(65,129,174);fill-opacity:0.96;fill-rule:nonzero;"/>
    </g>
    <g transform="matrix(0.0989575,0,0,0.101442,52.5213,42.3859)">
        <path d="M775.85,586.46C777.89,585.51 780.22,585.72 782.03,587.11C779.94,587.49 777.7,587.65 775.85,586.46Z" style="fill:rgb(71,132,168);fill-rule:nonzero;"/>
    </g>
    <g transform="matrix(0.0989575,0,0,0.101442,52.5213,42.3859)">
        <path d="M1138.01,587.1C1140.12,585.63 1142.75,585.52 1145.11,586.5C1142.91,587.69 1140.37,587.44 1138.01,587.1Z" style="fill:rgb(77,131,169);fill-rule:nonzero;"/>
    </g>
    <g transform="matrix(0.0989575,0,0,0.101442,52.5213,42.3859)">
        <path d="M789.54,587.43C794.45,586.59 799.45,586.92 804.29,588.03C799.37,588.1 794.34,588.8 789.54,587.43Z" style="fill:rgb(66,130,168);fill-rule:nonzero;"/>
    </g>
    <g transform="matrix(0.0989575,0,0,0.101442,52.5213,42.3859)">
        <path d="M1114.78,587.98C1119.59,586.88 1124.55,586.7 1129.44,587.44C1124.66,588.79 1119.65,588.12 1114.78,587.98Z" style="fill:rgb(62,126,166);fill-rule:nonzero;"/>
    </g>
    <g transform="matrix(0.0989575,0,0,0.101442,52.5213,42.3859)">
        <path d="M807.59,588.38C813.15,587.53 818.8,587.9 824.3,589C818.73,589.04 813.05,589.82 807.59,588.38Z" style="fill:rgb(75,135,168);fill-rule:nonzero;"/>
    </g>
    <g transform="matrix(0.0989575,0,0,0.101442,52.5213,42.3859)">
        <path d="M1095.7,589.01C1101.19,587.91 1106.82,587.51 1112.38,588.37C1106.93,589.84 1101.25,589.02 1095.7,589.01Z" style="fill:rgb(74,135,169);fill-rule:nonzero;"/>
    </g>
    <g transform="matrix(0.0989575,0,0,0.101442,52.5213,42.3859)">
        <path d="M828.61,589.35C835.5,588.53 842.47,588.87 849.31,589.91C842.42,589.94 835.39,590.9 828.61,589.35Z" style="fill:rgb(85,138,173);fill-opacity:0.98;fill-rule:nonzero;"/>
    </g>
    <g transform="matrix(0.0989575,0,0,0.101442,52.5213,42.3859)">
        <path d="M1070.69,589.91C1077.53,588.84 1084.5,588.54 1091.39,589.36C1084.6,590.9 1077.57,589.94 1070.69,589.91Z" style="fill:rgb(81,137,172);fill-opacity:0.98;fill-rule:nonzero;"/>
    </g>
    <g transform="matrix(0.0989575,0,0,0.101442,52.5213,42.3859)">
        <path d="M854.6,590.34C862.14,589.6 869.77,589.82 877.26,590.94C869.72,590.73 862.04,591.92 854.6,590.34Z" style="fill:rgb(86,146,182);fill-rule:nonzero;"/>
    </g>
    <g transform="matrix(0.0989575,0,0,0.101442,52.5213,42.3859)">
        <path d="M1043.73,590.95C1051.22,589.8 1058.85,589.61 1066.39,590.34C1058.95,591.93 1051.27,590.73 1043.73,590.95Z" style="fill:rgb(90,149,186);fill-rule:nonzero;"/>
    </g>
</svg>
