<?xml version="1.0" encoding="UTF-8" standalone="no"?>
<!DOCTYPE svg PUBLIC "-//W3C//DTD SVG 1.1//EN" "http://www.w3.org/Graphics/SVG/1.1/DTD/svg11.dtd">
<svg width="100%" height="100%" viewBox="0 0 300 150" version="1.1" xmlns="http://www.w3.org/2000/svg" xmlns:xlink="http://www.w3.org/1999/xlink" xml:space="preserve" xmlns:serif="http://www.serif.com/" style="fill-rule:evenodd;clip-rule:evenodd;stroke-linejoin:round;stroke-miterlimit:2;">
    <g transform="matrix(0.0893344,0,0,0.0893344,36.2881,-38.5363)">
        <path d="M375.462,1024.48C492.293,1024.48 591.862,1089.31 627.036,1178.81L342.337,1178.81L221.679,1433.51C154.353,1392.55 110.308,1325.52 110.308,1250C110.295,1125.79 229.409,1024.48 375.462,1024.48Z" style="fill:rgb(51,52,142);"/>
    </g>
    <g transform="matrix(0.0893344,0,0,0.0893344,36.2881,-38.5363)">
        <path d="M638.255,1219.96C639.811,1229.79 640.629,1239.82 640.629,1249.99C640.629,1374.2 521.514,1475.51 375.462,1475.51C355.41,1475.51 335.878,1473.59 317.085,1469.95L385.993,1312.54C400.545,1279.33 380.338,1246.93 344.905,1219.95L638.255,1219.95L638.255,1219.96Z" style="fill:rgb(204,34,41);"/>
    </g>
    <g transform="matrix(0.0893344,0,0,0.0893344,36.2881,-38.5363)">
        <path d="M1212.87,1107.44L950.23,1107.44C881.062,1107.44 794.009,1177.47 778.082,1244.01L767.084,1289.97C744.153,1385.73 804.022,1447.53 864.616,1447.53L1070.78,1447.53C1103.61,1447.53 1139.28,1407.48 1147.16,1375.31L1180.02,1241.36L998.75,1242.68L973.251,1289.97L1055.97,1289.97C1069.6,1289.97 1062.77,1317.64 1058.31,1330.68L1043.47,1374C1038.61,1388.25 1025.57,1405.55 1010.72,1405.55L912.228,1405.55C870.829,1405.55 863.994,1329.03 874.811,1288.66L887.132,1242.7C899.894,1195.05 956.118,1150.78 1005,1150.78L1201.97,1150.78L1212.87,1107.44ZM2389.7,1107.44L2186.09,1107.44C2116.94,1107.44 2029.87,1177.47 2013.94,1244.01L2002.95,1289.97C1980.02,1385.73 2039.88,1447.53 2100.48,1447.53L2306.65,1447.53L2317.74,1405.83L2147.16,1405.83L2147.16,1405.48C2106.98,1404.34 2100.06,1330.11 2110.38,1289.79L2344.13,1289.79L2354.44,1248.78L2121.34,1248.78L2122.98,1242.68C2135.74,1195.03 2191.95,1150.77 2240.85,1150.77L2378.81,1150.77C2382.43,1136.33 2386.09,1121.88 2389.7,1107.44ZM2011.64,1107.44L1808.02,1107.44C1738.84,1107.44 1651.78,1177.47 1635.88,1244.01L1624.85,1289.97C1601.92,1385.73 1661.82,1447.53 1722.4,1447.53L1928.57,1447.53L1939.64,1405.83L1769.06,1405.83L1769.06,1405.48C1728.91,1404.34 1722,1330.11 1732.28,1289.79L1966.04,1289.79L1976.35,1248.78L1743.27,1248.78L1744.89,1242.68C1757.65,1195.03 1813.89,1150.77 1862.76,1150.77L2000.72,1150.77C2004.36,1136.33 2007.98,1121.88 2011.64,1107.44ZM1266.04,1107.44L1182.01,1446.23L1291,1447.56L1361.9,1149.47L1497.18,1149.47C1515.39,1149.47 1525.35,1180.14 1522.13,1198.06C1518.46,1218.47 1496.9,1249.92 1464.35,1249.92L1364.87,1249.92L1472.22,1446.25L1594.35,1446.25L1507.68,1291.3C1564.13,1283.14 1621.43,1240.45 1624.57,1180.96C1626.06,1152.22 1596.5,1107.46 1546.75,1107.46L1266.04,1107.46L1266.04,1107.44Z" style="fill:rgb(51,52,142);"/>
    </g>
</svg>
