<?xml version="1.0" encoding="UTF-8" standalone="no"?>
<!DOCTYPE svg PUBLIC "-//W3C//DTD SVG 1.1//EN" "http://www.w3.org/Graphics/SVG/1.1/DTD/svg11.dtd">
<svg width="100%" height="100%" viewBox="0 0 300 150" version="1.1" xmlns="http://www.w3.org/2000/svg" xmlns:xlink="http://www.w3.org/1999/xlink" xml:space="preserve" xmlns:serif="http://www.serif.com/" style="fill-rule:evenodd;clip-rule:evenodd;stroke-linejoin:round;stroke-miterlimit:2;">
    <g transform="matrix(1.05781,0,0,1.05781,44.8749,-0.508419)">
        <path d="M3.99,50C9.36,50.02 14.72,49.96 20.09,50.03C20.82,50.75 21.54,51.48 22.25,52.22C24.43,50.25 28.05,50.13 30.53,51.4C31.45,54.09 30.55,57.16 30.93,59.99C33,62.5 35.98,64.24 37.66,67.08C37.11,68.11 36.41,69.02 35.56,69.83C35.85,75.15 35.23,80.57 35.88,85.84C88.91,85.88 141.95,85.82 194.99,85.87C194.99,86.74 195,88.49 195,89.36C141.29,89.53 87.57,89.34 33.86,89.46C33.49,89.26 32.74,88.86 32.37,88.67C31.93,81.16 32.57,73.58 32.07,66.1C30.66,64.67 29.09,63.39 27.75,61.88C26.92,59.51 27.98,56.93 27.52,54.48C27.26,54.42 26.74,54.31 26.48,54.26C25.62,55.7 26.84,58.1 24.87,58.85C22.64,57.54 20.89,55.62 18.94,53.98C14.17,53.6 9.34,54.01 4.55,53.8C4.16,53.54 3.39,53 3.01,52.73C3,52.31 3,51.45 3,51.03L3.83,50.84L3.99,50Z" style="fill:rgb(12,117,61);fill-rule:nonzero;"/>
    </g>
    <g transform="matrix(1.05781,0,0,1.05781,44.8749,-0.508419)">
        <path d="M46.52,50.01C54.33,49.99 62.15,50 69.96,50C71.85,51.45 71.4,54.57 68.9,54.9C62.25,54.9 55.59,54.89 48.93,54.9C47.63,54.66 46.2,55.49 46.28,56.93C46.21,62.64 46.22,68.35 46.27,74.06C46.2,76.01 48.49,76.37 49.98,76.21C54.94,76.01 59.99,76.56 64.91,75.93C67.27,74.06 65.64,70.4 66.04,67.78C60.66,67.7 55.21,67.48 49.85,67.9L49.67,67.92C47.5,66.94 47.06,63.07 49.97,62.96C56.65,62.93 63.33,62.87 70,63.01L70.08,63.02C71.66,66.1 70.56,69.72 70.88,73.05C71.42,76.94 68.08,81.06 64.08,80.96C58.41,80.93 52.74,81.05 47.08,80.89C43.99,80.19 41.2,77.18 41.35,73.91C41.38,68.05 41.35,62.19 41.37,56.33C41.56,53.34 44.14,51.38 46.52,50.01Z" style="fill:rgb(12,117,61);fill-rule:nonzero;"/>
    </g>
    <g transform="matrix(1.05781,0,0,1.05781,44.8749,-0.508419)">
        <path d="M78.38,50.01C84.53,50 90.68,49.99 96.83,50.01C99.73,51.08 102.63,53.57 102.05,56.98C101.67,61.46 103.62,67.36 98.89,70.13C99.44,73.2 101.66,75.88 102.54,78.93C102.28,80.55 101.01,81.3 99.46,80.98C96.47,78.85 96.62,74.52 93.96,72.16C88.9,70.55 83.36,70.78 78.15,71.27C77.52,74.05 78.27,76.95 77.79,79.74C76.71,81.88 73.45,81.12 73.26,78.8C73.2,71.54 73.24,64.28 73.25,57.02C73.15,53.76 75.76,51.46 78.38,50.01M78.19,66.13C84.09,66.38 90.05,66.25 95.97,66.19C98.41,65.23 97.21,62.01 97.5,60.02C97.57,58.11 97.94,54.6 95.02,54.8C89.69,55.01 84.23,54.35 78.99,55.15C76.88,58.2 78.13,62.6 78.19,66.13Z" style="fill:rgb(12,117,61);fill-rule:nonzero;"/>
    </g>
    <g transform="matrix(1.05781,0,0,1.05781,44.8749,-0.508419)">
        <path d="M110.5,50.01C117.26,49.99 124.02,50 130.78,50C132.35,51.33 132.49,53.61 130.56,54.67C124.37,55.03 118.13,54.6 111.93,54.88C108.87,55.99 110.17,60.26 110.23,62.75C116.77,63.2 123.36,62.76 129.92,62.95C132.45,63.71 131.99,67.35 129.4,67.66C122.97,67.81 116.51,67.45 110.1,67.83C110.41,70.56 108.71,74.88 111.97,76.29C118.14,76.5 124.32,76.24 130.48,76.39C132.52,77.16 132.59,80.08 130.57,80.91C124.1,81.01 117.61,80.99 111.14,80.91C108.07,80.51 106.32,77.59 105.07,75.1L105.09,75.03C105.9,69.13 105.09,62.87 105.49,56.84L105.08,55.97L105.07,55.94C106.2,53.43 107.9,51.2 110.5,50.01Z" style="fill:rgb(12,117,61);fill-rule:nonzero;"/>
    </g>
    <g transform="matrix(1.05781,0,0,1.05781,44.8749,-0.508419)">
        <path d="M140.21,50.01C146.86,49.99 153.51,50 160.16,50C160.5,50.5 161.18,51.49 161.52,51.98C161.56,53.51 160.43,55.04 158.78,54.79C152.86,54.92 146.92,54.58 141.02,54.95C138.38,56.4 139.99,60.17 139.56,62.61C146.15,63.46 152.95,62.5 159.59,63.07C162.07,64.11 160.97,66.99 159.02,67.93L159.01,67.93C152.62,67.37 146.09,67.79 139.64,67.71C140.03,70.49 138,75.62 141.96,76.35C147.75,76.4 153.54,76.32 159.33,76.37C161.93,76.27 162.21,80.41 159.87,80.91C153.91,81.04 147.94,80.92 141.98,80.96C138.2,81.3 134.65,77.78 134.94,73.99C134.94,67.99 134.82,61.99 135,55.99C135.11,53.02 137.68,51.06 140.21,50.01Z" style="fill:rgb(12,117,61);fill-rule:nonzero;"/>
    </g>
    <g transform="matrix(1.05781,0,0,1.05781,44.8749,-0.508419)">
        <path d="M169.26,50.01C175.7,49.99 182.13,50 188.57,50.01C191,51.23 192.94,53.23 193.96,55.78L193.92,55.95C193.3,63.73 194.08,71.68 193.54,79.49C192.8,81.76 189.35,81.37 189.03,79.07C189.06,72.01 189.05,64.96 189.05,57.9C189.11,56.66 188.52,54.84 187.02,54.79C181.67,54.69 176.31,54.76 170.97,54.75C169.22,54.7 168.38,56.48 168.61,58C168.64,64.01 168.61,70.03 168.63,76.04C168.43,77.34 169.08,78.96 168.13,80.04C167.24,81.92 164.1,80.9 164.02,79.01C164.02,71.33 163.98,63.65 164.05,55.98C164.36,53.1 166.75,51.11 169.26,50.01Z" style="fill:rgb(12,117,61);fill-rule:nonzero;"/>
    </g>
    <g transform="matrix(1.05781,0,0,1.05781,44.8749,-0.508419)">
        <path d="M4.07,57.1C9.33,56.68 14.71,56.72 19.98,57.09C21.07,58.11 22.45,59.26 21.99,60.96C16.76,61.66 11.38,61.05 6.09,61.27C3.69,61.83 2.25,58.64 4.07,57.1Z" style="fill:rgb(12,117,61);fill-rule:nonzero;"/>
    </g>
    <g transform="matrix(1.05781,0,0,1.05781,44.8749,-0.508419)">
        <path d="M4.95,64C12.59,64.07 20.25,63.86 27.87,64.11C29.23,64.96 30.07,66.29 30.63,67.77C30.27,67.96 29.57,68.35 29.21,68.54C21.1,68.45 12.99,68.44 4.88,68.55C2.64,67.92 2.76,64.4 4.95,64Z" style="fill:rgb(12,117,61);fill-rule:nonzero;"/>
    </g>
    <g transform="matrix(1.05781,0,0,1.05781,44.8749,-0.508419)">
        <path d="M4.94,71.08C13.18,71.22 21.45,70.97 29.67,71.2C31.07,72.26 31.09,74.82 29.11,75.21C21.08,75.17 13.04,75.21 5,75.19C2.53,75.17 2.84,71.35 4.94,71.08Z" style="fill:rgb(12,117,61);fill-rule:nonzero;"/>
    </g>
    <g transform="matrix(1.05781,0,0,1.05781,44.8749,-0.508419)">
        <path d="M4.46,78.25C12.82,78.22 21.18,78.22 29.54,78.24C31.24,79.2 30.98,81.71 29.09,82.24C21.09,82.3 13.09,82.28 5.09,82.25C2.94,81.95 2.6,79.22 4.46,78.25Z" style="fill:rgb(12,117,61);fill-rule:nonzero;"/>
    </g>
    <g transform="matrix(1.05781,0,0,1.05781,44.8749,-0.508419)">
        <path d="M4.46,85.37C12.82,85.2 21.22,85.25 29.58,85.34C31.12,86.32 31.12,89.08 29.04,89.37C21.02,89.42 13,89.37 4.97,89.4C4.48,89.03 3.49,88.28 3,87.91L3,86.99C3.37,86.58 4.1,85.77 4.46,85.37Z" style="fill:rgb(12,117,61);fill-rule:nonzero;"/>
    </g>
</svg>
