<?xml version="1.0" encoding="UTF-8" standalone="no"?>
<!DOCTYPE svg PUBLIC "-//W3C//DTD SVG 1.1//EN" "http://www.w3.org/Graphics/SVG/1.1/DTD/svg11.dtd">
<svg width="100%" height="100%" viewBox="0 0 300 150" version="1.1" xmlns="http://www.w3.org/2000/svg" xmlns:xlink="http://www.w3.org/1999/xlink" xml:space="preserve" xmlns:serif="http://www.serif.com/" style="fill-rule:evenodd;clip-rule:evenodd;stroke-linejoin:round;stroke-miterlimit:2;">
    <g id="Слой2" transform="matrix(0.081396,0,0,0.0761208,46.5407,42.1058)">
        <path d="M2170.72,523.107C2171.82,513.085 2172.46,502.963 2172.46,492.714C2172.46,337.548 2043.88,211.835 1885.24,211.835C1726.64,211.835 1598.07,337.548 1598.07,492.714C1598.07,647.83 1726.64,773.495 1885.24,773.495C2005.88,773.495 2109.01,700.899 2151.64,597.756L2027.85,576.066C2000.42,626.251 1948.54,660.056 1889.22,660.056C1810.49,660.056 1745.29,600.84 1732.18,523.104L2170.72,523.104L2170.72,523.107ZM1889.22,328.406C1956.45,328.406 2013.88,371.7 2037.31,432.984L1740.96,432.984C1764.33,371.703 1821.88,328.406 1889.22,328.406ZM1374.2,223.601L1520.88,223.601L1520.88,763.411L1374.2,763.411L1374.2,223.601ZM1447.59,3.498C1402.31,3.498 1365.76,40.252 1365.76,85.34C1365.76,130.359 1402.31,167.015 1447.59,167.015C1492.69,167.015 1529.32,130.359 1529.32,85.34C1529.32,40.252 1492.69,3.498 1447.59,3.498M476.482,50.526L476.482,341.121L160.328,341.121L160.328,50.526L0,50.526L0,762.928L160.328,762.928L160.328,472.321L476.482,472.321L476.482,762.928L636.943,762.928L636.943,50.526L476.482,50.526ZM1138.49,223.85L1138.49,252.814C1095.85,226.984 1045.9,212.147 992.367,212.147C836.876,212.147 710.762,337.781 710.762,492.824C710.762,647.836 836.876,773.502 992.367,773.502C1042.54,773.56 1091.83,760.199 1135.1,734.809L1135.1,762.931L1278.22,762.931L1278.22,223.85L1138.49,223.85ZM999.519,655.162C908.772,655.162 835.413,582.547 835.413,492.888C835.413,403.153 908.768,330.484 999.519,330.484C1090.24,330.484 1163.72,403.153 1163.72,492.888C1163.72,582.547 1090.24,655.162 999.519,655.162ZM2475.74,173.467C2340.67,197.03 2237.98,314.54 2236.4,456.266L2236.4,763.407L2376.84,763.407L2376.91,450.492C2376.91,378.858 2430.69,319.74 2500,311.257L2475.74,173.467Z" style="fill:rgb(0,91,170);fill-rule:nonzero;"/>
    </g>
</svg>
