<?xml version="1.0" encoding="UTF-8" standalone="no"?>
<!DOCTYPE svg PUBLIC "-//W3C//DTD SVG 1.1//EN" "http://www.w3.org/Graphics/SVG/1.1/DTD/svg11.dtd">
<svg width="100%" height="100%" viewBox="0 0 300 150" version="1.1" xmlns="http://www.w3.org/2000/svg" xmlns:xlink="http://www.w3.org/1999/xlink" xml:space="preserve" xmlns:serif="http://www.serif.com/" style="fill-rule:evenodd;clip-rule:evenodd;stroke-linejoin:round;stroke-miterlimit:2;">
    <g id="_-00aaa6ff" serif:id="#00aaa6ff" transform="matrix(0.0782813,0,0,0.0782813,46.5442,48.1258)">
        <path d="M32.41,100.05C64.96,100.17 97.5,99.98 130.05,100.14C138.88,100.33 149.1,102.92 153.93,111C157.52,116.57 158.04,123.51 157.32,129.94C154.05,167.08 151.75,204.29 148.52,241.44C209.13,241.36 269.75,241.37 330.37,241.43C332.35,216.96 334.44,192.49 336.07,167.99C337.77,145.33 339.97,122.7 341.35,100.02C383.64,100.13 425.94,100.1 468.24,100.04C466.46,121.19 464.78,142.35 463.09,163.51C461.32,193.38 458.07,223.16 456.35,253.04C454.29,279.28 451.86,305.5 450.24,331.77C448.46,353.17 446.79,374.59 445.02,396C443.37,423.37 440.68,450.67 438.69,478.02C438.36,486.8 437.46,495.55 436.74,504.3C394.53,504.27 352.32,504.28 310.11,504.3C311.31,484.83 313.01,465.4 314.56,445.97C316.54,423.15 317.83,400.3 319.85,377.49C321.36,360.24 322.6,342.98 323.82,325.72C263.19,325.75 202.56,325.71 141.93,325.74C139.86,356.04 137.36,386.31 134.86,416.58C133.25,445.86 129.88,475.02 128.32,504.3C85.7,504.27 43.08,504.29 0.46,504.29C1.84,496.92 2,489.4 2.69,481.96C5.84,445.63 8.14,409.24 11.3,372.91C13.22,346.56 15.22,320.22 17.44,293.89C18.8,278.78 19.49,263.62 20.85,248.5C24.02,211.68 26.41,174.8 29.56,137.97C30.78,125.35 31.21,112.67 32.41,100.05Z" style="fill:rgb(0,170,166);fill-rule:nonzero;"/>
        <path d="M527.89,100.05C558.25,100.12 588.61,100.07 618.97,100.08C625.56,100.09 632.42,99.77 638.64,102.36C642.15,103.88 645.47,106.23 647.29,109.69C650.83,115.82 650.45,123.21 649.81,130.01C648.68,145.82 647.48,161.63 646.29,177.45C604.9,177.36 563.5,177.42 522.11,177.42C523.95,151.62 525.82,125.83 527.89,100.05Z" style="fill:rgb(0,170,166);fill-rule:nonzero;"/>
        <path d="M2018.04,203.7C2068.17,202.38 2118.4,206.31 2167.84,214.57C2174.02,215.35 2180.11,216.72 2186.22,217.97C2184.01,238.32 2182.49,258.72 2180.22,279.06C2171.53,276.98 2162.73,275.35 2153.89,274.13C2130.43,269.89 2106.7,267.52 2082.96,265.66C2058.64,264.17 2034.1,263.39 2009.87,266.4C2003.05,267.74 1995.45,268.27 1989.93,272.93C1986.11,276.09 1986.49,281.93 1989.36,285.59C1993.96,291.29 2000.74,294.51 2007.08,297.89C2025.57,306.42 2044.73,313.38 2063.35,321.65C2080.04,328.3 2096.4,335.75 2112.7,343.32C2129.57,351.45 2146.4,360.08 2161.06,371.86C2172.35,380.94 2182.33,392.46 2186.66,406.52C2193.45,427.8 2187.22,452.67 2171.23,468.28C2157.6,481.92 2139.33,489.66 2121.08,494.97C2092.77,503.02 2063.23,505.26 2033.94,506.22C2006.94,506.91 1979.96,505.53 1953,504.29C1919.05,502.95 1885.16,499.94 1851.45,495.78C1852.71,473.85 1854.46,451.95 1855.64,430.01C1881.59,434.74 1907.76,438.13 1933.99,440.96C1952.89,443.13 1971.89,444.09 1990.89,444.75C2006,445.19 2021.2,445.21 2036.21,443.11C2041.46,442.03 2046.96,440.6 2051.11,437.01C2054.34,434.26 2054.84,429.02 2052.42,425.6C2048.87,420.23 2042.72,417.64 2037.25,414.71C1997.59,397.37 1956.3,383.86 1917.41,364.76C1900.03,355.7 1882.87,344.94 1870.67,329.3C1857.77,313.22 1853.35,290.7 1859.81,271.05C1864.54,254.77 1876.8,241.74 1890.86,232.81C1910.54,220.26 1933.39,213.93 1956.1,209.51C1976.59,206.2 1997.29,204.19 2018.04,203.7Z" style="fill:rgb(0,170,166);fill-rule:nonzero;"/>
        <path d="M822.55,204.88C870.57,201.61 918.83,204.21 966.53,210.16C982.43,212.51 998.39,214.66 1014.12,217.99C1011.84,238.32 1010.21,258.71 1008.16,279.06C990.6,275.06 972.73,272.7 954.94,270.02C925.41,266.54 895.7,263.84 865.94,264.5C851.73,264.88 837.27,265.35 823.59,269.56C819.61,271.15 814.79,274.01 815.06,278.95C814.63,284.65 819.57,288.37 823.59,291.46C834.54,298.61 846.87,303.18 858.89,308.19C876.58,315.3 894.06,322.92 911.7,330.17C935.77,341.2 960.45,351.49 982.22,366.78C994.75,375.77 1006.52,386.9 1012.59,401.36C1017.62,412.19 1017.71,424.57 1016.08,436.19C1013.21,452.82 1002.7,467.4 988.95,476.89C967.2,492.01 940.75,498.07 914.98,502.13C871.59,508.14 827.62,506.68 784,504.47C749.03,503.13 714.11,500.13 679.38,495.81C680.92,473.89 681.82,451.93 683.49,430.01C689.22,431.47 695.14,431.83 700.93,432.94C721.78,436.56 742.82,438.82 763.83,441.19C782.83,443.31 801.92,444.23 821.01,444.82C835.17,445.35 849.4,445.06 863.48,443.24C868.95,442.23 874.62,440.71 878.97,437.06C882.48,434.16 882.79,428.43 879.9,425C876.07,419.96 870.1,417.34 864.63,414.53C844.37,405.6 823.57,397.99 803.08,389.63C782.89,381.64 762.66,373.63 743.29,363.77C725.46,354.25 707.81,342.82 696.06,325.98C680.82,304.68 681.13,273.81 696.79,252.84C706.74,239.37 721.26,230.12 736.39,223.45C763.58,211.67 793.22,207.25 822.55,204.88Z" style="fill:rgb(0,170,166);fill-rule:nonzero;"/>
        <path d="M1227.08,205.35C1251.08,203.41 1275.34,204.68 1298.98,209.27C1333.92,217.21 1368.41,233.29 1391.84,261.17C1406.46,278.61 1415.84,300.33 1418.76,322.89C1421.86,342.15 1420.22,361.76 1417.25,380.93C1332.96,380.68 1248.66,380.92 1164.37,380.81C1164.67,392.86 1169.54,404.53 1177.27,413.7C1190.15,429.18 1209.35,437.58 1228.46,442.45C1246.32,446.43 1264.65,448.24 1282.95,447.81C1307.39,447.52 1331.75,445.17 1355.99,442.2C1372.99,439.55 1390.09,437.27 1406.82,433.18C1405.02,446 1402.9,458.77 1400.77,471.54C1399.42,479 1398.82,486.57 1397.27,493.99C1373.05,500.93 1348.05,504.62 1323.03,507.22C1299.1,509.81 1275.02,510.12 1250.98,509.87C1228.8,509.94 1206.65,507.91 1184.8,504.19C1174.17,502.86 1163.87,499.83 1153.5,497.29C1132.19,490.97 1111.3,482.08 1093.68,468.31C1075.76,454.66 1061.99,435.68 1054.77,414.32C1045.39,385.23 1045.43,353.16 1054.92,324.1C1063.56,298.47 1079.11,275.36 1099.01,257.09C1116.25,241.19 1136.69,228.87 1158.55,220.43C1180.42,211.8 1203.7,207.21 1227.08,205.35M1202.73,274.76C1184.68,285.54 1173.04,304.88 1169.16,325.28C1218.95,325.25 1268.74,325.24 1318.52,325.29C1318.83,308.29 1312.91,290.54 1299.99,279.03C1290.34,270.21 1277.57,265.69 1264.84,263.65C1243.71,260.89 1221.14,263.4 1202.73,274.76Z" style="fill:rgb(0,170,166);fill-rule:nonzero;"/>
        <path d="M2320.26,224.23C2348.4,211.54 2379.27,205.82 2410.01,204.64C2430.01,203.93 2450.1,205.46 2469.76,209.26C2495.94,215.27 2521.54,225.55 2542.85,242.17C2559.55,255.11 2573.22,272.21 2581.18,291.85C2586.8,304.89 2589.41,319.01 2591.07,333.05C2592.62,349.03 2590.7,365.06 2588.01,380.82C2503.78,380.82 2419.56,380.85 2335.33,380.81C2335.21,396.59 2343.95,411.25 2355.6,421.38C2369.62,433.48 2387.52,440.16 2405.48,443.73C2435.32,449.82 2466,448.05 2496.13,445.51C2509.62,444.13 2523.15,443.01 2536.54,440.76C2550.31,438.42 2564.19,436.62 2577.75,433.14C2574.31,453.38 2571.48,473.71 2568.05,493.96C2543.29,501.13 2517.67,504.78 2492.07,507.39C2476.75,508.83 2461.37,509.86 2445.98,509.85C2430.03,509.89 2414.07,510.17 2398.15,509.18C2373.8,507.46 2349.46,504.24 2325.91,497.7C2300,490.38 2274.6,478.85 2254.9,460.11C2241.66,447.53 2231.38,431.75 2225.7,414.39C2219.57,397.01 2218.09,378.29 2219.05,359.98C2220.36,328.62 2233.7,298.56 2253.43,274.45C2271.27,252.67 2294.54,235.56 2320.26,224.23M2365.52,280.51C2351.91,291.66 2343.16,308.06 2340.13,325.28C2389.83,325.24 2439.53,325.26 2489.23,325.27C2489.21,315.46 2487.89,305.43 2483.49,296.56C2477.49,282.63 2464.96,272.04 2450.63,267.41C2437.33,262.48 2422.9,262.11 2408.91,263.14C2393.28,264.89 2377.68,270.3 2365.52,280.51Z" style="fill:rgb(0,170,166);fill-rule:nonzero;"/>
        <path d="M1620.99,207.28C1645.63,205.92 1670.34,205.87 1694.99,206.89C1718.99,208.2 1743.47,209.62 1766.32,217.69C1784.16,223.88 1800.25,236.65 1807.81,254.26C1817.16,274.4 1816.81,297.32 1814.96,318.98C1813.12,345.31 1811.93,371.67 1809.99,398C1807.52,433.28 1805.75,468.6 1803.25,503.88C1764.59,503.78 1725.93,503.72 1687.27,503.9C1688.48,481.23 1690.53,458.61 1691.48,435.92C1693.42,406.95 1695.36,377.97 1697.27,349C1697.64,334.98 1699.13,321.03 1699.68,307.02C1699.65,298.13 1698.37,288.53 1692.66,281.36C1686.93,273.61 1677.13,270.14 1667.87,269.16C1640.32,267.56 1612.69,269.45 1585.39,273.22C1583.87,295.75 1582.25,318.27 1581.27,340.83C1579.48,367.94 1577.79,395.06 1576.05,422.17C1574.83,449.41 1572.65,476.6 1571.11,503.83C1532.26,503.84 1493.42,503.69 1454.57,503.9C1456.31,476.93 1458.16,449.96 1459.94,422.98C1461.05,398.95 1462.99,374.96 1464.5,350.95C1466.17,326.77 1467.26,302.56 1469.1,278.38C1470.29,258.84 1471.91,239.33 1472.71,219.77C1498.25,216.62 1523.87,214.4 1549.5,212.12C1573.28,209.84 1597.13,208.41 1620.99,207.28Z" style="fill:rgb(0,170,166);fill-rule:nonzero;"/>
        <path d="M518.85,210.19C560.35,210.23 601.85,210.3 643.35,210.16C641.83,229.45 640,248.73 638.91,268.05C634.89,316.02 631.63,364.04 627.57,412.01C625.74,442.82 622.52,473.52 620.62,504.33C579.19,504.25 537.76,504.27 496.33,504.31C498.54,478.89 499.97,453.42 502.2,428C503.37,411.63 505.06,395.29 505.85,378.89C507.94,351.92 510.42,324.98 512.1,297.98C514.43,268.72 516.87,239.47 518.85,210.19Z" style="fill:rgb(0,170,166);fill-rule:nonzero;"/>
    </g>
</svg>
