<?xml version="1.0" encoding="UTF-8" standalone="no"?>
<!DOCTYPE svg PUBLIC "-//W3C//DTD SVG 1.1//EN" "http://www.w3.org/Graphics/SVG/1.1/DTD/svg11.dtd">
<svg width="100%" height="100%" viewBox="0 0 300 150" version="1.1" xmlns="http://www.w3.org/2000/svg" xmlns:xlink="http://www.w3.org/1999/xlink" xml:space="preserve" xmlns:serif="http://www.serif.com/" style="fill-rule:evenodd;clip-rule:evenodd;stroke-linejoin:round;stroke-miterlimit:2;">
    <g transform="matrix(0.0773292,0,0,0.0773292,51.4129,44.5209)">
        <path d="M1927.36,9.088L1927.36,144.342L2108.8,144.342C2108.8,144.342 2107.7,9.088 2108.8,9.088L2197.87,9.088L2197.87,347.225L2108.8,347.225L2108.8,198.444L1927.36,198.444L1927.36,347.222L1838.29,347.222L1838.29,9.091L1927.36,9.091M1077.52,9.088L1077.52,66.569L940.011,66.569L940.011,347.222L849.841,347.222L849.841,66.569L713.461,66.569L713.461,9.088L1077.52,9.088M1425.8,347.225L1325.48,347.225L1296.18,273.961L1128.24,273.961L1098.93,347.222L999.748,347.222L1157.55,9.088L1266.87,9.088L1425.8,347.222L1425.8,347.225ZM1212.77,66.569L1149.65,219.858L1274.78,219.858L1212.77,66.569M2268.94,347.225L2268.94,9.085L2359.11,9.085L2359.11,347.225L2268.94,347.225M250.219,9.088L250.219,144.342L430.56,144.342L430.56,9.088L520.727,9.088L520.727,347.225L430.56,347.225L430.56,198.444L250.219,198.444L250.219,347.222L160.049,347.222C160.049,347.222 161.179,9.088 160.049,9.088L250.219,9.088M591.735,347.225L591.735,9.085L680.779,9.085L680.779,347.225L591.735,347.225M1422.42,253.676C1414.53,230.004 1410.02,206.337 1410.02,181.538C1410.02,145.471 1416.78,111.659 1433.69,82.352C1450.6,53.052 1477.66,30.508 1510.35,18.107C1540.77,6.839 1574.52,0.075 1609.58,0.075C1650.13,0.075 1688.48,9.091 1722.29,23.745C1754.86,38.398 1779.75,67.702 1786.48,102.643C1787.57,109.404 1788.67,116.164 1789.92,124.057L1696.31,124.057C1695.21,115.041 1694.12,106.022 1690.67,98.135C1683.94,78.974 1668.13,64.32 1649.03,58.683C1636.51,55.301 1623.05,53.048 1609.58,53.048C1593.77,53.048 1579.06,55.301 1565.59,60.938C1541.89,68.825 1523.86,86.86 1515.97,110.53C1508.08,131.947 1503.57,156.739 1503.57,181.538C1503.57,201.826 1506.95,222.114 1512.59,240.149C1519.35,264.945 1537.38,285.233 1561.05,294.252C1576.86,299.886 1592.68,303.268 1609.58,303.268C1624.14,303.268 1637.76,301.015 1651.22,296.504C1668.13,290.87 1682.84,278.469 1690.67,261.563C1695.21,250.295 1697.4,237.893 1697.4,225.496L1792.12,225.496C1791.02,235.641 1789.92,246.913 1787.57,257.055C1779.75,290.873 1756.11,319.044 1724.49,331.445C1689.58,347.225 1650.13,355.115 1609.59,355.115C1577.96,355.115 1547.53,350.607 1518.23,341.594C1475.39,328.06 1437.07,296.501 1422.42,253.673M80.031,441.916L0,448.664L0,461.045L3.388,461.045C34.938,464.443 34.938,464.443 34.938,488.113L34.938,654.926L83.406,654.926L83.406,441.916L80.031,441.916M249.09,505.016C219.786,505.016 201.751,525.319 193.864,537.704L193.864,503.893L190.482,505.022L126.238,515.164L126.238,526.42L128.49,526.42C148.778,527.549 153.289,530.944 153.289,550.122L153.289,654.932L193.864,654.932L193.864,578.273C193.864,558.008 213.026,530.941 233.314,530.941C252.475,530.941 253.601,547.85 253.601,573.775L253.601,654.919L294.177,654.919L294.177,550.112C294.177,520.798 278.397,505.012 249.09,505.012M406.89,563.626C391.107,555.736 377.583,548.989 377.583,537.704C377.583,525.319 392.237,524.184 399,524.184C415.906,524.184 430.56,533.212 437.323,536.562L442.958,541.102L442.958,510.637L438.45,509.54C430.563,508.41 417.036,505.016 401.256,505.016C364.062,505.016 340.393,520.798 340.393,548.989C340.393,572.646 364.062,585.034 385.479,595.179C401.259,603.066 417.039,609.823 417.039,622.237C417.039,633.522 406.893,639.146 389.987,639.146C370.826,639.146 355.046,630.127 346.03,624.499L341.522,621.104L341.522,652.664L343.775,652.664C352.794,654.923 367.444,658.314 388.861,658.314C429.437,658.314 454.236,641.408 454.236,613.215C454.226,586.166 429.43,573.781 406.89,563.63M584.972,505.016C570.318,505.016 555.668,511.779 542.144,525.319L542.144,503.893L538.762,505.016L474.517,515.161L474.517,526.417L477.899,526.417C497.06,527.546 501.568,530.941 501.568,550.118L501.568,716.928L542.144,716.928L542.144,641.411C548.907,650.431 561.305,658.321 583.845,658.321C625.55,658.321 648.09,631.26 648.09,579.406C648.09,532.067 625.547,505.016 584.972,505.016ZM573.7,527.549C600.751,527.549 604.133,556.869 604.133,579.406C604.133,617.716 593.988,636.891 573.7,636.891C547.778,636.891 542.144,612.095 542.144,591.823L542.144,578.28C542.144,563.63 545.522,527.549 573.7,527.549M676.268,515.161L676.268,526.417L678.52,526.417C698.808,527.546 703.319,530.941 703.319,550.118L703.319,654.929L742.768,654.929L742.768,503.893L740.516,505.022L676.268,515.161M723.607,486.983C737.131,486.983 748.406,476.825 748.406,464.44C748.406,453.156 737.134,443.046 723.607,443.046C710.08,443.046 698.808,453.156 698.808,464.44C698.808,476.825 710.083,486.983 723.607,486.983M912.963,537.704L912.963,507.274L909.581,506.145C903.944,505.016 897.18,505.016 890.42,505.016C867.88,505.016 855.482,521.918 849.844,534.332L849.844,503.886L846.466,505.016L782.221,515.158L782.221,526.413L784.473,526.413C804.761,527.543 809.269,530.937 809.269,550.115L809.269,654.926L849.844,654.926L849.844,579.403C849.844,567.018 854.352,537.701 891.549,537.701C896.057,537.701 901.695,538.831 906.203,539.954L912.966,542.222L912.966,537.704M1071.89,565.888C1071.89,525.319 1049.35,505.016 1005.39,505.016C954.665,505.016 929.872,528.685 929.872,577.141C929.872,627.868 962.558,658.317 1017.79,658.317C1034.26,658.293 1050.62,655.63 1066.26,650.431L1068.51,649.301L1068.51,630.133L1065.13,631.263C1058.36,633.525 1047.09,636.887 1033.57,636.887C990.739,636.887 973.83,600.842 973.83,568.125L1071.89,568.125L1071.89,565.892L1071.89,565.888ZM1004.26,520.802C1025.68,520.802 1031.31,536.565 1031.31,551.219L973.83,551.219C974.956,539.957 980.59,520.798 1004.26,520.798M1440.47,505.016C1410.02,505.016 1393.11,523.054 1385.22,536.559L1385.22,436.246L1381.84,436.246L1317.6,445.262L1317.6,456.55L1319.86,456.55C1340.13,456.55 1344.66,461.042 1344.66,481.346L1344.66,654.923L1385.22,654.923L1385.22,580.532C1385.22,552.338 1405.51,530.941 1422.41,530.941C1444.95,530.941 1444.95,547.85 1444.95,562.494L1444.95,654.923L1485.55,654.923L1485.55,558.008C1485.55,542.229 1485.55,505.022 1440.47,505.022M1667.03,565.888C1667.03,525.319 1644.49,505.016 1600.5,505.016C1549.78,505.016 1524.99,528.685 1524.99,577.141C1524.99,627.868 1557.67,658.317 1611.77,658.317C1636.51,658.317 1654.67,652.664 1661.4,650.431L1663.59,649.301L1663.59,630.133L1660.3,631.263C1653.41,633.525 1642.3,636.887 1628.68,636.887C1585.79,636.887 1568.88,600.842 1568.88,568.125L1667.04,568.125L1667.04,565.892L1667.03,565.888ZM1598.31,520.802C1620.85,520.802 1626.49,536.565 1626.49,551.219L1568.88,551.219C1568.88,539.957 1575.77,520.798 1598.31,520.798M1213.9,462.191L1213.9,508.417L1186.87,508.417L1186.87,526.417L1213.9,526.417L1213.9,616.613C1213.9,656.055 1238.7,658.317 1269.13,658.317C1277.02,658.317 1284.91,657.188 1292.8,656.059L1295.07,656.059L1295.07,638.02L1291.67,638.02C1288.29,639.149 1283.78,639.149 1279.27,639.149C1255.6,639.149 1254.47,632.392 1254.47,612.095L1254.47,526.42L1299.57,526.42L1299.57,508.414L1254.47,508.414L1254.47,462.188L1213.9,462.188M2008.46,445.266L1967.91,445.266L1967.91,604.202C1960.08,591.82 1863.18,445.266 1863.18,445.266L1769.57,445.266L1769.57,456.554L1777.4,458.822C1802.29,462.188 1803.38,463.317 1803.38,486.987L1803.38,654.926L1847.37,654.926L1847.37,488.113C1855.2,500.53 1957.89,654.926 1957.89,654.926L2010.8,654.926L2010.8,445.269L2008.46,445.269M2192.24,565.888C2192.24,525.319 2169.7,505.016 2124.61,505.016C2074.98,505.016 2049.15,528.685 2049.15,577.141C2049.15,627.868 2081.87,658.317 2136.97,658.317C2160.77,658.317 2179.87,652.664 2186.6,650.431L2188.95,649.301L2188.95,630.133L2185.51,631.263C2178.78,633.525 2166.25,636.887 2152.79,636.887C2110.05,636.887 2094.24,600.842 2092.99,569.254L2192.24,569.254L2192.24,565.888L2192.24,565.888ZM2123.51,520.802C2144.96,520.802 2150.59,536.565 2151.69,551.219L2092.99,551.219C2094.24,539.957 2100.97,520.798 2123.51,520.798M2414.21,462.191L2414.21,508.417L2387.29,508.417L2387.29,526.417L2414.21,526.417L2414.21,616.613C2414.21,656.055 2439.11,658.317 2469.47,658.317C2477.46,658.317 2485.28,657.188 2493.11,656.059L2496.55,656.059L2496.55,638.02L2492.01,638.02C2488.72,639.149 2485.28,639.149 2480.74,639.149C2456.01,639.149 2454.91,632.392 2454.91,612.095L2454.91,526.42L2500,526.42L2500,508.414L2454.91,508.414L2454.91,462.188L2414.21,462.188M2333.12,555.74L2374.76,508.417L2332.03,508.417L2292.58,553.487L2257.67,508.417L2195.68,508.417L2195.68,519.656L2198.97,519.656C2219.32,521.925 2224.95,525.323 2237.32,542.229L2263.31,576.044L2221.51,623.376L2264.41,623.376L2282.41,601.94L2322.95,654.926L2370.38,654.926L2294.77,555.74L2333.12,555.74" style="fill:rgb(77,77,77);fill-rule:nonzero;"/>
    </g>
    <g transform="matrix(0.0773292,0,0,0.0773292,51.4129,44.5209)">
        <path d="M2414.21,462.191L2371.48,462.191L2423.3,402.438L2466.19,402.438L2414.21,462.191" style="fill:rgb(212,0,0);fill-rule:nonzero;"/>
    </g>
</svg>
