<?xml version="1.0" encoding="UTF-8" standalone="no"?>
<!DOCTYPE svg PUBLIC "-//W3C//DTD SVG 1.1//EN" "http://www.w3.org/Graphics/SVG/1.1/DTD/svg11.dtd">
<svg width="100%" height="100%" viewBox="0 0 300 150" version="1.1" xmlns="http://www.w3.org/2000/svg" xmlns:xlink="http://www.w3.org/1999/xlink" xml:space="preserve" xmlns:serif="http://www.serif.com/" style="fill-rule:evenodd;clip-rule:evenodd;stroke-linejoin:round;stroke-miterlimit:2;">
    <g transform="matrix(0.0769195,0,0,0.0769195,51.8504,49.5396)">
        <g transform="matrix(3.1622,0,0,3.1622,-120.091,-253.666)">
            <path d="M49.24,28.23C57.65,23.71 68.53,24.25 76.41,29.67C83.71,34.51 88.08,43.18 87.95,51.91C88.07,71.6 87.96,91.3 88,110.99C102.23,106.88 117.69,106.82 131.82,111.37C146.6,116.04 159.82,125.51 168.99,138.01C178.54,150.87 183.71,166.93 183.39,182.95C183.15,190.04 179.92,196.95 174.57,201.62C168.53,207.03 159.89,209.34 151.95,207.68C142.15,205.87 133.81,197.87 131.61,188.15C130.54,183.37 131.36,178.22 129.2,173.68C126.06,166.05 118.27,160.55 109.97,160.46C101.35,160.08 92.97,165.58 89.64,173.5C87.03,179.06 88.67,185.51 86.25,191.13C82.24,202.44 69.76,209.91 57.89,207.93C45.76,206.45 35.49,195.36 35.48,183.04C35.51,141.02 35.49,99 35.5,56.97C35.54,52.94 35.16,48.84 36.17,44.9C37.97,37.86 42.76,31.58 49.24,28.23Z" style="fill:rgb(26,193,241);fill-rule:nonzero;"/>
        </g>
        <g transform="matrix(3.1622,0,0,3.1622,-120.091,-253.666)">
            <path d="M261.45,108.54C274.56,106.9 288.14,108.56 300.3,113.81C319.09,121.75 334.23,137.84 341,157.08C345.46,169.51 346.43,183.14 343.92,196.1C340.61,213.55 330.65,229.63 316.58,240.46C305.83,248.85 292.68,254.14 279.11,255.53C260.72,257.58 241.62,252.36 226.86,241.19C212.3,230.32 201.92,213.94 198.57,196.07C195.28,179.26 198.01,161.33 206.31,146.33C217.35,125.96 238.42,111.41 261.45,108.54M264.36,161.59C254.81,164.69 248.3,175.09 249.97,185.05C251.21,194.18 258.96,201.85 268.05,203.18C278.28,204.98 289,197.97 291.84,188.05C294.52,179.7 291.17,169.96 284.15,164.79C278.61,160.53 270.95,159.3 264.36,161.59Z" style="fill:rgb(26,193,241);fill-rule:nonzero;"/>
        </g>
        <g transform="matrix(3.1622,0,0,3.1622,-120.091,-253.666)">
            <path d="M380.14,130.21C399.63,109.71 431.36,102.45 457.89,112.16C476.87,118.84 492.77,133.65 500.8,152.1C504.95,161.49 507.08,171.76 507.02,182.03C506.97,198.36 507.03,214.7 506.99,231.03C506.88,243.11 496.88,253.96 485.02,255.63C477.3,257 469.34,254.39 463.36,249.47C449.64,255.58 434.08,257.53 419.3,254.68C403.13,251.68 388.12,243.02 377.34,230.61C364.03,215.58 357.41,194.92 359.41,174.95C360.89,158.24 368.37,142.16 380.14,130.21M426.39,161.51C416.15,164.72 409.44,176.33 412.18,186.78C414.55,197.98 426.95,205.91 438.09,202.8C448.9,200.46 456.5,188.85 454.21,177.99C452.23,165.67 438.2,157.19 426.39,161.51Z" style="fill:rgb(26,193,241);fill-rule:nonzero;"/>
        </g>
        <g transform="matrix(3.1622,0,0,3.1622,-120.091,-253.666)">
            <path d="M572.6,111.33C589.61,105.97 608.6,106.92 624.91,114.2C640.92,121.28 654.29,134.22 661.79,150.05C669.08,165.15 670.88,182.77 666.99,199.06C662.98,216.27 652.48,231.84 638.1,242.1C619.77,255.48 595.19,259.39 573.51,252.84C573.5,270.55 573.5,288.25 573.51,305.96C573.63,312.02 573.71,318.39 570.83,323.92C566.03,334.36 553.76,340.51 542.52,338.27C533.19,336.76 525.14,329.69 522.26,320.72C520.67,316.33 521,311.6 520.99,307.02C521.01,265 520.99,222.98 521.01,180.96C521.19,162.86 528.29,144.94 540.65,131.7C549.3,122.3 560.4,115.16 572.6,111.33M588.37,161.48C578.05,164.66 571.23,176.37 574.06,186.9C576.41,197.75 588.17,205.42 599.04,203.02C610.6,201.02 618.99,188.34 615.85,176.93C613.34,165.14 599.78,157.42 588.37,161.48Z" style="fill:rgb(26,193,241);fill-rule:nonzero;"/>
        </g>
        <g transform="matrix(3.1622,0,0,3.1622,-120.091,-253.666)">
            <path d="M708.15,126.19C721.24,114.68 738.52,107.94 755.99,107.97C771.68,107.63 787.4,112.64 800.09,121.86C814.03,131.82 824.29,146.81 828.51,163.42C832.88,180.51 831.08,199.23 823.04,214.98C815.6,230.11 802.71,242.43 787.37,249.38C771.15,256.78 752.3,257.93 735.25,252.79C735.25,272.87 735.24,292.96 735.26,313.05C735.26,320.84 731.33,328.41 725.22,333.18C717.4,339.4 705.9,340.44 697.06,335.81C688.21,331.48 682.57,321.78 682.75,311.99C682.74,271.32 682.76,230.64 682.75,189.97C682.68,182.63 682.82,175.24 684.18,168.01C687.18,151.91 695.82,136.95 708.15,126.19M750.33,161.44C740.88,164.35 734.22,174.28 735.42,184.14C736.3,193.42 743.83,201.5 753.01,203.08C763.38,205.19 774.44,198.29 777.38,188.19C780.19,179.43 776.51,169.25 768.88,164.18C763.54,160.48 756.5,159.46 750.33,161.44Z" style="fill:rgb(26,193,241);fill-rule:nonzero;"/>
        </g>
    </g>
</svg>
