<?xml version="1.0" encoding="UTF-8" standalone="no"?>
<!DOCTYPE svg PUBLIC "-//W3C//DTD SVG 1.1//EN" "http://www.w3.org/Graphics/SVG/1.1/DTD/svg11.dtd">
<svg width="100%" height="100%" viewBox="0 0 300 150" version="1.1" xmlns="http://www.w3.org/2000/svg" xmlns:xlink="http://www.w3.org/1999/xlink" xml:space="preserve" xmlns:serif="http://www.serif.com/" style="fill-rule:evenodd;clip-rule:evenodd;stroke-linejoin:round;stroke-miterlimit:2;">
    <g transform="matrix(0.0809847,0,0,0.0809847,46.6804,-26.9031)">
        <path d="M37.859,1419.23L37.859,1072.68L130.852,1072.68L130.852,1205.11L279.187,1205.11L279.187,1072.68L372.167,1072.68L372.167,1419.23L279.187,1419.23L279.187,1279.05L130.852,1279.05L130.852,1419.23L37.859,1419.23ZM398.457,1072.68L545.69,1281.27L545.69,1419.23L638.67,1419.23L638.67,1281.27L784.788,1072.68L677.411,1072.68L592.186,1196.28L505.834,1072.68L398.457,1072.68ZM811.077,1072.68L811.077,1419.23L1050.19,1419.23C1086.71,1419.23 1144.27,1404.88 1143.17,1330.93L1143.17,1072.68L1050.19,1072.68L1050.19,1306.65C1050.19,1333.14 1035.8,1343.07 1009.23,1343.07L904.07,1343.07L904.07,1072.68L811.077,1072.68ZM1200.45,1419.23L1200.45,1072.68L1439.57,1072.68C1476.09,1072.68 1533.65,1087.02 1532.53,1160.98L1532.53,1419.23L1439.57,1419.23L1439.57,1185.26C1439.57,1158.77 1425.18,1148.84 1398.61,1148.84L1293.44,1148.84L1293.44,1419.23L1200.45,1419.23ZM2464.33,1419.23L2464.33,1072.68L2371.34,1072.68L2371.34,1419.23L2464.33,1419.23ZM1831.17,1072.68L1589.83,1072.68L1589.83,1419.23L1831.16,1419.23C1876.56,1419.23 1924.15,1393.85 1924.15,1330.93L1924.15,1152.14C1924.15,1116.83 1916.41,1072.68 1831.17,1072.68ZM1831.17,1309.96C1831.17,1322.11 1827.86,1338.66 1804.6,1339.76L1682.83,1339.76L1682.83,1152.14L1806.83,1152.14C1822.3,1152.14 1831.17,1163.18 1831.17,1177.53L1831.17,1309.96ZM2067.8,1072.68C2006.9,1072.68 1979.24,1101.37 1979.24,1152.14L1979.24,1419.23L2072.23,1419.23L2072.23,1335.34L2218.35,1335.34L2218.35,1419.23L2311.34,1419.23L2311.34,1072.68L2067.8,1072.68ZM2218.34,1264.41L2072.22,1264.41L2072.22,1183.84C2072.22,1160.66 2081.06,1152.93 2101,1151.83L2218.34,1151.83L2218.34,1264.41Z" style="fill:rgb(80,38,217);"/>
    </g>
</svg>
