<?xml version="1.0" encoding="UTF-8" standalone="no"?>
<!DOCTYPE svg PUBLIC "-//W3C//DTD SVG 1.1//EN" "http://www.w3.org/Graphics/SVG/1.1/DTD/svg11.dtd">
<svg width="100%" height="100%" viewBox="0 0 300 150" version="1.1" xmlns="http://www.w3.org/2000/svg" xmlns:xlink="http://www.w3.org/1999/xlink" xml:space="preserve" xmlns:serif="http://www.serif.com/" style="fill-rule:evenodd;clip-rule:evenodd;stroke-linejoin:round;stroke-miterlimit:2;">
    <g transform="matrix(0.0849638,0,0,0.0849638,40.0257,51.4559)">
        <path d="M193.24,84.65C223.76,84.43 254.28,84.47 284.79,84.6C284.66,89.08 285.03,93.54 285.17,98C284.48,113.99 284.98,130 284.82,146C284.99,155.26 284.33,164.56 285.58,173.77C293.07,168.19 301.6,164.2 309.5,159.24C322.09,150.29 335.94,143.32 349.23,135.48C353.15,133.35 356.65,129.63 361.5,130.29C366.1,137.62 369.47,145.63 374.3,152.82C385.1,170.53 395.05,188.74 405.97,206.38C397.06,213.09 386.84,217.74 377.45,223.71C370.34,227.57 364.12,232.84 356.92,236.56C348.46,241.29 340.19,246.38 331.66,250.99C330.14,251.86 327.81,251.96 326.9,250.19C324.2,245.76 321.94,241.06 319.18,236.66C314.73,230.15 311.43,222.97 307.43,216.2C299.45,203.15 291.83,189.88 284.39,176.51C268.26,176.15 252.13,176.43 236,176.34C221.25,176.43 206.5,176.13 191.75,176.52C188.46,184.2 183.46,190.99 179.47,198.31C176.28,203.27 173.82,208.69 170.09,213.3C169.45,214.86 168.91,216.47 168.09,217.96C161.09,229.06 154.84,240.62 148.15,251.91C143.75,250.99 140.37,247.85 136.52,245.77C128.59,241.38 121.12,236.22 113,232.17C106.27,228.69 100.09,224.25 93.43,220.64C85.89,215.74 77.36,212.67 70.09,207.32C70.67,203.45 73.27,200.38 75.2,197.1C78.8,191.53 81.72,185.56 85.25,179.95C93.96,167.23 101.03,153.48 109.11,140.36C111.25,137.29 111.43,132.95 114.47,130.55C117.93,129.53 120.89,131.92 123.78,133.42C141.33,144.17 159.31,154.19 176.73,165.18C182.01,168.18 187.6,170.62 192.58,174.13C193.51,168.12 193.18,162.04 193.24,156C193.27,132.21 193.25,108.43 193.24,84.65Z" style="fill:rgb(237,27,36);fill-rule:nonzero;"/>
    </g>
    <g transform="matrix(0.0849638,0,0,0.0849638,40.0257,51.4559)">
        <path d="M1818.28,171.59C1825.44,172.95 1832.75,172.29 1840,172.39C1855.31,172.43 1870.63,172.35 1885.95,172.39C1885.02,172.65 1884.11,172.91 1883.22,173.16C1876.86,173.94 1870.39,173.27 1864,173.48C1848.82,173.53 1833.63,173.4 1818.45,173.55C1818.41,173.06 1818.33,172.08 1818.28,171.59Z" style="fill:rgb(237,27,36);fill-rule:nonzero;"/>
    </g>
    <g transform="matrix(0.0849638,0,0,0.0849638,40.0257,51.4559)">
        <path d="M132.65,261.54C137.83,258.79 142.5,255.08 148.08,253.13C151.02,259.55 155.44,265.18 158.08,271.72C162.23,276.6 164.42,282.71 168.12,287.88C173.28,295.72 177.21,304.28 182.1,312.29C185.76,318.21 188.75,324.56 193.11,330.04C190.62,332.47 187.59,334.18 184.51,335.75C162.51,348.41 140.78,361.56 118.69,374.06C117.31,374.62 115.42,375.1 114.09,374.21C107.39,363.57 101.05,352.69 95.08,341.61C87.55,330.05 81.44,317.65 73.95,306.06C72.33,303.46 70.37,300.9 70.05,297.74C75.38,295.27 80.2,291.87 85.37,289.1C89.66,286.42 94.32,284.39 98.54,281.6C109.63,274.44 121.29,268.25 132.65,261.54Z" style="fill:rgb(237,27,36);fill-rule:nonzero;"/>
    </g>
    <g transform="matrix(0.0849638,0,0,0.0849638,40.0257,51.4559)">
        <path d="M320.34,266.35C322.47,261.45 325.58,257.09 328.95,252.98C338,258.8 347.46,263.95 356.87,269.15C366.3,275.48 376.53,280.44 386.1,286.54C392.87,290.12 399.28,294.35 406.07,297.89C405.01,301.45 402.71,304.41 400.86,307.57C397.83,312.57 395.52,317.96 392.73,323.09C387.2,333.38 380.83,343.18 374.93,353.26C370.97,361.25 365.63,368.49 362,376.65C355.2,374.66 350.18,369.39 344.08,366.06C334.37,360.52 324.65,354.99 315.02,349.29C305.07,344.04 295.93,336.99 285.29,333.2C284.32,356.11 285.06,379.07 284.83,402C284.55,408.88 285.54,415.77 284.73,422.63C254.23,422.63 223.73,422.67 193.22,422.61C193.29,395.4 193.25,368.2 193.24,341C193.25,337.57 192.71,334.18 192.51,330.77C217.34,330.77 242.17,330.8 267,330.78C272.73,330.76 278.47,330.89 284.19,330.48C284.67,328.28 285.25,326.07 286.48,324.16C292.69,313.98 298.73,303.7 304.37,293.19C309.33,284.03 315.42,275.53 320.34,266.35Z" style="fill:rgb(237,27,36);fill-rule:nonzero;"/>
    </g>
    <g transform="matrix(0.0849638,0,0,0.0849638,40.0257,51.4559)">
        <path d="M2131.45,117.5C2135.12,116.07 2139.1,116.38 2142.98,116.17C2157.34,115.47 2171.72,115.8 2186.09,116.3C2190.52,116.11 2194.51,118.7 2198.99,118.37C2202.39,118.18 2205.72,118.75 2208.8,120.27C2214.49,120.79 2219.87,122.77 2225.51,123.64C2226.88,124.26 2228.15,125.07 2229.5,125.81C2229.38,132.52 2228.29,139.17 2228.59,145.9C2228.86,150.28 2227.51,154.46 2226.65,158.69C2225.98,165.4 2226.72,172.17 2225.82,178.86C2219.77,179.26 2214.65,175.47 2208.9,174.22C2205.01,173.65 2201.52,171.45 2197.55,171.48C2194.51,171.61 2191.89,169.87 2189,169.4C2174.33,168.49 2159.61,168.28 2144.95,169.28C2142.5,169.55 2140.33,170.83 2137.95,171.27C2130.76,172.5 2124.45,177.13 2120.54,183.2C2119.29,189.41 2118.72,196.18 2120.85,202.24C2126.09,209.17 2133.99,213.98 2142.42,215.89C2150.28,219.89 2159.08,220.97 2167.3,224.02C2171.58,224.93 2175.54,226.92 2179.92,227.43C2182.91,228.62 2185.91,229.84 2189.22,229.77C2189.43,230.21 2189.83,231.11 2190.03,231.56C2197.06,232.73 2203.21,236.64 2209.47,239.85C2214.84,243.7 2221,246.57 2225.41,251.66C2233.13,260.19 2239.62,270.3 2241.72,281.77C2243.81,287.25 2243.4,293.24 2243.56,299C2243.62,306.7 2243.55,314.42 2242.96,322.1C2240.92,331.48 2237.64,340.68 2232.72,348.97C2228.5,355.17 2223.7,361.06 2217.98,365.94C2212.83,369.82 2207.47,373.48 2201.77,376.48C2194.09,379.37 2186.73,383.37 2178.55,384.61C2173.8,386.76 2168.41,386.05 2163.72,388.31C2156.06,389.78 2148.04,388.38 2140.49,390.52C2130.69,391.02 2120.68,391.95 2111.05,389.57C2103.24,389.08 2095.31,389.38 2087.59,388.19C2082.7,385.58 2076.89,387.58 2072.04,385.07C2068.81,383.63 2065.1,384.44 2061.83,383.23C2057.38,381.06 2051.97,382.2 2048.15,378.63C2048.17,374.69 2050.01,371.06 2049.82,367.1C2050.39,360.58 2049.51,353.82 2051.59,347.52C2053.35,341.43 2051.29,334.85 2053.64,328.88C2054.59,326.37 2054.5,323.66 2054.71,321.04C2059.05,322.76 2062.96,325.52 2067.59,326.5C2074.89,329.44 2082.27,332.71 2090.17,333.45C2094.78,337.15 2101,334.75 2106.27,336.52C2110.67,338.09 2115.4,337.66 2120,338.08C2127.53,338.25 2135.11,338.31 2142.6,337.36C2147.23,335.57 2152.61,336.47 2156.89,333.68C2163.06,331.02 2168.01,325.9 2170.49,319.68C2170.97,314.36 2170.89,308.98 2170.35,303.67C2167.98,300.97 2166.46,297.64 2164.02,295.01C2160.41,290.8 2155.02,288.92 2150.18,286.57C2141.44,282.29 2132.04,279.72 2122.75,277.02C2115.13,273.76 2106.85,272.61 2099.41,268.91C2094.93,267.69 2090.75,265.7 2086.68,263.5C2070.78,256.07 2056.77,243.07 2050.6,226.4C2049.54,222.44 2047.22,218.76 2047.51,214.54C2047.62,210.87 2044.89,207.78 2045.34,204.06C2045.65,197.62 2044.3,190.87 2046.65,184.7C2047.89,180.96 2047.21,176.83 2049.14,173.27C2051.24,165.05 2055.5,157.53 2060.9,151.03C2065.88,143.65 2073.43,138.73 2080.59,133.71C2084.12,132.35 2087.45,130.52 2090.73,128.62C2097.17,126.08 2103.71,123.83 2110.26,121.57C2113.6,120.34 2117.39,121.14 2120.63,119.46C2124.02,117.88 2127.93,118.76 2131.45,117.5Z" style="fill:rgb(35,31,32);fill-rule:nonzero;"/>
    </g>
    <g transform="matrix(0.0849638,0,0,0.0849638,40.0257,51.4559)">
        <path d="M560.25,120.68C583.67,120.5 607.1,120.46 630.52,120.7C630.52,156.17 630.57,191.65 630.49,227.12C634.72,227.72 636.75,223.85 639.42,221.4C639.11,221.1 638.49,220.51 638.18,220.21C647.45,208.69 655.75,196.4 664.65,184.58C679.57,164.57 694.09,144.26 709.14,124.34C710.2,122.54 711.38,120.08 713.93,120.56C739.63,120.55 765.33,120.61 791.03,120.52C792.87,120.41 794.67,120.84 796.39,121.52C791.39,127.53 786.86,133.9 781.81,139.86C775.65,147.66 769.9,155.8 763.23,163.17C742.33,189.64 721.49,216.13 700.33,242.38C699.14,246.72 703.37,249.39 705.47,252.58C713.8,263.56 721.73,274.84 730.35,285.61C737.44,295.78 745.28,305.39 752.58,315.41C766.55,335.04 781.55,353.89 795.5,373.53C798.37,377.87 802.98,381.13 804.45,386.32C775.26,386.54 746.07,386.34 716.89,386.43C715.3,386.75 714.42,385.32 713.6,384.28C703.73,370.2 694.54,355.66 684.35,341.82C672.64,324.1 660.58,306.61 648.56,289.11C643.8,282.02 638.61,275.17 634.39,267.75C634.25,267.5 633.97,267 633.82,266.75C632.75,266.15 631.64,265.62 630.55,265.08C630.51,305.42 630.54,345.77 630.53,386.11C607.16,386.75 583.73,386.35 560.33,386.31C560.28,297.76 560.45,209.22 560.25,120.68Z" style="fill:rgb(35,31,32);fill-rule:nonzero;"/>
    </g>
    <g transform="matrix(0.0849638,0,0,0.0849638,40.0257,51.4559)">
        <path d="M837.67,120.59C899.92,120.57 962.18,120.51 1024.43,120.62C1024.44,137.27 1024.8,153.95 1024.24,170.59C987.15,170.51 950.05,170.59 912.96,170.55C911.25,170.46 909.68,171.12 908.1,171.62C908.33,189.26 908.24,206.9 908.15,224.54C915.72,225.65 923.37,225.19 931,225.27L990,225.27C999.56,225.63 1009.1,223.79 1018.62,225.43C1019.02,242.09 1018.69,258.76 1018.8,275.43C981.96,275.46 945.12,275.35 908.28,275.49C908.12,295.56 908.32,315.62 908.18,335.69C948.36,335.86 988.54,335.69 1028.72,335.79C1028.67,352.64 1028.72,369.49 1028.7,386.34C965.07,386.53 901.44,386.33 837.8,386.44C837.61,297.82 837.89,209.2 837.67,120.59Z" style="fill:rgb(35,31,32);fill-rule:nonzero;"/>
    </g>
    <g transform="matrix(0.0849638,0,0,0.0849638,40.0257,51.4559)">
        <path d="M1076.86,120.56C1107.28,120.62 1137.7,120.46 1168.11,120.65C1172.3,130.63 1177.5,140.15 1182.3,149.84C1207.14,200.12 1232.19,250.27 1257.23,300.46C1258.45,295.73 1257.9,290.82 1257.99,286C1257.92,230.89 1257.6,175.77 1257.65,120.66C1278.67,120.31 1299.71,120.84 1320.73,120.42C1321.7,123.17 1321.4,126.12 1321.42,128.99C1321.36,214.79 1321.48,300.59 1321.36,386.38C1292.53,386.45 1263.71,386.39 1234.89,386.42C1232.09,383.89 1230.63,380.33 1229.01,377.02C1220.36,360.27 1211.52,343.61 1203.33,326.63C1195.6,312.51 1188.64,298 1181.29,283.7C1167.89,257.23 1154.49,230.75 1140.78,204.43C1138.33,214.44 1140.51,224.84 1140.31,235C1140.23,252.42 1140.78,269.84 1140.29,287.25C1140.73,285.35 1141.02,283.42 1141.5,281.53C1141.65,316.49 1142.03,351.45 1142.14,386.41C1120.47,386.43 1098.81,386.39 1077.15,386.43C1076.97,321.95 1077.12,257.47 1077.08,193C1076.97,168.85 1077.31,144.7 1076.86,120.56Z" style="fill:rgb(35,31,32);fill-rule:nonzero;"/>
    </g>
    <g transform="matrix(0.0849638,0,0,0.0849638,40.0257,51.4559)">
        <path d="M1356.71,120.55C1423.68,120.56 1490.64,120.61 1557.6,120.53C1557.66,137.6 1557.65,154.68 1557.61,171.75C1535.96,171.73 1514.31,171.76 1492.66,171.74C1492.08,196.81 1492.56,221.92 1492.41,247C1492.34,293.47 1492.54,339.94 1492.31,386.41C1468.93,386.42 1445.56,386.39 1422.19,386.43C1422.12,325.95 1422.19,265.48 1422.16,205C1421.81,193.91 1422.96,182.72 1421.36,171.7C1399.82,171.79 1378.28,171.76 1356.74,171.71C1356.76,154.66 1356.77,137.61 1356.71,120.55Z" style="fill:rgb(35,31,32);fill-rule:nonzero;"/>
    </g>
    <g transform="matrix(0.0849638,0,0,0.0849638,40.0257,51.4559)">
        <path d="M1642.27,120.65C1668.84,120.43 1695.42,120.65 1722,120.55C1724.83,120.52 1727.68,120.55 1730.53,120.8C1730.96,125.42 1733.53,129.33 1735.17,133.57C1737.42,141.74 1741.88,149.19 1743.67,157.52C1744.19,157.54 1744.73,157.57 1745.3,157.59C1745.51,160.08 1745.76,162.63 1747,164.87C1751.02,173.31 1753.25,182.42 1757.05,190.94C1763.91,209.34 1771.28,227.55 1778.16,245.95C1779.92,249.96 1781.79,253.93 1782.73,258.23C1786.39,265.28 1788.26,273.03 1791.44,280.28C1797.89,296.92 1804.13,313.65 1810.78,330.2C1814.74,342.33 1820.26,353.93 1824.27,366.04C1827.2,372.42 1829.36,379.08 1831.86,385.63C1827.69,386.97 1823.28,386.27 1819,386.42C1797.87,386.5 1776.72,386.23 1755.59,386.55C1752.09,382.42 1751.47,376.69 1749.37,371.82C1744.86,358.31 1740.08,344.88 1735.48,331.41C1734.52,330.35 1733.45,329.09 1731.89,329.38C1699.71,329.32 1667.53,329.39 1635.35,329.34C1631.23,336.79 1629.88,345.32 1625.99,352.86C1623.34,361.91 1619.73,370.67 1616.44,379.51C1615.07,382.03 1614.94,386.78 1611.07,386.4C1588.21,386.41 1565.36,386.44 1542.51,386.39C1542.9,381.48 1545.59,377.27 1547.14,372.7C1549.21,365.89 1552.26,359.43 1554.63,352.73C1555.36,349.2 1557.09,346.02 1558.51,342.74C1566.74,320.73 1574.83,298.67 1583.58,276.86C1584.45,271.24 1588.44,266.74 1589.25,261.1C1597.2,242.11 1603.44,222.43 1611.37,203.43C1612.83,200.63 1613.15,197.43 1614.58,194.62C1617.38,188.57 1619.01,182.08 1621.75,176C1623.17,172.43 1624.81,168.92 1625.54,165.12C1631.19,151.45 1636.14,137.52 1641.59,123.8C1641.76,123.01 1642.1,121.44 1642.27,120.65M1683.57,179.49C1682.97,181.68 1683,184.05 1682.04,186.14C1678.93,193.57 1677.2,201.46 1674.23,208.94C1671.53,216.24 1670.18,223.92 1666.95,231.03C1664.41,240.08 1660.58,248.73 1658.47,257.91C1655.96,265.06 1653.05,272.11 1651.38,279.49C1673.14,279.64 1694.89,279.39 1716.65,279.62C1716.73,276.49 1717.05,273.19 1715.4,270.38C1713.97,265.82 1712.64,261.22 1711.19,256.67C1707.74,248.14 1706.52,238.93 1702.87,230.48C1701.04,222.08 1698.13,213.95 1695.4,205.81C1694.01,195.45 1688.14,186.22 1687.28,175.77C1685.99,176.97 1684.7,178.16 1683.57,179.49Z" style="fill:rgb(35,31,32);fill-rule:nonzero;"/>
    </g>
    <g transform="matrix(0.0849638,0,0,0.0849638,40.0257,51.4559)">
        <path d="M1818.16,120.53C1878.11,120.62 1938.05,120.54 1998,120.57C2005.55,120.65 2013.11,120.36 2020.66,120.72C2020.58,137.5 2020.52,154.29 2020.68,171.07C2017.16,173.31 2012.9,172.3 2008.99,172.49C1990.58,172.58 1972.15,172.24 1953.75,172.68C1953.57,243.93 1953.86,315.18 1953.6,386.43C1930.21,386.32 1906.81,386.55 1883.43,386.32C1883.45,328.54 1883.43,270.77 1883.44,213C1883.3,199.72 1883.71,186.43 1883.22,173.16C1884.11,172.91 1885.02,172.65 1885.95,172.39C1870.63,172.35 1855.31,172.43 1840,172.39C1832.75,172.29 1825.44,172.95 1818.28,171.59C1818.05,154.57 1818.3,137.55 1818.16,120.53Z" style="fill:rgb(35,31,32);fill-rule:nonzero;"/>
    </g>
    <g transform="matrix(0.0849638,0,0,0.0849638,40.0257,51.4559)">
        <path d="M2286.56,120.56C2308.72,120.53 2330.88,120.62 2353.05,120.53C2354.27,120.66 2357.06,119.84 2356.71,122.08C2356.72,168.72 2356.71,215.36 2356.71,262C2356.37,270.71 2357.22,279.37 2357.61,288.05C2359.55,293.28 2358.23,299.14 2360.64,304.22C2362.87,310.39 2364.65,316.9 2368.72,322.19C2374.04,329.16 2381.48,335.17 2390.37,336.45C2395.63,338.73 2401.47,338.12 2407.07,338.13C2411.16,338.2 2414.87,336.25 2418.87,335.66C2433.55,330.49 2443.24,315.91 2445.97,301.06C2445.75,295.86 2448.74,291.22 2448.36,286.02C2448.53,230.9 2448.49,175.79 2448.39,120.68C2471.79,120.41 2495.2,120.66 2518.61,120.55C2518.73,177.71 2518.67,234.88 2518.64,292.04C2518.17,298.87 2519.51,306.08 2516.59,312.52C2515.42,324.06 2510.52,334.92 2504.81,344.92C2493.44,364.08 2473.71,376.88 2452.94,383.81C2448.33,384.25 2444.27,386.71 2439.63,386.92C2433.83,389.47 2427.43,388.72 2421.31,389.52C2415.4,391.48 2409.1,390.48 2403,390.73C2397.26,390.45 2391.33,391.49 2385.8,389.62C2379.22,388.53 2372.27,389.7 2366.03,386.98C2360.91,386.45 2356.33,383.98 2351.23,383.44C2343.26,380.17 2335.28,376.73 2328.07,371.97C2320.17,366.33 2313.36,359.38 2306.49,352.56C2298.75,342.88 2293.69,331.23 2290.49,319.32C2288.4,315.31 2289.43,310.62 2287.94,306.47C2285.85,300.52 2286.83,294.15 2286.53,287.99C2286.53,232.18 2286.48,176.37 2286.56,120.56Z" style="fill:rgb(35,31,32);fill-rule:nonzero;"/>
    </g>
    <g transform="matrix(0.0849638,0,0,0.0849638,40.0257,51.4559)">
        <path d="M2306.49,352.56C2313.36,359.38 2320.17,366.33 2328.07,371.97C2324.23,370.3 2321.03,367.54 2317.77,364.98C2313.44,361.43 2309.2,357.54 2306.49,352.56Z" style="fill:rgb(237,27,36);fill-rule:nonzero;"/>
    </g>
</svg>
