<?xml version="1.0" encoding="UTF-8" standalone="no"?>
<!DOCTYPE svg PUBLIC "-//W3C//DTD SVG 1.1//EN" "http://www.w3.org/Graphics/SVG/1.1/DTD/svg11.dtd">
<svg width="100%" height="100%" viewBox="0 0 300 150" version="1.1" xmlns="http://www.w3.org/2000/svg" xmlns:xlink="http://www.w3.org/1999/xlink" xml:space="preserve" xmlns:serif="http://www.serif.com/" style="fill-rule:evenodd;clip-rule:evenodd;stroke-linejoin:round;stroke-miterlimit:2;">
    <g transform="matrix(0.463716,0,0,0.463716,32.5062,52.8769)">
        <path d="M26.45,15.88C35.28,14.82 44.09,13.46 53.01,13.51C67.83,13.42 82.94,12.97 97.43,16.51C97.29,34.18 97.33,51.85 97.41,69.52C79.88,73.23 61.77,73.15 43.94,72.19C40.72,71.23 37.26,71.88 34.05,70.85C31.54,70.52 29.02,70.31 26.5,70.16C26.09,52.08 26.17,33.96 26.45,15.88M61.8,21.34C60.07,25.98 57.77,30.37 55.82,34.91C53.57,40.78 50.56,46.33 48.3,52.21C47.13,55.56 44.45,58.5 44.61,62.21C44.88,61.85 45.43,61.12 45.7,60.76C50.89,58.05 55.6,54.49 60.72,51.63C61.69,51.06 62.7,51.85 63.53,52.3C67.93,55.1 72.61,57.43 76.9,60.4C77.46,60.5 78.57,60.68 79.13,60.78C78.52,59.14 77.89,57.51 77.23,55.89C72.5,44.51 67.29,33.29 63.09,21.7C62.77,21.61 62.12,21.43 61.8,21.34Z" style="fill:rgb(255,17,26);fill-rule:nonzero;"/>
    </g>
    <g transform="matrix(0.463716,0,0,0.463716,32.5062,52.8769)">
        <path d="M120.19,15.24C127.22,15.4 134.28,14.95 141.31,15.5C141.29,21.72 140.85,27.97 141.6,34.16C147.5,28.53 153.23,22.71 159.03,16.97C159.87,16.28 160.64,15.11 161.9,15.3C170.95,15.21 180.02,15.21 189.07,15.33C182.43,21.26 175.68,27.08 168.95,32.91C168.12,33.7 166.92,34.53 167.24,35.86C175.03,47.5 183.81,58.49 191.29,70.33C182.81,70.42 174.32,70.33 165.83,70.38C160.59,63.26 155.92,55.74 151.14,48.3C150.76,48.35 150.01,48.43 149.63,48.48C147.04,50.94 143.91,52.8 141.5,55.45C140.47,60.38 142.16,65.61 140.53,70.47C133.77,70.25 127,70.42 120.24,70.36C120.1,51.99 120.19,33.61 120.19,15.24Z" style="fill:rgb(130,132,140);fill-rule:nonzero;"/>
    </g>
    <g transform="matrix(0.463716,0,0,0.463716,32.5062,52.8769)">
        <path d="M194.57,15.33C210.7,15.2 226.84,15.22 242.97,15.32C252.73,15.17 261.23,24.37 260.82,34.02C261.57,42.03 256.48,50.06 249.01,52.95C251.46,59.42 257.26,64.01 260.13,70.32C251.72,70.33 243.29,70.51 234.89,70.25C230.14,65.4 227.54,58.8 223.11,53.65C220.91,53.08 218.57,53.46 216.32,53.41C215.92,59.05 216.52,64.72 215.9,70.35C208.83,70.33 201.75,70.36 194.67,70.33C194.5,52 194.71,33.66 194.57,15.33M216.39,28.61C216.08,32.53 216.05,36.48 216.4,40.41C222.95,40.32 229.49,40.49 236.03,40.36C238.12,40.57 239.2,38.5 240.45,37.24C240.51,34.13 240.46,29.72 236.7,28.8C229.95,28.34 223.16,28.78 216.39,28.61Z" style="fill:rgb(130,132,140);fill-rule:nonzero;"/>
    </g>
    <g transform="matrix(0.463716,0,0,0.463716,32.5062,52.8769)">
        <path d="M285.73,15.31C294.72,15.23 303.71,15.2 312.71,15.33C318.53,30.33 324.64,45.23 330.65,60.16C331.93,63.51 333.61,66.76 334.06,70.36C326.73,70.23 319.37,70.64 312.06,70.18C307.35,68.13 303.62,64.22 298.82,62.36C293.48,63.9 289.41,68.36 284.19,70.26C276.87,70.54 269.54,70.3 262.22,70.34C269.74,51.88 277.9,33.66 285.73,15.31M297.77,29.4C294.56,37.64 290.75,45.65 287.23,53.77C291.66,52.98 294.54,48.44 299.07,48.19C302.75,49.29 305.43,52.42 309.08,53.7C306.61,45.31 302.38,37.56 299.39,29.36C298.99,29.37 298.18,29.39 297.77,29.4Z" style="fill:rgb(130,132,140);fill-rule:nonzero;"/>
    </g>
    <g transform="matrix(0.463716,0,0,0.463716,32.5062,52.8769)">
        <path d="M337.49,15.43C359.58,15.03 381.69,15.36 403.79,15.27C403.8,19.67 403.79,24.07 403.83,28.47C388.77,28.51 373.71,28.26 358.66,28.59C358.62,31.24 358.41,33.95 359.33,36.5C369.43,36.22 379.54,36.58 389.64,36.3C390.83,40.57 390.05,45.03 390.27,49.39C380.08,49.79 369.87,49.29 359.69,49.63C359.45,49.91 358.96,50.47 358.72,50.74C358.45,57.29 358.85,63.84 358.58,70.39C351.59,70.33 344.61,70.41 337.62,70.33C337.45,52.03 337.71,33.73 337.49,15.43Z" style="fill:rgb(130,132,140);fill-rule:nonzero;"/>
    </g>
    <g transform="matrix(0.463716,0,0,0.463716,32.5062,52.8769)">
        <path d="M409.13,15.23C431.88,15.29 454.64,15.22 477.4,15.27C477.48,19.73 477.45,24.19 477.47,28.65C469.8,28.67 462.12,28.79 454.45,28.59C453.95,29.68 453.68,30.82 453.63,32C453.59,44.79 453.76,57.58 453.55,70.37C446.6,70.35 439.65,70.39 432.7,70.34C432.27,56.78 432.77,43.2 432.46,29.64C432.19,29.41 431.64,28.97 431.37,28.75C423.96,28.57 416.54,28.72 409.14,28.72C409.16,24.22 409.17,19.73 409.13,15.23Z" style="fill:rgb(130,132,140);fill-rule:nonzero;"/>
    </g>
</svg>
