<?xml version="1.0" encoding="UTF-8" standalone="no"?>
<!DOCTYPE svg PUBLIC "-//W3C//DTD SVG 1.1//EN" "http://www.w3.org/Graphics/SVG/1.1/DTD/svg11.dtd">
<svg width="100%" height="100%" viewBox="0 0 300 150" version="1.1" xmlns="http://www.w3.org/2000/svg" xmlns:xlink="http://www.w3.org/1999/xlink" xml:space="preserve" xmlns:serif="http://www.serif.com/" style="fill-rule:evenodd;clip-rule:evenodd;stroke-linejoin:round;stroke-miterlimit:2;">
    <g transform="matrix(0.0786927,0,0,0.0772128,49.5427,-24.4827)">
        <g transform="matrix(1.38611,0,0,1.41268,-34.8929,993.595)">
            <path d="M0,0.85C54.66,0.59 109.33,0.8 164,0.74C218.63,0.8 273.26,0.59 327.89,0.85C327.87,14.89 327.88,28.93 327.9,42.97C261.61,43 195.31,43.01 129.01,42.99C126.13,43.09 123.16,42.6 120.36,43.37C88.36,117.12 56.68,191.03 24.8,264.84C21.73,272.12 18.33,279.26 15.57,286.66C10.38,286.81 5.19,286.72 0,286.69L0,0.85Z" style="fill:rgb(114,191,67);fill-rule:nonzero;"/>
        </g>
        <g transform="matrix(1.38611,0,0,1.41268,-34.8929,993.595)">
            <path d="M354.19,86.1C354.38,85.82 354.74,85.25 354.93,84.96C359.88,84.55 364.88,84.81 369.85,84.89C369.92,179.9 369.91,274.92 369.85,369.94C352.91,370.51 335.94,369.85 318.98,370.05C260.97,370.15 202.96,370.1 144.96,370.07C110.75,370.13 76.49,370.27 42.31,369.93C42.38,355.76 42.34,341.59 42.33,327.42C110.54,327.55 178.76,327.4 246.98,327.49C248.46,327.58 250.29,327.47 250.65,325.69C285.09,245.8 319.77,166 354.19,86.1Z" style="fill:rgb(114,191,67);fill-rule:nonzero;"/>
        </g>
        <g transform="matrix(1.38611,0,0,1.41268,-34.8929,993.595)">
            <path d="M544.35,84.38C563.2,84.54 582.05,84.58 600.89,84.37C601.25,86.57 601.33,88.81 601.27,91.04C601.18,142.09 601.37,193.14 601.18,244.19C605.43,244.8 609.72,244.36 614,244.48C648.92,244.39 683.85,244.66 718.77,244.35C719.17,258.44 719.11,272.57 718.8,286.66C660.64,286.39 602.47,286.5 544.31,286.59C544.27,219.19 544.17,151.79 544.35,84.38Z" style="fill:rgb(99,101,102);fill-rule:nonzero;"/>
        </g>
        <g transform="matrix(1.38611,0,0,1.41268,-34.8929,993.595)">
            <path d="M748,85.01C805.26,85.05 862.53,84.89 919.78,85.09C919.73,99.02 919.66,112.95 919.81,126.88C881.55,127.18 843.28,126.9 805.01,127.01C804.99,139.14 805,151.26 805,163.39C842.88,163.55 880.78,163.54 918.67,163.39C918.77,177.46 918.8,191.54 918.66,205.61C880.78,205.46 842.88,205.44 804.99,205.62C805.01,218.54 804.99,231.47 805.01,244.39C843.94,244.52 882.89,244.61 921.83,244.34C922.51,247.51 922.22,250.77 922.24,253.99C922.27,264.78 922.24,275.56 922.28,286.35C864.28,286.84 806.25,286.2 748.25,286.67C747.66,266.81 748.18,246.92 747.99,227.05C748.02,179.71 747.98,132.36 748,85.01Z" style="fill:rgb(99,101,102);fill-rule:nonzero;"/>
        </g>
        <g transform="matrix(1.38611,0,0,1.41268,-34.8929,993.595)">
            <path d="M1031.12,86.76C1044.62,84.36 1058.39,85.14 1072.03,85C1088.75,85.01 1105.47,84.98 1122.19,85.02C1122.3,99.01 1122.3,113 1122.2,126.98C1103.13,127.02 1084.07,126.99 1065.01,127C1056.95,127.04 1048.78,126.66 1040.86,128.43C1032.8,130.41 1024.89,133.99 1019.06,140.03C1012.81,146.1 1008.96,154.64 1008.9,163.39C1058.84,163.54 1108.79,163.56 1158.73,163.37C1158.51,185.79 1156.85,208.65 1148.89,229.81C1144.64,240.98 1138.62,251.61 1130.25,260.21C1119.46,271.6 1104.99,279.06 1089.84,282.71C1077.19,285.96 1064.05,286.74 1051.04,286.52C1018.06,286.59 985.08,286.36 952.1,286.64C951.27,277.16 951.97,267.6 951.74,258.09C951.9,253.51 951.31,248.9 952.12,244.37C986.74,244.63 1021.37,244.42 1055.99,244.48C1071.26,244.56 1087.17,237.8 1095.74,224.79C1099.42,219.13 1101.85,212.4 1101.44,205.58C1051.7,205.53 1001.95,205.36 952.21,205.67C951.4,202.51 951.73,199.23 951.76,196.02C952.38,179.82 954.41,163.55 959.4,148.08C964.61,131.98 973.41,116.58 986.64,105.76C999.19,95.21 1014.99,89.06 1031.12,86.76Z" style="fill:rgb(99,101,102);fill-rule:nonzero;"/>
        </g>
        <g transform="matrix(1.38611,0,0,1.41268,-34.8929,993.595)">
            <path d="M1238.03,89.92C1259.05,83.35 1281.3,85.3 1302.98,85C1316.53,85.16 1330.11,84.67 1343.65,85.25C1343.44,99.09 1343.4,112.95 1343.66,126.79C1320.11,127.35 1296.51,126.72 1272.94,127.11C1261.68,127.52 1250.13,130.98 1241.65,138.63C1234.53,144.79 1230.27,153.99 1229.94,163.38C1279.85,163.58 1329.77,163.52 1379.68,163.4C1379.86,187.38 1377.66,211.96 1368.25,234.26C1361.82,249.78 1350.82,263.55 1336.42,272.33C1320.19,282.39 1300.87,285.85 1282.05,286.48C1245.77,286.67 1209.48,286.29 1173.21,286.67C1172.18,280.83 1172.99,274.85 1172.75,268.95C1172.96,260.76 1172.3,252.52 1173.09,244.37C1201.72,244.63 1230.36,244.4 1258.99,244.48C1266.32,244.39 1273.67,244.7 1281.01,244.31C1294.71,243.44 1308.51,236.94 1316.44,225.48C1320.57,219.77 1322.56,212.73 1322.89,205.74C1299.63,205.21 1276.34,205.67 1253.07,205.51C1226.46,205.63 1199.84,205.3 1173.24,205.68C1172.11,201.17 1173.17,196.5 1173.14,191.93C1174.48,167.41 1179.24,141.98 1193.48,121.44C1203.95,106.04 1220.17,94.97 1238.03,89.92Z" style="fill:rgb(99,101,102);fill-rule:nonzero;"/>
        </g>
        <g transform="matrix(1.38611,0,0,1.41268,-34.8929,993.595)">
            <path d="M1475.24,85.34C1498.43,85.19 1521.65,85.24 1544.86,85.32C1547.32,88.25 1548.41,92.21 1550.49,95.47C1580.18,153.72 1610.07,211.86 1639.82,270.08C1642.53,275.65 1645.75,280.99 1648.06,286.75C1629.09,286.68 1610.12,286.81 1591.15,286.7C1577.42,259.74 1563.56,232.85 1549.91,205.85C1523.31,205.68 1496.7,205.61 1470.11,205.89C1460.39,225.47 1450.17,244.8 1440.31,264.31C1436.35,271.68 1432.88,279.36 1428.69,286.58C1409.78,286.95 1390.82,286.61 1371.9,286.75C1380.21,269.34 1389.45,252.34 1398.09,235.07C1422.37,187.69 1446.66,140.3 1470.92,92.91C1472.31,90.37 1473.22,87.47 1475.24,85.34M1501.87,143.93C1498.62,150.56 1494.9,156.97 1491.95,163.73C1503.99,163.75 1516.04,163.71 1528.08,163.75C1525.94,158.46 1522.88,153.61 1520.5,148.44C1516.86,141.84 1513.92,134.87 1510,128.45C1506.9,133.4 1504.62,138.79 1501.87,143.93Z" style="fill:rgb(99,101,102);fill-rule:nonzero;"/>
        </g>
        <g transform="matrix(1.38611,0,0,1.41268,-34.8929,993.595)">
            <path d="M1664.26,113.02C1664.47,103.7 1663.86,94.34 1664.56,85.05C1692.36,85.56 1720.17,85.11 1747.98,85.26C1767.71,85.56 1787.8,83.81 1807.11,88.94C1822.93,92.96 1838.85,100.82 1848.05,114.84C1854.35,124.27 1856.83,135.8 1856.49,147.04C1856.47,159.84 1852.92,172.85 1845.29,183.24C1836.73,194.98 1823.4,202.48 1809.47,205.92C1813.9,214.48 1819.39,222.45 1824.23,230.78C1835.54,249.12 1846.33,267.8 1858,285.91L1858,286.86C1839.11,286.48 1820.2,286.99 1801.32,286.61C1799.36,284.79 1798.33,282.22 1796.89,280.02C1781.83,255.38 1767.08,230.51 1751.79,206.03C1741.79,205.37 1731.68,205.85 1721.64,205.82C1721.4,232.77 1721.5,259.73 1721.59,286.68C1702.48,286.8 1683.36,286.7 1664.24,286.74C1664.29,228.83 1664.25,170.93 1664.26,113.02M1722.12,127.34L1721.6,127.91C1721.6,139.87 1721.17,151.89 1721.82,163.83C1737.88,163.63 1753.96,163.79 1770.03,163.75C1777.56,163.88 1785.52,163.03 1792.02,158.93C1796.97,155.82 1799.9,149.9 1799.23,144.07C1798.97,138.65 1795.27,133.97 1790.64,131.46C1784.06,127.89 1776.4,127.25 1769.06,127.24C1753.41,127.35 1737.76,127.12 1722.12,127.34Z" style="fill:rgb(99,101,102);fill-rule:nonzero;"/>
        </g>
    </g>
</svg>
