<?xml version="1.0" encoding="UTF-8" standalone="no"?>
<!DOCTYPE svg PUBLIC "-//W3C//DTD SVG 1.1//EN" "http://www.w3.org/Graphics/SVG/1.1/DTD/svg11.dtd">
<svg width="100%" height="100%" viewBox="0 0 300 150" version="1.1" xmlns="http://www.w3.org/2000/svg" xmlns:xlink="http://www.w3.org/1999/xlink" xml:space="preserve" xmlns:serif="http://www.serif.com/" style="fill-rule:evenodd;clip-rule:evenodd;stroke-linejoin:round;stroke-miterlimit:2;">
    <g transform="matrix(0.0657276,0,0,0.0657276,65.3774,-9.962)">
        <path d="M687.125,1761.87C969.814,1761.87 1199,1532.69 1199,1250C1199,967.311 969.827,738.135 687.125,738.135C404.423,738.135 175.247,967.311 175.247,1250C175.247,1532.69 404.423,1761.87 687.125,1761.87Z" style="fill:rgb(167,11,82);fill-rule:nonzero;"/>
    </g>
    <g transform="matrix(0.0657276,0,0,0.0657276,65.3774,-9.962)">
        <path d="M811.765,1430.14L705.763,1430.14L705.763,1029.5L666.451,1029.5L666.451,1469.67L705.763,1469.67L705.763,1469.41L811.765,1469.41L811.765,1430.14Z" style="fill:white;fill-rule:nonzero;"/>
    </g>
    <g transform="matrix(0.0657276,0,0,0.0657276,65.3774,-9.962)">
        <path d="M1076.35,1266.39L812.387,1266.39L812.387,1227.08L1115.01,1227.08C1115.41,1234.68 1115.61,1242.3 1115.61,1250C1115.61,1486.66 923.759,1678.5 687.112,1678.5C450.466,1678.5 258.617,1486.66 258.617,1250C258.617,1013.34 450.466,821.505 687.125,821.505C693.364,821.505 699.589,821.635 705.776,821.907L705.724,860.92C699.528,860.634 693.327,860.491 687.125,860.492C472.009,860.492 297.604,1034.88 297.604,1250C297.604,1465.13 471.996,1639.51 687.125,1639.51C896.379,1639.51 1067.09,1474.51 1076.24,1267.5L1076.35,1266.39Z" style="fill:white;fill-rule:nonzero;"/>
    </g>
    <g transform="matrix(0.0657276,0,0,0.0657276,65.3774,-9.962)">
        <path d="M527.286,1148.1L527.286,1148.1C560.317,1148.1 587.498,1120.92 587.498,1087.88C587.498,1054.85 560.317,1027.67 527.286,1027.67L527.286,1027.67C494.254,1027.67 467.074,1054.85 467.074,1087.88C467.074,1120.92 494.254,1148.1 527.286,1148.1Z" style="fill:white;fill-rule:nonzero;"/>
    </g>
    <g transform="matrix(0.0657276,0,0,0.0657276,65.3774,-9.962)">
        <path d="M1453.17,1501.25L1818.93,1501.25L1818.93,1390.79L1587.46,1390.79L1587.46,995.235L1453.17,995.235L1453.17,1501.25ZM2260.85,1030.86C2218.92,998.374 2164.93,981.902 2100.49,981.902C2023.98,981.902 1960.06,1005.4 1915.61,1049.81C1869.22,1096.23 1844.65,1164.61 1844.65,1247.55C1844.65,1336.16 1870.62,1410.93 1917.76,1458.04C1954.78,1495.04 2004.09,1514.56 2060.52,1514.56C2184.39,1514.56 2212.89,1440.31 2212.89,1440.31L2212.89,1501.22L2324.75,1501.22L2324.75,1215.45L2102.07,1215.45L2102.07,1304.88L2204.56,1304.88C2204.56,1304.88 2205.55,1417.47 2099.77,1417.47C2072.89,1417.47 2048.95,1407.71 2030.53,1389.3C2001.83,1360.62 1986.66,1312.29 1986.66,1249.65C1986.66,1145.89 2027.9,1083.95 2096.95,1083.95C2140.09,1083.95 2172.51,1110.43 2180.83,1150.57L2323.29,1150.57C2315.91,1092.25 2299.9,1061.85 2260.85,1030.86Z" style="fill:rgb(128,129,131);fill-rule:nonzero;"/>
    </g>
</svg>
