<?xml version="1.0" encoding="UTF-8" standalone="no"?>
<!DOCTYPE svg PUBLIC "-//W3C//DTD SVG 1.1//EN" "http://www.w3.org/Graphics/SVG/1.1/DTD/svg11.dtd">
<svg width="100%" height="100%" viewBox="0 0 300 150" version="1.1" xmlns="http://www.w3.org/2000/svg" xmlns:xlink="http://www.w3.org/1999/xlink" xml:space="preserve" xmlns:serif="http://www.serif.com/" style="fill-rule:evenodd;clip-rule:evenodd;stroke-linejoin:round;stroke-miterlimit:2;">
    <g transform="matrix(0.498988,0,0,0.498988,33.0064,35.3646)">
        <path d="M35.15,125.63C35.27,92.67 35.07,59.71 35.25,26.75C164.17,26.91 293.1,26.93 422.03,26.82C422.68,26.88 423.98,27 424.63,27.06C424.78,59.97 424.63,92.89 424.71,125.81C301.14,125.8 177.58,125.8 54.02,125.82C48.67,125.94 43.31,125.5 37.98,126.1C37.27,125.98 35.86,125.75 35.15,125.63M54.58,46.19C54.59,66.3 54.59,86.41 54.58,106.52C171.51,106.58 288.43,106.55 405.36,106.53C405.34,86.43 405.37,66.32 405.35,46.21C288.43,46.13 171.5,46.17 54.58,46.19Z" style="fill:rgb(1,109,50);fill-rule:nonzero;"/>
    </g>
    <g transform="matrix(0.498988,0,0,0.498988,33.0064,35.3646)">
        <path d="M66.72,59.82C70,59.8 73.28,59.8 76.56,59.79C76.68,68.65 76.58,77.51 76.63,86.37C90.2,86.39 103.78,86.34 117.35,86.41C117.36,88.67 117.36,90.93 117.37,93.19C102.91,93.21 88.45,93.22 73.98,93.2C71.21,93.19 67.05,92.74 66.82,89.18C66.57,79.4 66.8,69.61 66.72,59.82Z" style="fill:rgb(1,109,50);fill-rule:nonzero;"/>
    </g>
    <g transform="matrix(0.498988,0,0,0.498988,33.0064,35.3646)">
        <path d="M120.17,59.77C136.72,59.85 153.27,59.75 169.82,59.83C169.83,62.11 169.84,64.4 169.84,66.69C156.7,66.74 143.57,66.71 130.43,66.71C130.4,68.72 130.38,70.73 130.36,72.74C140.35,72.88 150.34,72.74 160.33,72.82C160.37,75.09 160.39,77.36 160.45,79.63C150.44,79.91 140.43,79.66 130.41,79.74C130.4,81.76 130.38,83.78 130.37,85.8C143.99,85.95 157.62,85.68 171.24,85.92C171.97,88.19 171.44,90.79 171.52,93.19C154.44,93.26 137.37,93.09 120.3,93.28C119.51,88.23 120.05,83.1 119.9,78.02C120.03,71.94 119.63,65.84 120.17,59.77Z" style="fill:rgb(1,109,50);fill-rule:nonzero;"/>
    </g>
    <g transform="matrix(0.498988,0,0,0.498988,33.0064,35.3646)">
        <path d="M174.18,59.79C189.45,59.83 204.73,59.76 220,59.82C222.64,59.52 225.56,61.13 225.69,64.01C225.62,68.22 227.06,73.39 223.48,76.59C227.12,79.3 225.5,84.22 225.78,88.07C226.05,90.77 223.86,93.38 221.05,93.14C205.43,93.28 189.8,93.18 174.18,93.18C174.16,82.05 174.16,70.92 174.18,59.79M184.15,66.71C184.13,68.73 184.12,70.75 184.12,72.77C194.68,72.83 205.24,72.8 215.81,72.78C215.81,70.76 215.79,68.73 215.79,66.71L184.15,66.71M184.17,79.74C184.15,81.94 184.14,84.15 184.13,86.35C194.69,86.4 205.24,86.36 215.8,86.37C215.8,84.16 215.79,81.96 215.79,79.75C205.25,79.72 194.71,79.76 184.17,79.74Z" style="fill:rgb(1,109,50);fill-rule:nonzero;"/>
    </g>
    <g transform="matrix(0.498988,0,0,0.498988,33.0064,35.3646)">
        <path d="M228.44,92.81C228.5,81.76 228.42,70.7 228.48,59.65C245.12,59.63 261.75,59.65 278.39,59.63C278.4,61.93 278.41,64.22 278.43,66.52C265.21,66.61 251.99,66.46 238.77,66.59C238.79,68.58 238.7,70.58 239.06,72.55C248.96,72.84 258.87,72.57 268.78,72.67C268.77,74.95 268.78,77.23 268.78,79.5C258.8,79.56 248.81,79.45 238.82,79.57C238.82,81.57 238.81,83.58 238.81,85.58C252.56,85.68 266.32,85.58 280.07,85.65C280.08,88.04 280.09,90.43 280.1,92.82C262.88,92.84 245.66,92.86 228.44,92.81Z" style="fill:rgb(1,109,50);fill-rule:nonzero;"/>
    </g>
    <g transform="matrix(0.498988,0,0,0.498988,33.0064,35.3646)">
        <path d="M282.67,59.8C297.8,59.8 312.93,59.8 328.06,59.79C330.31,59.68 333.26,60.25 333.87,62.82C334.67,66.81 334.21,70.97 334.24,75.02C334.32,76.72 333.04,78 332.21,79.34C335.74,83.08 333.82,88.57 334.26,93.17C330.93,93.23 327.6,93.23 324.27,93.11C324.31,88.65 324.29,84.19 324.3,79.74C313.75,79.75 303.21,79.74 292.67,79.74C292.65,84.2 292.66,88.66 292.67,93.12C289.34,93.22 286.01,93.22 282.69,93.18C282.65,82.06 282.68,70.93 282.67,59.8M292.54,66.71C292.54,68.75 292.57,70.78 292.59,72.82C303.15,72.75 313.71,72.85 324.28,72.77C324.27,70.75 324.26,68.73 324.26,66.72C313.68,66.71 303.11,66.72 292.54,66.71Z" style="fill:rgb(1,109,50);fill-rule:nonzero;"/>
    </g>
    <g transform="matrix(0.498988,0,0,0.498988,33.0064,35.3646)">
        <path d="M337.15,63.96C337.25,61.52 339.61,59.7 341.99,59.84C359,59.72 376.01,59.86 393.02,59.78C393.1,62.05 393.24,64.31 393.26,66.59C377.98,66.87 362.69,66.64 347.41,66.7C347.33,73.27 347.38,79.83 347.42,86.39C359.4,86.36 371.38,86.39 383.36,86.37C383.34,84.17 383.34,81.97 383.33,79.76C374.99,79.71 366.64,79.77 358.29,79.72C358.28,77.57 358.28,75.42 358.28,73.27C369.93,73.28 381.57,73.26 393.22,73.27C392.86,79.67 394.05,86.23 392.38,92.5C390.59,92.88 388.79,93.24 386.97,93.21C372.31,93.19 357.64,93.22 342.98,93.2C341.11,93.1 338.78,93.1 337.65,91.32C336.86,89.32 337.02,87.11 336.96,85C337.12,77.99 336.83,70.97 337.15,63.96Z" style="fill:rgb(1,109,50);fill-rule:nonzero;"/>
    </g>
</svg>
