<?xml version="1.0" encoding="UTF-8" standalone="no"?>
<!DOCTYPE svg PUBLIC "-//W3C//DTD SVG 1.1//EN" "http://www.w3.org/Graphics/SVG/1.1/DTD/svg11.dtd">
<svg width="100%" height="100%" viewBox="0 0 300 150" version="1.1" xmlns="http://www.w3.org/2000/svg" xmlns:xlink="http://www.w3.org/1999/xlink" xml:space="preserve" xmlns:serif="http://www.serif.com/" style="fill-rule:evenodd;clip-rule:evenodd;stroke-linejoin:round;stroke-miterlimit:2;">
    <g transform="matrix(0.216662,0,0,0.216662,17.7659,50.2195)">
        <path d="M170.41,19.83C181.37,13.84 193.46,9.61 205.96,8.57C197.33,11.54 189.25,15.93 181.69,21.02C177.83,20.56 174.33,23.38 170.49,22.24C170.47,21.64 170.43,20.43 170.41,19.83Z" style="fill:rgb(235,92,4);fill-rule:nonzero;"/>
    </g>
    <g transform="matrix(0.216662,0,0,0.216662,17.7659,50.2195)">
        <path d="M205.81,22.94C213.56,19.78 221.53,16.99 229.89,16.01C230.48,16.61 231.07,17.21 231.67,17.81C231.32,18.43 230.97,19.05 230.63,19.67C235.53,20.72 239.12,24.35 243.08,27.14C244.57,28.17 245.03,30.05 245.83,31.59C240.17,34.38 234.88,37.84 229.73,41.44C224.24,35.81 218.21,30.72 211.85,26.11C210.2,24.87 208.36,23.93 206.44,23.2L205.81,22.94Z" style="fill:rgb(232,68,10);fill-rule:nonzero;"/>
    </g>
    <g transform="matrix(0.216662,0,0,0.216662,17.7659,50.2195)">
        <path d="M229.89,16.01C233.79,15.57 237.73,15.39 241.67,15.56C244.16,18.25 247.11,20.55 250.67,21.63C249.91,22.24 249.15,22.85 248.4,23.46C251.18,24.46 253.88,25.7 256.33,27.37C252.86,28.85 249.23,29.94 245.83,31.59C245.03,30.05 244.57,28.17 243.08,27.14C239.12,24.35 235.53,20.72 230.63,19.67C230.97,19.05 231.32,18.43 231.67,17.81C231.07,17.21 230.48,16.61 229.89,16.01Z" style="fill:rgb(230,47,13);fill-rule:nonzero;"/>
    </g>
    <g transform="matrix(0.216662,0,0,0.216662,17.7659,50.2195)">
        <path d="M241.67,15.56C252.56,15.74 262.48,20.63 272.4,24.56C271.32,25.79 269.56,25.55 268.11,25.79C264.23,26.12 260.37,26.62 256.59,27.53L256.33,27.37C253.88,25.7 251.18,24.46 248.4,23.46C249.15,22.85 249.91,22.24 250.67,21.63C247.11,20.55 244.16,18.25 241.67,15.56Z" style="fill:rgb(229,29,12);fill-rule:nonzero;"/>
    </g>
    <g transform="matrix(0.216662,0,0,0.216662,17.7659,50.2195)">
        <path d="M150.96,34.4C156.6,28.55 163.49,24.02 170.41,19.83C170.43,20.43 170.47,21.64 170.49,22.24C174.33,23.38 177.83,20.56 181.69,21.02C171.78,27.7 163.22,36.04 154.5,44.13C152.86,41.04 155.21,38.15 156.56,35.48C154.69,35.13 152.83,34.77 150.96,34.4Z" style="fill:rgb(240,117,0);fill-rule:nonzero;"/>
    </g>
    <g transform="matrix(0.216662,0,0,0.216662,17.7659,50.2195)">
        <path d="M197.56,27.6C200.42,25.96 203.18,23.89 206.44,23.2C208.36,23.93 210.2,24.87 211.85,26.11C218.21,30.72 224.24,35.81 229.73,41.44C222.97,46.53 216.7,52.2 210.43,57.85C209.96,57.15 209.5,56.45 209.04,55.75C208.29,55.92 207.56,56.09 206.82,56.26C205.45,54.66 204.26,52.82 202.5,51.62C200.12,50.24 197.38,49.55 195.16,47.89C192.44,45.91 191.07,42.68 188.72,40.35C187.11,39.28 185.08,39.08 183.27,38.49C187.54,34.27 192.56,30.88 197.56,27.6Z" style="fill:rgb(235,95,4);fill-rule:nonzero;"/>
    </g>
    <g transform="matrix(0.216662,0,0,0.216662,17.7659,50.2195)">
        <path d="M150.96,34.4C152.83,34.77 154.69,35.13 156.56,35.48C155.21,38.15 152.86,41.04 154.5,44.13L154.58,44.45C145.12,53.59 136.41,63.49 126.75,72.43C126.78,68.69 128.83,65.45 130.37,62.17C135.37,51.74 142.58,42.53 150.69,34.34L150.96,34.4Z" style="fill:rgb(241,133,0);fill-rule:nonzero;"/>
    </g>
    <g transform="matrix(0.216662,0,0,0.216662,17.7659,50.2195)">
        <path d="M182.9,38.39L183.27,38.49C185.08,39.08 187.11,39.28 188.72,40.35C191.07,42.68 192.44,45.91 195.16,47.89C197.38,49.55 200.12,50.24 202.5,51.62C204.26,52.82 205.45,54.66 206.82,56.26C207.56,56.09 208.29,55.92 209.04,55.75C209.5,56.45 209.96,57.15 210.43,57.85C199.27,69.1 188.44,80.67 177.4,92.04C175.51,90.52 173.36,89.38 171.04,88.69C171.09,87.94 171.17,87.19 171.17,86.44C166.5,81.2 158.74,80.15 154.42,74.53C153.39,73.36 153.41,71.71 153.06,70.27C152.11,70.29 151.16,70.31 150.22,70.36C161.26,59.86 171.76,48.79 182.9,38.39Z" style="fill:rgb(241,128,0);fill-rule:nonzero;"/>
    </g>
    <g transform="matrix(0.216662,0,0,0.216662,17.7659,50.2195)">
        <path d="M243.9,49.91C253.63,43.67 265.48,39.28 277.15,41.41C286.83,43.28 294.08,50.76 299.75,58.34C302.53,62.54 305.64,66.8 306.43,71.9C302.25,71.63 298.08,70.51 293.87,71.18C289.71,71.6 285.78,73.15 281.94,74.74C276.03,70.33 268.64,67.92 263.8,62.16C260.24,57.98 255.31,55.41 251.12,51.97C249.14,50.21 246.39,50.12 243.9,49.91Z" style="fill:rgb(0,90,168);fill-rule:nonzero;"/>
    </g>
    <g transform="matrix(0.216662,0,0,0.216662,17.7659,50.2195)">
        <path d="M226.77,62.92C232.17,58.22 237.63,53.42 243.9,49.91C246.39,50.12 249.14,50.21 251.12,51.97C255.31,55.41 260.24,57.98 263.8,62.16C268.64,67.92 276.03,70.33 281.94,74.74C270.83,79.82 261.8,88.22 253.21,96.7C254.03,94.74 254.79,92.76 255.57,90.79C253.71,91.76 251.86,92.72 250.01,93.69C250.96,91.78 251.91,89.86 252.85,87.94C251.37,88.1 249.89,88.27 248.41,88.43C248.1,87.1 247.8,85.77 247.49,84.44C244.72,83.02 241.95,81.44 240.07,78.88C238.28,76.38 235.09,75.82 232.62,74.26C231.16,71.93 231.76,69.02 231.86,66.43C230.65,67.71 229.43,68.97 228.19,70.22C228.74,68.59 229.87,67.04 229.86,65.29C228.89,64.42 227.81,63.68 226.77,62.92Z" style="fill:rgb(0,108,183);fill-rule:nonzero;"/>
    </g>
    <g transform="matrix(0.216662,0,0,0.216662,17.7659,50.2195)">
        <path d="M210.41,79.35C215.78,73.79 220.96,68.03 226.77,62.92C227.81,63.68 228.89,64.42 229.86,65.29C229.87,67.04 228.74,68.59 228.19,70.22C229.43,68.97 230.65,67.71 231.86,66.43C231.76,69.02 231.16,71.93 232.62,74.26C235.09,75.82 238.28,76.38 240.07,78.88C241.95,81.44 244.72,83.02 247.49,84.44C247.8,85.77 248.1,87.1 248.41,88.43C249.89,88.27 251.37,88.1 252.85,87.94C251.91,89.86 250.96,91.78 250.01,93.69C251.86,92.72 253.71,91.76 255.57,90.79C254.79,92.76 254.03,94.74 253.21,96.7C249.95,100.63 246.23,104.18 242.88,108.05C237.12,105.17 232.89,100.09 227.32,96.9C224.12,95.32 223.14,91.65 220.71,89.31C218.83,88.27 216.63,88.11 214.57,87.62C214.14,86.53 213.72,85.45 213.31,84.37C212.31,85.53 211.32,86.71 210.33,87.88C210.11,87.45 209.67,86.59 209.45,86.16C210.66,84.07 213.09,81.42 210.41,79.35Z" style="fill:rgb(0,124,198);fill-rule:nonzero;"/>
    </g>
    <g transform="matrix(0.216662,0,0,0.216662,17.7659,50.2195)">
        <path d="M133.26,85.25C139.23,80.67 144.44,75.11 150.22,70.36C151.16,70.31 152.11,70.29 153.06,70.27C153.41,71.71 153.39,73.36 154.42,74.53C158.74,80.15 166.5,81.2 171.17,86.44C171.17,87.19 171.09,87.94 171.04,88.69C173.36,89.38 175.51,90.52 177.4,92.04C172.59,97.35 167.45,102.37 162.2,107.24C156.87,112.07 150.57,115.64 144.62,119.65C139.9,122.86 133.63,123.76 128.26,121.73C123.27,119.68 121.14,114.02 120.89,108.98C120.55,102.71 121.03,96.41 121.79,90.19C122.14,89.87 122.85,89.24 123.2,88.92C126.72,88.23 130.33,87.46 133.26,85.25Z" style="fill:rgb(244,148,0);fill-rule:nonzero;"/>
    </g>
    <g transform="matrix(0.216662,0,0,0.216662,17.7659,50.2195)">
        <path d="M370.53,71.85C375.36,69.59 381.58,73.64 381.28,78.99C381.4,92.64 381.19,106.29 381.37,119.93C381.37,123.34 384.63,125.99 387.96,125.68C419.64,125.74 451.33,125.64 483.01,125.72C486.99,125.66 490.46,129.1 490.53,133.06C490.87,137.21 487.3,141.3 483.04,141.09C451.04,141.15 419.03,141.14 387.02,141.09C375.92,141.01 365.85,131.18 365.97,119.99C365.89,106.65 365.97,93.32 365.93,79.98C365.67,76.66 367.35,73.14 370.53,71.85Z" style="fill:rgb(1,78,158);fill-rule:nonzero;"/>
    </g>
    <g transform="matrix(0.216662,0,0,0.216662,17.7659,50.2195)">
        <path d="M528.36,71.45C552.89,70.99 577.45,71.4 602,71.24C607.66,70.99 613.45,72.57 617.89,76.17C631.44,86.46 635.65,106.45 628.85,121.79C625.63,129.29 619.93,136.02 612.34,139.31C608.47,141.03 604.19,141.22 600.03,141.14C576.69,141.08 553.34,141.17 530,141.1C522.52,141.02 515.79,136.66 511.17,131.02C502.91,120.87 500.22,106.46 504.39,94.03C507.8,83.2 516.59,72.93 528.36,71.45M528.46,87.64C519.04,90.79 515.99,102.06 517.74,110.95C518.53,118.96 525.73,125.93 533.94,125.63C555.3,125.79 576.67,125.64 598.04,125.71C602.1,125.81 606.39,125.2 609.77,122.78C614,119.98 616.39,115.05 616.89,110.1C617.7,103.54 616.81,95.97 611.73,91.23C608.64,88.17 604.32,86.68 600.02,86.7C579,86.65 557.97,86.71 536.95,86.67C534.1,86.68 531.19,86.76 528.46,87.64Z" style="fill:rgb(1,78,158);fill-rule:nonzero;"/>
    </g>
    <g transform="matrix(0.216662,0,0,0.216662,17.7659,50.2195)">
        <path d="M648.01,90.96C648.22,80.92 656.77,71.5 666.99,71.27C695.02,71.24 723.05,71.24 751.08,71.27C762.76,71.23 773.7,82.05 772.38,93.94C771.71,100.04 763.01,102.51 759.14,97.8C756.38,95.12 758.12,90.28 754.89,87.98C752.6,86.35 749.69,86.69 747.05,86.66C721.04,86.71 695.03,86.66 669.02,86.69C666.76,86.53 663.7,87.46 663.42,90.09C663.13,92.87 663.34,95.67 663.4,98.47C687,98.92 711.15,96.54 734.21,102.82C749.54,106.85 763.33,116.67 771.65,130.21C774.38,134.9 770.36,141.26 765.04,141.16C760.09,141.28 757.71,136.32 754.67,133.29C744.53,121.68 729.34,115.33 714.1,114.51C697.2,113.57 680.25,113.99 663.33,114.05C663.24,120.7 663.46,127.35 663.22,133.99C663.12,138.52 658.26,142.06 653.91,140.95C650.3,140.26 647.67,136.69 647.96,133.03C647.95,119.01 647.86,104.98 648.01,90.96Z" style="fill:rgb(1,78,158);fill-rule:nonzero;"/>
    </g>
    <g transform="matrix(0.216662,0,0,0.216662,17.7659,50.2195)">
        <path d="M793.48,71.66C798.29,69.78 803.93,73.75 803.72,78.92C803.85,96.27 803.7,113.62 803.79,130.97C803.79,133.65 803.77,136.68 801.69,138.67C798.68,142.15 792.55,141.91 789.92,138.1C788.28,136.13 788.38,133.45 788.35,131.04C788.43,113.65 788.35,96.27 788.39,78.89C788.38,75.74 790.38,72.56 793.48,71.66Z" style="fill:rgb(1,78,158);fill-rule:nonzero;"/>
    </g>
    <g transform="matrix(0.216662,0,0,0.216662,17.7659,50.2195)">
        <path d="M845.38,71.46C870.57,70.99 895.79,71.38 921,71.26C930.02,71.1 937.9,77.11 942.7,84.33C951.42,97.34 951.39,115.52 942.4,128.38C937.59,135.44 929.74,141.05 920.95,141.1C896.63,141.16 872.31,141.11 848,141.12C838.1,141.3 829.57,134.31 824.92,126.03C816.82,112.31 818.14,93.7 828.39,81.44C832.72,76.39 838.62,72.22 845.38,71.46M845.43,87.72C838.32,90.2 834.44,97.83 834.52,105.05C834.16,111.87 836.34,119.48 842.5,123.21C845.87,125.47 850.05,125.75 854,125.7C875.02,125.67 896.04,125.74 917.07,125.67C921.45,125.72 925.93,124.2 929.03,121.01C934.05,116.2 934.91,108.59 934.05,102.03C933.46,96.73 930.61,91.52 925.83,88.93C921.69,86.36 916.64,86.66 911.98,86.68C893.96,86.69 875.94,86.69 857.92,86.68C853.75,86.7 849.44,86.37 845.43,87.72Z" style="fill:rgb(1,78,158);fill-rule:nonzero;"/>
    </g>
    <g transform="matrix(0.216662,0,0,0.216662,17.7659,50.2195)">
        <path d="M962.11,75.14C963.55,72.23 966.88,70.99 969.98,71.24C1006.31,71.32 1042.65,71.15 1078.98,71.32C1084.19,71.33 1087.66,77.7 1085.32,82.22C1084.03,84.96 1081.09,86.78 1078.06,86.68C1068.39,86.69 1058.71,86.69 1049.03,86.66C1044.93,86.62 1040.55,87.43 1037.44,90.29C1033.03,93.8 1031.55,99.64 1031.32,105.02C1031.11,114.68 1031.43,124.34 1031.17,134C1031.18,138.6 1026.23,142.08 1021.88,140.96C1018.68,140.33 1016.04,137.38 1016.02,134.08C1015.82,124.73 1016,115.37 1015.93,106.01C1015.87,99.27 1017.76,92.64 1020.87,86.69C1003.34,86.63 985.81,86.78 968.29,86.62C962.73,86.64 959.33,79.75 962.11,75.14Z" style="fill:rgb(1,78,158);fill-rule:nonzero;"/>
    </g>
    <g transform="matrix(0.216662,0,0,0.216662,17.7659,50.2195)">
        <path d="M210.41,79.35C213.09,81.42 210.66,84.07 209.45,86.16C209.67,86.59 210.11,87.45 210.33,87.88C211.32,86.71 212.31,85.53 213.31,84.37C213.72,85.45 214.14,86.53 214.57,87.62C216.63,88.11 218.83,88.27 220.71,89.31C223.14,91.65 224.12,95.32 227.32,96.9C232.89,100.09 237.12,105.17 242.88,108.05C236.29,115.54 229.67,123.01 222.82,130.26C221.86,129.51 220.9,128.76 219.95,128.01C218.84,128.43 217.74,128.85 216.63,129.26C213.17,122.73 206.8,118.47 202.02,112.97C199.82,110.03 195.98,109.74 192.64,109.2C190.17,108.74 188.08,110.84 185.63,110.67C184.4,110.31 183.66,109.05 182.68,108.3C192.26,98.97 201.12,88.95 210.41,79.35Z" style="fill:rgb(0,139,211);fill-rule:nonzero;"/>
    </g>
    <g transform="matrix(0.216662,0,0,0.216662,17.7659,50.2195)">
        <path d="M268.42,103.99C278.22,96.51 288.33,87.99 300.92,86.09C304.85,85.26 309.66,86.84 310.98,90.97C313.12,97.2 312.82,104.03 312.25,110.5C310.66,114.81 306.82,118.22 302.45,119.58C298.42,120.84 295.12,123.55 291.88,126.14C289.76,122.4 287.87,118.13 283.73,116.21C279.2,113.96 276.92,107.91 271.23,108.21C271.43,107.02 271.63,105.84 271.83,104.66C270.69,104.43 269.56,104.21 268.42,103.99Z" style="fill:rgb(0,156,60);fill-rule:nonzero;"/>
    </g>
    <g transform="matrix(0.216662,0,0,0.216662,17.7659,50.2195)">
        <path d="M258.05,113.22C261.81,110.49 264.78,106.86 268.42,103.99C269.56,104.21 270.69,104.43 271.83,104.66C271.63,105.84 271.43,107.02 271.23,108.21C276.92,107.91 279.2,113.96 283.73,116.21C287.87,118.13 289.76,122.4 291.88,126.14C289.01,128.84 286.24,131.66 283.52,134.52C281.05,132.29 278.35,130.34 275.97,128.01C272.86,124.74 268.71,122.7 265.72,119.3C263.71,116.85 260.05,116.58 258.42,113.72L258.05,113.22Z" style="fill:rgb(23,164,56);fill-rule:nonzero;"/>
    </g>
    <g transform="matrix(0.216662,0,0,0.216662,17.7659,50.2195)">
        <path d="M185.63,110.67C188.08,110.84 190.17,108.74 192.64,109.2C195.98,109.74 199.82,110.03 202.02,112.97C206.8,118.47 213.17,122.73 216.63,129.26C217.74,128.85 218.84,128.43 219.95,128.01C220.9,128.76 221.86,129.51 222.82,130.26C214.01,139.7 204.78,148.87 194.41,156.59C194.46,155.95 194.57,154.66 194.62,154.02C190.7,155.3 187.05,157.31 184.06,160.18C184.97,158.29 185.87,156.39 186.78,154.5C181.68,150.02 174.48,152.7 168.38,151.83C168.15,149.31 167.91,146.78 167.68,144.26C165.22,144.04 162.76,143.83 160.31,143.61C159.88,140.25 160.76,136.22 158.1,133.6C157.81,134.22 157.23,135.46 156.93,136.08C155.31,135.17 153.69,134.23 152.1,133.27C154.87,131.75 157.74,130.31 160.16,128.25C167.91,121.87 175.54,115.35 182.68,108.3C183.66,109.05 184.4,110.31 185.63,110.67Z" style="fill:rgb(0,147,217);fill-rule:nonzero;"/>
    </g>
    <g transform="matrix(0.216662,0,0,0.216662,17.7659,50.2195)">
        <path d="M245.07,127.35C249.42,122.73 253.45,117.68 258.42,113.72C260.05,116.58 263.71,116.85 265.72,119.3C268.71,122.7 272.86,124.74 275.97,128.01C278.35,130.34 281.05,132.29 283.52,134.52C279.87,138.78 276.15,142.98 272.55,147.27C269.65,145.49 266.02,144.86 263.67,142.26C261.38,139.87 258.14,138.67 255.97,136.14C252.86,132.58 248.34,130.74 245.07,127.35Z" style="fill:rgb(54,169,52);fill-rule:nonzero;"/>
    </g>
    <g transform="matrix(0.216662,0,0,0.216662,17.7659,50.2195)">
        <path d="M237.67,135.48C240.24,132.87 242.63,130.09 245.07,127.35C248.34,130.74 252.86,132.58 255.97,136.14C258.14,138.67 261.38,139.87 263.67,142.26C266.02,144.86 269.65,145.49 272.55,147.27C269.34,151.15 265.71,154.67 262.76,158.76L261.91,158.41C259.25,157.72 258.09,155.2 256.95,152.97C250.14,151.26 246,145.25 240.44,141.46C238.29,140.24 238.25,137.59 237.67,135.48Z" style="fill:rgb(84,176,47);fill-rule:nonzero;"/>
    </g>
    <g transform="matrix(0.216662,0,0,0.216662,17.7659,50.2195)">
        <path d="M128.08,136.69C136.17,136.36 144.51,136.53 152.1,133.27C153.69,134.23 155.31,135.17 156.93,136.08C157.23,135.46 157.81,134.22 158.1,133.6C160.76,136.22 159.88,140.25 160.31,143.61C162.76,143.83 165.22,144.04 167.68,144.26C167.91,146.78 168.15,149.31 168.38,151.83C174.48,152.7 181.68,150.02 186.78,154.5C185.87,156.39 184.97,158.29 184.06,160.18C187.05,157.31 190.7,155.3 194.62,154.02C194.57,154.66 194.46,155.95 194.41,156.59C185.88,162.88 176.42,168.46 165.91,170.52C156.83,172.24 147.14,168.91 140.78,162.27C135.08,156.86 132.08,149.45 128.78,142.48C127.84,140.69 127.95,138.65 128.08,136.69Z" style="fill:rgb(0,154,223);fill-rule:nonzero;"/>
    </g>
    <g transform="matrix(0.216662,0,0,0.216662,17.7659,50.2195)">
        <path d="M221.13,153.14C226.66,147.26 232.43,141.62 237.67,135.48C238.25,137.59 238.29,140.24 240.44,141.46C246,145.25 250.14,151.26 256.95,152.97C258.09,155.2 259.25,157.72 261.91,158.41L262.72,158.79C257.78,164.5 252.6,169.99 246.92,174.96L246.71,174.02C246.58,173.43 246.32,172.26 246.2,171.68C244.33,172.37 242.79,173.63 241.47,175.08C241.61,173.03 241.7,170.97 241.77,168.91C237.68,168.41 236.08,164.11 232.68,162.35C228.41,159.81 225.25,155.88 221.13,153.14Z" style="fill:rgb(110,181,41);fill-rule:nonzero;"/>
    </g>
    <g transform="matrix(0.216662,0,0,0.216662,17.7659,50.2195)">
        <path d="M290.73,148.94C295.34,143.97 300.44,139.45 306.05,135.64C305.15,143.32 301.61,150.38 297.48,156.81C295.83,156.2 294.19,155.6 292.55,155C291.93,152.98 291.32,150.96 290.73,148.94Z" style="fill:rgb(36,167,54);fill-rule:nonzero;"/>
    </g>
    <g transform="matrix(0.216662,0,0,0.216662,17.7659,50.2195)">
        <path d="M279.4,162.25C282.9,157.59 286.61,153.07 290.73,148.94C291.32,150.96 291.93,152.98 292.55,155C294.19,155.6 295.83,156.2 297.48,156.81C294.53,161.16 291.48,165.5 287.77,169.24C287.69,168.27 287.57,167.32 287.47,166.37C285.41,166.45 283.34,166.29 281.56,165.17C281.96,164.3 282.37,163.43 282.78,162.57C281.65,162.46 280.52,162.35 279.4,162.25Z" style="fill:rgb(66,173,50);fill-rule:nonzero;"/>
    </g>
    <g transform="matrix(0.216662,0,0,0.216662,17.7659,50.2195)">
        <path d="M220.99,153.04L221.13,153.14C225.25,155.88 228.41,159.81 232.68,162.35C236.08,164.11 237.68,168.41 241.77,168.91C241.7,170.97 241.61,173.03 241.47,175.08C242.79,173.63 244.33,172.37 246.2,171.68C246.32,172.26 246.58,173.43 246.71,174.02L246.94,175.16C239.49,181.17 231.51,186.52 222.84,190.63L222.63,190.34C222.21,189.76 221.37,188.62 220.95,188.04C219.2,188.5 217.48,189.27 215.65,189.24C212.54,187.97 211.11,184.63 209.26,182.06C208.48,182.56 207.7,183.06 206.93,183.56C203.74,179.94 199.13,177.25 197.83,172.31C206.29,166.84 213.96,160.23 220.99,153.04Z" style="fill:rgb(134,189,33);fill-rule:nonzero;"/>
    </g>
    <g transform="matrix(0.216662,0,0,0.216662,17.7659,50.2195)">
        <path d="M270.75,173.26C273.61,169.57 276.56,165.96 279.4,162.25C280.52,162.35 281.65,162.46 282.78,162.57C282.37,163.43 281.96,164.3 281.56,165.17C283.34,166.29 285.41,166.45 287.47,166.37C287.57,167.32 287.69,168.27 287.77,169.24C285.65,172.9 281.81,175.32 279,178.49L278.76,178.38C275.81,177.15 272.96,175.61 270.75,173.26Z" style="fill:rgb(93,179,44);fill-rule:nonzero;"/>
    </g>
    <g transform="matrix(0.216662,0,0,0.216662,17.7659,50.2195)">
        <path d="M185.4,179.91C189.68,177.61 193.86,175.11 197.83,172.31C199.13,177.25 203.74,179.94 206.93,183.56C207.7,183.06 208.48,182.56 209.26,182.06C211.11,184.63 212.54,187.97 215.65,189.24C217.48,189.27 219.2,188.5 220.95,188.04C221.37,188.62 222.21,189.76 222.63,190.34C216.91,193.04 210.8,195.4 204.46,195.84C201,194.73 197.47,193.86 193.88,193.36C196.55,193.21 199.23,193.05 201.91,192.98C199.1,191.61 196.91,189.39 194.53,187.44C192.34,186.31 189.89,185.63 188.1,183.83C188.76,183.44 190.08,182.65 190.73,182.26C189.91,181.47 189.08,180.69 188.26,179.91C187.46,180.9 186.66,181.9 185.86,182.9C185.7,181.9 185.55,180.91 185.4,179.91Z" style="fill:rgb(155,195,23);fill-rule:nonzero;"/>
    </g>
    <g transform="matrix(0.216662,0,0,0.216662,17.7659,50.2195)">
        <path d="M241.73,195.84C253.11,190.81 262.86,182.81 270.75,173.26C272.96,175.61 275.81,177.15 278.76,178.38C271.1,185.21 261.93,190.19 252.52,194.19C249.14,195.6 245.41,197.14 241.73,195.84Z" style="fill:rgb(116,184,38);fill-rule:nonzero;"/>
    </g>
    <g transform="matrix(0.216662,0,0,0.216662,17.7659,50.2195)">
        <path d="M165.72,185.46C172.57,184.85 179.49,183.69 185.4,179.91C185.55,180.91 185.7,181.9 185.86,182.9C186.66,181.9 187.46,180.9 188.26,179.91C189.08,180.69 189.91,181.47 190.73,182.26C190.08,182.65 188.76,183.44 188.1,183.83C189.89,185.63 192.34,186.31 194.53,187.44C196.91,189.39 199.1,191.61 201.91,192.98C199.23,193.05 196.55,193.21 193.88,193.36C197.47,193.86 201,194.73 204.46,195.84C199.7,197.05 194.71,197.03 189.86,196.62C183.2,195.9 177.6,191.97 171.73,189.13C169.65,188.05 167.21,187.39 165.72,185.46Z" style="fill:rgb(164,198,15);fill-rule:nonzero;"/>
    </g>
</svg>
