<?xml version="1.0" encoding="UTF-8" standalone="no"?>
<!DOCTYPE svg PUBLIC "-//W3C//DTD SVG 1.1//EN" "http://www.w3.org/Graphics/SVG/1.1/DTD/svg11.dtd">
<svg width="100%" height="100%" viewBox="0 0 300 150" version="1.1" xmlns="http://www.w3.org/2000/svg" xmlns:xlink="http://www.w3.org/1999/xlink" xml:space="preserve" xmlns:serif="http://www.serif.com/" style="fill-rule:evenodd;clip-rule:evenodd;stroke-linejoin:round;stroke-miterlimit:2;">
    <g transform="matrix(0.0903221,0,0,0.0759562,37.2184,-22.0651)">
        <rect x="36.756" y="1403.44" width="2349.71" height="234.999" style="fill:rgb(38,60,217);"/>
        <path d="M442.554,1328.79L426.096,1154.61C423.359,1140.78 423.359,1126.97 420.609,1115.91C420.609,1102.08 420.609,1088.25 417.873,1074.43C417.873,1088.25 415.123,1099.32 412.387,1115.91C409.65,1129.72 406.913,1143.54 401.427,1160.13L357.55,1328.78L272.56,1328.78L228.683,1160.14C223.197,1143.56 220.46,1129.73 217.71,1115.92C212.237,1099.33 212.237,1088.27 209.488,1074.44C209.488,1088.27 206.751,1102.09 206.751,1115.92C206.751,1126.98 204.014,1140.8 204.014,1154.62L187.556,1328.8L47.729,1328.8L116.274,889.207L261.587,889.207L289.005,999.787C289.005,1002.55 291.742,1008.09 291.742,1013.61C305.451,1060.62 310.924,1096.56 313.674,1126.97L316.41,1126.97C319.147,1107.62 321.884,1088.25 327.37,1066.14C330.864,1042.67 336.371,1019.54 343.828,997.012L373.983,889.194L519.296,889.194L579.619,1328.79L442.554,1328.79ZM818.172,1151.86C809.949,1143.56 804.463,1138.03 796.24,1135.27C788.017,1132.51 779.794,1129.73 771.558,1129.73C757.849,1129.73 749.626,1135.27 741.404,1143.56C733.181,1149.08 727.695,1160.14 727.695,1173.97C727.695,1187.8 733.181,1196.1 738.667,1204.38C746.89,1212.69 757.849,1218.21 771.558,1218.21C779.794,1218.21 785.28,1215.45 793.49,1212.69C801.726,1207.15 809.949,1201.62 818.159,1193.32L818.159,1317.75C804.45,1326.04 790.754,1331.55 777.045,1334.34C766.072,1337.11 752.363,1339.87 738.667,1339.87C719.472,1339.87 700.277,1337.11 683.831,1328.79C664.636,1320.5 648.177,1309.44 637.218,1295.6C620.759,1279.04 609.799,1259.67 604.313,1240.33C596.09,1220.97 590.591,1198.85 590.591,1176.73C590.591,1160.14 593.341,1143.56 596.077,1129.73C601.551,1115.92 607.037,1099.32 612.523,1088.25C628.982,1060.62 645.427,1041.25 667.359,1030.2C689.291,1016.38 713.973,1008.08 738.654,1008.08C752.363,1008.08 763.323,1010.84 777.032,1013.6C790.741,1016.36 804.45,1019.12 818.146,1024.66L818.146,1151.86L818.172,1151.86ZM1341.81,1024.66L1476.19,1024.66L1476.19,1182.26C1476.19,1204.38 1476.19,1204.38 1481.67,1209.91C1484.43,1218.21 1495.4,1220.97 1503.6,1220.97C1511.83,1220.97 1522.79,1218.21 1525.53,1209.91C1528.27,1204.38 1531.03,1204.38 1531.03,1182.26L1531.03,1024.66L1662.62,1024.66L1662.62,1198.85C1662.62,1254.14 1651.65,1295.6 1624.24,1320.5C1599.57,1345.38 1558.43,1359.2 1503.59,1359.2C1448.76,1359.2 1407.63,1345.38 1380.22,1320.5C1355.55,1295.6 1341.81,1254.14 1341.81,1198.85L1341.81,1024.66ZM1898.42,1345.38L1898.42,1298.39C1884.71,1317.74 1871.02,1334.33 1854.57,1342.62C1838.1,1353.69 1821.67,1359.2 1802.46,1359.2C1769.56,1359.2 1739.41,1342.62 1717.47,1312.19C1695.54,1279.03 1684.57,1240.31 1684.57,1190.55C1684.57,1138.02 1695.54,1096.54 1717.47,1066.13C1739.4,1035.71 1766.82,1019.12 1802.46,1019.12C1821.65,1019.12 1838.1,1021.89 1851.81,1030.19C1868.28,1041.25 1881.98,1052.3 1892.95,1071.65L1892.95,1030.19L2032.78,1030.19L2032.78,1345.37L1898.42,1345.37L1898.42,1345.38ZM1813.43,1193.32C1813.43,1209.91 1816.17,1223.74 1827.14,1232.04C1835.38,1243.1 1846.34,1245.86 1860.05,1245.86C1873.76,1245.86 1884.71,1243.1 1892.95,1232.04C1901.19,1223.74 1906.66,1209.91 1906.66,1193.32C1906.66,1179.5 1901.19,1165.68 1892.95,1154.62C1884.71,1146.33 1873.76,1140.8 1860.05,1140.8C1846.34,1140.8 1835.38,1146.33 1827.14,1154.62C1816.17,1165.67 1813.43,1179.5 1813.43,1193.32ZM2153.41,1281.8L2046.49,1027.44L2169.88,1027.44L2210.99,1154.62L2224.7,1149.1L2271.32,1027.45L2397.45,1027.45L2246.65,1381.35L2101.35,1381.35L2153.41,1281.8ZM1084.12,861.543C1212.98,861.543 1319.92,972.136 1319.92,1104.84C1319.92,1193.31 1276.04,1270.73 1207.5,1312.19L1240.4,1373.03L1144.44,1373.03L1130.73,1345.37C1117.02,1348.13 1100.58,1348.13 1084.12,1348.13C955.249,1348.13 848.326,1240.31 848.326,1104.83C848.339,972.136 955.262,861.543 1084.12,861.543ZM1045.74,1146.32L1125.24,1146.32L1147.18,1190.56C1169.11,1171.21 1182.82,1140.8 1182.82,1104.86C1182.82,1044.03 1138.95,994.262 1084.12,994.262C1029.28,994.262 985.417,1044.03 985.417,1104.86C985.417,1162.92 1023.81,1209.92 1075.91,1215.45L1045.74,1146.32ZM2402.92,867.081C2435.8,867.081 2463.23,894.732 2463.23,927.909C2463.23,963.848 2435.8,991.5 2402.92,991.5C2367.25,991.5 2339.85,963.848 2339.85,927.909C2339.85,894.719 2367.25,867.081 2402.92,867.081ZM2402.92,878.144C2430.33,878.144 2452.27,903.02 2452.27,927.909C2452.27,955.56 2430.34,977.674 2402.92,977.674C2375.49,977.674 2353.55,955.56 2353.55,927.909C2353.56,903.02 2375.49,878.144 2402.92,878.144ZM2394.7,905.782L2394.7,925.146L2397.43,925.146C2402.93,925.146 2408.41,922.384 2411.14,922.384C2411.14,919.621 2413.88,916.859 2413.88,914.083C2413.88,911.321 2411.14,908.558 2408.41,905.782L2394.7,905.782ZM2380.99,963.848L2380.99,894.719L2411.14,894.719C2413.88,894.719 2419.38,897.482 2422.12,900.244C2424.85,903.007 2427.62,908.545 2427.62,914.07C2427.62,916.833 2424.85,919.595 2422.12,925.133C2422.12,927.896 2416.64,927.896 2413.88,927.896L2416.64,930.658C2419.38,933.421 2419.38,933.421 2419.38,936.197L2430.35,963.835L2416.64,963.835L2408.41,941.722C2405.67,938.959 2405.67,936.197 2405.67,936.197C2402.93,936.197 2400.17,933.434 2397.43,933.434L2394.7,933.434L2394.7,963.848L2380.99,963.848Z" style="fill:rgb(38,60,217);"/>
    </g>
</svg>
