<?xml version="1.0" encoding="UTF-8" standalone="no"?>
<!DOCTYPE svg PUBLIC "-//W3C//DTD SVG 1.1//EN" "http://www.w3.org/Graphics/SVG/1.1/DTD/svg11.dtd">
<svg width="100%" height="100%" viewBox="0 0 300 150" version="1.1" xmlns="http://www.w3.org/2000/svg" xmlns:xlink="http://www.w3.org/1999/xlink" xml:space="preserve" xmlns:serif="http://www.serif.com/" style="fill-rule:evenodd;clip-rule:evenodd;stroke-linejoin:round;stroke-miterlimit:2;">
    <g id="Слой1">
    </g>
    <g transform="matrix(0.0757917,0,0,0.0684591,56.0502,39.0712)">
        <g id="Слой2">
            <path d="M1147.54,470.947L1147.54,815.844L1228.73,815.844L1228.73,470.947L1147.54,470.947ZM1001.38,339.484L917.863,339.484C908.583,339.484 910.129,347.99 910.129,347.99C911.676,358.817 913.996,376.603 913.996,413.722C913.996,495.693 903.943,613.236 814.239,725.367L808.052,733.1C808.052,733.1 753.92,355.723 753.147,348.764C753.147,348.764 753.147,340.257 745.414,340.257L661.123,340.257C653.39,340.257 653.39,348.764 653.39,348.764C651.07,392.069 627.097,755.526 361.851,814.297C418.303,820.484 486.355,802.698 545.9,766.352C619.364,720.727 668.856,653.449 685.096,576.117C685.096,576.117 717.575,778.725 721.441,825.124L721.441,828.217L719.121,829.764C644.883,869.203 560.592,890.855 476.301,890.855C267.507,890.855 82.686,767.125 1.488,578.437C49.433,800.378 247.401,962 478.621,962C748.507,962 909.356,736.193 937.195,575.344C937.195,575.344 973.541,809.658 974.314,817.391L1084.9,817.391C1083.35,807.338 1009.89,357.27 1009.11,350.31C1009.11,350.31 1009.11,341.804 1001.38,341.804L1001.38,339.484ZM66.446,536.678C66.446,289.219 275.24,88.158 531.207,88.158C689.736,88.158 837.438,167.809 923.276,296.952C860.637,120.637 685.869,0 490.221,0C237.348,0 31.647,197.195 31.647,439.241C31.647,505.746 47.887,570.704 78.046,630.249C71.086,600.09 66.446,568.384 66.446,537.452L66.446,536.678ZM2004.37,520.439C1974.98,486.413 1933.99,468.627 1884.5,468.627C1834.24,468.627 1791.7,484.867 1757.68,517.346C1724.43,549.051 1707.41,591.584 1707.41,644.169C1707.41,695.981 1723.65,737.74 1756.13,768.672C1788.61,799.605 1835.78,815.071 1894.56,815.071C2009.01,815.071 2033.75,736.193 2043.03,710.674L2013.64,701.394C1987.35,749.339 1928.58,752.432 1893.78,750.113C1869.04,748.566 1846.61,740.059 1828.82,727.686C1811.04,714.54 1798.66,695.981 1793.25,667.368L1791.7,656.542L2048.45,656.542C2047.67,600.09 2032.98,554.465 2004.37,521.212L2004.37,520.439ZM1797.89,607.823C1794.03,607.823 1794.03,603.957 1794.03,602.41C1797.12,582.304 1804.85,566.838 1818.77,552.918C1834.24,536.678 1858.21,527.399 1883.73,527.399C1906.93,527.399 1925.49,534.359 1941.73,547.505C1954.87,559.105 1964.15,575.344 1969.57,597.77C1970.34,600.09 1971.89,607.05 1965.7,607.05L1797.89,607.05L1797.89,607.823ZM2262.65,467.08C2165.22,467.08 2130.42,526.625 2119.59,554.465C2119.59,555.238 2115.72,564.518 2115.72,564.518L2148.2,575.344C2148.2,575.344 2169.08,515.026 2251.83,518.892C2335.34,521.986 2325.29,590.81 2325.29,601.637C2278.89,587.717 2213.16,589.264 2169.86,608.596C2115.72,633.342 2107.22,682.834 2109.54,719.18C2111.86,773.312 2159.8,811.204 2221.67,814.297C2277.35,817.391 2302.09,805.018 2325.29,782.592L2324.52,814.297L2397.98,814.297L2397.98,576.891C2399.53,535.905 2370.92,466.307 2262.65,466.307L2262.65,467.08ZM2324.52,734.646C2324.52,740.059 2322.97,743.926 2318.33,746.246C2304.41,753.206 2275.03,762.486 2238.68,760.166C2200.79,757.072 2186.09,730.006 2183.77,718.407C2183,713.767 2174.49,663.502 2223.21,648.035C2254.92,637.982 2295.13,644.169 2316.78,650.355C2322.97,651.902 2324.52,655.768 2324.52,663.502L2324.52,735.42L2324.52,734.646ZM1223.32,339.484L1156.04,339.484C1145.99,339.484 1147.54,349.537 1147.54,349.537L1147.54,422.228L1230.28,422.228L1230.28,348.764C1230.28,348.764 1231.05,340.257 1222.55,340.257L1223.32,339.484ZM1636.27,339.484L1567.44,339.484C1560.49,339.484 1560.49,347.217 1560.49,347.217L1560.49,488.733L1550.43,483.32C1539.61,477.907 1528.78,474.04 1517.18,471.72C1505.58,469.4 1491.66,468.627 1476.19,468.627C1422.06,468.627 1377.98,484.093 1345.5,515.799C1313.8,546.732 1296.79,591.584 1296.79,646.489C1296.79,695.207 1310.7,736.193 1337.77,768.672C1364.84,800.378 1404.28,816.617 1456.09,816.617C1530.33,816.617 1559.71,771.765 1559.71,771.765L1559.71,815.071L1643.23,815.071L1643.23,347.99C1643.23,347.99 1643.23,339.484 1636.27,339.484ZM1555.85,721.5C1548.11,728.46 1538.06,733.873 1525.69,738.513C1512.54,743.926 1497.07,746.246 1480.06,746.246C1452.22,746.246 1429.8,736.966 1413.56,718.407C1397.32,699.847 1389.58,672.781 1389.58,636.436C1389.58,600.863 1397.32,574.571 1412.01,558.331C1427.48,541.318 1450.67,532.812 1481.61,532.812C1497.85,532.812 1513.31,535.132 1527.23,540.545C1539.61,545.185 1548.88,549.825 1555.85,556.011C1558.16,558.331 1560.49,562.198 1560.49,567.611L1560.49,709.127C1560.49,714.54 1558.16,718.407 1555.85,720.727L1555.85,721.5ZM2448.25,282.259C2419.63,282.259 2397.98,303.912 2397.98,332.524C2397.98,360.363 2419.63,382.789 2448.25,382.789C2476.86,382.789 2498.51,361.137 2498.51,332.524C2498.51,304.685 2476.86,282.259 2448.25,282.259ZM2448.25,289.219C2472.22,289.219 2490.78,308.551 2490.78,332.524C2490.78,356.497 2472.99,375.83 2448.25,375.83C2424.27,375.83 2405.72,356.497 2405.72,332.524C2405.72,308.551 2423.5,289.219 2448.25,289.219ZM2437.42,335.617L2449.79,335.617L2466.03,361.137L2474.54,361.137L2457.53,335.617C2465.26,334.071 2472.22,329.431 2472.22,319.378C2472.22,309.325 2466.81,303.138 2453.66,303.138L2431.23,303.138L2431.23,361.137L2438.19,361.137L2438.19,335.617L2437.42,335.617ZM2437.42,329.431L2437.42,309.325L2450.57,309.325C2457.53,309.325 2464.49,310.871 2464.49,319.378C2464.49,329.431 2455.98,329.431 2447.47,329.431L2437.42,329.431Z" style="fill:rgb(0,176,240);fill-rule:nonzero;"/>
        </g>
    </g>
</svg>
