<?xml version="1.0" encoding="UTF-8" standalone="no"?>
<!DOCTYPE svg PUBLIC "-//W3C//DTD SVG 1.1//EN" "http://www.w3.org/Graphics/SVG/1.1/DTD/svg11.dtd">
<svg width="100%" height="100%" viewBox="0 0 300 150" version="1.1" xmlns="http://www.w3.org/2000/svg" xmlns:xlink="http://www.w3.org/1999/xlink" xml:space="preserve" xmlns:serif="http://www.serif.com/" style="fill-rule:evenodd;clip-rule:evenodd;stroke-linejoin:round;stroke-miterlimit:2;">
    <g transform="matrix(0.0865899,0,0,0.0865899,39.8835,52.9766)">
        <path d="M1292.56,353.416L1339.1,353.416L1339.1,456.879L1292.56,456.879L1292.56,353.416ZM2207.33,353.535L2253.87,353.535L2253.87,456.871L2207.33,456.871L2207.33,353.535ZM1916.92,385.438L1916.92,359.427C1904.32,353.043 1885.9,348.785 1861.06,348.785C1811.42,348.785 1804.85,370.009 1804.85,380.927C1804.85,399.188 1816.02,407.606 1834.76,414.229C1856.67,421.957 1875.02,419.382 1875.02,428.629C1875.02,431.3 1871.48,433.994 1862.18,433.994C1842.93,433.994 1822.49,426.554 1809.12,418.517L1809.12,447.2C1826.17,455.382 1847.22,460.588 1864.34,460.588C1902.53,460.588 1923.32,445.252 1923.32,424.983C1923.32,404.979 1907.55,396.83 1881.59,390.517C1864.94,386.487 1853.98,386.487 1853.98,380.065C1853.98,376.528 1858.65,373.834 1867.72,373.834C1883.5,373.834 1901.58,378.565 1916.92,385.438M2493.59,385.438L2493.59,359.427C2481.01,353.043 2462.58,348.785 2437.73,348.785C2388.1,348.785 2381.52,370.009 2381.52,380.927C2381.52,399.188 2392.69,407.606 2411.4,414.229C2433.32,421.957 2451.7,419.382 2451.7,428.629C2451.7,431.3 2448.15,433.994 2438.86,433.994C2419.61,433.994 2399.15,426.554 2385.76,418.517L2385.76,447.2C2402.85,455.382 2423.87,460.588 2441.03,460.588C2479.22,460.588 2499.99,445.252 2499.99,424.983C2499.99,404.979 2484.24,396.83 2458.26,390.517C2441.63,386.487 2430.68,386.487 2430.68,380.065C2430.68,376.528 2435.35,373.834 2444.37,373.834C2460.16,373.834 2478.25,378.565 2493.59,385.438M1724.72,459.92C1770.13,459.92 1787.31,442.136 1787.31,415.487L1787.31,353.535L1742.37,353.535L1742.37,418.132C1742.37,426.218 1733.12,433.009 1724.72,433.009C1716.33,433.009 1707.09,426.218 1707.09,418.132L1707.09,353.535L1662.16,353.535L1662.16,415.487C1662.16,442.136 1679.32,459.92 1724.72,459.92M2364.19,456.875L2364.19,434.778L2318.1,434.778L2318.1,412.912L2357.55,412.912L2357.55,391.588L2318.1,391.588L2318.1,375.487L2364.19,375.487L2364.19,353.535L2273.88,353.535L2273.88,456.875L2364.19,456.875ZM1935.45,376.513L1965.55,376.513L1965.55,456.875L2012.69,456.875L2012.69,376.513L2042.81,376.513L2042.81,353.535L1935.45,353.535L1935.45,376.513ZM1496.15,456.875L1496.15,353.416L1448.85,353.416L1448.85,401.267L1410.9,353.416L1359.02,353.416L1359.02,456.875L1406.31,456.875L1406.31,406.491L1445.2,456.875L1496.15,456.875ZM1160.69,392.696L1138.8,353.535L1095.57,353.535L1137.38,420.446L1137.38,456.875L1184.54,456.875L1184.54,419.659L1225.83,353.535L1182.61,353.535L1160.69,392.696ZM1054.4,456.875L1092.17,353.535L1048.45,353.535L1026.22,418.879L1004.08,353.535L960.369,353.535L998.209,456.875L1054.4,456.875ZM883.198,353.535L845.347,456.882L889.519,456.882L893,444.688L927.299,444.688L930.799,456.882L974.966,456.882L937.104,353.535L883.198,353.535ZM898.713,424.651L910.116,384.793L921.56,424.651L898.713,424.651ZM837.795,456.875L837.795,434.778L791.746,434.778L791.746,412.912L831.168,412.912L831.168,391.588L791.746,391.588L791.746,375.487L837.795,375.487L837.795,353.554L747.504,353.554L747.504,456.875L837.795,456.875ZM1579.42,456.882C1625.23,456.882 1647.46,435.3 1647.46,405.062C1647.46,371.155 1619.36,353.412 1581.73,353.412L1516.07,353.412L1516.07,456.879L1579.42,456.879L1579.42,456.882ZM1574.11,427.841L1563.36,427.841L1563.36,378.726L1572.44,378.726C1588.27,378.726 1597.02,388.573 1597.02,404.42C1597.02,416.588 1586.61,427.841 1574.11,427.841M2061.03,353.532L2061.03,456.882L2111,456.882L2111,423.498L2141.99,456.905L2197.44,456.905L2156.14,416.271C2174.09,415.569 2188.45,403.629 2188.45,385.767C2188.45,364.89 2172.34,353.532 2153.03,353.532L2061.03,353.532ZM2126.93,399.431L2111,399.431L2111,373.293L2127.89,373.293C2133.95,373.293 2140.63,377.938 2140.63,386.864C2140.63,394.711 2134.39,399.431 2126.93,399.431M680.642,353.535L680.642,389.696L647.485,389.696L647.485,353.535L600.526,353.535L600.526,456.875L647.485,456.875L647.485,419.744L680.642,419.744L680.642,456.875L727.59,456.875L727.59,353.535L680.642,353.535ZM885.507,153.894L966.496,153.894L966.496,323.207L885.507,323.207L885.507,153.894ZM760.496,153.894L731.205,213.326L701.884,153.894L623.914,153.894L600.526,323.207L676.179,323.207L682.94,252.494L731.205,323.207L779.444,252.494L786.216,323.207L861.869,323.207L838.474,153.894L760.496,153.894ZM1161.87,153.894L989.937,153.894L989.937,200.132L1036.95,200.132L1036.95,323.244L1114.87,323.244L1114.87,200.132L1161.87,200.132L1161.87,153.894ZM1367.29,221.304L1367.29,172.513C1339.27,158.95 1305.99,150.401 1274.29,150.401C1214.73,150.401 1182.26,170.465 1182.26,203.759C1182.26,232.476 1200.28,243.479 1230.79,254.998C1266.09,268.338 1288.55,261.67 1288.55,272.532C1288.55,276.756 1287.25,279.92 1273.58,279.92C1241.74,279.92 1211.15,267.271 1189.05,254.64L1189.05,305.192C1217.26,318.054 1252.02,326.256 1280.37,326.256C1318.65,326.256 1372.75,317.326 1372.75,272.203C1372.75,240.782 1345.64,224.431 1308.9,216.039C1281.35,209.752 1262.89,211.744 1262.89,201.647C1262.89,196.588 1270.06,194.621 1282.15,194.621C1308.22,194.621 1344.92,206.924 1367.29,221.304M1856.06,153.894L1937.04,153.894L1937.04,323.244L1856.06,323.244L1856.06,153.894ZM2419.04,153.894L2500,153.894L2500,323.244L2419.04,323.244L2419.04,153.894ZM2149.49,221.304L2149.49,172.513C2121.46,158.95 2088.16,150.401 2056.47,150.401C1996.91,150.401 1964.48,170.465 1964.48,203.759C1964.48,232.476 1982.49,243.479 2012.98,254.998C2048.28,268.338 2070.76,261.67 2070.76,272.532C2070.76,276.756 2069.45,279.92 2055.76,279.92C2023.95,279.92 1993.35,267.271 1971.24,254.64L1971.24,305.192C1999.47,318.054 2034.21,326.256 2062.56,326.256C2100.83,326.256 2154.93,317.326 2154.93,272.203C2154.93,240.782 2127.84,224.431 2091.11,216.039C2063.56,209.752 2045.08,211.744 2045.08,201.647C2045.08,196.588 2052.24,194.621 2064.34,194.621C2090.42,194.621 2127.12,206.924 2149.49,221.304M1502.08,326.259C1554.71,326.259 1606.78,304.938 1606.78,255.968L1606.78,153.897L1527.74,153.897L1527.74,257.8C1527.74,271.595 1516.62,283.076 1502.08,283.076C1487.53,283.076 1476.4,271.595 1476.4,257.8L1476.4,153.897L1397.33,153.897L1397.33,255.965C1397.33,304.938 1449.42,326.259 1502.08,326.259M1768.29,323.244C1815.08,323.244 1830.72,301.476 1830.72,278.278C1830.72,256.229 1818.1,241.808 1800.03,234.83C1813.55,228.151 1821.08,214.703 1821.08,199.823C1821.08,172.468 1796.5,153.89 1770.36,153.89L1634.87,153.89L1634.87,323.241L1768.29,323.241L1768.29,323.244ZM1736.63,189.86C1745.69,189.86 1750.66,196.293 1750.66,203.312C1750.66,211.192 1744.27,215.938 1736.91,215.938L1716.91,215.938L1716.91,189.86L1736.63,189.86ZM1736.91,280.599L1716.91,280.599L1716.91,254.834L1737.73,254.834C1744.41,254.834 1751.17,259.618 1751.17,267.662C1751.17,274.741 1745.45,280.599 1736.91,280.599M2308.71,153.894L2308.71,213.576L2262.72,213.576L2262.72,153.894L2182.19,153.894L2182.19,323.244L2262.72,323.244L2262.72,262.812L2308.71,262.812L2308.71,323.244L2389.25,323.244L2389.25,153.894L2308.71,153.894Z" style="fill-rule:nonzero;"/>
    </g>
    <g transform="matrix(0.0865899,0,0,0.0865899,39.8835,52.9766)">
        <path d="M262.418,305.394L349.866,153.92L262.388,2.412L174.94,153.897L262.418,305.394ZM262.418,305.394L349.866,456.875L524.795,456.875L437.31,305.394L262.418,305.394ZM262.418,305.394L87.47,305.394L0,456.875L174.948,456.875L262.418,305.394Z" style="fill:rgb(227,31,38);fill-rule:nonzero;"/>
    </g>
</svg>
