<?xml version="1.0" encoding="UTF-8" standalone="no"?>
<!DOCTYPE svg PUBLIC "-//W3C//DTD SVG 1.1//EN" "http://www.w3.org/Graphics/SVG/1.1/DTD/svg11.dtd">
<svg width="100%" height="100%" viewBox="0 0 300 150" version="1.1" xmlns="http://www.w3.org/2000/svg" xmlns:xlink="http://www.w3.org/1999/xlink" xml:space="preserve" xmlns:serif="http://www.serif.com/" style="fill-rule:evenodd;clip-rule:evenodd;stroke-linejoin:round;stroke-miterlimit:2;">
    <g transform="matrix(0.0786927,0,0,0.0772128,49.5427,-24.4827)">
        <g transform="matrix(1.04025,0,0,1.06018,-49.1449,-75.6807)">
            <path d="M307.487,1599.24L36.756,1599.24L172.122,1364.8L442.84,1364.8L307.487,1599.24ZM578.205,1599.24L848.91,1599.24L713.545,1364.8L442.84,1364.8L578.205,1599.24ZM578.205,1130.34L442.84,895.899L307.487,1130.34L442.84,1364.8L578.205,1130.34Z" style="fill:rgb(230,26,26);"/>
        </g>
        <g transform="matrix(1.04025,0,0,1.06018,-49.1449,-75.6807)">
            <path d="M970.463,1499.42L1078.89,1499.42L1078.89,1460.11L970.463,1460.11L970.463,1411.73L1092.43,1411.73L1092.43,1372.41L924.511,1372.41L924.511,1599.24L1095.65,1599.24L1095.65,1559.91L970.463,1559.91L970.463,1499.42ZM967.311,1166.02L1015.47,1334.62L1059.62,1334.62L1107.79,1166.02L1107.79,1334.62L1150.57,1334.62L1150.57,1107.81L1085,1107.81L1037.54,1267L990.086,1107.81L924.511,1107.81L924.511,1334.62L967.311,1334.62L967.311,1166.02ZM2011.38,1107.81L1965.68,1107.81L1965.68,1334.62L2011.38,1334.62L2011.38,1107.81ZM2048.59,1372.41L2002.89,1372.41L2002.89,1599.24L2048.59,1599.24L2048.59,1372.41ZM2463.24,1107.81L2417.54,1107.81L2417.54,1334.62L2463.24,1334.62L2463.24,1107.81ZM1214.48,1107.81L1168.8,1107.81L1168.8,1334.62L1214.48,1334.62L1214.48,1107.81ZM2353.71,1196.27L2262.9,1196.27L2262.9,1107.81L2217.93,1107.81L2217.93,1334.62L2262.9,1334.62L2262.9,1235.58L2353.71,1235.58L2353.71,1334.62L2398.64,1334.62L2398.64,1107.81L2353.71,1107.81L2353.71,1196.27ZM1282.06,1334.62L1328.69,1334.62L1328.69,1147.12L1384.12,1147.12L1384.12,1107.81L1226.64,1107.81L1226.64,1147.12L1282.06,1147.12L1282.06,1334.62ZM1698.74,1599.24L1745.37,1599.24L1745.37,1411.73L1800.83,1411.73L1800.83,1372.41L1643.31,1372.41L1643.31,1411.73L1698.74,1411.73L1698.74,1599.24ZM1667.55,1340.93C1725.76,1340.93 1758.04,1314.43 1758.04,1263.8L1758.04,1107.81L1712.37,1107.81L1712.37,1267.95C1712.37,1287.46 1695.9,1303.72 1667.56,1303.72C1633.24,1303.72 1623.13,1284.5 1623.13,1267.95L1623.13,1107.81L1578.16,1107.81L1578.16,1263.8C1578.16,1318.31 1612,1340.93 1667.55,1340.93ZM1322.28,1499.42L1430.72,1499.42L1430.72,1460.11L1322.28,1460.11L1322.28,1411.73L1444.27,1411.73L1444.27,1372.41L1276.33,1372.41L1276.33,1599.24L1447.48,1599.24L1447.48,1559.91L1322.28,1559.91L1322.28,1499.42ZM1821.34,1334.62L1886.8,1334.62C1929.49,1334.62 1954.89,1309.08 1954.89,1273.36C1954.89,1244.51 1934,1219.73 1911.2,1214.04C1931.11,1208.98 1947.14,1188.63 1947.14,1163.6C1947.14,1130.16 1922.42,1107.79 1876.47,1107.79L1774.2,1107.79L1774.2,1334.6L1821.34,1334.6L1821.34,1334.62ZM1873.14,1300.35L1819.57,1300.35L1819.57,1234.55L1872.61,1234.55C1891.72,1234.55 1907.85,1245.53 1907.85,1267.54C1907.85,1286.11 1893.21,1300.35 1873.14,1300.35ZM1876.54,1143.86C1889.01,1143.86 1902.99,1155.44 1902.99,1170.73C1902.99,1184.3 1893.21,1199.28 1873.99,1199.28L1819.58,1199.28L1819.58,1143.87L1876.54,1143.87L1876.54,1143.86ZM1949.01,1490.38C1968.49,1484.48 1989.33,1467.05 1989.33,1435.56C1989.33,1395.24 1962.03,1372.1 1915.52,1372.1L1812.01,1372.1L1812.01,1598.89L1857.96,1598.89L1857.96,1509.54L1896.92,1509.54C1920.5,1509.54 1933.38,1521.77 1937.22,1537.92C1941.47,1555.78 1940.38,1582.32 1944.92,1598.89L1991.12,1598.89C1986.63,1581.51 1983.97,1557.93 1982.96,1539.28C1981.34,1508.62 1965.18,1496.34 1949.01,1490.38ZM1857.97,1473.16L1857.97,1411.42L1913.25,1411.42C1931.91,1411.42 1944.35,1424.52 1944.35,1442.41C1944.35,1455.03 1933.33,1473.16 1914.61,1473.16L1857.97,1473.16ZM1156.32,1372.41L1110.38,1372.41L1110.38,1599.24L1263.23,1599.24L1263.23,1559.91L1156.32,1559.91L1156.32,1372.41ZM1460.8,1238.76C1497.61,1245.17 1518.53,1251.98 1518.53,1273.94C1518.53,1288.81 1503.81,1302.92 1473.29,1302.92C1442.77,1302.92 1427.09,1285.56 1427.09,1264.94L1383.06,1264.94C1383.06,1304.41 1408.62,1340.45 1475.23,1340.45C1538.72,1340.45 1566.23,1306.83 1566.23,1268.56C1566.23,1232.79 1542.82,1210.13 1500.9,1201.89C1460.64,1193.98 1433.02,1192.26 1433.02,1166.77C1433.02,1149.29 1449.05,1138.91 1473.68,1138.91C1499.85,1138.91 1514.89,1151.77 1514.89,1173.54L1559.28,1173.54C1559.28,1137.72 1532.17,1100.89 1471.86,1100.89C1430.27,1100.89 1387.1,1124.89 1387.1,1169.69C1387.08,1207.38 1414.77,1230.73 1460.8,1238.76ZM2100.22,1238.76C2137.03,1245.17 2157.95,1251.98 2157.95,1273.94C2157.95,1288.81 2143.23,1302.92 2112.71,1302.92C2082.17,1302.92 2066.51,1285.56 2066.51,1264.94L2022.48,1264.94C2022.48,1304.41 2048.04,1340.45 2114.66,1340.45C2178.14,1340.45 2205.62,1306.83 2205.62,1268.56C2205.62,1232.79 2182.22,1210.13 2140.32,1201.89C2100.06,1193.98 2072.44,1192.26 2072.44,1166.77C2072.44,1149.29 2088.47,1138.91 2113.1,1138.91C2139.27,1138.91 2154.32,1151.77 2154.32,1173.54L2198.7,1173.54C2198.7,1137.72 2171.59,1100.89 2111.28,1100.89C2069.66,1100.89 2026.53,1124.89 2026.53,1169.69C2026.5,1207.38 2054.19,1230.73 2100.22,1238.76Z"/>
        </g>
        <g transform="matrix(1.04025,0,0,1.06018,-49.1449,-75.6807)">
            <path d="M1550.85,1564.21C1513.91,1564.21 1492.33,1528.03 1492.33,1484.89C1492.33,1441.78 1513.13,1405.56 1550.85,1405.56C1578.91,1405.56 1593.32,1422.96 1599.54,1444.34L1647.08,1444.34C1639.3,1399.93 1604.61,1366.97 1549.55,1366.97C1480.16,1366.97 1445.08,1420.05 1445.08,1485.56C1445.08,1551.04 1481.58,1604.14 1549.55,1604.14C1603.93,1604.14 1640.64,1572.52 1647.38,1524.06L1599.54,1524.06C1593.31,1546.85 1578.38,1564.21 1550.85,1564.21ZM2165.5,1564.21C2128.53,1564.21 2106.95,1528.03 2106.95,1484.89C2106.95,1441.78 2127.76,1405.56 2165.5,1405.56C2193.54,1405.56 2207.95,1422.96 2214.16,1444.34L2261.73,1444.34C2253.93,1399.93 2219.23,1366.97 2164.2,1366.97C2094.79,1366.97 2059.7,1420.05 2059.7,1485.56C2059.7,1551.04 2096.2,1604.14 2164.17,1604.14C2218.56,1604.14 2255.29,1572.52 2262.01,1524.06L2214.16,1524.06C2207.95,1546.85 2193.01,1564.21 2165.5,1564.21Z"/>
        </g>
    </g>
</svg>
