<?xml version="1.0" encoding="UTF-8" standalone="no"?>
<!DOCTYPE svg PUBLIC "-//W3C//DTD SVG 1.1//EN" "http://www.w3.org/Graphics/SVG/1.1/DTD/svg11.dtd">
<svg width="100%" height="100%" viewBox="0 0 300 150" version="1.1" xmlns="http://www.w3.org/2000/svg" xmlns:xlink="http://www.w3.org/1999/xlink" xml:space="preserve" xmlns:serif="http://www.serif.com/" style="fill-rule:evenodd;clip-rule:evenodd;stroke-linejoin:round;stroke-miterlimit:2;">
    <g transform="matrix(0.170555,0,0,0.170555,46.0615,20.2544)">
        <path d="M1091.24,204.91C1123.08,236.71 1155.15,268.3 1186.81,300.29C1182.52,302.44 1177.85,303.73 1173.42,305.56C1167.05,307.75 1160.89,311.02 1154.07,311.48C1139.61,312.84 1125.26,303.14 1120.88,289.35C1111.56,264.64 1102.14,239.98 1092.82,215.28C1091.59,211.96 1091.28,208.42 1091.24,204.91Z" style="fill:rgb(0,173,187);fill-rule:nonzero;"/>
    </g>
    <g transform="matrix(0.170555,0,0,0.170555,46.0615,20.2544)">
        <path d="M9.48,212.72C16.1,209.99 24.27,213.13 27.7,219.34C51.66,258.63 75.85,297.78 99.68,337.14C99.79,303.42 99.71,269.71 99.73,236C99.71,230.99 99.19,225.5 102.23,221.16C107.5,212.74 121.09,212 127.48,219.47C130.08,222.31 131.3,226.2 131.29,230.01C131.28,285.33 131.31,340.65 131.28,395.96C131.54,403.69 124.83,410.92 117.02,410.82C111.23,411.27 105.74,407.76 103.07,402.73C79.27,363.6 55.08,324.7 31.47,285.45C31.09,322.32 31.47,359.21 31.28,396.08C31.05,400.98 28.16,405.63 23.91,408.06C17.48,411.76 8.93,410.41 3.56,405.44C1.65,402.95 1.06,399.78 0,396.9L0,224.58C0.67,219.25 4.39,214.49 9.48,212.72Z" style="fill:rgb(2,2,2);fill-rule:nonzero;"/>
    </g>
    <g transform="matrix(0.170555,0,0,0.170555,46.0615,20.2544)">
        <path d="M453.63,211.9C469.34,210.67 485.59,212.63 500.09,219C510.41,223.6 519.59,231.47 524.44,241.79C527.2,252.34 515.3,263.83 504.82,260.16C500.02,258.39 496.54,254.51 492.81,251.2C476.3,237.42 449.16,239.64 434.95,255.71C430,261.21 427.19,268.58 427.34,275.98C427.34,299.99 427.31,324 427.36,348.01C427.39,355.51 430.6,362.82 435.76,368.22C450.85,384.17 479.11,385.44 494.94,369.89C499.37,365.47 505.16,360.94 511.87,362.43C519.8,364.46 526.97,373.19 524.31,381.59C517.12,396.42 501.66,405.24 486.07,408.75C470.78,412 454.24,413.42 439.4,407.48C415.51,398.33 396.97,374.91 395.87,349.03C395.82,324.02 395.82,299 395.87,273.99C397.21,243.14 423.2,215.88 453.63,211.9Z" style="fill:rgb(2,2,2);fill-rule:nonzero;"/>
    </g>
    <g transform="matrix(0.170555,0,0,0.170555,46.0615,20.2544)">
        <path d="M552.35,212.57C561.44,208.62 573.6,214.62 574.23,224.95C574.38,272.66 574.21,320.37 574.32,368.08C574.39,373.59 576.69,379.65 582.03,382.03C591.03,386.29 593.18,399.38 586.57,406.62C583.45,410.58 578,411.78 573.21,411.25C565.16,410.02 558.19,404.84 553.46,398.38C548.11,391.28 545.13,382.67 543.69,373.96C542.58,366.02 542.94,357.99 542.89,350C542.89,308.97 542.87,267.95 542.89,226.92C542.71,220.8 546.53,214.7 552.35,212.57Z" style="fill:rgb(2,2,2);fill-rule:nonzero;"/>
    </g>
    <g transform="matrix(0.170555,0,0,0.170555,46.0615,20.2544)">
        <path d="M617.47,212.83C628.47,208.03 642.28,216.2 643.5,228.09C645.23,238.56 636.67,249.21 626.1,249.79C615.82,251.03 605.66,242.39 605.32,232.04C604.52,223.87 609.78,215.63 617.47,212.83Z" style="fill:rgb(2,2,2);fill-rule:nonzero;"/>
    </g>
    <g transform="matrix(0.170555,0,0,0.170555,46.0615,20.2544)">
        <path d="M163.54,279.51C173.57,268.68 188.23,262.23 203.02,262.45C217.02,262.47 230.89,268.43 240.63,278.49C250.73,288.54 256.4,302.78 256.37,317C256.36,321.67 256.4,326.35 256.35,331.03C256.36,336.74 253.73,342.76 248.63,345.66C244.83,347.87 240.31,348.32 235.99,348.2C217.3,348.18 198.61,348.16 179.92,348.22C180.14,354.53 179.04,361.18 181.64,367.16C184.73,375.02 192.51,380.64 200.91,381.3C207.06,381.63 213.77,381.69 219,377.92C223.01,374.65 226.49,370.51 231.36,368.44C243.04,363.24 257.61,379.06 249.95,389.92C241.76,403.7 225.78,411.41 210.06,411.82C205.33,411.92 200.59,412.08 195.88,411.55C180.41,409.65 166.13,400.48 157.71,387.4C151.58,378.19 148.7,367.05 148.79,356.04C148.82,343.03 148.82,330.01 148.8,317C148.88,303.24 154.08,289.55 163.54,279.51M190.02,297C183.52,301.3 179.71,309.04 179.83,316.79C195.02,316.86 210.22,316.81 225.41,316.81C225.41,309.24 221.91,301.61 215.6,297.28C208.25,291.86 197.48,291.72 190.02,297Z" style="fill:rgb(2,2,2);fill-rule:nonzero;"/>
    </g>
    <g transform="matrix(0.170555,0,0,0.170555,46.0615,20.2544)">
        <path d="M318.5,262.84C332.5,261.05 347.12,265.05 358.23,273.75C371.21,283.69 379.21,299.7 379.34,316.05C379.37,330.01 379.35,343.98 379.35,357.94C379.28,371.93 373.61,385.83 363.71,395.74C353.72,406.07 339.42,412.15 325.03,411.92C310.65,412.02 296.44,405.81 286.5,395.48C276.86,385.55 271.16,371.83 271.23,357.97C271.23,344.31 271.24,330.66 271.22,317.01C271.05,303.78 276.06,290.58 284.87,280.72C293.43,270.95 305.62,264.49 318.5,262.84M319.48,293.83C310.05,296.23 302.74,305.15 302.44,314.91C302.32,328.95 302.44,342.98 302.39,357.02C302.26,361.37 303.1,365.81 305.33,369.59C310.15,378.42 321.25,383.49 331.02,380.6C341.04,378.13 348.47,368.25 348.17,357.95C348.16,343.97 348.17,329.99 348.16,316.02C348.2,307.24 342.73,298.76 334.72,295.18C330.02,292.89 324.51,292.66 319.48,293.83Z" style="fill:rgb(2,2,2);fill-rule:nonzero;"/>
    </g>
    <g transform="matrix(0.170555,0,0,0.170555,46.0615,20.2544)">
        <path d="M673.89,276.91C684.15,266.28 699.41,260.81 714.09,262.44C724.82,263.33 734.54,268.61 742.84,275.17C751.76,266.94 763.82,262.13 775.98,262.19C789.04,262.05 802.08,267.48 811.15,276.9C819.9,285.57 825.08,297.74 825.25,310.07C825.25,338.69 825.24,367.32 825.25,395.95C825.3,399.98 823.6,403.97 820.62,406.68C814.27,412.91 802.35,412.04 797.29,404.59C795.19,401.87 794.37,398.38 794.5,394.99C794.56,366.99 794.36,338.99 794.44,310.99C794.52,302.44 787.55,294.58 779.14,293.38C769.08,291.5 758.55,299.75 758.29,310.03C758.13,338.7 758.27,367.37 758.22,396.03C758.14,401.24 755.17,406.3 750.6,408.82C743.99,412.44 734.65,411.15 730.01,404.94C727.56,401.86 726.79,397.83 726.79,393.98C726.81,366.3 726.8,338.62 726.8,310.94C727.11,301.1 717.76,292.48 708.02,293.2C698.73,293.32 690.62,301.74 690.59,310.99C690.55,339.33 690.6,367.67 690.57,396.01C690.7,402.08 686.58,407.87 680.88,409.88C675.12,411.8 668.06,410.77 663.87,406.12C660.99,403.17 659.68,399.04 659.78,394.98C659.79,366.98 659.77,338.99 659.79,311C659.83,298.37 664.94,285.83 673.89,276.91Z" style="fill:rgb(2,2,2);fill-rule:nonzero;"/>
    </g>
    <g transform="matrix(0.170555,0,0,0.170555,46.0615,20.2544)">
        <path d="M880.11,263.11C893.55,260.77 908.16,262.5 919.67,270.22C931.55,277.73 939.32,291.02 940.73,304.93C941.43,309.57 941.16,314.28 941.2,318.96C941.22,343.65 941.18,368.34 941.22,393.03C941.55,398.14 940.12,403.7 936.04,407.08C928.74,413.71 915.47,411.23 911.48,402.03C907.7,405.37 903.9,408.96 898.93,410.4C888.82,413.44 877.75,411.96 868.07,408.08C856.51,403.49 847.06,393.86 842.84,382.15C838.45,370.36 839.54,356.66 845.82,345.75C852.07,334.83 862.93,326.9 874.96,323.45C886.64,320.04 898.53,317.41 910.34,314.52C910.52,309.08 910.1,302.98 906.16,298.8C901.27,293.21 893.01,292.38 886.12,293.68C877.62,295.44 873.55,304.82 865.07,306.64C856.95,308.59 849.16,302.31 846.57,294.95C845.47,291.81 845.81,288.24 847.66,285.45C854.63,273.82 866.97,265.91 880.11,263.11M880.25,353.92C874.79,356.3 871.27,362.03 871.54,367.97C871.58,373.51 875.94,378.2 881.07,379.75C887.12,381.59 893.88,382.07 899.84,379.68C904.86,377.62 908.52,373.14 910.28,368.09C910.33,360.47 910.29,352.86 910.3,345.24C900.24,347.92 889.73,349.46 880.25,353.92Z" style="fill:rgb(2,2,2);fill-rule:nonzero;"/>
    </g>
    <g transform="matrix(0.170555,0,0,0.170555,46.0615,20.2544)">
        <path d="M621.65,264.05C630.37,262.16 639.77,268.82 640.17,277.89C640.29,316.92 640.17,355.95 640.23,394.98C640.22,398.78 639.11,402.71 636.51,405.56C630.61,412.57 618.35,412.58 612.41,405.61C610.05,403.01 608.74,399.55 608.8,396.04C608.79,357.02 608.81,318 608.79,278.98C608.44,271.68 614.41,264.83 621.65,264.05Z" style="fill:rgb(2,2,2);fill-rule:nonzero;"/>
    </g>
    <g transform="matrix(0.170555,0,0,0.170555,46.0615,20.2544)">
        <path d="M1071.76,219.7C1072.92,218.75 1073.78,216.78 1075.57,217.3C1078.32,224.61 1081.05,231.93 1083.83,239.23C1090.08,252.85 1085.18,270.36 1072.68,278.66C1069.4,281 1065.58,282.37 1061.84,283.75C1040.09,292.01 1018.29,300.15 996.54,308.42C990.88,310.55 985.04,313.06 978.85,312.42C1009.71,281.4 1040.81,250.62 1071.76,219.7Z" style="fill:rgb(237,116,33);fill-rule:nonzero;"/>
    </g>
    <g transform="matrix(0.170555,0,0,0.170555,46.0615,20.2544)">
        <path d="M1008.96,318.08C1014.49,316.11 1019.91,313.28 1025.92,313.24C1035.68,312.43 1045.57,316.6 1052.03,323.91C1057.52,329.62 1059.27,337.59 1062.22,344.7C1069.88,364.94 1077.58,385.18 1085.27,405.42C1087.81,411.3 1089.12,417.74 1088.24,424.15C1055.03,391.54 1022.44,358.28 989.2,325.72C995.66,322.87 1002.37,320.63 1008.96,318.08Z" style="fill:rgb(1,172,104);fill-rule:nonzero;"/>
    </g>
    <g transform="matrix(0.170555,0,0,0.170555,46.0615,20.2544)">
        <path d="M1190.37,314.55C1193.51,313.76 1196.79,314.19 1200,314.2L1200,314.64C1195.94,317.63 1192.74,321.59 1189.09,325.02C1160.32,353.67 1131.66,382.43 1102.85,411.03C1099.68,402.98 1096.69,394.85 1093.57,386.78C1089.74,377.25 1090.49,365.84 1096.11,357.16C1099.8,351.14 1105.63,346.59 1112.24,344.15C1138.29,334.32 1164.39,324.59 1190.37,314.55Z" style="fill:rgb(0,129,201);fill-rule:nonzero;"/>
    </g>
</svg>
