<?xml version="1.0" encoding="UTF-8" standalone="no"?>
<!DOCTYPE svg PUBLIC "-//W3C//DTD SVG 1.1//EN" "http://www.w3.org/Graphics/SVG/1.1/DTD/svg11.dtd">
<svg width="100%" height="100%" viewBox="0 0 300 150" version="1.1" xmlns="http://www.w3.org/2000/svg" xmlns:xlink="http://www.w3.org/1999/xlink" xml:space="preserve" xmlns:serif="http://www.serif.com/" style="fill-rule:evenodd;clip-rule:evenodd;stroke-linejoin:round;stroke-miterlimit:2;">
    <g transform="matrix(0.104355,0,0,0.119168,40.8027,41.7707)">
        <path d="M323.62,71.78C326.71,71.19 329.88,71.5 333,71.45C393.19,71.5 453.38,71.42 513.57,71.5C513.67,103.55 513.71,135.61 513.58,167.67C503.29,176.66 494.24,186.96 484.24,196.26C466.11,215.12 447,233.01 428.9,251.91C425.89,255.38 422.28,258.26 418.63,261.03C418.32,256.01 417.3,251.02 418.26,246.01C418.52,222.68 418.26,199.33 418.38,176C418.43,173.14 418.27,170.29 417.74,167.49C397.1,167.54 376.44,167.28 355.8,167.64C345.18,179.39 333.41,190.04 322.53,201.53C296.19,227.52 270.21,253.89 243.88,279.89C234.01,289.03 225.14,299.16 215.46,308.48C213.35,310.4 211.26,313.18 208.04,312.66C166.88,312.51 125.7,312.86 84.54,312.49C85.93,308.52 89.65,306.3 92.47,303.45C102.81,293.13 113.12,282.78 123.35,272.35C144.02,252.34 163.89,231.54 184.47,211.45C227.08,168.74 269.77,126.13 312.43,83.47C316.18,79.6 319.25,75 323.62,71.78Z" style="fill:rgb(1,172,236);fill-rule:nonzero;"/>
    </g>
    <g transform="matrix(0.104355,0,0,0.119168,40.8027,41.7707)">
        <path d="M920.87,205.75C968.93,205.55 1017,205.76 1065.07,205.64C1067.59,205.37 1069.93,206.42 1072.07,207.65C1058.05,207.1 1044.02,207.54 1030,207.41C994.97,207.4 959.93,207.43 924.9,207.39C922.35,207.24 920.02,208.32 917.84,209.5C918.86,208.26 919.88,207.03 920.87,205.75Z" style="fill:rgb(1,172,236);fill-rule:nonzero;"/>
    </g>
    <g transform="matrix(0.104355,0,0,0.119168,40.8027,41.7707)">
        <path d="M1492.75,205.75C1511.62,205.61 1530.5,205.65 1549.37,205.73C1549.45,206.19 1549.61,207.12 1549.7,207.58C1530.43,207.31 1511.16,207.27 1491.9,207.61C1492.12,207.15 1492.54,206.22 1492.75,205.75Z" style="fill:rgb(1,172,236);fill-rule:nonzero;"/>
    </g>
    <g transform="matrix(0.104355,0,0,0.119168,40.8027,41.7707)">
        <path d="M1812.8,205.79C1841.86,205.52 1870.93,205.75 1900,205.67C1920.67,205.75 1941.34,205.52 1962.01,205.8C1963.07,207.05 1964.21,208.26 1965.37,209.46C1963.07,208.38 1960.67,207.3 1958.09,207.39C1927.4,207.42 1896.7,207.41 1866,207.41C1847.83,207.59 1829.65,207.04 1811.49,207.71C1811.91,207.07 1812.35,206.43 1812.8,205.79Z" style="fill:rgb(1,172,236);fill-rule:nonzero;"/>
    </g>
    <g transform="matrix(0.104355,0,0,0.119168,40.8027,41.7707)">
        <path d="M503.62,216.64C507.12,213.78 509.54,209.07 513.94,207.66C550.62,207.43 587.31,207.66 624,207.54C629.74,207.55 635.55,207.22 641.19,208.57C637.49,211.39 634.21,214.7 631.1,218.14C618.42,231.12 605.57,243.93 592.7,256.71C586.75,263.43 579.87,269.21 573.73,275.73C567.67,282.69 560.3,288.35 554.28,295.33C548.53,301.91 541.47,307.16 535.78,313.78C530.27,319.96 523.81,325.17 518.27,331.31C513.2,336.89 507.66,341.99 502.27,347.24C489.41,360.06 476.87,373.2 463.67,385.68C457.91,392.2 451.36,397.96 445.35,404.26C438.33,410.62 432.1,417.76 425.37,424.4C422.19,427.58 418.61,430.34 415.53,433.62C410.82,438.81 406.2,444.22 400.49,448.35C396.75,449.25 392.81,448.63 389,448.75C336.33,448.73 283.66,448.75 231,448.74C224.14,448.73 217.29,448.9 210.44,448.62C210.13,419.07 210.42,389.52 210.3,359.97C210.33,357.84 210.21,355.68 210.62,353.58C212.02,351.67 213.76,350.06 215.43,348.41C238.1,326.11 260.21,303.24 283.11,281.19C290.24,273.38 297.82,265.98 305.51,258.74C305.76,271.15 306.65,283.58 305.81,296C305.82,309.67 305.76,323.34 305.83,337C306.16,342.24 306.3,347.49 306.23,352.74C326.12,352.67 346.02,352.88 365.91,352.65C367.77,352.88 368.87,351.22 370.1,350.14C374.43,345.44 379.75,341.75 383.65,336.64C393.83,326.49 403.96,316.27 414.34,306.31C428.03,292.36 441.54,278.19 455.71,264.71C471.38,248.38 487.94,232.96 503.62,216.64Z" style="fill:rgb(1,172,236);fill-rule:nonzero;"/>
    </g>
    <g transform="matrix(0.104355,0,0,0.119168,40.8027,41.7707)">
        <path d="M1490.37,221.01C1490.48,217.23 1489.68,213.16 1491.71,209.73C1491.3,228.81 1491.66,247.91 1491.54,267C1491.66,296.39 1491.31,325.8 1491.71,355.19C1491,353.57 1490.23,351.91 1490.36,350.1C1490.4,307.07 1490.39,264.04 1490.37,221.01Z" style="fill:rgb(1,172,236);fill-rule:nonzero;"/>
    </g>
    <g transform="matrix(0.104355,0,0,0.119168,40.8027,41.7707)">
        <path d="M1948,239.33C1953.86,239.07 1960.42,240.63 1965.5,236.81C1963.75,238.64 1961.8,240.89 1959.01,240.52C1929.84,240.55 1900.67,240.46 1871.5,240.56C1871.29,248.18 1871.35,255.81 1871.52,263.43C1892.35,263.54 1913.2,263.42 1934.04,263.36C1936.06,263.53 1938.24,263.09 1940.21,263.78C1940.36,264.21 1940.66,265.05 1940.81,265.47C1938.68,264.52 1936.49,263.38 1934.09,263.61C1912.58,263.64 1891.07,263.33 1869.56,263.62C1869.77,255.59 1869.63,247.57 1869.63,239.55C1895.74,239.07 1921.87,239.48 1948,239.33Z" style="fill:rgb(1,172,236);fill-rule:nonzero;"/>
    </g>
    <g transform="matrix(0.104355,0,0,0.119168,40.8027,41.7707)">
        <path d="M1046.86,263.46C1048.02,265.47 1049.67,267.45 1049.41,269.94C1049.37,277.98 1049.38,286.03 1049.42,294.08C1049.62,296.68 1048.36,299.01 1047.42,301.34C1035.63,302.22 1023.8,301.58 1012,301.75C1000.73,301.88 989.44,301.62 978.2,301.85L978.19,301.36C1000.39,301.06 1022.62,301.26 1044.81,301.24C1046.03,300.56 1047.39,299.48 1047.47,297.95C1047.98,292.99 1047.59,287.99 1047.67,283.01C1047.54,276.49 1048.2,269.89 1046.86,263.46Z" style="fill:rgb(1,172,236);fill-rule:nonzero;"/>
    </g>
    <g transform="matrix(0.104355,0,0,0.119168,40.8027,41.7707)">
        <path d="M1935.96,301.26C1937.64,301.01 1939.17,300.17 1940.74,299.49C1940.64,299.95 1940.44,300.85 1940.34,301.31C1920.58,302.44 1900.78,301.27 1881,301.81C1878.04,302.08 1874.88,300.74 1872.14,302.15C1871.11,303.6 1871.35,305.37 1871.34,307.04C1871.41,312.8 1871.32,318.56 1871.45,324.33C1903.61,324.56 1935.77,324.26 1967.93,324.49C1967.59,324.85 1966.9,325.58 1966.56,325.94C1960.72,325.27 1954.84,325.67 1949,325.58C1922.78,325.51 1896.56,325.73 1870.35,325.47C1869.01,317.5 1869.99,309.4 1869.52,301.37C1891.66,301.22 1913.82,301.19 1935.96,301.26Z" style="fill:rgb(1,172,236);fill-rule:nonzero;"/>
    </g>
    <g transform="matrix(0.104355,0,0,0.119168,40.8027,41.7707)">
        <path d="M1173.61,203.7C1185.66,202.3 1197.86,202.11 1209.98,202.77C1214.8,203.52 1219.87,202.71 1224.45,204.72C1242.08,208.22 1259.21,215.38 1273.29,226.71C1284.43,235.02 1293,246.56 1298.46,259.31C1299.97,262.48 1300.22,266.06 1301.54,269.32C1302.47,275.14 1302.33,281.09 1302.25,286.97C1302.4,299.62 1296.51,311.36 1289.54,321.6C1283.99,328.58 1277.54,334.88 1270.49,340.34C1262.5,345.83 1254.04,350.79 1244.91,354.11C1239.3,356.23 1233.51,357.79 1227.77,359.42C1223.36,359.33 1219.49,361.94 1215.09,361.72C1203.06,362.79 1190.95,362.63 1178.92,361.73C1175.11,361.99 1171.79,359.78 1168.05,359.58C1151.06,356.07 1134.7,348.9 1121.04,338.09C1111.85,330.39 1103.25,321.48 1098.28,310.42C1095.55,305.23 1094.08,299.55 1092.43,293.97C1091.58,286.43 1091.6,278.79 1092.37,271.24C1095.12,259.58 1100.19,248.29 1108.12,239.19C1121.97,222.82 1141.53,211.78 1162.21,206.62C1165.95,205.43 1169.89,205.01 1173.61,203.7M1180.07,242.39C1171.53,245.58 1162.98,249.9 1157.13,257.12C1152.17,262.99 1147.55,270.04 1147.68,278.03C1147.51,282.95 1147.46,287.94 1148.34,292.81C1151.64,302.88 1158.83,311.69 1168.09,316.88C1174.74,320.86 1182.15,324.16 1190.02,324.3C1197.04,324.66 1204.12,324.64 1211.09,323.56C1220.34,320.76 1229.49,316.36 1236.03,309.03C1240.97,304.12 1244.71,297.89 1246.17,291.05C1246.78,282.34 1247.52,272.97 1242.98,265.1C1238.49,257.5 1232.08,250.78 1224.13,246.78C1218.17,243.65 1211.82,240.8 1204.97,240.68C1196.69,240.41 1188.05,239.88 1180.07,242.39Z" style="fill:rgb(19,20,24);fill-rule:nonzero;"/>
    </g>
    <g transform="matrix(0.104355,0,0,0.119168,40.8027,41.7707)">
        <path d="M687.6,210.95C687.12,207.99 690.44,206.29 692.96,206.5C711.33,206.51 729.7,206.5 748.07,206.51C752.89,206.53 756.36,210.41 759.37,213.7C764.91,220.17 771.18,225.95 776.65,232.47C787.99,244.05 799.35,255.64 810.09,267.8C816.08,274.14 822.25,280.32 828.43,286.47C829.03,261.66 828.45,236.82 828.74,212.01C829.33,209.2 831.79,206.26 834.9,206.52C850.28,206.47 865.67,206.54 881.05,206.49C883.69,206.28 886.16,207.33 888.67,207.99C889.41,213.3 889.14,218.66 889.18,224C889.19,264.33 889.15,304.66 889.2,345C889.16,348.83 889.43,352.7 888.69,356.49C887.52,357.8 885.59,357.37 884.07,357.56C865.01,357.6 845.96,357.59 826.91,357.57C825.49,357.37 823.74,357.76 822.65,356.65C809.41,343.77 797.54,329.59 784.5,316.51C772.21,304.46 761.22,291.17 749.04,279.01C748.69,279.23 747.98,279.65 747.63,279.86C747.47,303.89 747.63,327.94 747.55,351.97C747.17,353.91 746.09,355.63 745.44,357.49C726.24,357.56 707.03,357.83 687.83,357.33C687.21,340.24 687.7,323.11 687.54,306C687.58,274.32 687.48,242.63 687.6,210.95Z" style="fill:rgb(19,20,24);fill-rule:nonzero;"/>
    </g>
    <g transform="matrix(0.104355,0,0,0.119168,40.8027,41.7707)">
        <path d="M1317.62,209.98C1317.51,207.37 1320.92,206.71 1322.97,206.53C1339,206.49 1355.05,206.49 1371.09,206.53C1374.51,206.35 1377.94,209.51 1377.63,213C1377.62,247.11 1377.6,281.23 1377.64,315.34C1406.09,315.27 1434.54,315.34 1462.99,315.3C1467.54,315.47 1472.71,314.23 1476.33,317.76C1476.23,330.14 1476.56,342.53 1476.2,354.9C1476.48,357.84 1473.01,357.45 1471.07,357.57C1443.71,357.61 1416.36,357.57 1389,357.58C1365.24,357.4 1341.47,357.96 1317.72,357.29C1317.26,316.2 1317.66,275.09 1317.53,234C1317.6,225.99 1317.37,217.98 1317.62,209.98Z" style="fill:rgb(19,20,24);fill-rule:nonzero;"/>
    </g>
    <g transform="matrix(0.104355,0,0,0.119168,40.8027,41.7707)">
        <path d="M1579.25,212.03C1578.93,208.61 1582.85,206.26 1585.91,206.49C1604.97,206.59 1624.04,206.34 1643.09,206.63C1649.87,210.37 1654.25,217.02 1659.66,222.35C1675.4,238.33 1690.39,255.02 1706.08,271.06C1711.37,276.18 1716.21,281.72 1721.45,286.89C1722.45,273.31 1721.6,259.62 1721.89,246C1722.16,233.5 1721.35,220.95 1722.3,208.48C1724.02,207.51 1725.83,206.38 1727.91,206.5C1744.61,206.58 1761.32,206.38 1778.02,206.6C1780.94,207.76 1782.32,210.9 1782.18,213.92C1782.23,258.96 1782.15,304.01 1782.22,349.05C1782.23,351.94 1781.91,355.07 1779.87,357.3C1767.27,357.95 1754.62,357.4 1742,357.58C1733.36,357.39 1724.68,357.98 1716.07,357.25C1709.23,350.35 1702.41,343.41 1695.63,336.44C1689.49,329.27 1682.47,322.91 1676.4,315.68C1664.16,302.79 1651.44,290.32 1639.66,277.01C1638.98,303.04 1639.68,329.11 1639.3,355.15C1639.56,357.57 1636.6,357.47 1635,357.53C1617.17,357.59 1599.35,357.67 1581.52,357.48C1578.48,354.37 1579.29,349.93 1579.25,345.99C1579.24,301.34 1579.24,256.69 1579.25,212.03Z" style="fill:rgb(19,20,24);fill-rule:nonzero;"/>
    </g>
    <g transform="matrix(0.104355,0,0,0.119168,40.8027,41.7707)">
        <path d="M917.84,209.5C920.02,208.32 922.35,207.24 924.9,207.39C959.93,207.43 994.97,207.4 1030,207.41C1044.02,207.54 1058.05,207.1 1072.07,207.65C1072.37,218.12 1072.69,228.65 1071.89,239.1C1060.27,239.8 1048.62,239.27 1037,239.45C1017.47,239.39 997.95,239.53 978.43,239.37C978.03,247.4 978.24,255.43 978.3,263.46C1001.15,263.46 1024,263.48 1046.86,263.46C1048.2,269.89 1047.54,276.49 1047.67,283.01C1047.59,287.99 1047.98,292.99 1047.47,297.95C1047.39,299.48 1046.03,300.56 1044.81,301.24C1022.62,301.26 1000.39,301.06 978.19,301.36L978.2,301.85C978.33,309.74 977.86,317.65 978.5,325.52C1008.33,325.45 1038.16,325.53 1068,325.48C1070.77,325.46 1073.56,325.6 1076.34,325.84C1077.97,332.11 1077.21,338.6 1077.38,345C1077.34,349.12 1077.73,353.49 1075.92,357.32C1062.96,357.91 1049.97,357.43 1037,357.58C999.66,357.58 962.31,357.59 924.97,357.58C922.76,357.47 920.37,357.78 918.42,356.56C917.72,352.4 917.93,348.18 917.94,343.99C917.83,299.16 918.03,254.33 917.84,209.5Z" style="fill:rgb(19,20,24);fill-rule:nonzero;"/>
    </g>
    <g transform="matrix(0.104355,0,0,0.119168,40.8027,41.7707)">
        <path d="M1491.9,207.61C1511.16,207.27 1530.43,207.31 1549.7,207.58C1550.79,211.64 1550.39,215.85 1550.44,220C1550.43,251.33 1550.44,282.66 1550.43,314C1550.26,328.44 1550.81,342.91 1550.1,357.34C1530.67,357.75 1511.22,357.72 1491.8,357.36C1491.78,356.82 1491.73,355.73 1491.71,355.19C1491.31,325.8 1491.66,296.39 1491.54,267C1491.66,247.91 1491.3,228.81 1491.71,209.73C1491.76,209.2 1491.86,208.14 1491.9,207.61Z" style="fill:rgb(19,20,24);fill-rule:nonzero;"/>
    </g>
    <g transform="matrix(0.104355,0,0,0.119168,40.8027,41.7707)">
        <path d="M1811.49,207.71C1829.65,207.04 1847.83,207.59 1866,207.41C1896.7,207.41 1927.4,207.42 1958.09,207.39C1960.67,207.3 1963.07,208.38 1965.37,209.46C1965.38,218.58 1965.17,227.7 1965.5,236.81C1960.42,240.63 1953.86,239.07 1948,239.33C1921.87,239.48 1895.74,239.07 1869.63,239.55C1869.63,247.57 1869.77,255.59 1869.56,263.62C1891.07,263.33 1912.58,263.64 1934.09,263.61C1936.49,263.38 1938.68,264.52 1940.81,265.47C1940.77,276.81 1940.96,288.16 1940.74,299.49C1939.17,300.17 1937.64,301.01 1935.96,301.26C1913.82,301.19 1891.66,301.22 1869.52,301.37C1869.99,309.4 1869.01,317.5 1870.35,325.47C1896.56,325.73 1922.78,325.51 1949,325.58C1954.84,325.67 1960.72,325.27 1966.56,325.94C1967.33,326.04 1968.86,326.25 1969.63,326.36C1969.91,336.63 1970.1,346.94 1969.52,357.2C1959.03,357.97 1948.5,357.41 1938,357.58C1895.82,357.47 1853.64,357.81 1811.47,357.41C1810.23,352.35 1810.67,347.14 1810.64,342C1810.62,299.33 1810.65,256.66 1810.62,214C1810.57,211.86 1811.05,209.78 1811.49,207.71Z" style="fill:rgb(19,20,24);fill-rule:nonzero;"/>
    </g>
</svg>
