<?xml version="1.0" encoding="UTF-8" standalone="no"?>
<!DOCTYPE svg PUBLIC "-//W3C//DTD SVG 1.1//EN" "http://www.w3.org/Graphics/SVG/1.1/DTD/svg11.dtd">
<svg width="100%" height="100%" viewBox="0 0 300 150" version="1.1" xmlns="http://www.w3.org/2000/svg" xmlns:xlink="http://www.w3.org/1999/xlink" xml:space="preserve" xmlns:serif="http://www.serif.com/" style="fill-rule:evenodd;clip-rule:evenodd;stroke-linejoin:round;stroke-miterlimit:2;">
    <g transform="matrix(0.0929557,0,0,0.0929557,34.1626,-42.4744)">
        <path d="M685.309,1178.19L769.626,1178.19L773.335,1205.98C779.82,1183.75 822.452,1167.99 848.391,1167.99C908.623,1167.99 932.708,1205.06 932.708,1269.92L932.708,1409.83L839.131,1409.83L839.131,1284.73C839.131,1259.73 834.501,1241.19 809.482,1241.19C786.318,1241.19 774.269,1266.21 774.269,1283.83L774.269,1409.83L685.322,1409.83L685.322,1178.19L685.309,1178.19ZM139.555,1410.77L139.555,1082.76L296.139,1082.76C389.728,1082.76 432.347,1128.15 432.347,1193.94C432.347,1264.38 393.438,1312.57 296.139,1312.57L243.326,1312.57L243.326,1410.77L139.555,1410.77ZM285.037,1232.85C310.055,1232.85 336.916,1227.29 336.916,1198.58C336.916,1168.93 308.201,1162.44 285.037,1162.44L243.339,1162.44L243.339,1232.85L285.037,1232.85ZM1715.67,1178.19L1800.92,1178.19L1803.7,1205.98C1811.12,1183.75 1853.73,1167.99 1879.69,1167.99C1938.99,1167.99 1964,1205.06 1964,1269.92L1964,1410.76L1870.42,1410.76L1870.42,1284.73C1870.42,1259.73 1864.85,1241.19 1839.85,1241.19C1817.61,1241.19 1805.55,1266.21 1805.55,1283.83L1805.55,1410.76L1715.67,1410.76L1715.67,1178.19ZM1285.76,1327.38C1285.76,1336.65 1290.39,1350.53 1295.94,1355.17C1302.42,1359.8 1310.76,1364.44 1320.97,1364.44C1337.64,1364.44 1350.61,1359.82 1350.61,1344.06C1351.54,1305.15 1209.77,1339.43 1209.77,1246.77C1209.77,1181.92 1259.82,1167.08 1311.7,1167.08C1363.58,1167.08 1434.94,1177.28 1432.15,1247.69L1353.39,1247.69C1353.39,1241.21 1350.61,1236.58 1346.91,1231.01C1341.33,1224.53 1334.85,1221.75 1322.83,1220.82C1307.07,1219.9 1292.26,1222.67 1292.26,1234.72C1293.16,1270.87 1438.64,1246.77 1438.64,1332.02C1438.64,1391.32 1396.95,1418.2 1316.34,1418.2C1265.37,1417.27 1201.44,1391.33 1201.44,1327.39L1285.76,1327.39L1285.76,1327.38ZM2244.76,1268.07C2244.76,1262.49 2244.76,1255.1 2237.36,1245.82C2233.64,1241.19 2225.3,1231 2212.33,1231C2177.12,1231 2167.84,1265.28 2167.84,1293.1C2167.84,1325.52 2182.7,1352.4 2210.48,1352.4C2234.56,1352.4 2246.62,1330.15 2246.62,1311.61L2328.16,1311.61C2330.02,1359.79 2296.65,1417.25 2206.78,1417.25C2133.57,1417.25 2081.69,1366.27 2081.69,1292.15C2081.69,1202.27 2148.39,1167.98 2205.83,1167.98C2283.68,1167.98 2328.16,1215.24 2327.22,1268.05L2244.76,1268.05L2244.76,1268.07ZM586.169,1410.76L576.908,1391.31C559.308,1406.13 540.774,1414.46 511.125,1414.46C482.397,1413.55 425.875,1409.83 425.875,1347.75C425.875,1245.82 577.842,1292.15 577.842,1242.11C577.842,1225.43 559.308,1226.36 549.114,1226.36C530.58,1226.36 518.544,1230.07 515.756,1257.85L437.924,1257.85C437.924,1209.68 452.762,1168.91 554.678,1168.91C653.832,1168.91 664.013,1220.79 664.013,1271.76L664.013,1377.4C664.013,1391.31 664.947,1397.79 674.207,1407.97L674.207,1409.83L586.169,1410.76ZM578.763,1304.2C547.259,1319.05 507.416,1318.1 506.495,1341.28C506.495,1356.11 514.835,1363.5 533.369,1363.5C563.938,1363.5 580.617,1332.01 578.763,1304.2ZM1108.77,1410.76L1099.51,1391.31C1081.91,1406.13 1062.44,1414.46 1033.72,1414.46C1004.07,1413.55 947.545,1409.83 947.545,1347.75C947.545,1245.82 1099.51,1292.15 1100.43,1242.11C1100.43,1225.43 1080.98,1226.36 1071.72,1226.36C1052.26,1226.36 1041.13,1230.07 1038.36,1257.85L960.528,1257.85C960.528,1209.68 974.418,1168.91 1077.27,1168.91C1175.49,1168.91 1185.68,1220.79 1185.68,1271.76L1185.68,1377.4C1185.68,1391.31 1186.6,1397.79 1195.88,1407.97L1195.88,1409.83L1108.77,1410.76ZM1101.35,1304.2C1069.85,1319.05 1029.07,1318.1 1029.07,1341.28C1029.07,1356.11 1036.48,1363.5 1055.95,1363.5C1085.61,1363.5 1103.21,1332.01 1101.35,1304.2ZM2066.85,1410.76L2066.85,1178.19L1980.69,1178.19L1980.69,1410.76L2066.85,1410.76ZM1980.7,1148.54L2066.86,1148.54L2066.86,1081.82L1980.7,1081.82L1980.7,1148.54ZM1576.68,1169.85C1653.59,1169.85 1700.86,1223.59 1700.86,1294.01C1700.86,1365.37 1653.58,1418.18 1576.68,1418.18C1499.79,1418.18 1451.59,1365.37 1451.59,1294.01C1451.6,1223.59 1499.79,1169.85 1576.68,1169.85ZM1535.93,1294.01C1535.93,1322.73 1545.2,1357.95 1576.69,1358.88C1608.21,1358.88 1616.54,1322.73 1616.54,1294.01C1616.54,1266.21 1608.2,1230.08 1576.69,1230.08C1545.2,1230.08 1536.87,1266.23 1535.93,1294.01ZM2382.84,1365.37C2388.39,1365.37 2396.72,1366.27 2396.72,1358.88C2396.72,1352.4 2391.17,1351.46 2386.54,1351.46L2375.43,1351.46L2375.43,1365.37L2382.84,1365.37ZM2401.35,1387.61L2395.8,1387.61L2384.69,1369.06L2375.41,1369.06L2375.41,1387.61L2370.78,1387.61L2370.78,1347.77L2387.47,1347.77C2394.92,1347.77 2401.53,1350 2401.53,1358.88C2401.53,1366.27 2396.72,1369.06 2389.33,1369.06L2401.35,1387.61ZM2414.82,1368.61C2414.82,1351.01 2400.91,1337.09 2384.24,1337.09C2384.16,1337.09 2384.07,1337.09 2383.98,1337.09C2366.84,1337.09 2352.73,1351.2 2352.73,1368.35C2352.73,1368.43 2352.73,1368.52 2352.73,1368.61C2352.73,1385.28 2366.63,1399.18 2384.24,1399.18C2400.96,1399.03 2414.67,1385.32 2414.82,1368.61ZM2348.54,1368.13C2348.54,1348.81 2364.43,1332.92 2383.75,1332.92C2403.07,1332.92 2418.97,1348.81 2418.97,1368.13C2418.97,1387.61 2403.21,1403.34 2383.75,1403.34C2364.3,1403.34 2348.54,1387.61 2348.54,1368.13Z" style="fill:rgb(40,102,173);"/>
    </g>
</svg>
