<?xml version="1.0" encoding="UTF-8" standalone="no"?>
<!DOCTYPE svg PUBLIC "-//W3C//DTD SVG 1.1//EN" "http://www.w3.org/Graphics/SVG/1.1/DTD/svg11.dtd">
<svg width="100%" height="100%" viewBox="0 0 300 150" version="1.1" xmlns="http://www.w3.org/2000/svg" xmlns:xlink="http://www.w3.org/1999/xlink" xml:space="preserve" xmlns:serif="http://www.serif.com/" style="fill-rule:evenodd;clip-rule:evenodd;stroke-linejoin:round;stroke-miterlimit:2;">
    <g transform="matrix(0.12201,0,0,0.12201,45.3495,18.7431)">
        <path d="M299.38,333.66C305.77,332.49 313.07,332.5 318.52,336.54C324.67,340.91 329.06,348.33 328.61,356.02C328.74,369.71 314.02,381.55 300.71,377.58C290.66,375.29 282.64,365.42 283.23,354.99C282.98,345.26 290.07,336.21 299.38,333.66Z" style="fill:rgb(157,10,14);fill-rule:nonzero;"/>
    </g>
    <g transform="matrix(0.12201,0,0,0.12201,45.3495,18.7431)">
        <path d="M701.4,333.63C708.3,332.26 716.11,333.61 721.06,338.95C734.61,353.75 747.37,369.25 760.89,384.08C767.67,392.57 775.13,400.48 782.33,408.62C791.91,420.31 802.33,431.26 812.18,442.72C815.73,447.17 819.53,451.41 823.4,455.59C827.26,459.82 830.68,464.57 835.31,468.01C838.17,470.07 841.19,465.8 840.56,463.03C840.74,427.04 840.56,391.03 840.65,355.04C840.94,347.61 845.06,340.39 851.5,336.61C857.7,332.73 865.97,332.28 872.49,335.64C879.68,339.44 885.18,346.81 885.28,355.15C885.37,414.44 885.27,473.73 885.33,533.02C885.3,539.4 883.02,545.88 878.37,550.37C869.71,558.14 854.76,557.85 846.73,549.28C837.17,538.83 828.14,527.92 818.63,517.42C798.95,494.45 778.66,472.03 758.95,449.09C745.24,434.1 732.43,418.31 718.62,403.42C710.42,393.32 701.32,384.01 692.97,374.03C688.02,369.35 683.95,363.08 684.22,356.01C683.58,345.69 691.17,335.58 701.4,333.63Z" style="fill:rgb(157,10,14);fill-rule:nonzero;"/>
    </g>
    <g transform="matrix(0.12201,0,0,0.12201,45.3495,18.7431)">
        <path d="M993.42,333.72C1005.59,333.04 1017.81,333.61 1030,333.42C1063.01,333.43 1096.02,333.42 1129.04,333.43C1137.44,333.18 1145.96,337.88 1149.7,345.51C1152.49,350.13 1151.94,355.77 1151.5,360.92C1149.27,368.93 1142.24,375.43 1134.01,376.81C1130.39,377.63 1126.67,377.39 1123,377.41C1081.66,377.38 1040.32,377.42 998.97,377.39C991.28,377.49 983.6,374.4 978.68,368.39C973.86,361.95 973,352.73 976.72,345.57C979.89,339.18 986.39,334.71 993.42,333.72Z" style="fill:rgb(157,10,14);fill-rule:nonzero;"/>
    </g>
    <g transform="matrix(0.12201,0,0,0.12201,45.3495,18.7431)">
        <path d="M1238.38,333.66C1248.89,332.99 1259.46,333.55 1270,333.37C1303.67,333.36 1337.34,333.39 1371.01,333.35C1376.35,333.15 1381.94,333.69 1386.62,336.51C1391.54,339.19 1394.83,344.13 1396.53,349.37C1398.87,355.95 1396.79,363.37 1392.84,368.88C1388.07,374.73 1380.36,377.31 1373,377.34C1330.65,377.35 1288.3,377.33 1245.96,377.35C1239.92,377.21 1233.49,376.47 1228.59,372.62C1223.03,368.63 1219.11,361.96 1219.58,355C1219.16,344.39 1228.16,335.17 1238.38,333.66Z" style="fill:rgb(157,10,14);fill-rule:nonzero;"/>
    </g>
    <g transform="matrix(0.12201,0,0,0.12201,45.3495,18.7431)">
        <path d="M1483.41,333.64C1493.25,333.01 1503.14,333.54 1513,333.37C1534,333.36 1554.99,333.38 1575.99,333.36C1584.89,333.1 1593.79,334.36 1602.34,336.83C1612.27,339.67 1621.85,344.43 1629.08,351.96C1635.86,358.38 1639.77,367.1 1642.95,375.72C1647.97,391.92 1647.79,409.68 1642.53,425.8C1639.12,436.13 1632.62,445.37 1624.14,452.16C1613.67,460.43 1600.13,463.54 1587.1,464.65C1584.4,464.85 1583.64,468.63 1585.86,470.09C1597.9,482.07 1610.81,493.14 1623.07,504.91C1628.68,510.66 1635.46,515.28 1640.39,521.68C1644.38,526.74 1644.05,533.59 1643.18,539.62C1641.16,545.54 1636.79,550.7 1631.08,553.32C1624.43,556.77 1616.01,556.14 1609.76,552.13C1606.74,550.26 1604.49,547.46 1601.96,545.04C1575.48,518.85 1549.12,492.54 1522.84,466.16C1518.33,461.34 1512.2,457.28 1510.6,450.47C1509.62,443.94 1510.04,436.7 1514.2,431.27C1518,425.36 1525.16,422.57 1531.96,422.39C1547.3,422.32 1562.64,422.46 1577.98,422.34C1586.02,422.2 1593.88,417.58 1597.48,410.31C1600.07,405.66 1599.79,400.13 1599.42,395.01C1597.97,385.2 1588.71,377.75 1578.98,377.43C1548.34,377.22 1517.68,377.5 1487.05,377.25C1474.83,377.06 1463.79,365.28 1465.54,352.96C1466.89,343.8 1473.84,334.93 1483.41,333.64Z" style="fill:rgb(157,10,14);fill-rule:nonzero;"/>
    </g>
    <g transform="matrix(0.12201,0,0,0.12201,45.3495,18.7431)">
        <path d="M58.23,333.77C59.8,333.55 61.38,333.53 62.96,333.52C93.97,333.56 124.98,333.54 155.98,333.51C172.2,334.32 189.56,338.9 200.89,351.25C211.54,362.16 217.33,377.08 219.24,392.03C219.5,400.42 219.98,408.97 217.97,417.2C215.92,428.23 210.73,438.69 202.86,446.73C191.13,460.47 172.57,466.09 155.04,466.6C135.36,466.69 115.68,466.58 96,466.58C92.3,466.7 88.24,465.86 84.92,467.94C83.68,469.32 83.49,471.21 83.52,472.99C83.52,493.34 83.54,513.69 83.52,534.04C83.53,545.78 72.67,556.06 60.99,555.6C49.58,555.81 39.3,545.41 39.52,534.02C39.46,504.34 39.52,474.66 39.48,444.98C39.2,439.25 41.92,433.85 45.54,429.58C50.22,424.57 57.24,422.5 63.95,422.58C92.32,422.61 120.68,422.57 149.04,422.6C154.17,422.77 159.51,421.78 163.76,418.76C168.82,415.52 171.69,409.86 173.07,404.17C174.97,396.9 171.7,389.37 167.15,383.78C162.57,379.58 156.19,377.4 150,377.5C122,377.5 94,377.58 66.01,377.56C61.83,377.49 57.45,377.99 53.5,376.3C46.96,373.36 41.5,367.64 39.63,360.64C38.87,355.64 38.73,350.09 41.45,345.62C44.79,339.35 51.15,334.71 58.23,333.77Z" style="fill:rgb(157,10,14);fill-rule:nonzero;"/>
    </g>
    <g transform="matrix(0.12201,0,0,0.12201,45.3495,18.7431)">
        <path d="M499.29,333.9C534.48,331.2 570.49,346.9 592.62,374.37C608.6,393.78 618.13,418.76 617.65,444.01C618.58,475.1 604.37,505.73 581.59,526.6C564.16,542.56 541.51,552.61 518.07,555.32C496.02,557.16 473.23,553.25 453.83,542.35C436.64,532.9 421.65,519.13 411.64,502.19C396.32,477.11 391.28,445.82 398.9,417.36C408.07,380.43 437.59,349.3 474.06,338.4C482.23,335.76 490.75,334.43 499.29,333.9M493.53,378.1C468.16,383.23 446.3,403.79 440.63,429.18C438.94,437.59 437.7,446.35 439.64,454.83C441.83,470.17 449.92,484.34 461.21,494.82C471.79,503.9 484.87,510.79 498.97,511.82C506.71,513.42 514.57,511.91 522.21,510.49C538.82,506.62 553.65,496.07 563.01,481.85C571.18,469.67 575.07,454.65 574.06,440.04C573.01,423.13 565.19,406.76 552.63,395.37C542.95,385.26 529.45,379.46 515.73,377.6C508.35,377.22 500.85,376.95 493.53,378.1Z" style="fill:rgb(157,10,14);fill-rule:nonzero;"/>
    </g>
    <g transform="matrix(0.12201,0,0,0.12201,45.3495,18.7431)">
        <path d="M304.31,399.8C314.11,398.99 323.95,405.26 327.5,414.39C328.87,417.41 328.36,420.79 328.44,424C328.39,461.67 328.47,499.34 328.4,537.01C327.57,543.81 322.88,549.78 317.08,553.22C311.84,556.54 305.25,556.48 299.36,555.36C290.3,552.58 283.36,543.6 283.39,534.05C283.4,496.02 283.37,458 283.41,419.98C283.53,408.97 293.79,400.47 304.31,399.8Z" style="fill:rgb(157,10,14);fill-rule:nonzero;"/>
    </g>
    <g transform="matrix(0.12201,0,0,0.12201,45.3495,18.7431)">
        <path d="M992.26,422.95C1003.8,422.12 1015.43,422.82 1027,422.59C1053.68,422.58 1080.37,422.61 1107.05,422.58C1110.81,422.58 1114.68,423.08 1118.1,424.76C1125.8,428.7 1130.89,437.36 1130.36,446.02C1129.8,457.76 1118.89,467.79 1107.03,466.62C1069.69,466.55 1032.34,466.67 994.99,466.57C981.34,466.67 971.27,451.29 975.36,438.66C977.35,430.76 984.08,424.11 992.26,422.95Z" style="fill:rgb(157,10,14);fill-rule:nonzero;"/>
    </g>
    <g transform="matrix(0.12201,0,0,0.12201,45.3495,18.7431)">
        <path d="M1238.24,422.77C1262.14,422.22 1286.08,422.69 1310,422.53C1325.33,422.61 1340.66,422.39 1355.98,422.64C1369.12,423.36 1378.12,438.07 1374.53,450.28C1372.51,459.17 1364.23,466.51 1354.97,466.54C1316.66,466.56 1278.34,466.55 1240.02,466.55C1233.4,466.63 1227.37,462.68 1223.55,457.49C1217.36,448.83 1218.44,435.62 1226.39,428.4C1229.5,425.17 1233.86,423.44 1238.24,422.77Z" style="fill:rgb(157,10,14);fill-rule:nonzero;"/>
    </g>
    <g transform="matrix(0.12201,0,0,0.12201,45.3495,18.7431)">
        <path d="M703.74,509.99C717.56,507.05 731.82,519.88 730.53,533.93C730.13,548.26 713.72,559.23 700.36,554.02C692.96,551.73 687.23,545.3 685.47,537.81C685.1,532.87 684.57,527.51 687.02,522.98C690.2,516.36 696.56,511.48 703.74,509.99Z" style="fill:rgb(157,10,14);fill-rule:nonzero;"/>
    </g>
    <g transform="matrix(0.12201,0,0,0.12201,45.3495,18.7431)">
        <path d="M1481.71,511.12C1489.49,509.16 1498.15,511.43 1503.68,517.34C1512.19,525.56 1512.36,540.58 1504.02,548.99C1495.68,558.27 1479.23,558.38 1470.98,548.94C1466.11,543.28 1463.1,535.2 1465.44,527.83C1467.22,519.78 1473.9,513.39 1481.71,511.12Z" style="fill:rgb(157,10,14);fill-rule:nonzero;"/>
    </g>
    <g transform="matrix(0.12201,0,0,0.12201,45.3495,18.7431)">
        <path d="M994.48,511.85C1004.62,511.19 1014.83,511.75 1025,511.57C1058,511.56 1091,511.59 1124.01,511.56C1128.85,511.41 1133.84,511.62 1138.39,513.47C1146.51,516.62 1152.63,525 1151.84,533.89C1152.68,545.73 1141.48,555.79 1129.98,555.57C1086.98,555.7 1043.98,555.57 1000.99,555.63C997.38,555.62 993.7,555.67 990.23,554.6C982.77,552.52 976.59,546.2 975.09,538.55C971.77,526.18 981.68,512.57 994.48,511.85Z" style="fill:rgb(157,10,14);fill-rule:nonzero;"/>
    </g>
    <g transform="matrix(0.12201,0,0,0.12201,45.3495,18.7431)">
        <path d="M1240.27,511.77C1280.16,511.18 1320.09,511.68 1360,511.52C1369.7,511.65 1380.47,510.14 1388.82,516.29C1399.75,523.81 1400.28,541.66 1390,549.98C1384.74,554.36 1377.77,556.01 1371.03,555.57C1328.34,555.54 1285.65,555.59 1242.96,555.55C1234.89,555.63 1226.28,551.89 1222.5,544.43C1219.58,539.5 1219.89,533.55 1220.45,528.07C1222.52,519.04 1231.23,512.55 1240.27,511.77Z" style="fill:rgb(157,10,14);fill-rule:nonzero;"/>
    </g>
</svg>
