<?xml version="1.0" encoding="UTF-8" standalone="no"?>
<!DOCTYPE svg PUBLIC "-//W3C//DTD SVG 1.1//EN" "http://www.w3.org/Graphics/SVG/1.1/DTD/svg11.dtd">
<svg width="100%" height="100%" viewBox="0 0 300 150" version="1.1" xmlns="http://www.w3.org/2000/svg" xmlns:xlink="http://www.w3.org/1999/xlink" xml:space="preserve" xmlns:serif="http://www.serif.com/" style="fill-rule:evenodd;clip-rule:evenodd;stroke-linejoin:round;stroke-miterlimit:2;">
    <g id="_-0063abff" serif:id="#0063abff" transform="matrix(0.0847057,0,0,0.0900409,33.1174,51.57)">
        <path d="M66.28,89.28C168.18,89.21 270.09,89.28 371.99,89.24C386.04,88.99 400.15,92.68 412.3,99.72C435.18,112.58 450.64,137.73 451.25,164.02C451.26,189.69 451.24,215.37 451.26,241.04C451.06,257.08 445.5,272.98 435.77,285.72C424.51,300.76 407.6,311.4 389.22,315.21C378.64,317.56 367.75,316.92 357.01,317C292.92,317 228.84,316.99 164.75,317L164.75,398.99C131.92,399 99.08,399.01 66.25,398.99C66.28,295.75 66.21,192.52 66.28,89.28M164.8,165.21C164.68,190.22 164.78,215.24 164.75,240.25C219.15,240.26 273.55,240.25 327.95,240.25C334.15,240.35 340.48,238.4 345.13,234.21C350.33,229.71 353.16,222.83 353.01,215.98C352.91,206.29 353.16,196.6 352.89,186.91C352.3,175.19 341.63,165.4 329.98,165.31C274.92,165.14 219.86,165.34 164.8,165.21Z" style="fill:rgb(0,99,171);fill-rule:nonzero;"/>
        <path d="M574.26,89.37C652.5,89.08 730.75,89.35 808.99,89.24C829.54,89.15 849.99,96.24 866.26,108.75C888.59,125.63 902.51,153.02 902.66,181.05C902.85,222.37 902.72,263.7 902.73,305.03C902.75,323.41 897.49,341.84 887.16,357.1C872.06,380.02 846.39,395.48 819.13,398.37C811.79,399.27 804.4,398.95 797.04,399C724.68,399 652.33,398.99 579.97,399C560.82,398.86 541.69,392.97 526.03,381.9C502.05,365.42 486.54,337.16 486.25,307.99C486.26,269 486.25,230.01 486.25,191.02C486.32,184.35 485.94,177.64 486.87,171.01C489.43,148.84 500.6,127.92 517.27,113.15C532.9,99.13 553.32,90.67 574.26,89.37M694.38,105.16C686.5,137.33 678.72,169.52 670.87,201.69C653.86,191.48 637.04,180.93 619.99,170.78C629.38,187.35 638.4,204.13 647.58,220.82C602.02,228.47 556.48,236.23 510.92,243.91C556.45,251.71 602.02,259.21 647.56,266.94C638.53,283.53 629.37,300.05 620.29,316.61C637,306.21 653.92,296.13 670.85,286.08C678.79,318.32 686.45,350.63 694.41,382.86C702.21,350.58 709.95,318.27 717.93,286.03C734.81,296.16 751.73,306.24 768.49,316.58C759.33,300.06 750.24,283.51 741.19,266.94C786.76,259.25 832.33,251.64 877.9,243.95C832.35,236.19 786.78,228.53 741.22,220.81C750.29,204.11 759.43,187.46 768.64,170.84C751.66,181.01 734.84,191.46 717.89,201.68C709.96,169.53 702.23,137.33 694.38,105.16Z" style="fill:rgb(0,99,171);fill-rule:nonzero;"/>
        <path d="M937.5,89.26C970.05,89.2 1002.6,89.34 1035.15,89.19C1035.4,156.8 1035.16,224.41 1035.27,292.02C1035.63,303.93 1043.86,314.93 1054.87,319.23C1060.58,321.69 1066.9,321.6 1073,321.49C1124.75,321.5 1176.5,321.48 1228.25,321.5L1228.25,399C1147.15,399.01 1066.06,398.99 984.97,399.01C974.76,399.01 964.52,395.81 956.32,389.69C945.04,381.51 937.82,367.98 937.5,354.03C937.49,265.77 937.49,177.52 937.5,89.26Z" style="fill:rgb(0,99,171);fill-rule:nonzero;"/>
        <path d="M1338.05,89.95C1344.67,88.96 1351.37,89.3 1358.04,89.25C1420.34,89.25 1482.65,89.26 1544.96,89.25C1570.23,88.57 1595.58,98.67 1613.44,116.55C1627.11,129.94 1636.47,147.7 1639.59,166.6C1641.52,177.27 1640.89,188.16 1641,198.95L1641,399C1616,398.84 1591.01,399.43 1566.01,399.25C1558,399.17 1550,399.29 1542,399.52C1541.99,372.1 1542.01,344.67 1541.99,317.25C1479.25,317.26 1416.5,317.25 1353.75,317.25C1353.74,344.5 1353.75,371.74 1353.75,398.99C1321.17,399.01 1288.58,399 1256,399L1256,191.96C1256.08,184.28 1255.62,176.55 1256.84,168.93C1259.79,147.98 1270.36,128.24 1286,114.02C1300.3,100.86 1318.77,92.34 1338.05,89.95M1353.39,200.52C1353.06,213.76 1353.34,227.01 1353.25,240.25C1416,240.26 1478.74,240.25 1541.49,240.25L1541.49,202.01C1541.36,189.86 1534.57,178.15 1524.37,171.65C1518.1,167.46 1510.52,165.38 1503,165.49C1464.98,165.56 1426.96,165.43 1388.95,165.56C1370.58,166.27 1354.26,182.09 1353.39,200.52Z" style="fill:rgb(0,99,171);fill-rule:nonzero;"/>
        <path d="M1676.01,89.25C1777.34,89.26 1878.67,89.25 1980,89.25C1989.86,88.9 1999.78,90.44 2009.09,93.73C2034.24,102.38 2054.28,124.75 2059.46,150.93C2061.6,160.12 2060.89,169.58 2061,178.92L2061,225.04C2060.91,231.37 2061.44,237.8 2059.89,244.01C2056.69,258.45 2046.02,270.83 2032.4,276.48C2027.33,278.78 2021.79,279.6 2016.34,280.34C2035.93,280.55 2054.23,295.12 2059.29,313.99C2061.63,321.45 2060.89,329.34 2061,337.04L2061,399L1962.75,399C1962.72,379.66 1962.79,360.32 1962.72,340.99C1962.82,332.33 1957.83,323.81 1950.01,319.99C1942.33,315.81 1933.33,317.66 1925,317.25C1874.59,317.63 1824.17,317.48 1773.75,317.51C1773.74,344.67 1773.75,371.83 1773.75,398.99C1741.17,399.01 1708.58,399 1676,399C1676,295.75 1675.99,192.5 1676.01,89.25M1773.75,164.75C1773.74,190.17 1773.75,215.58 1773.75,241C1823.86,241 1873.97,241.01 1924.08,240.99C1939.29,240.58 1953.75,230.31 1958.89,215.94C1963.07,205.11 1961.63,192.41 1955.37,182.66C1950.07,174.46 1941.65,168.29 1932.16,165.9C1925.27,164.04 1918.08,164.96 1911.04,164.75C1865.28,164.75 1819.52,164.74 1773.75,164.75Z" style="fill:rgb(0,99,171);fill-rule:nonzero;"/>
        <path d="M2096.01,89.49C2128.84,89.51 2161.67,89.48 2194.5,89.5C2194.51,192.75 2194.52,296 2194.5,399.25L2096,399.25C2096,295.99 2095.99,192.74 2096.01,89.49Z" style="fill:rgb(0,99,171);fill-rule:nonzero;"/>
        <path d="M2247.19,117.19C2262.75,98.31 2287.6,87.89 2311.96,89.25L2596.24,89.25C2596.26,114.58 2596.25,139.91 2596.24,165.24C2516.15,165.26 2436.06,165.24 2355.97,165.25C2350.67,165.32 2345.1,164.66 2340.17,167.04C2331.74,170.59 2326.04,179.9 2327.4,189.05C2328.61,199.49 2338.47,208 2349.01,207.51C2369.68,207.27 2390.34,207.87 2411.02,207.75L2512.02,207.75C2528.4,208.03 2545.36,206.22 2561.09,212C2590.51,221.51 2612.71,250 2613.97,281.01C2614.05,295.32 2613.96,309.64 2614.01,323.95C2613.65,346.81 2602.04,369 2583.89,382.8C2570.32,393.41 2553.15,399.07 2535.97,399.25L2229,399.25C2229,373.42 2228.99,347.58 2229,321.75L2493.1,321.75C2499.98,321.79 2506.77,318.35 2510.77,312.72C2515.43,306.5 2516.09,297.54 2512.25,290.76C2508.8,284.06 2501.49,279.52 2493.96,279.5C2431.63,279.52 2369.29,279.49 2306.96,279.51C2291.67,279.34 2276.4,274.83 2263.72,266.26C2248.95,256.44 2237.56,241.49 2232.44,224.47C2229.51,215.3 2228.86,205.6 2229,196.03C2229.09,185.33 2228.81,174.62 2229.15,163.92C2229.63,146.9 2236.15,130.15 2247.19,117.19Z" style="fill:rgb(0,99,171);fill-rule:nonzero;"/>
        <path d="M2629.26,100.3C2640.95,88.08 2660.87,85.29 2675.67,93.31C2687.06,99.15 2694.93,111.04 2696,123.79L2696,130.17C2695.31,136.44 2693.42,142.65 2689.86,147.9C2682.84,158.82 2669.98,165.54 2657.03,165.3C2642.36,165.51 2627.99,156.63 2621.87,143.26C2615.13,129.25 2618.03,111.17 2629.26,100.3M2652.41,95.58C2640.29,97.15 2629.49,106.19 2626.15,117.98C2622.36,130.15 2626.74,144.35 2636.9,152.09C2647.37,160.31 2662.93,161.08 2674.3,154.26C2687.15,146.89 2692.85,129.87 2687.58,116.12C2682.79,101.94 2667.01,93.19 2652.41,95.58Z" style="fill:rgb(0,99,171);fill-rule:nonzero;"/>
        <path d="M2641.5,105.26C2648.9,105.31 2656.32,105.11 2663.74,105.36C2669.01,105.44 2674.73,108.55 2676.02,113.99C2676.69,117.9 2676.32,122.45 2673.4,125.42C2670.65,128.23 2666.56,128.94 2662.82,129.11C2667.12,135.56 2671.41,142.02 2675.75,148.45C2673.25,148.51 2670.8,148.52 2668.35,148.48C2664.42,142.05 2660.17,135.84 2656.37,129.34C2653.56,129.23 2650.77,129.22 2648.01,129.25C2647.98,135.67 2647.99,142.08 2648,148.5L2641.5,148.5C2641.48,134.09 2641.49,119.67 2641.5,105.26M2648.01,110.25C2647.98,114.91 2647.99,119.58 2648,124.25C2653.86,123.93 2659.93,125.06 2665.65,123.34C2671,121.81 2671.51,112.57 2665.92,111.02C2660.08,109.5 2653.95,110.57 2648.01,110.25Z" style="fill:rgb(0,99,171);fill-rule:nonzero;"/>
    </g>
</svg>
