<?xml version="1.0" encoding="UTF-8" standalone="no"?>
<!DOCTYPE svg PUBLIC "-//W3C//DTD SVG 1.1//EN" "http://www.w3.org/Graphics/SVG/1.1/DTD/svg11.dtd">
<svg width="100%" height="100%" viewBox="0 0 300 150" version="1.1" xmlns="http://www.w3.org/2000/svg" xmlns:xlink="http://www.w3.org/1999/xlink" xml:space="preserve" xmlns:serif="http://www.serif.com/" style="fill-rule:evenodd;clip-rule:evenodd;stroke-linejoin:round;stroke-miterlimit:2;">
    <g transform="matrix(0.0765268,0,0,0.0765268,52.342,43.4664)">
        <g transform="matrix(3.14264,0,0,3.14264,-341.737,-420.915)">
            <path d="M143.04,201.48C166.98,180.26 207.21,180.66 230.28,202.99C225.65,207.85 220.54,212.23 215.73,216.91C210,212.3 203.57,208.46 196.32,206.83C185.7,203.95 174.27,205.98 164.61,210.95C158.26,214.34 152.74,219.42 149.14,225.67C145.2,232.75 142.98,240.95 144.06,249.07C145.44,261.31 153.23,272.33 163.87,278.36C169.85,282.18 176.92,283.91 183.95,284.17C195.3,284.67 206.77,280.74 215.2,273.08C220.13,277.34 224.86,281.85 229.51,286.42C229.53,286.71 229.57,287.31 229.59,287.61C218.08,298.01 202.56,303.95 187.03,303.81C180.85,304 174.72,303.16 168.67,302.03C161.62,299.34 154.66,296.34 148.23,292.38C136.05,284.18 127.2,271.25 123.87,256.96C121.23,244.79 122.54,231.63 128.36,220.54C131.97,213.3 137.1,206.94 143.04,201.48Z" style="fill:rgb(24,22,23);fill-rule:nonzero;"/>
        </g>
        <g transform="matrix(3.14264,0,0,3.14264,-341.737,-420.915)">
            <path d="M709.66,238.59C716.63,225.24 733.68,218.75 747.94,223.03C751.13,223.86 754.22,225.12 757.01,226.91C756.3,229.25 755.42,231.53 754.43,233.77C749.9,231.54 745.26,229.04 740.05,229.25C732.61,228.63 725.19,231.74 720.08,237.09C714.82,243.04 712.42,251.86 715.48,259.41C719.31,270.62 732.33,277.18 743.71,274.73C747.74,274.01 751.29,271.86 754.89,270.02C756.68,271.76 759.14,273.08 759.94,275.59C753.99,279.47 747.26,282.6 740,282.44C728.94,283.07 717.71,277.71 711.39,268.59C705.4,259.9 704.72,247.92 709.66,238.59Z" style="fill:rgb(24,22,23);fill-rule:nonzero;"/>
        </g>
        <g transform="matrix(3.14264,0,0,3.14264,-341.737,-420.915)">
            <path d="M768.67,223.16C771.42,223.18 774.17,223.18 776.93,223.18C777.28,240.02 776.93,256.88 777.1,273.73C787.47,273.72 797.85,273.59 808.23,273.79C808.24,276 808.25,278.21 808.26,280.42C795.03,280.65 781.8,280.55 768.58,280.47C768.58,261.37 768.39,242.26 768.67,223.16Z" style="fill:rgb(24,22,23);fill-rule:nonzero;"/>
        </g>
        <g transform="matrix(3.14264,0,0,3.14264,-341.737,-420.915)">
            <path d="M814.78,223.2C817.6,223.19 820.42,223.18 823.26,223.19C823.49,238.12 823.29,253.06 823.36,268C823.27,272.19 823.63,276.4 823.06,280.58C820.34,280.54 817.64,280.54 814.93,280.59C814.41,261.48 814.72,242.32 814.78,223.2Z" style="fill:rgb(24,22,23);fill-rule:nonzero;"/>
        </g>
        <g transform="matrix(3.14264,0,0,3.14264,-341.737,-420.915)">
            <path d="M837.76,223.18C842.02,223.19 846.29,223.08 850.55,223.34C856.38,238.49 862.86,253.39 868.74,268.52C869,268.53 869.52,268.54 869.78,268.55C875.93,253.47 882.17,238.42 888.21,223.29C892.42,223.1 896.63,223.18 900.85,223.19C900.95,242.28 900.82,261.36 900.92,280.45C898.09,280.56 895.27,280.57 892.45,280.52C892.36,264.67 892.33,248.81 892.47,232.96C885.81,248.81 879.52,264.81 872.68,280.57C870.42,280.35 867.91,281.06 865.82,280.14C859,264.85 853.15,249.13 846.34,233.84C846.05,249.42 846.66,265.03 846.03,280.59C843.35,280.16 839.96,281.4 837.73,279.9C837.62,261 837.58,242.08 837.76,223.18Z" style="fill:rgb(24,22,23);fill-rule:nonzero;"/>
        </g>
        <g transform="matrix(3.14264,0,0,3.14264,-341.737,-420.915)">
            <path d="M930.67,223.75C933.31,222.4 936.85,223.49 939.84,223.23C947.64,242.3 955.53,261.35 962.99,280.57C959.9,280.58 956.83,280.58 953.76,280.42C951.83,275.53 950.05,270.58 948.05,265.73C939.72,265.76 931.39,265.56 923.07,265.81C920.18,270.25 919.17,275.79 916.73,280.55C913.79,280.55 910.86,280.57 907.94,280.55C908.35,278.61 909.02,276.74 909.83,274.93C916.83,257.89 923.51,240.71 930.67,223.75M925.02,258.89C931.91,259.29 938.82,259.1 945.73,259.02C942.13,250.07 939.08,240.9 935.43,231.96C931.64,240.8 928.54,249.93 925.02,258.89Z" style="fill:rgb(24,22,23);fill-rule:nonzero;"/>
        </g>
        <g transform="matrix(3.14264,0,0,3.14264,-341.737,-420.915)">
            <path d="M93.54,208.57C108.28,199.8 126.42,197.84 143.04,201.48C137.1,206.94 131.97,213.3 128.36,220.54C126.94,220.12 125.52,219.49 124.01,219.57C108.86,220.59 94.08,229.84 87.98,243.99C85.28,250.69 83.87,258.18 85.46,265.33C87.04,275.23 93.18,283.97 101.13,289.86C106.19,293.62 112.18,295.82 118.16,297.59C115.64,294.14 112.95,290.79 110.86,287.04C115.88,283.52 121.24,280.5 126.79,277.92C131.34,283.73 135.97,289.63 142.01,293.97C144.01,295.74 146.35,293.22 148.23,292.38C154.66,296.34 161.62,299.34 168.67,302.03C167.9,303.39 167.07,304.73 166.25,306.06C174.24,307.84 182.38,308.99 190.58,308.43C190.56,314.2 190.52,319.98 190.63,325.76C175.23,327.12 159.5,324.13 145.57,317.45C142.24,315.39 138.47,317.37 134.91,317.49C126.1,317.85 117.06,318.21 108.56,315.41C90.18,310.42 74.12,296.7 67.28,278.8C63.71,269.51 63.29,259.32 64.48,249.53C66.93,232.23 78.55,217.11 93.54,208.57Z" style="fill:rgb(1,157,196);fill-rule:nonzero;"/>
        </g>
        <g transform="matrix(3.14264,0,0,3.14264,-341.737,-420.915)">
            <path d="M149.14,225.67C152.74,219.42 158.26,214.34 164.61,210.95C173.32,218.15 181.59,226.55 185.74,237.27C192.18,252.16 191.51,269.81 183.95,284.17C176.92,283.91 169.85,282.18 163.87,278.36C167.31,271.13 170.03,263.12 168.88,255.02C167.69,242.8 160.03,231.34 149.14,225.67Z" style="fill:rgb(1,157,196);fill-rule:nonzero;"/>
        </g>
        <g transform="matrix(3.14264,0,0,3.14264,-341.737,-420.915)">
            <path d="M285.6,224.57C297.92,218.43 314,220.4 324.14,229.85C328.8,234.17 332.35,239.91 333.54,246.19C333.96,252.27 334.43,258.83 331.32,264.34C329.41,268.66 326.09,272.04 323.01,275.52C326.77,276.35 330.61,276.55 334.45,276.59C334.59,279.95 334.61,283.32 334.58,286.69C329.02,286.75 323.27,287.09 317.99,285.02C314.86,284.1 311.93,282.18 308.57,282.33C302.27,282.52 295.71,283.4 289.65,281.18C282.7,278.58 276.3,274.01 272.39,267.62C268.8,261.54 266.81,254.22 268.2,247.18C269.82,237.39 276.63,228.72 285.6,224.57M289.65,236.68C284.24,240.14 280.49,246.48 281.25,253.02C281.12,260.49 287.07,266.39 293.51,269.21C293.31,267.86 292.23,266.49 292.81,265.13C295.34,263.18 298.28,261.9 301.1,260.45C304.11,262.94 305.91,267.4 309.92,268.34C316.73,265.69 321.28,258.29 320.72,251.02C320.63,244.42 316.15,238.49 310.37,235.61C303.9,232.27 295.8,232.94 289.65,236.68Z" style="fill:rgb(1,157,196);fill-rule:nonzero;"/>
        </g>
        <g transform="matrix(3.14264,0,0,3.14264,-341.737,-420.915)">
            <path d="M658.44,221.65C668.25,220.39 678.61,223.39 686,230.03C692.45,235.37 695.84,243.73 696.14,251.98C696.14,260.82 692.12,269.65 685.23,275.25C672.98,285.89 653.02,285.85 640.75,275.26C634.14,269.53 629.36,260.96 630.19,251.99C629.35,236.35 643.58,223.33 658.44,221.65M659.31,234.17C649.59,235.3 641.82,245.28 643.32,254.98C644.21,261.07 648.58,266.27 654.04,268.92C658.18,271.16 663.08,270.98 667.61,270.47C675.9,268.61 683.51,260.9 682.73,251.98C683.29,240.24 670.13,231.77 659.31,234.17Z" style="fill:rgb(1,157,196);fill-rule:nonzero;"/>
        </g>
        <g transform="matrix(3.14264,0,0,3.14264,-341.737,-420.915)">
            <path d="M514.58,222.56C531.89,222.21 549.21,222.46 566.53,222.43C566.48,226.17 566.47,229.92 566.53,233.66C560.44,234 554.33,233.36 548.27,234.12C548.24,247.08 548.23,260.05 548.27,273.01C548.29,275.25 548.06,277.48 547.79,279.7C542.96,279.75 538.14,279.76 533.32,279.69C533.14,264.47 533.63,249.23 533.11,234.02C526.91,233.44 520.68,233.95 514.47,233.67C514.48,229.97 514.45,226.26 514.58,222.56Z" style="fill:rgb(1,157,196);fill-rule:nonzero;"/>
        </g>
        <g transform="matrix(3.14264,0,0,3.14264,-341.737,-420.915)">
            <path d="M573.47,222.31C583.31,222.06 593.16,222.29 603,222.18C608.62,222.03 614.48,222.76 619.4,225.68C627.61,230.86 628.26,244.58 620.35,250.32C619.17,251.22 617.96,252.05 616.77,252.91C619.71,255.1 622.89,257.67 623.4,261.57C624.2,267.6 623.55,273.88 625.88,279.64C621.01,279.68 616.14,279.7 611.27,279.59C607.9,274.31 610.83,267.47 607.97,261.96C606.5,259.62 603.59,258.92 601.03,258.62C596.78,258.38 592.5,258.31 588.28,258.85C588.15,265.79 588.64,272.75 587.99,279.67C583.15,279.67 578.31,279.69 573.48,279.6C573.59,260.51 573.59,241.41 573.47,222.31M588.3,233.9C588.27,238.5 588.26,243.09 588.32,247.69C594.22,247.43 600.3,248.47 606.08,247.03C611.71,245.49 612.03,236.29 606.45,234.51C600.55,233 594.32,233.55 588.3,233.9Z" style="fill:rgb(1,157,196);fill-rule:nonzero;"/>
        </g>
        <g transform="matrix(3.14264,0,0,3.14264,-341.737,-420.915)">
            <path d="M343.01,223.04C347.88,222.52 352.81,222.52 357.69,223.04C357.72,234.7 357.63,246.37 357.71,258.03C357.81,262.12 359,266.97 362.95,269C367.19,271.03 372.56,271.04 376.64,268.6C380.49,266.14 381.21,261.21 381.37,257.01C381.41,245.69 381.39,234.37 381.35,223.05C386.38,222.55 391.49,222.38 396.5,223.23C396.31,233.82 396.42,244.42 396.42,255.01C396.66,261.45 395.69,268.39 391.52,273.56C388.01,278.15 382.35,280.55 376.78,281.42C367.63,281.96 357.24,282.64 349.81,276.21C343.32,270.83 342.59,261.83 342.7,254C342.93,243.68 342.34,233.34 343.01,223.04Z" style="fill:rgb(1,157,196);fill-rule:nonzero;"/>
        </g>
        <g transform="matrix(3.14264,0,0,3.14264,-341.737,-420.915)">
            <path d="M424.21,223.1C429.07,222.22 434.07,222.82 438.99,222.8C444.48,236.65 450.19,250.43 455.69,264.29C457.68,269.53 460.42,274.54 461.51,280.09C456.4,280.3 451.27,280.46 446.17,279.95C444.83,276.5 443.59,273 442.08,269.61C435.07,269.59 428.04,269.35 421.03,269.69C418.68,272.51 418.22,276.5 416.73,279.83C411.57,280.58 406.33,280.3 401.14,280.03C407.58,262.96 414.66,246.13 421.33,229.14C422.17,227.08 422.8,224.87 424.21,223.1M431.49,239.08C428.97,245.76 425.84,252.29 424.43,259.32C429.15,259.61 433.9,259.6 438.63,259.34C436.73,252.45 434.16,245.71 431.49,239.08Z" style="fill:rgb(1,157,196);fill-rule:nonzero;"/>
        </g>
        <g transform="matrix(3.14264,0,0,3.14264,-341.737,-420.915)">
            <path d="M456.23,222.95C465.81,222.42 475.41,222.86 485,222.72C492.57,222.87 500.16,222.38 507.72,223C507.76,226.68 507.77,230.36 507.71,234.04C501.61,234.66 495.47,234.17 489.36,234.37C489.25,249.6 489.56,264.84 489.22,280.07C484.42,280.31 479.61,280.32 474.81,280.09C474.44,264.85 474.77,249.59 474.65,234.35C468.51,234.21 462.36,234.58 456.24,234.12C456.15,230.4 456.15,226.67 456.23,222.95Z" style="fill:rgb(1,157,196);fill-rule:nonzero;"/>
        </g>
    </g>
</svg>
