<?xml version="1.0" encoding="UTF-8" standalone="no"?>
<!DOCTYPE svg PUBLIC "-//W3C//DTD SVG 1.1//EN" "http://www.w3.org/Graphics/SVG/1.1/DTD/svg11.dtd">
<svg width="100%" height="100%" viewBox="0 0 300 150" version="1.1" xmlns="http://www.w3.org/2000/svg" xmlns:xlink="http://www.w3.org/1999/xlink" xml:space="preserve" xmlns:serif="http://www.serif.com/" style="fill-rule:evenodd;clip-rule:evenodd;stroke-linejoin:round;stroke-miterlimit:2;">
    <g transform="matrix(0.0769195,0,0,0.0769195,51.8504,49.5396)">
        <g transform="matrix(2.74298,0,0,2.74298,-120.447,-32.5506)">
            <path d="M55.86,14.92C55.98,13.06 56.33,10.7 58.21,9.81C57.98,11.35 57.73,12.9 57.41,14.43C40.74,86.81 24.26,159.23 7.33,231.55C6.21,228.1 7.91,224.77 8.34,221.38C11.86,205.6 15.41,189.82 19,174.05C22.67,159.21 25.46,144.18 29.33,129.39C31.9,116.34 35.96,103.62 38.55,90.57C44.46,65.39 49.92,40.1 55.86,14.92Z" style="fill:rgb(153,206,228);fill-opacity:0.93;fill-rule:nonzero;"/>
        </g>
        <g transform="matrix(2.74298,0,0,2.74298,-120.447,-32.5506)">
            <path d="M258.35,10.22C258.85,10.12 259.83,9.92 260.32,9.82C258.23,12.22 256.31,15.35 253.12,16.29C254.75,14.18 256.44,12.09 258.35,10.22Z" style="fill:rgb(153,206,228);fill-opacity:0.93;fill-rule:nonzero;"/>
        </g>
        <g transform="matrix(2.74298,0,0,2.74298,-120.447,-32.5506)">
            <path d="M243.03,25.22C245.13,22.18 247.79,19.52 251.21,18.01C248.73,20.58 246.62,24.28 243.03,25.22Z" style="fill:rgb(153,206,228);fill-opacity:0.93;fill-rule:nonzero;"/>
        </g>
        <g transform="matrix(2.74298,0,0,2.74298,-120.447,-32.5506)">
            <path d="M236.07,31.25C237.56,28.92 239.62,27.05 242.17,25.95C240.51,28.02 238.86,30.73 236.07,31.25Z" style="fill:rgb(153,206,228);fill-opacity:0.93;fill-rule:nonzero;"/>
        </g>
        <g transform="matrix(2.74298,0,0,2.74298,-120.447,-32.5506)">
            <path d="M228.11,38.24C229.58,35.91 231.63,34.03 234.21,32.99C232.46,34.98 230.89,37.72 228.11,38.24Z" style="fill:rgb(153,206,228);fill-opacity:0.93;fill-rule:nonzero;"/>
        </g>
        <g transform="matrix(2.74298,0,0,2.74298,-120.447,-32.5506)">
            <path d="M221.61,43.63C222.17,42.24 223.28,41.09 224.85,41C225.29,42.33 222.88,44.61 221.61,43.63Z" style="fill:rgb(153,206,228);fill-opacity:0.93;fill-rule:nonzero;"/>
        </g>
        <g transform="matrix(2.74298,0,0,2.74298,-120.447,-32.5506)">
            <path d="M212.11,52.22C213.36,50.33 215.13,48.9 217.2,47.96C215.83,49.67 214.51,51.98 212.11,52.22Z" style="fill:rgb(153,206,228);fill-opacity:0.93;fill-rule:nonzero;"/>
        </g>
        <g transform="matrix(2.74298,0,0,2.74298,-120.447,-32.5506)">
            <path d="M200.03,63.21C202.12,60.17 204.79,57.51 208.21,56C205.74,58.58 203.62,62.28 200.03,63.21Z" style="fill:rgb(153,206,228);fill-opacity:0.93;fill-rule:nonzero;"/>
        </g>
        <g transform="matrix(2.74298,0,0,2.74298,-120.447,-32.5506)">
            <path d="M192.03,70.21C193.83,67.53 196.2,65.28 199.17,63.96C197.13,66.29 195.25,69.55 192.03,70.21Z" style="fill:rgb(153,206,228);fill-opacity:0.93;fill-rule:nonzero;"/>
        </g>
        <g transform="matrix(2.74298,0,0,2.74298,-120.447,-32.5506)">
            <path d="M184.07,77.27C185.83,74.56 188.2,72.32 191.17,70.97C189.13,73.33 187.23,76.45 184.07,77.27Z" style="fill:rgb(153,206,228);fill-opacity:0.93;fill-rule:nonzero;"/>
        </g>
        <g transform="matrix(2.74298,0,0,2.74298,-120.447,-32.5506)">
            <path d="M175.67,83.69C177.64,81.85 179.82,80.26 182.21,79.01C179.84,82.02 177.12,84.82 173.86,86.87C170.04,90.03 167.16,94.28 162.86,96.87C159.67,99.68 156.99,103.07 153.33,105.32C149.7,109.43 144.93,112.2 141.29,116.29C138.94,118 136.86,120.29 134.1,121.27C136.83,117.61 140.5,114.86 143.91,111.87C154.53,102.52 165.19,93.2 175.67,83.69Z" style="fill:rgb(153,206,228);fill-opacity:0.93;fill-rule:nonzero;"/>
        </g>
        <g transform="matrix(2.74298,0,0,2.74298,-120.447,-32.5506)">
            <path d="M125.08,129.26C126.86,126.57 129.21,124.31 132.2,123.01C130.1,125.31 128.25,128.45 125.08,129.26Z" style="fill:rgb(153,206,228);fill-opacity:0.93;fill-rule:nonzero;"/>
        </g>
        <g transform="matrix(2.74298,0,0,2.74298,-120.447,-32.5506)">
            <path d="M116.03,137.21C117.86,134.56 120.2,132.28 123.2,131.01C121.08,133.27 119.26,136.57 116.03,137.21Z" style="fill:rgb(153,206,228);fill-opacity:0.93;fill-rule:nonzero;"/>
        </g>
        <g transform="matrix(2.74298,0,0,2.74298,-120.447,-32.5506)">
            <path d="M109.11,143.24C110.59,140.93 112.66,139.11 115.16,137.97C113.5,140.02 111.87,142.69 109.11,143.24Z" style="fill:rgb(153,206,228);fill-opacity:0.93;fill-rule:nonzero;"/>
        </g>
        <g transform="matrix(2.74298,0,0,2.74298,-120.447,-32.5506)">
            <path d="M100.1,151.24C101.57,148.91 103.64,147.05 106.2,145.99C104.46,147.98 102.89,150.72 100.1,151.24Z" style="fill:rgb(153,206,228);fill-opacity:0.93;fill-rule:nonzero;"/>
        </g>
        <g transform="matrix(2.74298,0,0,2.74298,-120.447,-32.5506)">
            <path d="M91.07,159.26C92.58,156.94 94.63,155.05 97.2,154C95.46,156 93.87,158.73 91.07,159.26Z" style="fill:rgb(153,206,228);fill-opacity:0.93;fill-rule:nonzero;"/>
        </g>
        <g transform="matrix(2.74298,0,0,2.74298,-120.447,-32.5506)">
            <path d="M78.45,169.5C81.98,166.61 85.09,163.13 89.2,161.02C86.46,164.32 83.5,167.54 79.86,169.87C77.46,171.49 76.08,174.7 73.06,175.27C74.63,173.14 76.41,171.18 78.45,169.5Z" style="fill:rgb(153,206,228);fill-opacity:0.93;fill-rule:nonzero;"/>
        </g>
        <g transform="matrix(2.74298,0,0,2.74298,-120.447,-32.5506)">
            <path d="M59.43,186.37C63.25,183.11 66.66,179.26 71.22,177C68.95,179.79 66.5,182.52 63.43,184.45C60.7,186.35 58.88,189.3 56.03,191.05C52.59,193.2 50.47,196.9 47.03,199.05C43.8,201.08 41.73,204.46 38.63,206.64C33.96,209.53 31.11,214.57 26.44,217.46C23.95,219.27 22.15,221.91 19.44,223.46C15.28,226.75 11.89,231.6 6.73,233.25L7.14,232.38C24.8,217.3 41.96,201.65 59.43,186.37Z" style="fill:rgb(153,206,228);fill-opacity:0.93;fill-rule:nonzero;"/>
        </g>
        <g transform="matrix(2.74298,0,0,2.74298,-120.447,-32.5506)">
            <path d="M58.21,9.81C60.8,10.06 63.4,10.02 66,10C128.34,9.99 190.67,10.02 253,9.99C254.79,10 256.57,10.08 258.35,10.22C256.44,12.09 254.75,14.18 253.12,16.29C252.6,17 251.96,17.58 251.21,18.01C247.79,19.52 245.13,22.18 243.03,25.22C242.82,25.4 242.39,25.77 242.17,25.95C239.62,27.05 237.56,28.92 236.07,31.25C235.59,31.99 234.97,32.57 234.21,32.99C231.63,34.03 229.58,35.91 228.11,38.24C227.2,39.31 226.36,40.77 224.85,41C223.28,41.09 222.17,42.24 221.61,43.63C220.52,45.39 218.98,46.91 217.2,47.96C215.13,48.9 213.36,50.33 212.11,52.22C210.97,53.62 209.82,55.11 208.21,56C204.79,57.51 202.12,60.17 200.03,63.21C199.82,63.4 199.39,63.77 199.17,63.96C196.2,65.28 193.83,67.53 192.03,70.21C191.82,70.4 191.38,70.78 191.17,70.97C188.2,72.32 185.83,74.56 184.07,77.27C183.58,77.99 182.96,78.57 182.21,79.01C179.82,80.26 177.64,81.85 175.67,83.69C165.19,93.2 154.53,102.52 143.91,111.87C140.5,114.86 136.83,117.61 134.1,121.27C133.58,121.99 132.95,122.57 132.2,123.01C129.21,124.31 126.86,126.57 125.08,129.26C124.59,130 123.96,130.58 123.2,131.01C120.2,132.28 117.86,134.56 116.03,137.21C115.81,137.4 115.37,137.78 115.16,137.97C112.66,139.11 110.59,140.93 109.11,143.24C108.3,144.3 107.43,145.39 106.2,145.99C103.64,147.05 101.57,148.91 100.1,151.24C99.3,152.3 98.43,153.4 97.2,154C94.63,155.05 92.58,156.94 91.07,159.26C90.57,159.98 89.95,160.57 89.2,161.02C85.09,163.13 81.98,166.61 78.45,169.5C76.41,171.18 74.63,173.14 73.06,175.27C72.57,175.98 71.95,176.56 71.22,177C66.66,179.26 63.25,183.11 59.43,186.37C41.96,201.65 24.8,217.3 7.14,232.38L7.33,231.55C24.26,159.23 40.74,86.81 57.41,14.43C57.73,12.9 57.98,11.35 58.21,9.81Z" style="fill:rgb(109,110,113);fill-rule:nonzero;"/>
        </g>
        <g transform="matrix(2.74298,0,0,2.74298,-120.447,-32.5506)">
            <path d="M848.62,59.54C851.74,59.36 854.87,59.29 858,59.33C883.67,59.56 909.34,58.98 935,59.85C940.69,60.02 946.45,59.87 952.08,60.96C962.65,62.95 972.64,68.12 980.28,75.71C981.85,77.26 983.51,78.72 985.36,79.94L986.09,80.44L985.95,81.04C986.2,81.45 986.68,82.28 986.93,82.7L987.73,82.91L987.93,83.69C988.4,86.19 989.51,88.48 990.67,90.73L990.92,91.3C991.14,91.82 991.56,92.85 991.78,93.37L991.93,94.15C992.06,95.24 992.34,96.29 992.78,97.3L992.92,98.09C992.73,99.75 992.97,101.42 993.63,102.96C994.39,107.12 994.01,111.46 993.86,115.68C992.44,126.02 989.95,136.47 984.29,145.37C982.61,147.87 981.06,150.45 979.9,153.23C979.72,153.43 979.36,153.84 979.18,154.04C976.87,155.55 975.06,157.64 973.99,160.19C973.38,161.4 972.35,162.35 971.2,163.01C966.65,165.41 962.93,169.06 958.39,171.46C943.13,180.06 925.26,182.47 908,182.91C877.65,182.87 847.31,182.96 816.96,182.87C827.22,141.68 838.07,100.65 848.62,59.54M895.18,80.1C888.72,105.66 882.38,131.25 875.64,156.74C875.08,158.78 874.79,160.88 874.63,162.99C887.78,162.74 902.03,164.83 913.96,157.91C927.29,150.49 934.03,135.62 937.59,121.44C940.26,111.01 942.74,98.97 936.89,89.15C932.94,82.24 924.47,80.02 917.03,79.96C909.75,80.03 902.46,79.82 895.18,80.1Z" style="fill:rgb(17,151,205);fill-rule:nonzero;"/>
        </g>
        <g transform="matrix(2.74298,0,0,2.74298,-120.447,-32.5506)">
            <path d="M259.98,59.93C288.65,59.97 317.32,59.92 345.99,59.96C356.91,60.03 368.39,60.48 378.2,65.82C384.28,69.07 389.22,75 390.01,82C392.08,99.05 383.42,116.85 368.87,125.93C361.37,130.91 352.53,133.11 343.87,135.15C344.21,136.12 344.58,137.08 345,138.03C352.74,152.96 360.81,167.75 368.2,182.85C352.78,183 337.36,183.12 321.94,183.29C320.67,183.14 318.63,183.56 318.27,181.85C312.56,166.85 307.14,151.71 301.16,136.82C298.45,135.84 295.48,136.49 292.67,136.53C288.71,151.96 284.84,167.41 280.77,182.82C263.22,182.98 245.66,182.91 228.1,182.85C237.95,144.49 247.97,106.17 257.75,67.79C258.37,65.14 259.1,62.51 259.98,59.93M307.1,80.09C304.02,92.07 301.08,104.08 298.17,116.1C305.1,116.47 312.04,116.29 318.98,116.26C325.11,116.27 331.46,115.01 336.56,111.43C340.12,108.77 342.11,104.57 343.49,100.46C345.54,94.47 344.14,87.04 339.09,82.96C335.37,80.17 330.48,79.86 326,79.94C319.7,80.05 313.39,79.82 307.1,80.09Z" style="fill:rgb(17,151,205);fill-rule:nonzero;"/>
        </g>
        <g transform="matrix(2.74298,0,0,2.74298,-120.447,-32.5506)">
            <path d="M459.28,60.21C462.16,59.71 465.1,59.92 468.01,59.91C484.26,60.12 500.52,59.65 516.77,60.14C522.27,88.3 527.87,116.44 533.5,144.58C534.37,149.25 535.11,153.97 536.81,158.44L536.87,159.13C536.73,160.48 537,161.83 537.61,163.05L537.89,163.95C537.72,165.36 537.99,166.77 538.61,168.05L538.88,168.94C538.7,170.29 538.93,171.64 539.52,172.88L539.75,173.61C540.06,176.69 540.42,179.76 540.86,182.83C523.42,182.82 505.95,183.22 488.51,182.63C487.51,176.67 486.51,170.7 484.98,164.84C467.98,164.42 450.98,164.85 433.98,164.62C431.84,164.78 429.44,164.34 427.51,165.44C423.28,170.75 421.42,177.72 416.73,182.69C407.48,183.24 398.17,182.79 388.9,182.85C390.92,178.85 393.34,175.06 395.02,170.9L395.26,170.44C399.54,165.03 402.25,158.62 405.72,152.7C422.56,123.23 439.49,93.81 456.18,64.25C457.09,62.84 457.79,61.12 459.28,60.21M468.48,94.51C461.77,106.4 454.72,118.1 447.94,129.95C445.48,134.35 442.51,138.51 440.79,143.29C453.97,143.68 467.19,143.54 480.38,143.37C479.97,136.17 477.89,129.22 476.82,122.12C474.78,112.02 473.22,101.82 470.89,91.79C470,92.62 469.08,93.44 468.48,94.51Z" style="fill:rgb(17,151,205);fill-rule:nonzero;"/>
        </g>
        <g transform="matrix(2.74298,0,0,2.74298,-120.447,-32.5506)">
            <path d="M592.38,60.21C599.24,59.69 606.12,60.01 613,59.94C635.66,59.97 658.32,59.89 680.98,59.98C691.46,59.94 702.4,61.01 711.7,66.22C717.08,69.13 721.24,74.35 722.49,80.38C724.24,90.26 721.95,100.51 717.3,109.3C715.06,113.93 711.49,117.71 709.02,122.2C708.34,123.36 707.38,124.35 706.21,125.01C702.73,126.86 699.72,129.42 696.38,131.48C689.96,135.31 682.89,138.04 675.58,139.57C658.68,143.46 641.25,140.79 624.12,141.94C620.34,155.48 617.2,169.18 613.68,182.78C596.14,182.98 578.6,183.01 561.07,182.76C563.98,170.35 568,158.19 570.14,145.6L570.42,144.87C571.06,143.97 571.28,142.98 571.06,141.9L571.32,140.99C572.01,140.07 572.25,139.04 572.07,137.92L572.32,136.99C573.01,136.07 573.26,135.04 573.07,133.92L573.33,132.99C574.02,132.07 574.26,131.04 574.06,129.92L574.33,129C575.02,128.09 575.27,127.07 575.08,125.95L575.13,125.01C575.35,124.53 575.8,123.55 576.02,123.07L576.2,122.41C577.1,120.07 577.76,117.64 578.17,115.17L578.32,114.41C580.82,107.5 582.2,100.26 584.15,93.19C586.86,82.19 589.88,71.27 592.38,60.21M639.99,79.98C636.57,93.65 632.71,107.23 629.71,121.01L630.73,121.04L631.46,120.73C635.86,122 640.48,121.29 645,121.44C652.68,121.42 661.35,121.9 667.71,116.81C670.29,114.22 673.9,111.64 673.88,107.6L674.01,106.82C676.11,107.2 676.88,103.36 675.59,102.06L675.96,101.33C678.21,98.37 676.91,94.37 677.05,90.94L675.95,91.17L675.83,90.41C676.05,88.63 675.63,86.8 674.45,85.42C671.27,81.47 665.97,79.88 661.05,79.95C654.03,79.97 647.01,79.97 639.99,79.98Z" style="fill:rgb(17,151,205);fill-rule:nonzero;"/>
        </g>
        <g transform="matrix(2.74298,0,0,2.74298,-120.447,-32.5506)">
            <path d="M764,59.94C781.71,60.05 799.43,59.7 817.14,60.16L816.59,61.05C815.89,61.95 815.68,62.97 815.95,64.1L815.69,65.01C814.99,65.93 814.74,66.95 814.94,68.08L814.68,69.02C813.98,69.93 813.73,70.95 813.93,72.08L813.68,73.01C812.97,73.93 812.72,74.95 812.94,76.08L812.67,77.01C811.97,77.92 811.72,78.95 811.94,80.08L811.69,80.98C810.98,81.83 810.71,82.8 810.89,83.89L810.81,84.53C809.75,87.02 808.81,89.55 808.2,92.19C805.31,104.46 801.81,116.57 798.83,128.81C794.07,146.8 789.92,164.96 784.87,182.87C767.31,182.9 749.74,182.99 732.17,182.82C739.11,155.6 746.19,128.41 753.18,101.2C756.9,87.48 759.82,73.53 764,59.94Z" style="fill:rgb(17,151,205);fill-rule:nonzero;"/>
        </g>
    </g>
</svg>
