<?xml version="1.0" encoding="UTF-8" standalone="no"?>
<!DOCTYPE svg PUBLIC "-//W3C//DTD SVG 1.1//EN" "http://www.w3.org/Graphics/SVG/1.1/DTD/svg11.dtd">
<svg width="100%" height="100%" viewBox="0 0 300 150" version="1.1" xmlns="http://www.w3.org/2000/svg" xmlns:xlink="http://www.w3.org/1999/xlink" xml:space="preserve" xmlns:serif="http://www.serif.com/" style="fill-rule:evenodd;clip-rule:evenodd;stroke-linejoin:round;stroke-miterlimit:2;">
    <g id="_-007dc4ff" serif:id="#007dc4ff" transform="matrix(0.221832,0,0,0.221832,47.2597,50.6465)">
        <path d="M0,0.5L87.98,0.5C101.53,0.79 115.32,2.12 128.03,7.11C141.55,12.06 153.16,22.73 157.66,36.6C162.32,51.36 162.56,67.72 157.64,82.45C152.49,97.89 139.99,110.43 124.66,115.82C139.15,143.98 153.83,172.05 168.25,200.24C152.04,200.26 135.83,200.24 119.62,200.26C107.71,174.09 95.78,147.93 83.9,121.75C68.27,121.76 52.64,121.75 37.01,121.76C36.99,147.92 37.01,174.08 36.99,200.25L0,200.25L0,0.5M36.51,28.76C36.49,50.5 36.5,72.25 36.5,94C52.68,93.85 68.86,94.36 85.02,93.64C94.37,92.89 104.64,90.57 110.84,82.94C121.5,69.83 120.41,47.92 107.06,37.01C100.58,31.08 91.6,28.95 83.03,28.76C67.52,28.74 52.01,28.75 36.51,28.76Z" style="fill:rgb(0,125,196);fill-rule:nonzero;"/>
        <path d="M358.75,0.51C371.09,0.5 383.42,0.49 395.76,0.51C395.74,67.09 395.76,133.67 395.75,200.24C383.42,200.26 371.09,200.25 358.76,200.24C358.74,133.67 358.75,67.09 358.75,0.51Z" style="fill:rgb(0,125,196);fill-rule:nonzero;"/>
        <path d="M871.24,69.08C871.26,46.22 871.22,23.36 871.27,0.49C883.59,0.51 895.92,0.49 908.24,0.51C908.24,67.34 908.29,134.17 908.22,201L832.41,201C819.18,199.96 805.79,196.82 794.63,189.34C780.64,180.32 770.71,165.68 766.55,149.65C761.2,129.35 763.57,106.71 774.55,88.63C781.12,77.79 790.89,68.89 802.37,63.5C815.25,57.39 829.86,55.45 843.97,56.86C854.03,58.11 863.61,62.42 871.24,69.08M815.2,91.23C806.26,98.48 801.66,109.86 800.34,121.05C798.84,134.56 801.48,149.11 810.07,159.95C815.97,167.54 825.35,172.16 834.97,172.23C847.06,172.27 859.15,172.24 871.24,172.24C871.26,158.5 871.24,144.76 871.25,131.02C871.82,117.59 868.39,103.13 858.59,93.42C847.46,81.91 827.45,81.02 815.2,91.23Z" style="fill:rgb(0,125,196);fill-rule:nonzero;"/>
        <path d="M192.24,56.01C216.83,55.98 241.42,56.02 266.01,55.99C281.98,56.19 298.2,61.08 310.67,71.28C322.85,81.03 331.01,95.29 334.28,110.46C338.98,131.99 335.12,155.86 321.71,173.65C311.55,187.28 295.83,196.28 279.09,198.87C262.69,201.37 245.26,199.92 230.2,192.61C217.21,186.48 206.55,175.76 200.18,162.91C195.24,153.01 192.56,142.02 192.25,130.97C192.24,105.98 192.25,81 192.24,56.01M229,84.5C229.02,99.35 228.95,114.21 229.04,129.06C229.34,142 233.42,155.71 243.45,164.46C255.03,174.68 274,174.8 285.7,164.72C295.68,156.22 300.04,142.79 300.5,130.01C300.77,117.56 297.66,104.37 289.09,94.96C283.04,88.19 273.99,84.52 264.97,84.5L229,84.5Z" style="fill:rgb(0,125,196);fill-rule:nonzero;"/>
        <path d="M595.49,56.02C620.33,55.96 645.17,56.03 670.02,55.99C686.48,56.17 703.23,61.32 715.87,72.12C731.33,85 739.7,105.1 740.26,125C740.24,150.08 740.26,175.16 740.24,200.24C728.24,200.25 716.25,200.26 704.25,200.24C704.35,179.16 703.97,158.08 703.71,137.01C703.3,130.93 703.77,124.8 702.73,118.77C701.18,108.51 696.75,98.22 688.58,91.52C682.89,86.74 675.44,84.09 668.01,84.23C656.18,84.27 644.35,84.25 632.51,84.24C632.49,122.82 632.5,161.4 632.51,199.98C620.16,200 607.82,200.04 595.48,199.96C595.52,151.98 595.5,104 595.49,56.02Z" style="fill:rgb(0,125,196);fill-rule:nonzero;"/>
        <path d="M431.81,85.76C444.2,66.94 466.78,56.41 489.03,56.49C513.94,56.52 538.85,56.48 563.76,56.51C563.75,104.42 563.75,152.33 563.75,200.24C551.42,200.26 539.09,200.25 526.76,200.24C526.75,196.15 526.72,192.06 526.79,187.97C517.21,196.82 503.96,200.96 491.06,200.77C475.23,200.87 459.1,196.37 446.44,186.66C433.3,176.85 424.51,161.87 421.07,145.94C416.72,125.55 420,103.16 431.81,85.76M463.34,99.33C455.98,110.58 454.05,124.77 456.1,137.89C457.83,148.7 462.76,159.61 471.86,166.14C483.63,174.83 501.37,174.15 512.33,164.39C522.06,155.86 526.3,142.61 526.74,129.99C526.77,114.74 526.74,99.5 526.75,84.25C514.47,84.24 502.19,84.27 489.92,84.24C479.21,84.18 469.03,90.4 463.34,99.33Z" style="fill:rgb(0,125,196);fill-rule:nonzero;"/>
    </g>
</svg>
