<?xml version="1.0" encoding="UTF-8" standalone="no"?>
<!DOCTYPE svg PUBLIC "-//W3C//DTD SVG 1.1//EN" "http://www.w3.org/Graphics/SVG/1.1/DTD/svg11.dtd">
<svg width="100%" height="100%" viewBox="0 0 300 150" version="1.1" xmlns="http://www.w3.org/2000/svg" xmlns:xlink="http://www.w3.org/1999/xlink" xml:space="preserve" xmlns:serif="http://www.serif.com/" style="fill-rule:evenodd;clip-rule:evenodd;stroke-linejoin:round;stroke-miterlimit:2;">
    <g transform="matrix(0.189464,0,0,0.181259,71.1787,28.0684)">
        <path d="M432.99,35.99C477.35,24.26 521.71,12.53 566.08,0.82C539.31,71.2 512.55,141.59 485.86,212C499.65,225.84 513.56,239.56 527.26,253.49C508.18,253.59 489.08,253.35 470.01,253.6C420.71,265.9 371.5,278.61 322.22,291.01C296.49,222.57 270.72,154.13 245.01,85.68C265.16,80.33 285.33,75.03 305.48,69.68C305.32,55.07 305.16,40.45 305.25,25.83C345.22,29.64 385.2,33.45 425.17,37.3C427.86,37.77 430.41,36.6 432.99,35.99M420.37,39.65C401.6,44.47 382.95,49.78 364.12,54.32C384.05,56.24 404.01,57.96 423.94,59.9C432.46,60.75 441.06,64.86 445.53,72.43C452.77,84.23 452.19,98.67 452.25,112.01C452.36,122.29 451.96,133.75 445.07,142.04C438.45,149.82 427.58,151.19 418.01,151.97C395.1,154.05 372.19,156.11 349.28,158.21C348.58,146.83 349.37,135.41 348.81,124.02C348.68,102.24 348.6,80.47 348.23,58.7C334.08,62.46 319.9,66.17 305.75,69.95C305.97,129.63 306.6,189.31 306.8,249L350.24,249C349.86,225.94 349.82,202.87 349.23,179.83C363.6,178.39 377.99,177.24 392.34,175.64C418.36,201.27 444.02,227.26 469.89,253.03C475.09,239.39 480.21,225.73 485.45,212.11C471.42,198.3 457.44,184.44 443.63,170.41C450.64,169.2 457.78,168.25 464.39,165.46C474.33,161.61 482.81,154.14 487.77,144.7C494.88,131.36 495.99,115.85 495.75,101.01C496.02,88.66 494.21,75.87 487.93,65.04C481.65,53.98 470.72,46.04 458.67,42.28C449.41,39.18 439.57,39.13 429.97,37.99C426.65,37.33 423.53,38.97 420.37,39.65Z" style="fill:rgb(227,6,19);fill-rule:nonzero;"/>
    </g>
    <g transform="matrix(0.189464,0,0,0.181259,71.1787,28.0684)">
        <path d="M284.31,382.37C290.54,382.11 296.77,382.31 303.01,382.25C314.37,382.32 325.79,381.89 337.08,383.43C340.96,384.06 345.15,385.02 348.04,387.87C350.6,390.54 350.67,394.51 350.75,397.99C350.71,405.64 350.82,413.3 350.7,420.96C350.63,424.54 349.84,428.57 346.7,430.75C342.15,433.8 336.48,434.24 331.17,434.71C317.13,435.59 303.05,435.15 288.99,435.25C280.44,434.75 271.56,435.31 263.38,432.37C259.24,430.95 256.48,426.83 256.54,422.49C256.46,413.16 256.46,403.82 256.55,394.49C256.54,390.36 259.34,386.6 263.18,385.2C269.9,382.68 277.22,382.71 284.31,382.37M291.58,388.8C287.45,389.27 282.99,389.86 279.72,392.67C277.47,394.74 277.34,398.02 277.26,400.87C277.26,406.16 277.17,411.45 277.32,416.74C277.46,419.44 277.39,422.54 279.5,424.57C283.37,428.13 288.95,428.42 293.91,428.89C302.65,429.2 311.51,429.54 320.16,428.01C324.49,427.29 329.59,424.69 329.67,419.68C329.8,412.23 329.81,404.76 329.68,397.32C329.21,392.53 324.35,390.14 320.11,389.46C310.69,387.92 301.07,388.07 291.58,388.8Z" style="fill-rule:nonzero;"/>
    </g>
    <g transform="matrix(0.189464,0,0,0.181259,71.1787,28.0684)">
        <path d="M154.75,382.75C175.5,382.76 196.25,382.73 217,382.76C221.73,383.06 226.68,382.77 231.16,384.58C234.14,385.71 235.77,388.9 235.94,391.94C236.12,396.66 236.17,401.39 235.91,406.11C235.88,409.13 233.8,411.93 230.98,412.96C226.42,414.71 221.43,414.64 216.62,414.79C223.31,421.18 230.19,427.37 236.89,433.73C228.77,433.75 220.65,433.78 212.53,433.71C206.52,427.53 200.34,421.52 194.16,415.52C187.35,415.48 180.55,415.5 173.75,415.51L173.75,433.75L154.75,433.75L154.75,382.75M173,389L173,409.5C184.99,409.45 196.98,409.6 208.96,409.43C211.9,409.22 216.25,408.79 216.78,405.15C217.19,401.14 217.04,397.08 216.91,393.07C216.36,389.51 211.96,389.43 209.18,389.12C197.13,388.84 185.06,389.08 173,389Z" style="fill-rule:nonzero;"/>
    </g>
    <g transform="matrix(0.189464,0,0,0.181259,71.1787,28.0684)">
        <path d="M359.09,383.05C366.39,382.95 373.7,383.01 381,383.01C389.55,390.23 397.83,397.79 406.61,404.73C414.86,397.32 423.42,390.27 431.79,383C439.11,383.02 446.43,382.96 453.75,383.03C441.19,393.86 428.6,404.66 416.01,415.45C415.98,421.47 416.02,427.49 415.99,433.51C409.66,433.49 403.33,433.5 397.01,433.51C397,427.57 396.99,421.64 397.02,415.7C384.42,404.76 371.64,394.04 359.09,383.05Z" style="fill-rule:nonzero;"/>
    </g>
    <g transform="matrix(0.189464,0,0,0.181259,71.1787,28.0684)">
        <path d="M445.68,433.49C459.01,416.56 472.33,399.61 485.74,382.73C493.58,382.76 501.42,382.76 509.26,382.73C522.66,399.61 535.97,416.57 549.32,433.49C542.63,433.52 535.93,433.47 529.24,433.53C525.77,429.28 522.34,424.99 518.88,420.74C504.63,420.75 490.37,420.75 476.12,420.74C472.64,424.98 469.22,429.27 465.76,433.53C459.06,433.46 452.37,433.53 445.68,433.49M480.12,414.75L514.88,414.75C509.14,407.48 503.24,400.34 497.51,393.07C491.74,400.32 485.85,407.47 480.12,414.75Z" style="fill-rule:nonzero;"/>
    </g>
    <g transform="matrix(0.189464,0,0,0.181259,71.1787,28.0684)">
        <path d="M566.25,383.01C572.5,382.99 578.75,383 585,383L585,427.5C608,427.5 631,427.5 653.99,427.49L653.99,433.51C624.75,433.5 595.5,433.5 566.26,433.5C566.24,416.67 566.26,399.84 566.25,383.01Z" style="fill-rule:nonzero;"/>
    </g>
    <g transform="matrix(0.189464,0,0,0.181259,71.1787,28.0684)">
        <path d="M637.17,383.2C645.22,380.79 654.21,387.57 654.04,395.97C654.45,403.09 648.24,409.68 641.13,409.76C634.72,410.21 628.44,405.39 627.33,399.04C625.72,392.24 630.37,384.78 637.17,383.2M636.46,385.64C632.64,387.19 629.67,390.83 629.28,394.98C628.4,400.89 633.04,406.82 638.93,407.57C646.38,408.96 653.63,401.24 651.71,393.89C650.42,387.27 642.72,383.06 636.46,385.64Z" style="fill-rule:nonzero;"/>
    </g>
    <g transform="matrix(0.189464,0,0,0.181259,71.1787,28.0684)">
        <path d="M635.25,389.26C638.97,389.61 643.5,388.05 646.45,391.07C646.95,393.5 646.42,396.27 643.76,397.09C645.34,398.9 646.62,400.93 647.87,402.98C646.63,402.99 645.39,403 644.16,403.01C642.47,400.91 641.52,397.26 638.29,397.32C638.25,399.21 638.24,401.1 638.24,403L635.25,403L635.25,389.26M638.26,391.68C638.26,392.52 638.25,394.2 638.25,395.05C640.38,395.16 644.56,395.38 643.41,392C641.68,391.85 639.97,391.74 638.26,391.68Z" style="fill-rule:nonzero;"/>
    </g>
    <g transform="matrix(0.189464,0,0,0.181259,71.1787,28.0684)">
        <path d="M253.29,453.33C263.92,453.24 274.58,452.98 285.19,453.78C288.75,454.27 292.85,454.73 295.31,457.67C296.78,459.23 296.43,461.53 296.56,463.49C292.46,463.51 288.36,463.47 284.26,463.54C283.8,461.97 283.72,459.77 281.66,459.54C275.53,458.14 269.17,458.95 262.94,458.76C259.04,459.12 254.49,458.54 251.23,461.11C249.67,463.37 250.06,466.27 249.79,468.87C249.75,471.83 249.25,475.84 252.33,477.53C257.28,479.46 262.75,478.9 267.95,479C273.14,478.88 278.57,479.54 283.52,477.6C283.72,476.55 283.93,475.5 284.14,474.46C288.3,474.52 292.46,474.48 296.62,474.51C296.66,477.32 295.39,480.35 292.75,481.63C287.94,484.19 282.33,484.14 277.03,484.47C268.35,484.53 259.67,484.52 251,484.48C246.24,484.16 240.68,483.61 237.51,479.58C234.95,476.26 235.92,471.9 235.74,468.03C235.8,464.84 235.21,461.15 237.57,458.58C241.31,453.95 247.83,453.77 253.29,453.33Z" style="fill-rule:nonzero;"/>
    </g>
    <g transform="matrix(0.189464,0,0,0.181259,71.1787,28.0684)">
        <path d="M321,453.75L333,453.75C333.01,462.08 332.99,470.42 333.01,478.75C347.5,478.74 362,478.75 376.5,478.75L376.5,484.5C357.99,484.48 339.48,484.55 320.97,484.46C321.04,474.22 320.98,463.99 321,453.75Z" style="fill-rule:nonzero;"/>
    </g>
    <g transform="matrix(0.189464,0,0,0.181259,71.1787,28.0684)">
        <path d="M400.75,453.75C404.66,453.74 408.58,453.75 412.5,453.75C412.51,464 412.5,474.25 412.5,484.5L400.75,484.5C400.75,474.25 400.74,464 400.75,453.75Z" style="fill-rule:nonzero;"/>
    </g>
    <g transform="matrix(0.189464,0,0,0.181259,71.1787,28.0684)">
        <path d="M443.75,453.75C447.53,453.74 451.31,453.75 455.09,453.74C462.51,459.78 470,465.72 477.34,471.85C485.04,466.05 492.2,459.53 499.97,453.83C503.64,453.6 507.32,453.81 511,453.75L511,484.5L499.25,484.5C499.25,477.31 499.24,470.13 499.26,462.95C492.01,468.84 484.74,474.7 477.55,480.65C470.19,474.88 463.03,468.86 455.74,463C455.76,470.16 455.74,477.33 455.75,484.5L443.75,484.5L443.75,453.75Z" style="fill-rule:nonzero;"/>
    </g>
    <g transform="matrix(0.189464,0,0,0.181259,71.1787,28.0684)">
        <path d="M557.27,453.76C561.53,453.74 565.78,453.75 570.04,453.75C578.19,463.95 586.22,474.26 594.33,484.49C589.94,484.51 585.56,484.48 581.19,484.52C579.17,481.99 577.13,479.49 575.08,477C567.47,477.01 559.86,476.98 552.26,477.01C550.18,479.47 548.2,482.01 546.18,484.51C541.81,484.49 537.44,484.51 533.07,484.5C541.05,474.19 549.2,464 557.27,453.76M556.21,471.52C561.18,471.47 566.16,471.53 571.13,471.47C568.65,468.36 566.18,465.24 563.64,462.18C561.18,465.3 558.67,468.39 556.21,471.52Z" style="fill-rule:nonzero;"/>
    </g>
</svg>
