<?xml version="1.0" encoding="UTF-8" standalone="no"?>
<!DOCTYPE svg PUBLIC "-//W3C//DTD SVG 1.1//EN" "http://www.w3.org/Graphics/SVG/1.1/DTD/svg11.dtd">
<svg width="100%" height="100%" viewBox="0 0 300 150" version="1.1" xmlns="http://www.w3.org/2000/svg" xmlns:xlink="http://www.w3.org/1999/xlink" xml:space="preserve" xmlns:serif="http://www.serif.com/" style="fill-rule:evenodd;clip-rule:evenodd;stroke-linejoin:round;stroke-miterlimit:2;">
    <g transform="matrix(0.292894,0,0,0.292894,59.7429,-15.0745)">
        <path d="M23.24,223.29C32.02,210.04 47.21,202.07 62.83,200.49C75.46,199.35 88.89,199.64 100.44,205.48C108.56,209.5 114.56,217.21 116.8,225.95C120.43,239.01 117.48,252.55 116.17,265.71C103.17,265.7 90.17,265.76 77.17,265.68C77.8,259.81 78.73,253.95 78.99,248.05C79.03,243.64 78.27,238.34 74.26,235.73C69.46,232.94 62.69,233.71 58.85,237.81C53.86,242.86 52.76,251.04 55.55,257.47C57.82,263.09 62.13,267.47 66.19,271.84C74.6,280.77 83.54,289.17 92.01,298.03C97.05,303.4 102,309.03 105.25,315.7C109.11,324.18 109.98,333.72 109.38,342.93C108.45,358 103.28,373.47 92.07,384.02C80.61,395.51 63.94,400.2 48.03,400.02C35.16,400.17 21.09,397.83 11.45,388.58C3.93,381.55 0.94,371.17 0,361.22L0,350.38C0.63,343.58 1.48,336.81 2.22,330.03C15.84,329.97 29.46,329.93 43.07,330.04C42.32,336.69 41.36,343.33 40.96,350.01C40.81,354.75 41.5,360.38 45.66,363.36C50.77,366.52 57.97,365.42 62.22,361.28C66.83,356.9 68.45,350.08 67.63,343.93C66.57,337.08 62.47,331.13 57.61,326.37C45.96,315.05 33.26,304.74 22.93,292.14C16.51,284.21 13.34,274.05 12.93,263.94C12.44,249.83 15.25,235.14 23.24,223.29Z" style="fill:rgb(168,0,59);fill-rule:nonzero;"/>
    </g>
    <g transform="matrix(0.292894,0,0,0.292894,59.7429,-15.0745)">
        <path d="M117.93,397.4C136.52,332.46 155.05,267.51 173.67,202.57C192.11,202.55 210.56,202.54 229,202.58C232.61,267.53 236.42,332.48 240.06,397.43C225.4,397.43 210.75,397.48 196.1,397.41C196.03,386.58 196.21,375.74 196,364.92C203.47,360.07 208.95,351.94 209.35,342.9C210.17,332.87 204.82,322.83 196.3,317.6C196.32,290.36 196.15,263.1 197.33,235.89C191.28,263.92 184.65,291.83 177.95,319.72C183.69,318.75 189.8,319.88 194.56,323.3C200.57,327.43 204.27,334.72 203.81,342.02C203.64,352.56 194.57,362.02 184.06,362.69C178.68,363.23 173.46,361.33 168.8,358.81C165.71,371.66 162.68,384.54 159.68,397.42C145.77,397.44 131.85,397.48 117.93,397.4Z" style="fill:rgb(168,0,59);fill-rule:nonzero;"/>
    </g>
    <g transform="matrix(0.292894,0,0,0.292894,59.7429,-15.0745)">
        <path d="M254.61,397.44C262.01,332.49 269.33,267.53 276.7,202.58C290.45,202.54 304.21,202.56 317.96,202.6C312.1,254.79 306.08,306.96 300.27,359.15C315.25,359.13 330.24,359.13 345.22,359.16C343.68,371.91 342.38,384.7 340.82,397.46C312.08,397.4 283.34,397.46 254.61,397.44Z" style="fill:rgb(168,0,59);fill-rule:nonzero;"/>
    </g>
    <g transform="matrix(0.292894,0,0,0.292894,59.7429,-15.0745)">
        <path d="M377.3,202.6C394.52,202.52 411.74,202.57 428.96,202.57C440.42,202.79 452.28,203.35 462.95,207.98C468.82,210.43 473.5,215.31 475.77,221.25C479.93,231.92 479.41,243.7 478.28,254.89C474.82,285.25 471.43,315.63 467.94,345.99C466.25,359.95 461.71,374.41 451.28,384.37C442.94,392.3 431.45,396.09 420.11,396.74C398.52,398.06 376.87,397.18 355.25,397.45C362.55,332.49 369.98,267.55 377.3,202.6M400.29,364.03C406.68,363.78 413.62,364.56 419.46,361.43C425.07,357.58 425.67,350.05 426.47,343.9C429.76,314.95 433.03,286.01 436.32,257.07C436.82,251.14 438.34,243.98 434.06,239.07C428.52,235.12 421.18,236.32 414.78,235.99C409.97,278.67 405.1,321.35 400.29,364.03Z" style="fill:rgb(168,0,59);fill-rule:nonzero;"/>
    </g>
    <g transform="matrix(0.292894,0,0,0.292894,59.7429,-15.0745)">
        <path d="M477.98,397.45C496.44,332.46 515.12,267.54 533.66,202.58C552.1,202.54 570.53,202.58 588.97,202.56C592.67,266.83 596.26,331.11 600,395.38L600,397.42C585.36,397.43 570.71,397.45 556.07,397.42C556.07,386.56 556.1,375.71 556.05,364.85C562.93,360.41 568.1,353.21 569.16,345C570.91,334.28 565.37,323.18 556.23,317.52C556.34,292.31 556.29,267.09 557.02,241.89C557.23,240.05 556.71,237.85 558.21,236.42C557.72,236.51 557.25,236.6 556.78,236.71C555.4,245.51 553.29,254.18 551.4,262.89C546.93,281.82 542.56,300.77 537.96,319.67C542.01,319.24 546.23,319.23 550.04,320.87C558.88,324.17 564.83,333.73 563.76,343.13C563.02,352.89 554.84,361.43 545.12,362.59C539.35,363.51 533.81,361.33 528.7,358.93C525.81,371.78 522.63,384.56 519.7,397.41C505.79,397.46 491.89,397.42 477.98,397.45Z" style="fill:rgb(168,0,59);fill-rule:nonzero;"/>
    </g>
</svg>
