<?xml version="1.0" encoding="UTF-8" standalone="no"?>
<!DOCTYPE svg PUBLIC "-//W3C//DTD SVG 1.1//EN" "http://www.w3.org/Graphics/SVG/1.1/DTD/svg11.dtd">
<svg width="100%" height="100%" viewBox="0 0 300 150" version="1.1" xmlns="http://www.w3.org/2000/svg" xmlns:xlink="http://www.w3.org/1999/xlink" xml:space="preserve" xmlns:serif="http://www.serif.com/" style="fill-rule:evenodd;clip-rule:evenodd;stroke-linejoin:round;stroke-miterlimit:2;">
    <g transform="matrix(0.0793275,0,0,0.0793275,48.8404,40.0789)">
        <path d="M2498.44,197.604C2464.44,2.416 1877.97,-58.497 1188.46,61.547C898.888,111.988 637.421,186.385 433.802,270.084C465.08,270.769 488.277,277.941 502.372,291.999C513.392,303.03 518.958,318.171 518.958,337.035L518.958,356.397L451.346,356.397L451.346,339.302C451.346,325.057 442.805,316.229 427.676,316.229C414.963,316.229 407.131,321.969 404.604,333.275C403.757,337.744 403.85,342.341 404.878,346.772C412.112,376.345 512.508,394.71 523.428,449.285C524.86,456.308 526.802,471.337 523.739,492.84C517.476,536.856 478.802,553.84 429.569,553.84C360.849,553.84 332.933,521.292 332.933,476.417L332.983,455.187L405.463,455.187L405.5,481.634C405.5,496.501 416.308,504.706 431.026,504.706C444.971,504.706 453.115,499.091 455.929,487.611C457.236,482.331 457.809,474.549 455.431,468.597C442.02,434.953 348.274,419.24 336.731,364.839C334.154,352.612 333.942,342.203 336.084,329.042C337.182,322.517 339.203,316.183 342.085,310.227C116.229,415.853 -15.894,532.075 1.563,632.421C35.593,827.634 622.056,888.484 1311.55,768.44C1614.65,715.683 1887.13,636.704 2094.51,548.199C2091.51,548.349 2088.6,548.672 2085.49,548.672C2038.29,548.672 1996.16,530.991 1991.79,482.754C1991.02,473.976 1990.88,470.303 1990.85,465.298L1990.88,354.405C1990.88,349.624 1991.44,341.231 1991.98,336.898C1997.57,290.28 2034.42,271.055 2085.51,271.055C2125.04,271.055 2173.52,282.398 2178.85,336.936C2179.55,343.784 2179.48,351.093 2179.47,353.496L2179.47,363.968L2111.18,363.968L2111.18,348.341C2111.18,348.005 2111.09,342.165 2110.34,338.517C2109.22,332.951 2104.47,320.052 2085.02,320.052C2065.81,320.052 2060.83,332.976 2059.59,338.53C2058.88,341.58 2058.54,345.963 2058.54,350.819L2058.54,471.337C2058.48,475.52 2058.69,478.795 2059.11,481.198C2059.45,483.091 2062.9,499.701 2085.26,499.701C2107.46,499.701 2110.9,483.091 2111.21,481.198C2111.8,477.936 2111.87,474.051 2111.85,471.337L2111.85,433.995L2084.97,433.995L2084.97,393.777L2179.99,393.777L2179.99,465.322C2179.97,470.191 2179.89,473.789 2179.07,482.754C2177.92,495.405 2173.94,506.113 2167.69,515.265C2387.62,410.835 2515.67,296.493 2498.44,197.604ZM710.56,543.542L675.97,308.509L674.725,308.509L639.251,543.542L566.348,543.542L615.382,278.115L734.33,278.115L783.065,543.542L710.56,543.542ZM1061.22,543.542L1059.61,313.054L1058.44,313.054L1015.55,543.542L947.125,543.542L904.442,313.054L903.221,313.054L901.665,543.542L833.867,543.542L839.744,278.115L948.794,278.115L980.545,475.284L982.101,475.284L1013.94,278.115L1122.94,278.115L1128.79,543.542L1061.22,543.542ZM1380.49,492.105C1373.19,543.517 1322.82,552.507 1287.22,552.507C1228.12,552.507 1191.56,527.243 1191.56,475.831L1191.6,454.863L1263.2,454.863L1263.26,480.986C1263.26,495.169 1273.25,503.847 1288.69,503.847C1302.46,503.847 1310.53,498.319 1313.33,486.963C1314.63,481.671 1315.16,473.951 1312.87,468.124C1299.67,435.115 1206.66,418.941 1195.36,365.387C1192.77,353.247 1192.58,342.937 1194.71,329.913C1202.58,281.365 1249.17,271.279 1286.68,271.279C1320.22,271.279 1344.64,278.601 1359.28,293.244C1370.2,304.176 1375.73,319.18 1375.73,337.845L1375.73,356.995L1308.77,356.995L1308.77,340.098C1308.77,325.63 1299.79,317.262 1285.36,317.262C1272.56,317.262 1264.81,322.953 1262.27,334.147C1261.45,338.57 1261.56,343.117 1262.6,347.495C1269.77,376.93 1369.28,394.922 1380.17,448.986C1381.58,455.884 1383.51,470.689 1380.49,492.105ZM1628.49,467.987C1628.59,472.968 1628.11,482.916 1627.83,485.469C1623.75,529.198 1592.47,551.424 1535.11,551.424C1477.52,551.424 1446.22,529.198 1442.16,485.469C1441.7,479.67 1441.48,473.854 1441.5,468.037L1441.5,278.053L1510.01,278.053L1510.01,474.026C1509.93,478.409 1510.15,481.646 1510.59,483.9C1511.44,488.258 1515.77,502.403 1535.11,502.403C1554.38,502.403 1558.72,488.246 1559.62,483.95C1560.01,481.634 1560.25,478.235 1560.25,474.014L1560.25,278.053L1628.49,278.053L1628.49,467.987ZM1923.65,540.84L1828.33,540.84L1764.34,330.598L1763.27,330.598L1766.82,540.84L1700.38,540.84L1700.38,278.115L1799.7,278.115L1858.84,480.077L1860.23,480.077L1856.73,278.115L1923.65,278.115L1923.65,540.84Z" style="fill:rgb(45,79,158);fill-rule:nonzero;"/>
    </g>
</svg>
