<?xml version="1.0" encoding="UTF-8" standalone="no"?>
<!DOCTYPE svg PUBLIC "-//W3C//DTD SVG 1.1//EN" "http://www.w3.org/Graphics/SVG/1.1/DTD/svg11.dtd">
<svg width="100%" height="100%" viewBox="0 0 300 150" version="1.1" xmlns="http://www.w3.org/2000/svg" xmlns:xlink="http://www.w3.org/1999/xlink" xml:space="preserve" xmlns:serif="http://www.serif.com/" style="fill-rule:evenodd;clip-rule:evenodd;stroke-linejoin:round;stroke-miterlimit:2;">
    <g transform="matrix(0.0786927,0,0,0.0772128,49.5427,-24.4827)">
        <g transform="matrix(3.20539,0,0,3.26683,-82.9536,546.62)">
            <path d="M94.585,131.127C75.572,122.687 64.233,119.41 52.976,119.41C41.16,119.41 33.593,123.642 33.593,130.182C33.593,149.915 100.532,144.361 100.532,190.004C100.532,215.17 79.416,229.795 50.077,229.795C27.066,229.795 15.732,223.84 2.678,217.102L2.678,188.865C21.507,201.343 33.03,205.745 47.556,205.745C60.146,205.745 66.934,201.343 66.934,193.659C66.934,172.174 0,180.043 0,133.045C0,110.381 19.581,95.373 50.077,95.373C64.796,95.373 78.075,98.466 94.585,105.564L94.585,131.127ZM188.306,223.795C177.148,227.846 167.713,229.773 158.301,229.773C127.125,229.773 106.968,211.614 106.968,183.99C106.968,156.87 127.904,137.708 157.14,137.708C166.174,137.708 177.719,140.022 186.952,143.461L186.952,164.221C179.641,160.34 171.179,158.211 164.252,158.211C147.52,158.211 136.758,168.267 136.758,183.788C136.758,199.524 147.336,209.881 163.284,209.881C170.013,209.881 175.995,208.342 188.311,203.733L188.306,223.795ZM431.375,173.817C432.519,161.493 439.676,154.372 450.636,154.372C461.412,154.372 468.713,161.695 469.866,173.817L431.375,173.817ZM448.71,137.74C421.355,137.74 401.883,157.059 401.883,184.247C401.883,211.637 422.13,229.773 453.342,229.773C460.256,229.773 476.978,229.773 492.908,217.984L492.908,200.649C479.859,209.944 471.23,213.145 460.089,213.145C442.507,213.145 431.753,204.048 430.781,188.518L494.474,188.518C495.802,156.105 474.52,137.74 448.71,137.74M505.255,228.157L533.104,228.157L533.104,139.373L505.255,139.373L505.255,228.157ZM610.612,203.89C604.81,209.112 599.989,211.205 594.042,211.205C580.926,211.205 572.625,200.411 572.625,184.238C572.625,166.512 580.926,156.294 594.965,156.294C599.989,156.294 606.547,158.607 610.612,161.506L610.612,203.89ZM610.612,97.012L610.612,143.267C603.09,139.63 595.586,137.708 587.48,137.708C562.074,137.708 544.497,156.487 544.497,183.657C544.497,210.242 562.074,229.795 585.909,229.795C595.361,229.795 602.667,227.319 610.612,220.982L610.612,228.13L638.457,228.13L638.457,97.012L610.612,97.012ZM679.684,173.817C680.841,161.493 687.962,154.372 698.904,154.372C709.694,154.372 717.071,161.695 718.224,173.817L679.684,173.817ZM697,137.74C669.65,137.74 650.209,157.059 650.209,184.247C650.209,211.637 670.465,229.773 701.636,229.773C708.541,229.773 725.3,229.773 741.266,217.984L741.266,200.649C728.203,209.944 719.552,213.145 708.361,213.145C690.874,213.145 680.075,204.048 679.103,188.518L742.774,188.518C744.097,156.105 722.801,137.74 697,137.74" style="fill:rgb(0,158,77);fill-rule:nonzero;"/>
        </g>
        <g transform="matrix(4.00674,0,0,-4.08353,-7428.06,3545.18)">
            <path d="M2462.31,602.618L2462.64,602.618C2469.25,617.4 2476.65,624.332 2485.24,624.332C2489.7,624.332 2493.54,622.635 2500,617.855L2493.87,598.162C2488.02,601.853 2484.17,603.397 2480.64,603.397C2472.47,603.397 2467.24,595.69 2462.31,582.664L2462.31,552.023L2440,552.023L2440,623.031L2462.31,623.031L2462.31,602.618ZM2262.26,652.834C2264.35,647.316 2260.59,639.618 2253.88,635.657C2247.14,631.701 2240.01,632.956 2237.94,638.475C2235.83,644.003 2239.57,651.709 2246.3,655.647C2253.02,659.627 2260.15,658.366 2262.26,652.834" style="fill:rgb(0,158,77);fill-rule:nonzero;"/>
        </g>
        <g transform="matrix(3.20539,0,0,3.26683,-82.9536,546.62)">
            <path d="M288.626,171.648C288.626,147.588 272.273,137.74 256.136,137.74C245.162,137.74 236.146,142.367 228.075,152.58L227.693,152.58L227.693,97.016L199.816,97.016L199.816,227.905L227.697,227.905L227.697,171.648C234.219,162.213 239.788,158.18 246.323,158.18C254.993,158.18 260.754,164.347 260.754,177.607L260.754,208.797C270.104,203.989 279.61,201.041 288.626,199.947L288.626,171.648ZM358.549,137.708C347.197,137.708 338.528,141.93 329.651,152.081L329.651,139.373L301.788,139.373L301.788,199.709C311.439,200.672 323.754,205.101 329.651,212.416L329.651,170.95C336.979,159.958 342.178,156.294 349.11,156.294C357.005,156.294 363.001,161.506 363.001,174.024L363.001,227.927L390.877,227.927L390.877,171.715C390.877,145.572 372.409,137.708 358.549,137.708M406.272,253.422L373.881,253.422L373.881,276.433L405.119,276.433L405.119,286.309L373.881,286.309L373.881,310.048L407.235,310.048L407.235,319.911L363.019,319.911L363.019,243.569L406.267,243.569L406.272,253.422ZM432.721,319.956L442.642,319.956L442.642,243.547L432.721,243.547L432.721,319.956ZM491.755,277.158C498.786,277.158 503.148,282.005 503.477,289.617L478.211,289.617C479.58,281.668 484.153,277.158 491.755,277.158ZM478.031,296.243L513.371,296.243C513.371,277.608 504.863,268.619 491.53,268.619C477.698,268.619 468.097,278.841 468.097,294.091C468.097,308.027 476.771,320.896 492.39,320.896C500.902,320.896 506.407,319.006 512.502,314.959L512.502,305.304C506.614,309.157 500.902,311.381 494.893,311.381C485.283,311.381 479.58,306.227 478.031,296.238M578.148,282.798C572.445,278.891 568.637,277.743 564.294,277.743C555.21,277.743 548.922,284.711 548.922,294.911C548.922,305.304 555.615,311.565 565.955,311.565C570.208,311.565 574.259,310.462 579.26,308.225L579.26,318.007C575.916,319.582 569.547,320.896 564.294,320.896C549.268,320.896 538.843,310.566 538.843,295.802C538.843,279.138 548.368,268.619 563.614,268.619C569.434,268.619 573.35,269.974 578.153,272.085L578.148,282.798ZM623.35,269.582L639.271,269.582L639.271,278.521L623.35,278.521L623.35,304.359C623.35,310.273 627.631,311.984 630.525,311.984C634.113,311.984 637.817,310.728 641.833,308.248L641.833,317.552C638.349,319.47 633.006,320.896 629.729,320.896C618.926,320.896 613.465,314.19 613.465,305.106L613.465,278.521L604.715,278.521L604.715,277.414L623.35,259.175L623.35,269.582ZM677.208,269.582L677.208,281.231L677.411,281.231C682.47,272.319 687.277,268.619 691.959,268.619C696.001,268.619 699.782,270.514 703.941,274.448L698.684,283.189C695.663,280.205 691.756,278.148 689.402,278.148C682.569,278.148 677.204,285.089 677.204,293.691L677.204,319.956L667.301,319.956L667.301,269.582L677.208,269.582ZM805.598,282.798C799.863,278.891 796.055,277.743 791.689,277.743C782.628,277.743 776.385,284.711 776.385,294.911C776.385,305.304 783.092,311.565 793.363,311.565C797.622,311.565 801.65,310.462 806.719,308.225L806.719,318.007C803.307,319.582 796.929,320.896 791.685,320.896C776.686,320.896 766.216,310.566 766.216,295.802C766.216,279.138 775.786,268.619 791.027,268.619C796.861,268.619 800.741,269.974 805.593,272.085L805.598,282.798ZM730.238,319.956L740.158,319.956L740.158,269.586L730.238,269.586L730.238,319.956Z" style="fill:rgb(0,158,77);fill-rule:nonzero;"/>
        </g>
        <g transform="matrix(4.00674,0,0,-4.08353,-7428.06,3545.18)">
            <path d="M2427.12,533.267C2427.9,531.322 2426.54,528.572 2424.16,527.172C2421.75,525.768 2419.21,526.218 2418.49,528.167C2417.76,530.134 2419.08,532.862 2421.49,534.266C2423.87,535.688 2426.4,535.234 2427.12,533.267M2071.9,530.008C2070.5,530.008 2069.91,529.778 2069.34,529.139C2069.11,528.891 2069.02,528.639 2068.94,528.135L2061.82,501.146C2060.15,491.679 2048.53,482.227 2033.37,482.227L2012.3,482.227L2015.96,496.095L2029.49,496.095C2030.87,496.095 2031.95,496.608 2032.86,497.617C2033.19,498.008 2033.62,498.62 2033.68,499.251L2039.3,522.833C2040.96,532.303 2050.96,542.764 2066.11,542.764L2087.69,542.764L2084.93,530.008L2071.9,530.008ZM2076.76,513.56L2079.17,522.293L2101.09,522.293C2103.79,534.955 2101.66,546.685 2093.98,554.369C2078.43,569.921 2045.89,564.636 2021.65,541.445C2017.87,537.844 2014.67,533.951 2011.76,529.972L2024.96,529.972L2021.89,521.221L2006.12,521.221C2004.61,518.462 2003.2,515.725 2002.12,512.948L2020.82,512.948L2017.82,504.197L1999.45,504.197C1996.31,490.829 1998.31,478.36 2006.21,470.442C2021.57,455.089 2054.01,460.486 2078.24,483.672C2082.47,487.705 2085.98,492.057 2089.14,496.527L2072.18,496.527L2074.77,505.26L2094.59,505.26C2096.05,508.037 2097.38,510.783 2098.43,513.56L2076.76,513.56Z" style="fill:rgb(0,158,77);fill-rule:nonzero;"/>
        </g>
    </g>
</svg>
