<?xml version="1.0" encoding="UTF-8" standalone="no"?>
<!DOCTYPE svg PUBLIC "-//W3C//DTD SVG 1.1//EN" "http://www.w3.org/Graphics/SVG/1.1/DTD/svg11.dtd">
<svg width="100%" height="100%" viewBox="0 0 300 150" version="1.1" xmlns="http://www.w3.org/2000/svg" xmlns:xlink="http://www.w3.org/1999/xlink" xml:space="preserve" xmlns:serif="http://www.serif.com/" style="fill-rule:evenodd;clip-rule:evenodd;stroke-linejoin:round;stroke-miterlimit:2;">
    <g transform="matrix(0.0765268,0,0,0.0765268,52.342,43.4664)">
        <g transform="matrix(14.3574,0,0,14.3574,132.817,-53.7183)">
            <path d="M0,45.152L0.118,44.225C0.618,39.289 4.054,36.455 7.215,35.597C9.001,35.111 10.797,35.147 12.528,35.847C13.798,36.362 14.74,37.242 15.123,38.613C15.185,38.837 15.213,39.07 15.25,39.3C15.26,39.36 15.252,39.425 15.252,39.522L14.348,39.58C12.791,39.687 11.308,40.038 10.028,40.982C8.821,41.872 7.983,43.029 7.74,44.538C7.373,46.818 8.205,49.613 10.41,50.992C11.446,51.64 12.602,51.858 13.803,51.892C18.157,52.05 20.915,48.682 21.335,45.388C21.502,44.076 21.44,42.771 21.297,41.464C20.982,38.591 19.593,36.204 17.899,33.964C16.592,32.229 15.059,30.696 13.587,29.106C12.22,27.626 10.885,26.118 9.851,24.374C9.047,23.018 8.431,21.584 8.231,20.014C7.861,17.088 8.556,14.442 10.511,12.194C12.533,9.87 15.109,8.441 18.067,7.667C19.285,7.347 20.527,7.175 21.784,7.107C23.73,7.002 25.66,7.081 27.558,7.561C29.108,7.951 30.521,8.611 31.642,9.787C32.672,10.867 33.315,12.145 33.432,13.642C33.5,14.516 33.575,15.409 33.472,16.272C33.235,18.242 32.338,19.868 30.578,20.887C28.986,21.807 26.633,21.45 25.412,20.173C25.382,20.141 25.354,20.106 25.312,20.057C25.357,20.019 25.392,19.981 25.435,19.955C26.901,19.041 27.711,17.681 28.005,16.018C28.138,15.263 28.173,14.483 28.165,13.715C28.161,13.318 28.005,12.907 27.849,12.531C27.207,10.986 25.996,10.249 24.359,10.108C23.239,10.011 22.129,10.038 21.056,10.39C18.996,11.07 17.683,12.455 17.436,14.64C17.186,16.86 17.612,18.96 18.892,20.84C19.776,22.146 20.838,23.28 21.999,24.338L27.022,28.993C29.478,31.343 30.98,34.229 31.69,37.538C32.017,39.061 32.05,40.601 31.94,42.15C31.814,43.935 31.458,45.668 30.78,47.328C29.652,50.088 27.77,52.218 25.314,53.868C23.057,55.388 20.564,56.293 17.891,56.743C16.073,57.049 14.244,57.11 12.411,57.033C10.309,56.946 8.249,56.601 6.305,55.753C3.505,54.529 1.505,52.527 0.541,49.596C0.283,48.812 0.215,47.966 0.058,47.148C0.043,47.071 0.018,46.996 -0,46.92L-0,45.14L0,45.152Z" style="fill:rgb(13,121,242);fill-rule:nonzero;"/>
        </g>
        <g transform="matrix(14.3574,0,0,14.3574,132.817,-53.7183)">
            <path d="M151.6,46.55C150.94,49.84 149.717,52.72 146.76,54.546C145.422,55.372 143.943,55.796 142.394,55.983C140.969,56.156 139.542,56.155 138.122,55.933C136.038,55.609 134.167,54.833 132.66,53.309C132.058,52.699 131.62,51.981 131.275,51.204L131.127,50.871L130.927,51.104C129.704,52.632 128.263,53.9 126.504,54.781C125.016,55.526 123.436,55.929 121.778,56.053C120.786,56.127 119.798,56.151 118.838,55.853C116.386,55.093 114.812,53.5 114.293,50.946C113.967,49.344 113.933,47.721 114.223,46.121L115.713,38.684L116.406,35.421C116.416,35.381 116.416,35.338 116.429,35.251L116.127,35.343C114.765,35.806 113.373,36.148 111.957,36.387C111.717,36.427 111.644,36.523 111.627,36.743C111.479,38.577 111.171,40.395 110.707,42.176C109.82,45.571 108.36,48.672 106.005,51.31C104.323,53.194 102.349,54.65 99.912,55.415C98.342,55.908 96.732,56.039 95.092,55.938C93.38,55.833 91.726,55.511 90.192,54.688C88.162,53.594 86.938,51.861 86.272,49.694C85.792,48.134 85.695,46.531 85.818,44.92C85.92,43.596 86.071,42.277 86.271,40.964C86.537,39.214 87.044,37.52 87.629,35.85L87.742,35.526C87.412,35.618 87.135,35.709 86.842,35.773L84.032,36.393C83.824,36.436 83.778,36.541 83.764,36.719C83.632,38.338 83.377,39.945 83.002,41.526C82.246,44.726 81.006,47.686 78.982,50.294C77.456,52.259 75.649,53.887 73.352,54.918C71.425,55.783 69.402,56.065 67.306,55.941C65.511,55.835 63.779,55.501 62.194,54.608C60.249,53.511 59.074,51.815 58.424,49.708C58.387,49.588 58.354,49.468 58.319,49.346L58.209,48.936L57.314,49.906C55.142,52.176 52.674,54.016 49.687,55.076C46.675,56.148 43.593,56.423 40.463,55.698C38.563,55.256 36.881,54.36 35.631,52.803C34.701,51.646 34.237,50.283 33.977,48.843C33.674,47.16 33.684,45.466 33.801,43.767C34.121,39.142 35.514,34.847 37.823,30.847C39.798,27.424 42.593,24.917 46.309,23.494C48.047,22.829 49.849,22.611 51.704,22.741C52.938,22.828 54.148,23.006 55.29,23.508C57.18,24.338 58.17,25.802 58.35,27.844C58.446,28.948 58.393,30.038 58.015,31.084C57.615,32.188 56.875,32.989 55.713,33.274C54.671,33.529 53.706,33.216 52.813,32.671C52.761,32.639 52.743,32.491 52.763,32.409C52.961,31.629 53.213,30.859 53.363,30.069C53.533,29.185 53.565,28.283 53.3,27.402C52.98,26.342 52.127,25.88 51.056,26.172C50.259,26.389 49.664,26.905 49.126,27.495C48.113,28.608 47.366,29.9 46.689,31.232C45.311,33.942 44.463,36.824 43.877,39.796C43.467,41.876 43.292,43.974 43.302,46.089C43.306,46.791 43.395,47.487 43.632,48.154C44.162,49.634 45.267,50.426 46.775,50.578C49.38,50.841 51.861,50.405 54.105,48.97C55.199,48.27 56.188,47.434 57.128,46.54C57.406,46.276 57.754,46.028 57.898,45.697C58.038,45.374 57.955,44.955 57.978,44.577C58.262,39.967 59.461,35.612 61.714,31.571C63.096,29.091 64.888,26.951 67.224,25.303C69.106,23.973 71.194,23.163 73.48,22.859C75.085,22.645 76.686,22.606 78.27,23.001C80.842,23.644 82.43,25.327 83.27,27.785C83.77,29.217 83.943,30.7 83.998,32.205C84.006,32.411 84.038,32.62 84.018,32.825C83.988,33.113 84.124,33.16 84.373,33.18C85.548,33.27 86.681,33.07 87.796,32.726C88.233,32.592 88.731,32.52 89.072,32.254C89.402,31.998 89.572,31.531 89.8,31.151C91.25,28.751 93.035,26.651 95.38,25.091C97.185,23.884 99.18,23.146 101.325,22.861C102.921,22.649 104.513,22.608 106.089,22.996C108.593,23.613 110.189,25.221 111.055,27.608C111.577,29.048 111.777,30.548 111.84,32.07C111.85,32.32 111.877,32.574 111.86,32.824C111.842,33.082 111.936,33.16 112.188,33.179C113.315,33.262 114.408,33.096 115.483,32.771C115.92,32.639 116.348,32.474 116.785,32.341C117.001,32.276 117.09,32.155 117.137,31.933L121.434,11.819C121.474,11.619 121.561,11.565 121.731,11.542L128.688,10.615L131.032,10.289L130.884,11.041L128.644,21.613L124.014,43.413C123.814,44.36 123.607,45.308 123.456,46.263C123.37,46.809 123.35,47.375 123.376,47.928C123.421,48.881 124.041,49.526 125.02,49.724C126.42,50.007 127.69,49.694 128.79,48.808C129.317,48.384 129.764,47.858 130.23,47.36C130.313,47.27 130.335,47.1 130.338,46.966C130.366,45.754 130.328,44.538 130.416,43.331C130.564,41.276 130.969,39.261 131.591,37.293C132.478,34.488 133.651,31.813 135.351,29.397C137.449,26.413 140.223,24.321 143.715,23.217C145.215,22.744 146.755,22.627 148.319,22.721C149.271,22.779 150.213,22.889 151.134,23.141C153.246,23.721 154.447,25.176 154.799,27.261C155.372,30.661 154.522,33.761 152.351,36.415C149.787,39.562 146.451,41.477 142.468,42.255C141.765,42.392 141.048,42.455 140.335,42.537C140.135,42.559 140.025,42.602 139.998,42.822C139.821,44.315 139.804,45.797 140.25,47.252C140.77,48.954 142.026,49.894 143.8,49.94C145.24,49.978 146.564,49.56 147.838,48.944C149.128,48.32 150.336,47.56 151.432,46.631C151.464,46.604 151.5,46.581 151.582,46.521L151.6,46.55ZM67.523,44.994C67.617,45.958 67.681,46.926 67.815,47.894C67.945,48.816 68.445,49.54 69.303,49.894C70.055,50.214 70.876,50.262 71.683,50.081C72.583,49.877 73.266,49.291 73.863,48.617C75.025,47.302 75.836,45.773 76.513,44.169C77.508,41.814 78.073,39.345 78.436,36.824C78.463,36.638 78.356,36.614 78.238,36.572C77.588,36.35 77.171,35.902 76.938,35.264C76.72,34.669 76.698,34.052 76.728,33.43C76.791,32.127 77.35,31.125 78.533,30.517C78.683,30.44 78.756,30.353 78.726,30.187C78.604,29.491 78.519,28.787 78.353,28.1C78.178,27.376 77.713,26.895 76.958,26.72C75.781,26.445 74.758,26.742 73.854,27.518C73.052,28.206 72.441,29.048 71.911,29.951C70.641,32.115 69.751,34.445 68.987,36.824C68.134,39.478 67.582,42.186 67.521,44.994L67.523,44.994ZM95.385,44.996L95.598,47.571C95.738,48.921 96.618,49.951 97.928,50.114C99.096,50.26 100.148,50.088 101.028,49.274C101.293,49.032 101.56,48.787 101.791,48.514C103.045,47.037 103.909,45.334 104.604,43.544C105.424,41.426 105.926,39.226 106.248,36.981C106.284,36.731 106.254,36.623 105.998,36.539C105.48,36.369 105.116,36.003 104.88,35.509C104.573,34.864 104.535,34.179 104.563,33.482C104.616,32.157 105.175,31.138 106.375,30.515C106.511,30.445 106.592,30.369 106.565,30.208C106.433,29.468 106.335,28.721 106.158,27.992C106.034,27.48 105.708,27.076 105.2,26.857C104.612,26.602 103.994,26.567 103.376,26.669C102.633,26.789 102.031,27.199 101.49,27.703C100.69,28.46 100.067,29.368 99.532,30.329C98.372,32.417 97.532,34.637 96.802,36.906C95.966,39.536 95.424,42.219 95.38,44.996L95.385,44.996ZM140.491,39.544C141.003,39.476 141.441,39.439 141.868,39.357C143.732,39.001 145.27,38.044 146.588,36.717C148.951,34.341 150.108,31.475 149.995,28.117C149.977,27.741 149.899,27.371 149.766,27.019C149.519,26.349 148.876,26.026 148.166,26.124C147.396,26.231 146.76,26.594 146.191,27.094C145.177,27.987 144.461,29.106 143.831,30.282C142.511,32.746 141.581,35.36 140.861,38.052C140.736,38.518 140.627,38.988 140.489,39.54L140.491,39.544Z" style="fill:rgb(13,121,242);fill-rule:nonzero;"/>
        </g>
        <g transform="matrix(14.3574,0,0,14.3574,132.817,-53.7183)">
            <path d="M74.152,13.694L74.777,9.916C74.789,9.812 74.737,9.666 74.663,9.593L71.998,7.02L73.022,6.857L75.709,6.455C75.879,6.442 76.026,6.331 76.086,6.172L77.562,3.117L77.665,2.924L77.795,3.151L79.311,6.185C79.423,6.415 79.568,6.507 79.819,6.538L83.126,6.978C83.179,6.985 83.229,7.006 83.326,7.038L82.526,7.823L80.64,9.7C80.564,9.778 80.513,9.936 80.53,10.043L81.135,13.406C81.149,13.484 81.152,13.564 81.165,13.686L79.811,12.986L77.804,11.942C77.66,11.865 77.551,11.868 77.408,11.946L74.443,13.54L74.153,13.692L74.152,13.694Z" style="fill:rgb(13,121,242);fill-rule:nonzero;"/>
        </g>
        <g transform="matrix(14.3574,0,0,14.3574,132.817,-53.7183)">
            <path d="M90.21,13.698L90.53,11.822C90.587,11.534 90.544,11.336 90.314,11.118C89.879,10.706 89.496,10.24 89.109,9.816L90.843,9.558C91.136,9.523 91.321,9.421 91.443,9.133L92.243,7.468L93.127,9.233C93.224,9.433 93.331,9.549 93.577,9.573L95.567,9.845L94.955,10.402L93.978,11.37C93.918,11.432 93.893,11.563 93.908,11.652L94.275,13.694L92.741,12.894C92.368,12.664 92.067,12.648 91.691,12.891C91.234,13.186 90.734,13.416 90.208,13.697L90.21,13.698Z" style="fill:rgb(13,121,242);fill-rule:nonzero;"/>
        </g>
        <g transform="matrix(14.3574,0,0,14.3574,132.817,-53.7183)">
            <path d="M59.874,9.833L61.828,9.563C62.01,9.543 62.095,9.465 62.168,9.316L63.094,7.469L63.831,9.003C63.981,9.363 64.186,9.54 64.591,9.571C65.166,9.616 65.736,9.741 66.255,9.823L65.145,11C64.84,11.275 64.719,11.525 64.827,11.944C64.97,12.497 65.024,13.072 65.124,13.69L64.704,13.47L63.354,12.74C63.194,12.65 63.067,12.648 62.906,12.735L61.332,13.559C61.262,13.596 61.187,13.624 61.07,13.676L61.33,12.216C61.482,11.443 61.48,11.451 60.915,10.909L59.875,9.829L59.874,9.833Z" style="fill:rgb(13,121,242);fill-rule:nonzero;"/>
        </g>
        <g transform="matrix(14.3574,0,0,14.3574,132.817,-53.7183)">
            <path d="M101.697,13.698L101.867,12.715C101.911,12.497 101.887,12.33 101.701,12.169C101.473,11.972 101.281,11.732 101.053,11.487L102.02,11.34C102.202,11.338 102.363,11.221 102.422,11.049L102.859,10.142L103.327,11.075C103.407,11.243 103.501,11.338 103.707,11.352C104.027,11.374 104.344,11.442 104.712,11.555L103.956,12.261C103.83,12.374 103.786,12.488 103.829,12.661C103.906,12.981 103.952,13.311 104.022,13.691L103.129,13.229C102.917,13.099 102.747,13.109 102.542,13.239C102.292,13.396 102.024,13.521 101.697,13.696L101.697,13.698Z" style="fill:rgb(13,121,242);fill-rule:nonzero;"/>
        </g>
        <g transform="matrix(14.3574,0,0,14.3574,132.817,-53.7183)">
            <path d="M50.62,11.496L51.688,11.331C51.792,11.311 51.914,11.227 51.966,11.137C52.141,10.837 52.288,10.517 52.476,10.147L52.922,11.063C53,11.24 53.122,11.319 53.306,11.339L54.311,11.489L53.594,12.229C53.509,12.332 53.464,12.462 53.468,12.596C53.502,12.949 53.574,13.299 53.638,13.696L52.798,13.242C52.578,13.095 52.4,13.118 52.186,13.245C51.918,13.405 51.632,13.545 51.318,13.697L51.503,12.631C51.516,12.519 51.473,12.367 51.398,12.284C51.168,12.024 50.911,11.787 50.621,11.497L50.62,11.496Z" style="fill:rgb(13,121,242);fill-rule:nonzero;"/>
        </g>
    </g>
</svg>
