<?xml version="1.0" encoding="UTF-8" standalone="no"?>
<!DOCTYPE svg PUBLIC "-//W3C//DTD SVG 1.1//EN" "http://www.w3.org/Graphics/SVG/1.1/DTD/svg11.dtd">
<svg width="100%" height="100%" viewBox="0 0 300 150" version="1.1" xmlns="http://www.w3.org/2000/svg" xmlns:xlink="http://www.w3.org/1999/xlink" xml:space="preserve" xmlns:serif="http://www.serif.com/" style="fill-rule:evenodd;clip-rule:evenodd;stroke-linejoin:round;stroke-miterlimit:2;">
    <g transform="matrix(0.0928365,0,0,0.0928365,33.4766,-43.4289)">
        <path d="M2354.92,1356.83C2339.24,1356.83 2326.34,1369.74 2326.34,1385.42C2326.34,1401.1 2339.24,1414 2354.92,1414C2370.56,1413.99 2383.41,1401.12 2383.41,1385.48C2383.41,1385.44 2383.41,1385.4 2383.41,1385.35C2383.41,1385.34 2383.41,1385.34 2383.41,1385.33C2383.41,1369.69 2370.55,1356.83 2354.92,1356.83C2354.92,1356.83 2354.92,1356.83 2354.92,1356.83ZM2354.92,1410.57C2354.91,1410.57 2354.9,1410.57 2354.89,1410.57C2341.12,1410.57 2329.78,1399.23 2329.78,1385.46C2329.78,1385.43 2329.78,1385.4 2329.78,1385.37C2329.78,1371.6 2341.11,1360.27 2354.88,1360.27C2368.65,1360.27 2379.98,1371.6 2379.98,1385.37C2379.98,1385.4 2379.98,1385.44 2379.98,1385.48C2379.98,1399.23 2368.67,1410.55 2354.92,1410.57Z" style="fill:rgb(204,34,41);"/>
        <path d="M2369.59,1377.86C2369.59,1375.17 2368.4,1372.33 2366.02,1371C2363.61,1369.56 2360.93,1369.4 2358.22,1369.4L2344.31,1369.4L2344.31,1401.34L2348.22,1401.34L2348.22,1386.62L2355.39,1386.62L2364.51,1401.34L2369.16,1401.34L2359.51,1386.62C2365.18,1386.47 2369.59,1384.15 2369.59,1377.86ZM2354.19,1383.56L2348.22,1383.56L2348.22,1372.27L2357.33,1372.27C2361.29,1372.27 2365.65,1372.85 2365.65,1377.79C2365.63,1384.29 2358.67,1383.56 2354.19,1383.56ZM2165.5,1082.85C2132.06,1082.85 2038.06,1086.34 1976.07,1095.37L1976.07,1407.35L2075.6,1407.35L2075.6,1294.53C2088.14,1298.7 2159.93,1305.67 2184.99,1305.67C2210.07,1305.67 2389.72,1297.99 2389.72,1191.47C2389.7,1077.27 2198.91,1082.85 2165.5,1082.85ZM2171.05,1251.35C2139.03,1251.35 2102.07,1248.56 2075.6,1238.81L2075.6,1142.71C2109.04,1139.93 2162.01,1137.84 2177.34,1137.84C2192.67,1137.84 2272.06,1141.33 2272.73,1192.86C2273.41,1246.46 2203.08,1251.35 2171.05,1251.35ZM454.992,1220.74C428.106,1214.74 326.877,1198.46 300.406,1194.98C265.582,1190.81 245.401,1184.54 245.401,1165.04C245.401,1138.58 296.865,1143.14 338.718,1144.83C390.247,1146.93 487.041,1178.95 514.887,1190.79L547.609,1119.07C493.992,1092.6 390.935,1080.08 325.489,1080.08C278.124,1080.77 119.918,1091.94 117.973,1176.16C116.585,1236.06 169.009,1257.78 235.648,1274.36C292.741,1286.19 356.124,1291.76 399.3,1300.83C454.603,1312.41 454.318,1351.64 410.441,1355.82C334.737,1361.35 206.414,1323.8 147.92,1294.54L110.308,1371.14C191.771,1410.84 317.798,1420.44 361,1419.9C416.706,1419.19 564.327,1413.63 564.327,1325.19C564.302,1266.99 514.173,1233.97 454.992,1220.74ZM896.704,1216.56L690.601,1216.56L690.601,1095.4L584.742,1095.4L584.742,1407.38L690.601,1407.38L690.601,1279.25L896.704,1279.25L896.704,1407.38L1002.55,1407.38L1002.55,1095.4L896.704,1095.4L896.704,1216.56ZM1328.71,1095.4L1198.5,1095.4L1015.36,1407.36L1097.51,1407.36L1139.99,1336.33L1346.61,1336.33L1389.3,1407.36L1516.71,1407.36L1328.71,1095.4ZM1176.2,1273.67L1241.67,1161.56L1309,1273.67L1176.2,1273.67ZM1945.26,1186.59C1944.52,1072.39 1750.98,1082.85 1717.55,1082.85C1684.14,1082.85 1590.13,1086.34 1528.14,1095.37L1528.14,1407.35L1629.16,1407.35L1629.16,1142.73C1665.36,1139.94 1716.86,1137.85 1732.15,1137.85C1747.48,1137.85 1826.18,1135.08 1826.87,1191.48C1827.53,1245.1 1753.76,1245.8 1721.72,1245.8C1701.53,1245.8 1684.81,1241.62 1667.41,1237.43L1648.61,1269.48L1804.57,1407.36L1954.21,1407.36L1818.43,1287.95C1876.08,1276.38 1945.67,1249.43 1945.26,1186.59Z" style="fill:rgb(204,34,41);"/>
    </g>
</svg>
