<?xml version="1.0" encoding="UTF-8" standalone="no"?>
<!DOCTYPE svg PUBLIC "-//W3C//DTD SVG 1.1//EN" "http://www.w3.org/Graphics/SVG/1.1/DTD/svg11.dtd">
<svg width="100%" height="100%" viewBox="0 0 300 150" version="1.1" xmlns="http://www.w3.org/2000/svg" xmlns:xlink="http://www.w3.org/1999/xlink" xml:space="preserve" xmlns:serif="http://www.serif.com/" style="fill-rule:evenodd;clip-rule:evenodd;stroke-linejoin:round;stroke-miterlimit:2;">
    <g transform="matrix(0.0786927,0,0,0.0772128,49.5427,-24.4827)">
        <g transform="matrix(1.62276,0,0,1.65386,-179.917,829.249)">
            <path d="M1844.09,0L1845,0L1845,563L1845.11,563C1843.6,560.64 1844.6,557.64 1844.38,555.01C1844.36,380.68 1844.38,206.35 1844.37,32.03C1844.18,21.35 1844.75,10.65 1844.09,0Z" style="fill:rgb(0,72,132);fill-rule:nonzero;"/>
        </g>
        <g transform="matrix(1.62276,0,0,1.65386,-179.917,829.249)">
            <path d="M204.46,89.67C217.86,87.06 232.41,95.23 237.11,108.06C242.39,121.3 236.41,138.09 223.56,144.5C208.97,152.11 188.6,144.86 182.54,129.45C176.02,113.26 187.18,92.68 204.46,89.67Z" style="fill:rgb(0,72,132);fill-rule:nonzero;"/>
        </g>
        <g transform="matrix(1.62276,0,0,1.65386,-179.917,829.249)">
            <path d="M138.18,98.2C151.79,94.81 167.04,102.95 171.87,116.09C177.22,129.5 170.87,146.57 157.61,152.6C143.42,159.32 124.28,152.45 118.1,137.89C111.36,122.25 121.6,102.04 138.18,98.2Z" style="fill:rgb(0,72,132);fill-rule:nonzero;"/>
        </g>
        <g transform="matrix(1.62276,0,0,1.65386,-179.917,829.249)">
            <path d="M267.62,107.74C281.87,104.76 297.52,113.97 301.39,128.1C306.02,142.81 296.99,160.17 282.1,164.46C266.87,169.55 248.64,159.7 244.97,143.97C240.52,128.35 251.5,110.43 267.62,107.74Z" style="fill:rgb(0,72,132);fill-rule:nonzero;"/>
        </g>
        <g transform="matrix(1.62276,0,0,1.65386,-179.917,829.249)">
            <path d="M88.51,137.65C101.01,135.3 114.51,143.12 118.64,155.16C122.58,165.85 118.9,178.82 109.89,185.8C101.38,192.55 88.91,192.64 79.66,187.32C72.23,183.34 66.85,175.54 66.41,167.05C65.41,153.7 75.03,139.91 88.51,137.65Z" style="fill:rgb(0,72,132);fill-rule:nonzero;"/>
        </g>
        <g transform="matrix(1.62276,0,0,1.65386,-179.917,829.249)">
            <path d="M210.53,158.66C216.95,157.42 223.89,158.94 229.11,162.91C237.33,169 241.04,180.71 237.26,190.32C232.51,203.01 215.89,209.48 203.88,203.16C192.24,197.13 187.83,180.75 194.51,169.57C197.86,163.76 203.99,159.85 210.53,158.66Z" style="fill:rgb(0,72,132);fill-rule:nonzero;"/>
        </g>
        <g transform="matrix(1.62276,0,0,1.65386,-179.917,829.249)">
            <path d="M151.36,169.61C158.3,167.36 166.31,168.37 172.25,172.69C180.25,178.31 184.09,189.14 181.27,198.53C178.33,208.44 168.14,215.13 157.98,215.03C151.66,215.23 145.4,212.3 141.37,207.46C135.67,200.61 133.87,190.57 137.27,182.29C139.75,176.22 145.14,171.55 151.36,169.61Z" style="fill:rgb(0,72,132);fill-rule:nonzero;"/>
        </g>
        <g transform="matrix(1.62276,0,0,1.65386,-179.917,829.249)">
            <path d="M323.33,174.48C328.9,171.54 336.32,176.86 335.05,183.09C334.5,188.6 327.78,192.03 323,189.17C317.11,186.44 317.46,177.01 323.33,174.48Z" style="fill:rgb(0,72,132);fill-rule:nonzero;"/>
        </g>
        <g transform="matrix(1.62276,0,0,1.65386,-179.917,829.249)">
            <path d="M54.5,190.63C66.96,187.51 80.9,195.54 84.45,207.88C88.41,220.13 81.56,234.89 69.25,239.12C58.2,243.19 44.64,238.57 38.47,228.51C29.54,214.69 38.49,193.99 54.5,190.63Z" style="fill:rgb(0,72,132);fill-rule:nonzero;"/>
        </g>
        <g transform="matrix(1.62276,0,0,1.65386,-179.917,829.249)">
            <path d="M263.36,193.47C268.57,190.7 275.43,195.14 275.1,201C275.42,207.3 267.35,211.43 262.31,207.78C257.09,204.6 257.6,195.78 263.36,193.47Z" style="fill:rgb(0,72,132);fill-rule:nonzero;"/>
        </g>
        <g transform="matrix(1.62276,0,0,1.65386,-179.917,829.249)">
            <path d="M114.12,210.19C120.28,208.9 126.98,210.13 132.1,213.84C140.17,219.45 143.97,230.56 140.75,239.89C136.59,252.44 120.54,259.14 108.7,253.31C97.45,247.88 92.89,232.55 98.61,221.61C101.64,215.66 107.61,211.48 114.12,210.19Z" style="fill:rgb(0,72,132);fill-rule:nonzero;"/>
        </g>
        <g transform="matrix(1.62276,0,0,1.65386,-179.917,829.249)">
            <path d="M182.6,216.74C193.48,213.47 205.64,221.8 206.99,232.95C208.84,244.73 197.74,256.03 186.04,255.13C175.24,254.51 166.85,243.41 168.2,232.88C168.96,225.14 175.21,218.68 182.6,216.74Z" style="fill:rgb(0,72,132);fill-rule:nonzero;"/>
        </g>
        <g transform="matrix(1.62276,0,0,1.65386,-179.917,829.249)">
            <path d="M286.33,218.43C291.8,216.02 298.37,221.17 297.39,227.06C297.08,233.16 289.01,236.54 284.32,232.75C279.19,229.25 280.28,220.3 286.33,218.43Z" style="fill:rgb(0,72,132);fill-rule:nonzero;"/>
        </g>
        <g transform="matrix(1.62276,0,0,1.65386,-179.917,829.249)">
            <path d="M343.41,221.7C348.51,218.94 355.59,223.15 355.3,229.01C355.71,235.17 348.12,239.62 342.95,236.21C337.3,233.35 337.73,224.28 343.41,221.7Z" style="fill:rgb(0,72,132);fill-rule:nonzero;"/>
        </g>
        <g transform="matrix(1.62276,0,0,1.65386,-179.917,829.249)">
            <path d="M225.24,228.17C229.79,225.61 236.12,229.91 234.8,235.15C234.3,239.85 228.29,242.11 224.58,239.43C220.59,236.93 221.06,230.23 225.24,228.17Z" style="fill:rgb(0,72,132);fill-rule:nonzero;"/>
        </g>
        <g transform="matrix(1.62276,0,0,1.65386,-179.917,829.249)">
            <path d="M248.2,246.32C252.15,244.36 257.72,247.33 257.55,251.96C258.17,256.98 252.21,260.54 247.93,258.09C243.19,255.97 243.5,248.28 248.2,246.32Z" style="fill:rgb(0,72,132);fill-rule:nonzero;"/>
        </g>
        <g transform="matrix(1.62276,0,0,1.65386,-179.917,829.249)">
            <path d="M298.21,248.17C303.54,245.3 310.55,250.06 309.92,256.05C309.98,262.1 302.32,265.92 297.37,262.63C291.97,259.57 292.33,250.51 298.21,248.17Z" style="fill:rgb(0,72,132);fill-rule:nonzero;"/>
        </g>
        <g transform="matrix(1.62276,0,0,1.65386,-179.917,829.249)">
            <path d="M42.43,250.59C54.07,247.48 67.35,254.68 70.78,266.29C74.59,277.53 68.44,291.01 57.38,295.38C45.54,300.6 30.33,294.04 26.08,281.81C21.04,269.22 29.2,253.58 42.43,250.59Z" style="fill:rgb(0,72,132);fill-rule:nonzero;"/>
        </g>
        <g transform="matrix(1.62276,0,0,1.65386,-179.917,829.249)">
            <path d="M158.51,254.61C169.11,251.59 180.79,260.08 181.47,270.99C182.6,282.06 171.87,292.24 160.93,291.02C150.64,290.01 142.91,279.15 144.72,269.1C145.83,262.04 151.69,256.31 158.51,254.61Z" style="fill:rgb(0,72,132);fill-rule:nonzero;"/>
        </g>
        <g transform="matrix(1.62276,0,0,1.65386,-179.917,829.249)">
            <path d="M106.41,266.52C112.69,265.09 119.63,266.3 124.78,270.26C132.59,276.02 135.91,287.23 132.11,296.22C127.45,307.64 112.35,313.34 101.37,307.63C90.6,302.06 86.48,286.97 92.55,276.57C95.47,271.44 100.7,267.85 106.41,266.52Z" style="fill:rgb(0,72,132);fill-rule:nonzero;"/>
        </g>
        <g transform="matrix(1.62276,0,0,1.65386,-179.917,829.249)">
            <path d="M257.45,270.52C262.81,268.35 269.33,273.29 268.01,279.11C267.51,284.51 260.92,287.47 256.37,284.76C250.66,281.99 251.42,272.42 257.45,270.52Z" style="fill:rgb(0,72,132);fill-rule:nonzero;"/>
        </g>
        <g transform="matrix(1.62276,0,0,1.65386,-179.917,829.249)">
            <path d="M349.45,272.6C355.13,270.16 362.04,275.84 360.44,281.91C359.58,287.82 351.82,290.62 347.3,286.79C342.24,283.27 343.64,274.52 349.45,272.6Z" style="fill:rgb(0,72,132);fill-rule:nonzero;"/>
        </g>
        <g transform="matrix(1.62276,0,0,1.65386,-179.917,829.249)">
            <path d="M299.14,286.98C303.65,285.13 309.25,288.19 310.04,293.02C311.34,297.94 307.04,303.05 302.02,302.92C297.67,303.1 293.86,299.27 293.78,294.97C293.55,291.49 295.86,288.1 299.14,286.98Z" style="fill:rgb(0,72,132);fill-rule:nonzero;"/>
        </g>
        <g transform="matrix(1.62276,0,0,1.65386,-179.917,829.249)">
            <path d="M167.46,296.58C176.54,294.18 186.41,301.53 186.89,310.85C187.78,320.41 178.37,329.14 168.92,327.85C160.21,326.76 153.76,317.46 155.39,308.91C156.4,302.83 161.55,297.94 167.46,296.58Z" style="fill:rgb(0,72,132);fill-rule:nonzero;"/>
        </g>
        <g transform="matrix(1.62276,0,0,1.65386,-179.917,829.249)">
            <path d="M251.18,297.26C257.94,294.8 266.06,300.73 264.92,308.06C264.73,315.76 255.18,320.25 248.91,316.03C241.58,311.97 243.1,299.45 251.18,297.26Z" style="fill:rgb(0,72,132);fill-rule:nonzero;"/>
        </g>
        <g transform="matrix(1.62276,0,0,1.65386,-179.917,829.249)">
            <path d="M58.49,311.6C68.26,308.87 79.35,315.25 81.84,325.09C84.28,333.33 80.52,342.86 73.02,347.1C66.39,351.07 57.4,350.53 51.34,345.71C45.67,341.43 42.81,333.86 44.16,326.9C45.39,319.56 51.24,313.3 58.49,311.6Z" style="fill:rgb(0,72,132);fill-rule:nonzero;"/>
        </g>
        <g transform="matrix(1.62276,0,0,1.65386,-179.917,829.249)">
            <path d="M196.54,318.65C203.39,316.43 211.47,320.92 213.02,327.98C214.83,334.52 210.74,341.99 204.17,343.8C197.57,345.99 189.68,341.97 187.78,335.23C185.51,328.52 189.63,320.45 196.54,318.65Z" style="fill:rgb(0,72,132);fill-rule:nonzero;"/>
        </g>
        <g transform="matrix(1.62276,0,0,1.65386,-179.917,829.249)">
            <path d="M125.47,319.59C131.69,317.89 138.7,319.16 143.81,323.14C151.35,328.79 154.41,339.81 150.45,348.44C145.74,359.02 131.6,364.19 121.26,358.84C111.99,354.07 107.82,341.92 111.31,332.27C113.47,325.97 119.08,321.21 125.47,319.59Z" style="fill:rgb(0,72,132);fill-rule:nonzero;"/>
        </g>
        <g transform="matrix(1.62276,0,0,1.65386,-179.917,829.249)">
            <path d="M228.31,319.47C234.11,316.94 241.54,320.77 242.59,327.06C244.12,333.39 238.65,340.26 232.04,339.66C225.61,339.84 220.44,333.14 222.06,326.95C222.74,323.62 225.16,320.72 228.31,319.47Z" style="fill:rgb(0,72,132);fill-rule:nonzero;"/>
        </g>
        <g transform="matrix(1.62276,0,0,1.65386,-179.917,829.249)">
            <path d="M288.34,319.36C295.83,316.54 304.1,324.34 301.77,331.99C300.24,339.71 289.4,342.62 284.09,336.9C278.52,331.75 280.96,321.34 288.34,319.36Z" style="fill:rgb(0,72,132);fill-rule:nonzero;"/>
        </g>
        <g transform="matrix(1.62276,0,0,1.65386,-179.917,829.249)">
            <path d="M335.4,325.42C340.53,322.76 347.59,327.08 347.16,332.96C347.42,338.97 340.09,343.3 334.96,340.08C329.14,337.26 329.52,327.94 335.4,325.42Z" style="fill:rgb(0,72,132);fill-rule:nonzero;"/>
        </g>
        <g transform="matrix(1.62276,0,0,1.65386,-179.917,829.249)">
            <path d="M259.31,348.48C266.26,345.3 275.22,349.5 277.04,356.95C279.28,363.89 274.7,371.88 267.56,373.38C261.19,375.18 253.98,371.28 252,364.97C249.53,358.64 252.97,350.89 259.31,348.48Z" style="fill:rgb(0,72,132);fill-rule:nonzero;"/>
        </g>
        <g transform="matrix(1.62276,0,0,1.65386,-179.917,829.249)">
            <path d="M167.18,352.15C172.29,350.79 177.97,351.65 182.35,354.63C189.45,359.25 192.73,369.02 189.58,376.94C185.74,386.96 172.5,392.03 163.03,386.85C153.86,381.9 150.58,368.78 156.14,360.01C158.59,356.06 162.7,353.27 167.18,352.15Z" style="fill:rgb(0,72,132);fill-rule:nonzero;"/>
        </g>
        <g transform="matrix(1.62276,0,0,1.65386,-179.917,829.249)">
            <path d="M216.41,361.55C225.52,357.79 236.68,364.22 238.07,373.94C240.44,384 230.82,393.51 220.93,392.78C212.68,392.75 206.24,385 206.1,377.06C205.59,370.33 209.98,363.65 216.41,361.55Z" style="fill:rgb(0,72,132);fill-rule:nonzero;"/>
        </g>
        <g transform="matrix(1.62276,0,0,1.65386,-179.917,829.249)">
            <path d="M89.34,362.42C97.1,359.42 106.64,363.53 109.96,371.12C113.74,378.99 110.06,389.63 101.93,393.08C93.39,396.93 81.84,392.23 79.12,383.09C76.67,374.97 81.36,365.36 89.34,362.42Z" style="fill:rgb(0,72,132);fill-rule:nonzero;"/>
        </g>
        <g transform="matrix(1.62276,0,0,1.65386,-179.917,829.249)">
            <path d="M309.05,368.11C315.28,367.03 321.73,372.55 321.16,378.96C321.17,385.73 313.69,391.06 307.31,388.57C301.39,386.83 298.27,379.53 301.1,374.04C302.54,370.91 305.61,368.56 309.05,368.11Z" style="fill:rgb(0,72,132);fill-rule:nonzero;"/>
        </g>
        <g transform="matrix(1.62276,0,0,1.65386,-179.917,829.249)">
            <path d="M138.18,395.33C147.55,391.53 158.84,399.02 159.13,409.07C160.22,418.47 151.16,426.94 141.9,425.78C133.31,425.21 126.59,416.52 127.88,408.07C128.49,402.29 132.73,397.22 138.18,395.33Z" style="fill:rgb(0,72,132);fill-rule:nonzero;"/>
        </g>
        <g transform="matrix(1.62276,0,0,1.65386,-179.917,829.249)">
            <path d="M256.35,399.43C262.75,397.11 270.55,400.68 272.95,407.06C275.52,413.42 272.26,421.47 265.87,424.07C259.39,426.99 250.94,423.56 248.4,416.91C245.55,410.21 249.37,401.62 256.35,399.43Z" style="fill:rgb(0,72,132);fill-rule:nonzero;"/>
        </g>
        <g transform="matrix(1.62276,0,0,1.65386,-179.917,829.249)">
            <path d="M197.26,409.23C204.42,406.63 213.18,410.77 215.59,418.02C218.17,425.02 214.31,433.63 207.31,436.25C200.29,439.15 191.35,435.41 188.65,428.27C185.52,421 189.72,411.67 197.26,409.23Z" style="fill:rgb(0,72,132);fill-rule:nonzero;"/>
        </g>
        <g transform="matrix(1.62276,0,0,1.65386,-179.917,829.249)">
            <path d="M1613.41,128.65C1619.49,126.87 1626.39,127.78 1631.64,131.4C1636.78,134.85 1640.24,140.81 1640.31,147.04C1640.55,153.62 1636.99,160.08 1631.51,163.65C1624.7,168.28 1615.19,168.41 1608.26,163.98C1601.56,159.92 1597.61,151.55 1599.31,143.82C1600.67,136.62 1606.43,130.69 1613.41,128.65Z" style="fill-rule:nonzero;"/>
        </g>
        <g transform="matrix(1.62276,0,0,1.65386,-179.917,829.249)">
            <path d="M907.87,155.79C913.89,153.3 920.02,151.08 926.09,148.69C926.09,165.23 926.08,181.77 926.1,198.31C939,198.3 951.9,198.32 964.81,198.3C964.8,203.1 964.8,207.9 964.81,212.7C951.9,212.68 939,212.71 926.1,212.68C926.07,251.47 926.1,290.25 926.09,329.04C926.12,336.98 929.5,345.29 936.33,349.74C944.61,355.22 955.45,355.88 964.83,353.14C964.76,358.59 964.86,364.05 964.77,369.51C955.1,372.26 944.58,371.68 934.98,368.96C926.52,366.49 918.82,361.09 914.2,353.52C909.88,346.51 908.04,338.21 907.9,330.04C907.91,290.92 907.91,251.8 907.9,212.68C899,212.7 890.09,212.68 881.19,212.7L881.19,198.3C890.09,198.32 899,198.3 907.9,198.31C907.88,184.14 907.95,169.97 907.87,155.79Z" style="fill-rule:nonzero;"/>
        </g>
        <g transform="matrix(1.62276,0,0,1.65386,-179.917,829.249)">
            <path d="M450.83,212.91C460.36,201.44 475.46,196.23 489.97,195.34C507.59,194.39 525.94,197.65 541.12,206.98C538.65,211.62 536.24,216.28 533.8,220.93C521.73,213.38 507.2,209.82 493,210.59C482.98,211.26 472.53,215.02 466.21,223.17C456.95,234.75 459.55,253.77 471.8,262.25C485.41,272.01 502.26,275.33 517.04,282.84C528.46,288.28 539.69,296.42 544.24,308.71C549.48,323.23 547.92,340.84 537.91,353.01C527.77,365.52 511.45,370.99 495.89,372.41C475.82,374 454.99,370.61 437.11,361.13C439.54,356.26 441.97,351.38 444.3,346.46C457.1,353.18 471.51,356.98 485.99,357.22C497.96,357.17 510.88,354.32 519.61,345.56C528.12,337.28 529.94,323.54 525.1,312.9C521.35,304.83 513.53,299.71 505.8,295.92C491.32,288.96 475.34,285.18 461.82,276.25C453.71,271.05 446.77,263.52 443.8,254.22C439.39,240.43 441.31,224.16 450.83,212.91Z" style="fill-rule:nonzero;"/>
        </g>
        <g transform="matrix(1.62276,0,0,1.65386,-179.917,829.249)">
            <path d="M787.88,196.44C808.25,193.06 830.04,196.37 847.94,206.88C845.43,211.54 843.12,216.31 840.51,220.92C828.86,213.57 814.84,210.07 801.1,210.53C790.68,210.93 779.7,214.63 773.06,223.07C766.77,230.86 765.99,242.09 769.68,251.2C772.82,258.77 779.79,263.81 786.89,267.37C802.85,275.22 820.68,279.27 835.41,289.56C843.2,294.9 849.54,302.65 852.08,311.85C855.71,324.92 854.26,339.88 846.18,351.07C838.84,361.39 826.98,367.54 814.88,370.42C797.31,374.49 778.78,373.19 761.52,368.29C755.44,366.44 749.32,364.36 743.9,360.99C746.35,356.17 748.8,351.35 751.13,346.47C763.66,353.09 777.75,356.8 791.92,357.21C804.01,357.34 816.99,354.57 826.01,345.99C834.57,337.91 836.71,324.43 832.26,313.73C829.32,306.77 823.24,301.75 816.8,298.14C803.85,290.91 789.22,287.49 776.12,280.57C765.75,275.39 755.85,267.69 751.47,256.61C746.64,244.06 747.21,229.09 754.33,217.5C761.48,205.71 774.61,198.81 787.88,196.44Z" style="fill-rule:nonzero;"/>
        </g>
        <g transform="matrix(1.62276,0,0,1.65386,-179.917,829.249)">
            <path d="M1026.65,202.72C1041.12,195.09 1058.22,193.68 1074.17,196.45C1089.7,199.13 1104.39,207.79 1113.17,221.04C1124.11,237.07 1126.29,257.24 1125.08,276.16C1085.06,282.25 1044.99,288.03 1004.96,294.04C1005.8,311.66 1011.28,330.18 1024.59,342.45C1036.65,353.76 1053.8,357.78 1069.96,357.19C1084.96,356.55 1100.29,353.74 1113.54,346.4C1115.76,351.25 1117.78,356.2 1119.98,361.07C1109.23,367.13 1096.99,369.94 1084.87,371.65C1068.6,373.67 1051.66,373.51 1036.02,368.1C1022.92,363.64 1011.13,355.19 1003.11,343.87C992.87,329.7 988.38,312.2 987.12,294.97C985.84,275.75 987.62,255.93 995.25,238.06C1001.46,223.29 1012.25,210.1 1026.65,202.72M1018.35,230.47C1008.08,244.61 1004.31,262.45 1003.98,279.65C1038.4,274.71 1072.82,269.7 1107.25,264.73C1106.97,249.66 1103.77,233.32 1092.62,222.35C1082.37,212.03 1066.85,208.95 1052.82,210.48C1039.13,211.78 1026.33,219.32 1018.35,230.47Z" style="fill-rule:nonzero;"/>
        </g>
        <g transform="matrix(1.62276,0,0,1.65386,-179.917,829.249)">
            <path d="M1165.45,206.69C1186.33,197.97 1209.24,193.78 1231.84,195.58C1248.2,197.16 1265.14,203.08 1275.96,216.01C1290.96,201.5 1312.35,194.72 1332.98,195.19C1347.66,195.34 1362.83,200.03 1373.48,210.47C1383.01,219.65 1387.95,232.87 1388.29,245.97C1388.37,287.17 1388.2,328.38 1388.38,369.59C1382.06,369.76 1375.74,369.76 1369.43,369.58C1369.6,329.4 1369.45,289.21 1369.51,249.02C1369.66,237.98 1365.12,226.67 1356.39,219.7C1347.67,212.64 1336.03,210.17 1325.02,210.83C1310.67,211.47 1295.47,216.66 1286.35,228.21C1286.19,275.38 1286.44,322.57 1286.22,369.74C1279.96,369.57 1273.7,369.83 1267.44,369.6C1267.58,327.73 1267.46,285.85 1267.51,243.98C1267.59,235.01 1263.1,226.33 1256.09,220.82C1246.79,213.41 1234.58,210.9 1222.94,210.71C1209.73,210.79 1196.37,212.69 1184.09,217.72C1184.05,268.38 1184.17,319.04 1184.03,369.7C1177.79,369.68 1171.54,369.69 1165.31,369.69C1165.41,315.36 1165.12,261.01 1165.45,206.69Z" style="fill-rule:nonzero;"/>
        </g>
        <g transform="matrix(1.62276,0,0,1.65386,-179.917,829.249)">
            <path d="M1434.83,206.89C1455.97,198.11 1479.1,194 1501.97,194.99C1516.6,195.77 1532.03,198.84 1543.53,208.53C1552.47,215.96 1557.53,227.11 1559.33,238.42C1561.12,249.22 1560.32,260.19 1560.5,271.08L1560.5,361.09C1550.86,366.04 1540.19,368.51 1529.6,370.46C1509.26,373.84 1488.15,374.53 1467.95,369.89C1453.91,366.62 1439.9,359.49 1432.01,346.98C1425.07,336.06 1423.55,322.46 1425.43,309.86C1427.01,299.35 1432.52,289.53 1440.69,282.73C1451.54,273.64 1465.32,269.06 1478.94,266.02C1494.87,262.56 1511.16,261.21 1527.41,260.29C1527.33,250.62 1528.47,239.84 1522.31,231.62C1515.59,222.62 1503.54,220.53 1492.99,220.3C1476.1,220.26 1459.22,224.04 1443.76,230.78C1440.77,222.82 1437.82,214.84 1434.83,206.89M1484.08,288.93C1475.43,291.39 1466.49,295.52 1461.54,303.4C1454.68,314.74 1456.26,331.57 1467.29,339.79C1477.39,347.41 1490.75,348.38 1502.96,347.88C1511.23,347.31 1519.74,346.68 1527.47,343.48C1527.32,323.5 1527.46,303.53 1527.4,283.56C1512.88,284.38 1498.18,285.08 1484.08,288.93Z" style="fill-rule:nonzero;"/>
        </g>
        <g transform="matrix(1.62276,0,0,1.65386,-179.917,829.249)">
            <path d="M1679.15,206.99C1697.41,199.29 1717.29,196.08 1736.99,195C1746.36,194.67 1755.81,194.62 1765.11,196.04C1762.87,205.68 1760.59,215.31 1758.47,224.98C1743.72,222.1 1727.87,222.26 1713.75,227.74C1713.89,275.06 1713.76,322.38 1713.81,369.7C1702.27,369.69 1690.73,369.69 1679.19,369.7C1679.17,315.46 1679.25,261.22 1679.15,206.99Z" style="fill-rule:nonzero;"/>
        </g>
        <g transform="matrix(1.62276,0,0,1.65386,-179.917,829.249)">
            <path d="M573.88,198.29C580.66,198.59 587.77,197.78 594.35,198.68C608.89,239.45 623.32,280.27 637.82,321.06C641.9,331.87 645.37,342.92 647.5,354.29C648.71,351.33 649.03,348.11 649.94,345.06C652.23,335.74 655.74,326.81 658.9,317.77C673.03,277.95 687.15,238.13 701.3,198.32C708.11,198.28 714.92,198.34 721.73,198.29C691.82,278.19 661.98,358.11 632.06,438C625.58,437.99 619.1,438.01 612.62,437.99C621.2,415.25 629.7,392.48 638.35,369.76C616.97,312.57 595.26,255.49 573.88,198.29Z" style="fill-rule:nonzero;"/>
        </g>
        <g transform="matrix(1.62276,0,0,1.65386,-179.917,829.249)">
            <path d="M1602.19,198.3C1613.84,198.31 1625.5,198.32 1637.16,198.3C1637.17,255.44 1637.31,312.6 1637.08,369.74C1625.45,369.63 1613.82,369.71 1602.19,369.7L1602.19,198.3Z" style="fill-rule:nonzero;"/>
        </g>
    </g>
</svg>
