<?xml version="1.0" encoding="UTF-8" standalone="no"?>
<!DOCTYPE svg PUBLIC "-//W3C//DTD SVG 1.1//EN" "http://www.w3.org/Graphics/SVG/1.1/DTD/svg11.dtd">
<svg width="100%" height="100%" viewBox="0 0 300 150" version="1.1" xmlns="http://www.w3.org/2000/svg" xmlns:xlink="http://www.w3.org/1999/xlink" xml:space="preserve" xmlns:serif="http://www.serif.com/" style="fill-rule:evenodd;clip-rule:evenodd;stroke-linejoin:round;stroke-miterlimit:2;">
    <g transform="matrix(0.0846264,0,0,0.0846264,42.7292,-33.8035)">
        <path d="M236.53,1221.25C233.897,1221.25 231.886,1223.06 230.486,1226.67C229.098,1230.29 228.385,1235.54 228.385,1242.43L228.385,1242.87L221.29,1242.87L221.29,1206.02L271.82,1206.02L271.82,1242.87L264.804,1242.87L264.804,1242.43C264.804,1235.59 264.09,1230.33 262.69,1226.71C261.276,1223.06 259.24,1221.25 256.581,1221.25L254.48,1221.25L254.48,1271.82C254.48,1275.54 254.726,1277.88 255.206,1278.79C255.686,1279.69 256.788,1280.15 258.5,1280.15L262.521,1280.15L262.521,1293.97L230.927,1293.97L230.927,1280.15L234.662,1280.15C236.27,1280.15 237.334,1279.77 237.853,1278.99C238.371,1278.21 238.618,1275.81 238.618,1271.8L238.618,1221.23L236.53,1221.23L236.53,1221.25ZM200.707,1042.58C211.148,1042.58 219.656,1051.84 219.656,1063.2C219.656,1074.55 211.135,1083.81 200.707,1083.81C190.279,1083.81 181.758,1074.55 181.758,1063.2C181.758,1051.84 190.266,1042.58 200.707,1042.58ZM440.22,1318.74C440.972,1317.69 441.672,1316.55 442.308,1315.36C449.973,1300.91 445.395,1282.32 432.114,1273.98C423.537,1268.53 412.514,1268.6 404.008,1274.16C395.836,1265.81 387.356,1257.76 378.587,1250.03C439.221,1196.38 467.275,1147.4 452.93,1120.38C438.586,1093.36 385.578,1095.31 312.571,1125.61C300.172,1041.67 275.218,990.747 246.542,990.747C230.927,990.747 216.401,1005.86 204.429,1033.17C203.193,1032.99 201.944,1032.9 200.694,1032.9C185.351,1032.9 172.848,1046.5 172.848,1063.2C172.848,1074.48 178.581,1084.36 187.037,1089.58C184.456,1101.51 182.285,1113.53 180.526,1125.61C107.506,1095.31 54.499,1093.36 40.154,1120.38C25.823,1147.4 53.876,1196.36 114.497,1250.01C53.863,1303.64 25.823,1352.62 40.154,1379.63C47.975,1394.35 67.261,1400.46 95.004,1398.1C95.47,1399.33 96.015,1400.55 96.651,1401.75C104.316,1416.18 121.41,1421.17 134.691,1412.82C143.679,1407.18 148.685,1396.84 148.595,1386.27C158.737,1382.97 169.398,1379.01 180.526,1374.39C192.912,1458.33 217.866,1509.24 246.542,1509.24C275.218,1509.24 300.185,1458.33 312.558,1374.39C385.578,1404.7 438.599,1406.64 452.93,1379.62C460.751,1364.92 455.991,1343.69 440.22,1318.74ZM319.86,1203.97C337.966,1216.68 354.49,1229.42 369.275,1241.95C424.474,1194.02 450.349,1151.78 438.508,1129.45C426.653,1107.11 380.105,1110.37 314.348,1138.41C317.068,1160.18 318.907,1182.05 319.86,1203.97ZM307.552,1195.51C291.845,1184.92 275.797,1174.84 259.434,1165.29C273.737,1157.44 288.325,1150.12 303.168,1143.34C305.101,1159.52 306.579,1176.97 307.552,1195.51ZM191.615,1130.35C208.982,1138.02 227.373,1147.21 246.555,1157.93C264.432,1147.89 282.765,1138.68 301.495,1130.34C290.938,1054.38 270.251,1008.88 246.555,1008.88C235.375,1008.88 224.844,1019.03 215.752,1037.74C223.43,1043.13 228.54,1052.54 228.54,1063.2C228.54,1079.88 216.037,1093.48 200.707,1093.48C199.819,1093.48 198.932,1093.43 198.048,1093.34C195.464,1105.6 193.318,1117.94 191.615,1130.35ZM173.263,1296.04C156.22,1284.14 139.727,1271.47 123.835,1258.07C68.636,1305.99 42.761,1348.23 54.616,1370.57C60.206,1381.1 73.539,1385.94 92.98,1385.16C93.434,1375.21 98.363,1365.7 106.845,1360.37C120.126,1352.02 137.22,1357.01 144.885,1371.45C145.339,1372.29 145.728,1373.16 146.104,1374.02C156.351,1370.63 167.271,1366.49 178.775,1361.59C176.062,1339.83 174.223,1317.96 173.263,1296.04ZM185.571,1304.5C201.282,1315.08 217.325,1325.16 233.676,1334.72C219.383,1342.58 204.799,1349.9 189.955,1356.66C187.925,1339.33 186.463,1321.93 185.571,1304.5ZM301.495,1369.66C282.768,1361.31 264.435,1352.11 246.555,1342.07C228.675,1352.1 210.343,1361.3 191.615,1369.65C202.173,1445.61 222.859,1491.11 246.555,1491.11C270.264,1491.12 290.951,1445.62 301.495,1369.66ZM178.775,1138.41C176.056,1160.18 174.217,1182.05 173.263,1203.97C156.225,1215.88 139.732,1228.55 123.835,1241.95C68.636,1194.01 42.774,1151.78 54.616,1129.46C66.47,1107.11 113.019,1110.38 178.775,1138.41ZM314.335,1361.59C317.055,1339.82 318.894,1317.95 319.847,1296.03C336.888,1284.12 353.381,1271.45 369.275,1258.05C378.342,1265.9 387.094,1274.1 395.513,1282.63C394.999,1283.42 394.523,1284.24 394.086,1285.07C386.421,1299.51 391,1318.1 404.281,1326.43C412.347,1331.56 422.626,1331.83 430.946,1327.12C441.296,1345.04 444.111,1360.02 438.508,1370.57C426.653,1392.9 380.105,1389.64 314.335,1361.59ZM320.444,1219.79C333.913,1229.39 347.029,1239.47 359.768,1250.01C347.032,1260.55 333.915,1270.62 320.444,1280.21C321.028,1260.07 321.028,1239.93 320.444,1219.79ZM308.265,1211.26C298.237,1204.37 288.066,1197.7 277.76,1191.23C267.494,1184.78 257.094,1178.53 246.568,1172.51C225.484,1184.58 204.901,1197.5 184.871,1211.25C183.931,1237.07 183.931,1262.93 184.871,1288.75C204.892,1302.51 225.471,1315.44 246.555,1327.51C267.648,1315.43 288.239,1302.51 308.278,1288.75C309.212,1262.93 309.208,1237.08 308.265,1211.26ZM189.955,1143.34C204.794,1150.11 219.378,1157.43 233.676,1165.28C217.325,1174.84 201.282,1184.92 185.571,1195.5C186.544,1176.97 188.036,1159.52 189.955,1143.34ZM172.679,1280.23C159.207,1270.64 146.086,1260.56 133.342,1250.01C146.082,1239.46 159.204,1229.38 172.679,1219.79C172.095,1239.94 172.095,1260.09 172.679,1280.23ZM303.168,1356.69C288.325,1349.91 273.737,1342.59 259.434,1334.73C275.797,1325.18 291.845,1315.1 307.552,1304.51C306.652,1321.95 305.19,1339.35 303.168,1356.69ZM104.368,1396.91C99.141,1387.08 102.254,1374.42 111.307,1368.74C120.359,1363.06 131.98,1366.46 137.194,1376.29C142.408,1386.13 139.295,1398.78 130.255,1404.46C121.215,1410.14 109.582,1406.74 104.368,1396.91ZM434.604,1310.53C429.39,1320.36 417.756,1323.76 408.716,1318.07C399.676,1312.38 396.551,1299.74 401.777,1289.91C407.004,1280.06 418.638,1276.68 427.665,1282.36C436.705,1288.04 439.831,1300.69 434.604,1310.53ZM2301.68,1151.16L2390.64,1264.97L2390.64,1195.8C2390.64,1187.86 2389.37,1183.05 2386.84,1181.44C2384.34,1179.83 2378.94,1178.99 2370.76,1178.99L2357.05,1178.99L2357.05,1151.16L2463.24,1151.16L2463.24,1178.99L2454.58,1178.99C2446.18,1178.99 2440.75,1179.91 2438.34,1181.66C2435.95,1183.43 2434.75,1188.16 2434.75,1195.8L2434.75,1329.4L2351.96,1329.4L2258.09,1206.99L2258.09,1284.5C2258.09,1292.14 2259.33,1296.91 2261.71,1298.71C2264.09,1300.5 2269.51,1301.42 2277.92,1301.42L2288.68,1301.42L2288.68,1329.41L2182.14,1329.41L2182.14,1301.42L2193.86,1301.42C2202.42,1301.42 2208,1300.46 2210.42,1298.64C2212.86,1296.8 2214.12,1292.06 2214.12,1284.5L2214.12,1195.81C2214.12,1188.37 2212.9,1183.67 2210.53,1181.83C2208.09,1179.96 2202.53,1179 2193.86,1179L2182.14,1179L2182.14,1151.17L2301.68,1151.17L2301.68,1151.16ZM2012.87,1329.4L2012.87,1301.41L2023.76,1301.41C2032.88,1301.41 2038.51,1301.01 2040.56,1300.22C2042.63,1299.43 2043.65,1297.81 2043.65,1295.52C2043.65,1294.01 2043.49,1292.55 2043.22,1291.18C2042.96,1289.77 2042.57,1288.39 2042.05,1287.06L2033.44,1265.93L1968.38,1265.93L1960.81,1284.76C1959.64,1287.65 1958.65,1289.91 1958.2,1291.52C1957.75,1292.97 1957.51,1294.47 1957.49,1295.99C1957.49,1297.66 1958.98,1299.01 1961.87,1299.96C1964.79,1300.89 1968.99,1301.41 1974.39,1301.41L1986.29,1301.41L1986.29,1329.4L1878.41,1329.4L1878.41,1301.41L1887.33,1301.41C1893.42,1301.41 1898.61,1299.79 1902.74,1296.68C1906.89,1293.54 1910.11,1288.22 1913.53,1281.18L1977.02,1151.17L2064.39,1151.17L2120.97,1280.6C2125.2,1290.27 2128.36,1296.3 2131.49,1298.31C2134.68,1300.38 2139.83,1301.41 2146.85,1301.41L2159.52,1301.41L2159.52,1329.4L2012.87,1329.4ZM2022.04,1237.67L2000.05,1196.95L1979.48,1237.67L2022.04,1237.67ZM1599.85,1284.49L1599.85,1195.8C1599.85,1188.16 1598.68,1183.46 1596.33,1181.71C1594,1179.96 1588.49,1179.04 1579.96,1179.04L1567.85,1179.04L1567.85,1151.16L1734.12,1151.16C1763.49,1151.16 1785.47,1155.24 1799.93,1163.34C1814.42,1171.47 1821.67,1183.8 1821.67,1200.27C1821.67,1211.35 1817.18,1220.7 1808.3,1228.26C1799.41,1235.82 1786.79,1241.01 1770.5,1243.76C1797.71,1246.43 1812.55,1255.15 1812.55,1277.3C1812.55,1284.37 1813.32,1289.3 1814.76,1292.01C1816.19,1294.72 1818.68,1296.1 1822.04,1296.1C1825.31,1296.1 1827.76,1294.41 1829.33,1291.09C1830.93,1287.72 1831.72,1282.64 1831.72,1275.84C1831.72,1275.19 1831.62,1274.09 1831.54,1272.55C1831.43,1271.02 1831.33,1269.84 1831.33,1269.08L1855.75,1269.08C1855.75,1269.91 1855.86,1271.26 1855.96,1273.02C1856.04,1274.77 1856.14,1276.15 1856.14,1276.99C1856.14,1295.36 1851.51,1308.73 1842.26,1316.98C1832.99,1325.23 1818.02,1329.39 1797.4,1329.39C1775.51,1329.39 1759.5,1325.64 1749.51,1318.19C1739.51,1310.75 1734.51,1298.88 1734.51,1282.61L1734.51,1259.23L1679.82,1259.23L1679.82,1284.49C1679.82,1292.13 1681.04,1296.9 1683.41,1298.7C1685.8,1300.49 1691.19,1301.41 1699.47,1301.41L1713.2,1301.41L1713.2,1329.4L1567.85,1329.4L1567.85,1301.41L1579.96,1301.41C1588.37,1301.41 1593.79,1300.49 1596.2,1298.7C1598.61,1296.89 1599.85,1292.13 1599.85,1284.49ZM1679.11,1232.54L1700.15,1232.54C1715.02,1232.54 1725.56,1230.6 1731.54,1226.73C1737.57,1222.88 1740.61,1216.38 1740.61,1207.29C1740.61,1197.37 1737.82,1190.34 1732.29,1186.33C1726.72,1182.32 1716.85,1180.3 1702.81,1180.3L1679.11,1180.3L1679.11,1232.54ZM1522.2,1151.16L1522.2,1178.99L1510.42,1178.99C1501.76,1178.99 1496.18,1179.94 1493.81,1181.78C1491.42,1183.65 1490.21,1188.36 1490.21,1195.8L1490.21,1284.49C1490.21,1292.05 1491.43,1296.78 1493.86,1298.62C1496.3,1300.45 1501.86,1301.41 1510.42,1301.41L1522.2,1301.41L1522.2,1329.4L1378.57,1329.4L1378.57,1301.41L1390.48,1301.41C1398.91,1301.41 1404.43,1300.45 1406.87,1298.62C1409.31,1296.78 1410.57,1292.05 1410.57,1284.49L1410.57,1195.8C1410.57,1188.36 1409.35,1183.66 1406.97,1181.82C1404.52,1179.95 1399.02,1178.99 1390.49,1178.99L1378.58,1178.99L1378.58,1151.16L1522.2,1151.16ZM1200.87,1151.16C1249.14,1151.16 1284.97,1159.25 1308.35,1175.41C1331.76,1191.6 1343.43,1208.08 1343.43,1241.38C1343.43,1274.76 1331.71,1288.88 1308.27,1305.07C1284.81,1321.27 1249,1329.4 1200.87,1329.4L1069.59,1329.4L1069.59,1301.41L1081.7,1301.41C1089.65,1301.41 1094.89,1300.63 1097.42,1299.12C1099.94,1297.59 1101.21,1293.19 1101.21,1285.94L1101.21,1195.8C1101.21,1188.16 1100.04,1183.43 1097.7,1181.66C1095.35,1179.91 1089.84,1178.99 1081.33,1178.99L1069.59,1178.99L1069.59,1151.16L1200.87,1151.16ZM1181.88,1300.52L1200.87,1300.56C1218.32,1300.6 1230.88,1295.17 1238.48,1284.49C1246.08,1273.79 1249.93,1266.5 1249.93,1241.38C1249.93,1216.21 1246.11,1206.49 1238.54,1195.76C1230.92,1184.98 1218.33,1179.6 1200.88,1179.6L1181.9,1179.6L1181.9,1300.52L1181.88,1300.52ZM900.283,1329.4L900.283,1301.41L911.191,1301.41C920.309,1301.41 925.937,1301.01 927.974,1300.22C930.036,1299.43 931.061,1297.81 931.061,1295.52C931.046,1292.63 930.51,1289.76 929.478,1287.06L920.853,1265.91L855.797,1265.91L848.223,1284.76C847.055,1287.65 846.07,1289.91 845.603,1291.52C845.162,1292.97 844.926,1294.47 844.902,1295.99C844.902,1297.66 846.407,1299.01 849.299,1299.96C852.204,1300.89 856.407,1301.41 861.789,1301.41L873.708,1301.41L873.708,1329.4L765.8,1329.4L765.8,1301.41L774.736,1301.41C780.819,1301.41 786.007,1299.79 790.131,1296.68C794.281,1293.54 797.485,1288.22 800.935,1281.18L864.409,1151.17L951.773,1151.17L1008.36,1280.6C1012.59,1290.27 1015.75,1296.3 1018.89,1298.31C1022.07,1300.38 1027.22,1301.41 1034.24,1301.41L1046.92,1301.41L1046.92,1329.4L900.283,1329.4ZM909.453,1237.67L887.469,1196.95L866.899,1237.67L909.453,1237.67ZM579.204,1182.01C565.962,1182.01 555.806,1185.68 548.803,1193.01C541.786,1200.34 538.271,1211 538.271,1224.93L538.271,1225.81L502.578,1225.81L502.578,1151.14L756.734,1151.14L756.734,1225.81L721.417,1225.81L721.417,1224.93C721.417,1211.07 717.864,1200.42 710.808,1193.08C703.701,1185.71 693.454,1182 680.083,1182L669.564,1182L669.564,1284.47C669.564,1292.04 670.77,1296.77 673.209,1298.61C675.647,1300.44 681.211,1301.4 689.758,1301.4L709.965,1301.4L709.965,1329.39L551.085,1329.39L551.085,1301.4L569.891,1301.4C577.933,1301.4 583.315,1300.6 585.883,1299.01C588.451,1297.46 589.761,1292.57 589.761,1284.47L589.761,1182L579.204,1182L579.204,1182.01Z" style="fill:rgb(51,52,142);"/>
    </g>
</svg>
