<?xml version="1.0" encoding="UTF-8" standalone="no"?>
<!DOCTYPE svg PUBLIC "-//W3C//DTD SVG 1.1//EN" "http://www.w3.org/Graphics/SVG/1.1/DTD/svg11.dtd">
<svg width="100%" height="100%" viewBox="0 0 300 150" version="1.1" xmlns="http://www.w3.org/2000/svg" xmlns:xlink="http://www.w3.org/1999/xlink" xml:space="preserve" xmlns:serif="http://www.serif.com/" style="fill-rule:evenodd;clip-rule:evenodd;stroke-linejoin:round;stroke-miterlimit:2;">
    <g transform="matrix(0.0786927,0,0,0.0772128,49.5427,-24.4827)">
        <g transform="matrix(1.33958,0,0,1.36526,519.958,710.051)">
            <path d="M11.35,76.29C373.56,76.24 735.78,76.32 1097.99,76.26C1098.33,136.83 1098.04,197.42 1098.14,258L1098.14,559C1097.98,567.33 1098.6,575.93 1096.54,584.05C1095.85,585.14 1095.54,586.43 1095.93,587.71C1096.19,592.22 1095.03,596.8 1093.69,601.09C1092.97,601.91 1092.69,602.86 1092.84,603.94L1092.78,604.93C1092.01,605.72 1091.69,606.66 1091.83,607.75C1091.8,609.2 1091.49,610.68 1090.83,611.98C1090.6,612.46 1090.16,613.41 1089.94,613.89C1089.95,615.32 1089.48,616.74 1088.82,618C1088.58,618.47 1088.12,619.41 1087.89,619.89C1087.43,622.76 1086.19,625.48 1084.79,628.01C1084.55,628.48 1084.07,629.41 1083.83,629.88C1083.49,631.88 1082.3,633.6 1081.46,635.41C1081.39,635.56 1081.23,635.86 1081.16,636.01L1080.73,636.84C1080.65,636.99 1080.5,637.29 1080.43,637.44C1078.95,640.46 1077.32,643.42 1075.58,646.29C1075.52,646.39 1075.4,646.58 1075.34,646.68C1072.97,650.71 1070.4,654.61 1067.64,658.37C1067.57,658.46 1067.44,658.65 1067.37,658.74C1065.25,661.71 1063,664.58 1060.64,667.37C1060.57,667.45 1060.43,667.62 1060.35,667.71C1054.14,675.2 1047.2,682.11 1039.68,688.3C1039.6,688.37 1039.43,688.51 1039.34,688.58C1037.8,689.84 1036.24,691.08 1034.68,692.3C1034.59,692.37 1034.42,692.5 1034.33,692.57C1032.18,694.22 1030,695.81 1027.75,697.32C1027.65,697.39 1027.45,697.53 1027.34,697.6C1026.69,698.03 1025.38,698.91 1024.72,699.34C1024.62,699.41 1024.41,699.55 1024.3,699.62C1015.51,705.46 1006.06,710.28 996.29,714.25C993.56,715.26 990.89,716.64 987.97,716.96C987.48,717.17 986.51,717.59 986.03,717.8C978.88,720.25 971.42,722.53 963.88,723.06C962.82,722.8 961.87,723.02 961.04,723.73C960.23,723.81 958.59,723.95 957.77,724.02C956.16,723.74 954.58,724.12 953.1,724.66C952.36,724.79 950.88,725.05 950.14,725.18C639.08,725.36 328.01,725.2 16.95,725.26C15.23,725.3 13.5,725.44 11.79,725.62L11.22,725.68C11.57,675.46 11.27,625.23 11.37,575C11.35,408.76 11.4,242.53 11.35,76.29M559.83,289.6C539.42,290.88 518.93,295.23 500.64,304.63C488.62,310.95 477.3,319.02 468.65,329.59C454.23,346.75 445.52,368.31 442.64,390.46C440.68,406.73 441.23,423.36 444.61,439.41C448.69,458.7 458.52,476.63 472.3,490.69C484.44,503.8 500.35,513 517.2,518.65C541.12,526.73 566.77,528.38 591.81,526.62C611.48,524.93 631.36,520.52 648.56,510.5C663.94,501.07 677.62,488.28 686.28,472.31C692.89,460.05 696.95,446.23 697.16,432.26C674.53,432.37 651.9,432.3 629.27,432.3C627.75,441.6 624.27,450.8 617.85,457.83C609.27,467.3 596.53,471.78 584.07,472.92C569.26,474.18 553.33,472.85 540.64,464.39C526.01,454.86 516.25,438.73 513.66,421.55C511.39,405.9 512.72,389.25 519.98,374.99C528.28,358.24 545.12,345.85 563.81,343.77C579.44,342.04 596.52,343.08 609.98,352.03C620.69,359.13 626.75,371.43 628.56,383.9C630.7,384.1 632.84,384.21 635,384.2C655.76,384.12 676.52,384.23 697.28,384.14C696.68,362.13 687.83,340.37 672.42,324.57C658.84,310.68 641.27,301.08 622.8,295.39C602.45,289.19 580.93,288.47 559.83,289.6M173.67,301.11C173.51,322.03 173.48,342.96 173.68,363.88C202.43,363.83 231.19,363.78 259.94,363.9C260.34,388.26 259.87,412.63 260.1,436.99C260.02,464.13 260.15,491.25 259.93,518.38C285.61,518.53 311.3,518.49 336.98,518.4L337.5,517.72C337.64,466.45 337.42,415.16 337.61,363.87C366.16,363.81 394.7,363.82 423.25,363.87C423.4,342.95 423.38,322.03 423.26,301.12C340.06,301.17 256.86,301.18 173.67,301.11M738.8,301.14C738.69,373.55 738.71,445.96 738.79,518.37C804.34,518.56 869.9,518.46 935.46,518.42C935.53,498.47 935.56,478.51 935.44,458.56C894.77,458.47 854.1,458.48 813.43,458.56C813.41,406.07 813.57,353.59 813.35,301.11C788.5,301.2 763.65,301.13 738.8,301.14Z" style="fill:rgb(230,0,18);fill-rule:nonzero;"/>
        </g>
        <g transform="matrix(1.33958,0,0,1.36526,519.958,710.051)">
            <path d="M1095.93,587.71C1095.54,586.43 1095.85,585.14 1096.54,584.05C1097.72,584.79 1097.61,587.8 1095.93,587.71Z" style="fill:rgb(237,77,88);fill-rule:nonzero;"/>
        </g>
        <g transform="matrix(1.33958,0,0,1.36526,519.958,710.051)">
            <path d="M11.79,725.62C13.5,725.44 15.23,725.3 16.95,725.26C328.01,725.2 639.08,725.36 950.14,725.18C939.79,726.16 929.38,725.75 919,725.84L31,725.84C24.6,725.72 18.18,726.09 11.79,725.62Z" style="fill:rgb(237,77,88);fill-rule:nonzero;"/>
        </g>
        <g transform="matrix(1.33958,0,0,1.36526,519.958,710.051)">
            <path d="M1092.84,603.94C1092.69,602.86 1092.97,601.91 1093.69,601.09C1094.76,602.49 1094.48,603.44 1092.84,603.94Z" style="fill:rgb(184,31,42);fill-opacity:0.19;fill-rule:nonzero;"/>
        </g>
        <g transform="matrix(1.33958,0,0,1.36526,519.958,710.051)">
            <path d="M1091.83,607.75C1091.69,606.66 1092.01,605.72 1092.78,604.93C1093.78,606.38 1093.46,607.32 1091.83,607.75Z" style="fill:rgb(184,31,42);fill-opacity:0.19;fill-rule:nonzero;"/>
        </g>
        <g transform="matrix(1.33958,0,0,1.36526,519.958,710.051)">
            <path d="M1089.94,613.89C1090.16,613.41 1090.6,612.46 1090.83,611.98L1091.29,612.76L1090.84,613.74L1089.94,613.89Z" style="fill:rgb(184,31,42);fill-opacity:0.19;fill-rule:nonzero;"/>
        </g>
        <g transform="matrix(1.33958,0,0,1.36526,519.958,710.051)">
            <path d="M1087.89,619.89C1088.12,619.41 1088.58,618.47 1088.82,618L1089.26,618.79L1088.79,619.76L1087.89,619.89Z" style="fill:rgb(184,31,42);fill-opacity:0.19;fill-rule:nonzero;"/>
        </g>
        <g transform="matrix(1.33958,0,0,1.36526,519.958,710.051)">
            <path d="M1083.83,629.88C1084.07,629.41 1084.55,628.48 1084.79,628.01L1085.23,628.81L1084.73,629.77L1083.83,629.88Z" style="fill:rgb(184,31,42);fill-opacity:0.19;fill-rule:nonzero;"/>
        </g>
        <g transform="matrix(1.33958,0,0,1.36526,519.958,710.051)">
            <path d="M1081.16,636.01C1081.23,635.86 1081.39,635.56 1081.46,635.41C1081.39,635.56 1081.23,635.86 1081.16,636.01Z" style="fill:rgb(184,31,42);fill-opacity:0.19;fill-rule:nonzero;"/>
        </g>
        <g transform="matrix(1.33958,0,0,1.36526,519.958,710.051)">
            <path d="M1080.43,637.44C1080.5,637.29 1080.65,636.99 1080.73,636.84C1080.65,636.99 1080.5,637.29 1080.43,637.44Z" style="fill:rgb(184,31,42);fill-opacity:0.19;fill-rule:nonzero;"/>
        </g>
        <g transform="matrix(1.33958,0,0,1.36526,519.958,710.051)">
            <path d="M1075.34,646.68C1075.4,646.58 1075.52,646.39 1075.58,646.29C1075.52,646.39 1075.4,646.58 1075.34,646.68Z" style="fill:rgb(184,31,42);fill-opacity:0.19;fill-rule:nonzero;"/>
        </g>
        <g transform="matrix(1.33958,0,0,1.36526,519.958,710.051)">
            <path d="M1067.37,658.74C1067.44,658.65 1067.57,658.46 1067.64,658.37C1067.57,658.46 1067.44,658.65 1067.37,658.74Z" style="fill:rgb(184,31,42);fill-opacity:0.19;fill-rule:nonzero;"/>
        </g>
        <g transform="matrix(1.33958,0,0,1.36526,519.958,710.051)">
            <path d="M1060.35,667.71C1060.43,667.62 1060.57,667.45 1060.64,667.37C1060.57,667.45 1060.43,667.62 1060.35,667.71Z" style="fill:rgb(184,31,42);fill-opacity:0.19;fill-rule:nonzero;"/>
        </g>
        <g transform="matrix(1.33958,0,0,1.36526,519.958,710.051)">
            <path d="M1039.34,688.58C1039.43,688.51 1039.6,688.37 1039.68,688.3C1039.6,688.37 1039.43,688.51 1039.34,688.58Z" style="fill:rgb(184,31,42);fill-opacity:0.19;fill-rule:nonzero;"/>
        </g>
        <g transform="matrix(1.33958,0,0,1.36526,519.958,710.051)">
            <path d="M1034.33,692.57C1034.42,692.5 1034.59,692.37 1034.68,692.3C1034.59,692.37 1034.42,692.5 1034.33,692.57Z" style="fill:rgb(184,31,42);fill-opacity:0.19;fill-rule:nonzero;"/>
        </g>
        <g transform="matrix(1.33958,0,0,1.36526,519.958,710.051)">
            <path d="M1027.34,697.6C1027.45,697.53 1027.65,697.39 1027.75,697.32C1027.65,697.39 1027.45,697.53 1027.34,697.6Z" style="fill:rgb(184,31,42);fill-opacity:0.19;fill-rule:nonzero;"/>
        </g>
        <g transform="matrix(1.33958,0,0,1.36526,519.958,710.051)">
            <path d="M1024.3,699.62C1024.41,699.55 1024.62,699.41 1024.72,699.34C1024.62,699.41 1024.41,699.55 1024.3,699.62Z" style="fill:rgb(184,31,42);fill-opacity:0.19;fill-rule:nonzero;"/>
        </g>
        <g transform="matrix(1.33958,0,0,1.36526,519.958,710.051)">
            <path d="M986.03,717.8C986.51,717.59 987.48,717.17 987.97,716.96L987.8,717.85L986.8,718.29L986.03,717.8Z" style="fill:rgb(184,31,42);fill-opacity:0.19;fill-rule:nonzero;"/>
        </g>
        <g transform="matrix(1.33958,0,0,1.36526,519.958,710.051)">
            <path d="M961.04,723.73C961.87,723.02 962.82,722.8 963.88,723.06C963.32,724.65 962.38,724.87 961.04,723.73Z" style="fill:rgb(184,31,42);fill-opacity:0.19;fill-rule:nonzero;"/>
        </g>
        <g transform="matrix(1.33958,0,0,1.36526,519.958,710.051)">
            <path d="M953.1,724.66C954.58,724.12 956.16,723.74 957.77,724.02C957.68,725.91 954.14,725.83 953.1,724.66Z" style="fill:rgb(184,31,42);fill-opacity:0.19;fill-rule:nonzero;"/>
        </g>
    </g>
</svg>
