<?xml version="1.0" encoding="UTF-8" standalone="no"?>
<!DOCTYPE svg PUBLIC "-//W3C//DTD SVG 1.1//EN" "http://www.w3.org/Graphics/SVG/1.1/DTD/svg11.dtd">
<svg width="100%" height="100%" viewBox="0 0 300 150" version="1.1" xmlns="http://www.w3.org/2000/svg" xmlns:xlink="http://www.w3.org/1999/xlink" xml:space="preserve" xmlns:serif="http://www.serif.com/" style="fill-rule:evenodd;clip-rule:evenodd;stroke-linejoin:round;stroke-miterlimit:2;">
    <g transform="matrix(0.0765268,0,0,0.0765268,52.342,43.4664)">
        <g transform="matrix(1.70726,0,0,1.70726,-139.284,14.0704)">
            <path d="M295.49,1.87C351.13,21.99 397.41,66.16 420.49,120.6C444.48,176.11 443.76,241.66 418.51,296.61C401.1,335 372.25,368.07 336.62,390.58C300.55,413.5 257.55,425.61 214.78,423.99C241.66,283.28 268.58,142.57 295.49,1.87Z" style="fill:rgb(0,167,158);fill-rule:nonzero;"/>
        </g>
        <g transform="matrix(1.70726,0,0,1.70726,-139.284,14.0704)">
            <path d="M2.1,200.99C2.88,168.67 10.89,136.51 25.65,107.73C63.86,107.78 102.06,107.73 140.26,107.76C122.87,198.46 105.65,289.19 88.16,379.87C62.26,360.33 40.89,334.81 26.1,305.94C9.36,273.75 1.19,237.24 2.1,200.99Z" style="fill:rgb(0,167,158);fill-rule:nonzero;"/>
        </g>
        <g transform="matrix(1.70726,0,0,1.70726,-139.284,14.0704)">
            <path d="M577.02,96.24C627.2,96.32 677.37,96.12 727.55,96.33C727.44,104.39 727.53,112.44 727.5,120.49C706.91,120.53 686.33,120.46 665.75,120.53C665.75,160.94 665.76,201.34 665.75,241.75C656.75,241.76 647.76,241.75 638.76,241.75C638.74,201.34 638.74,160.94 638.76,120.53C618.2,120.5 597.64,120.45 577.09,120.55C576.9,112.45 577.03,104.34 577.02,96.24Z" style="fill-rule:nonzero;"/>
        </g>
        <g transform="matrix(1.70726,0,0,1.70726,-139.284,14.0704)">
            <path d="M742.43,96.37C751.53,96.09 760.64,96.32 769.75,96.25C769.76,144.75 769.76,193.25 769.75,241.75C760.68,241.77 751.61,241.72 742.55,241.78C742.38,193.31 742.63,144.84 742.43,96.37Z" style="fill-rule:nonzero;"/>
        </g>
        <g transform="matrix(1.70726,0,0,1.70726,-139.284,14.0704)">
            <path d="M790.77,96.24C803.79,96.24 816.82,96.26 829.85,96.23C849.07,134.44 867.77,172.91 887.07,211.06C889.66,207.43 891.24,203.22 893.34,199.31C910.41,164.98 927.55,130.68 944.63,96.35C957.41,96.11 970.2,96.32 982.98,96.24C983.01,144.75 983.01,193.25 982.99,241.76C973.99,241.75 965,241.75 956.01,241.76C955.98,204.31 956.02,166.86 955.99,129.41C954.5,129.14 953.51,129.65 953.03,130.95C934.82,167.85 916.72,204.8 898.53,241.71C890.45,241.8 882.37,241.73 874.29,241.76C856.8,205.92 839.22,170.14 821.72,134.31C820.52,132.2 820.04,128.49 816.76,129.44C816.74,166.88 816.76,204.31 816.75,241.75C808.05,241.64 799.34,241.98 790.66,241.57C790.88,193.13 790.66,144.69 790.77,96.24Z" style="fill-rule:nonzero;"/>
        </g>
        <g transform="matrix(1.70726,0,0,1.70726,-139.284,14.0704)">
            <path d="M1004.02,96.23C1033.03,96.27 1062.04,96.24 1091.04,96.25C1096.71,96.29 1102.45,95.92 1108.05,97.08C1118.56,98.8 1128.83,104.04 1135.12,112.83C1141.84,122.26 1142.93,134.83 1139.86,145.78C1138.16,151.7 1134.33,156.87 1129.36,160.46C1138.35,164.28 1145.63,171.85 1149,181.03C1153.54,193.52 1152.47,208.1 1145.6,219.55C1137.39,233.63 1121.09,241.68 1105.05,241.76C1071.37,241.75 1037.69,241.74 1004.02,241.76C1003.99,193.25 1003.98,144.74 1004.02,96.23M1031,120.51L1031,154C1052.31,154.01 1073.62,153.98 1094.93,154.01C1099.01,154.1 1103.33,154.15 1107,152.08C1116.69,146.87 1118.13,131.38 1109.52,124.52C1103.37,119.93 1095.31,120.49 1088.06,120.5C1069.04,120.51 1050.02,120.5 1031,120.51M1031.01,177.76C1030.99,190.92 1031,204.08 1031.01,217.24C1055.34,217.25 1079.67,217.24 1104.01,217.25C1110.94,217.12 1118.41,214.35 1122.25,208.27C1127.17,200.65 1126.45,189.52 1119.93,183.05C1116.22,179.53 1111.07,177.71 1105.99,177.74C1080.99,177.77 1056,177.74 1031.01,177.76Z" style="fill-rule:nonzero;"/>
        </g>
        <g transform="matrix(1.70726,0,0,1.70726,-139.284,14.0704)">
            <path d="M1167.78,96.24C1211.26,96.26 1254.75,96.25 1298.23,96.24C1298.28,104.32 1298.23,112.39 1298.26,120.47C1263.76,120.55 1229.26,120.47 1194.76,120.51C1194.75,132.09 1194.74,143.66 1194.76,155.24C1225.83,155.25 1256.91,155.25 1287.98,155.24C1287.98,163.34 1288.07,171.44 1287.93,179.54C1256.87,179.46 1225.82,179.51 1194.76,179.51C1194.75,192.01 1194.75,204.5 1194.76,216.99C1230.5,217.01 1266.25,216.99 1302,217C1301.99,225.26 1302.02,233.51 1301.98,241.76C1257.26,241.75 1212.53,241.73 1167.81,241.77C1167.69,193.26 1167.74,144.75 1167.78,96.24Z" style="fill-rule:nonzero;"/>
        </g>
        <g transform="matrix(1.70726,0,0,1.70726,-139.284,14.0704)">
            <path d="M1321.02,96.24C1350.71,96.26 1380.4,96.23 1410.09,96.25C1426.65,96.79 1443.42,103.88 1453.93,116.96C1465.87,131.55 1468.71,152.28 1463.39,170.09C1459.25,183.86 1448.88,195.42 1435.86,201.43C1443.26,214.97 1451.16,228.22 1458.59,241.75C1448.77,241.78 1438.95,241.72 1429.14,241.77C1422.99,230.62 1416.9,219.44 1410.79,208.27C1389.87,208.22 1368.94,208.28 1348.02,208.24C1347.96,219.41 1348.03,230.58 1347.99,241.76C1338.99,241.75 1330,241.75 1321.02,241.76C1320.99,193.25 1320.98,144.74 1321.02,96.24M1348.01,120.76C1347.99,141.67 1348,162.58 1348,183.49C1363.01,183.51 1378.01,183.49 1393.02,183.5C1400.51,183.37 1408.12,184.02 1415.5,182.36C1422.65,180.73 1429.56,176.88 1433.75,170.72C1439.22,163.06 1440.09,152.92 1438.12,143.93C1436.11,134.72 1429.25,126.87 1420.46,123.52C1412.4,120.22 1403.53,120.77 1395.02,120.75C1379.34,120.75 1363.67,120.75 1348.01,120.76Z" style="fill-rule:nonzero;"/>
        </g>
        <g transform="matrix(1.70726,0,0,1.70726,-139.284,14.0704)">
            <path d="M1482.01,96.24C1490.92,96.25 1499.83,96.24 1508.75,96.25C1508.77,115 1508.74,133.74 1508.76,152.49C1525.57,152.51 1542.38,152.49 1559.19,152.5C1572.02,133.79 1584.78,115.02 1597.56,96.28C1607.95,96.21 1618.33,96.26 1628.73,96.25C1613.43,118.81 1597.75,141.12 1582.51,163.72C1598.77,188.9 1614.85,214.19 1631,239.44L1631,241.75C1620.83,241.73 1610.66,241.81 1600.49,241.71C1587,220.05 1573.52,198.39 1560,176.75C1542.92,176.76 1525.84,176.74 1508.76,176.76C1508.73,198.42 1508.77,220.09 1508.75,241.75C1499.83,241.76 1490.92,241.74 1482.01,241.76C1481.99,193.25 1481.99,144.75 1482.01,96.24Z" style="fill-rule:nonzero;"/>
        </g>
    </g>
</svg>
