<?xml version="1.0" encoding="UTF-8" standalone="no"?>
<!DOCTYPE svg PUBLIC "-//W3C//DTD SVG 1.1//EN" "http://www.w3.org/Graphics/SVG/1.1/DTD/svg11.dtd">
<svg width="100%" height="100%" viewBox="0 0 300 150" version="1.1" xmlns="http://www.w3.org/2000/svg" xmlns:xlink="http://www.w3.org/1999/xlink" xml:space="preserve" xmlns:serif="http://www.serif.com/" style="fill-rule:evenodd;clip-rule:evenodd;stroke-linejoin:round;stroke-miterlimit:2;">
    <g transform="matrix(0.0786927,0,0,0.0772128,49.5427,-24.4827)">
        <g transform="matrix(2.99993,0,0,3.05743,-89.2902,-108.442)">
            <path d="M400.46,346.91C411.5,344.65 422.87,345.29 434.06,345.7C440.46,346.98 446.97,347.92 453.21,349.97C467.94,355.07 481.82,363.05 492.94,374.05C513.62,393.72 526.06,422.34 524.64,451C525.16,464.81 521.46,478.46 516.12,491.1C501.39,525.55 466.42,550.32 429.02,552.62C419.92,552.44 410.67,553.44 401.75,551.28C380.49,547.58 360.84,536.64 345.77,521.32C338.8,513.43 332.27,505.01 327.64,495.51C322.73,485.27 319.23,474.29 317.67,463.03C317.08,450.14 316.5,437.01 319.69,424.39C324.18,406.45 333.2,389.46 346.39,376.4C360.82,361.28 380.02,351.03 400.46,346.91M410.57,405.59C397.91,408.66 386.56,417.36 381.07,429.28C376.42,437.93 375.37,448.13 377.1,457.71C379.53,469.61 386.95,480.45 397.36,486.77C408.81,494.4 423.98,495.62 436.72,490.67C446.95,486.97 455.31,479.09 460.5,469.62C465.64,459.76 466.96,447.93 463.82,437.24C460.94,425.87 453,416.13 442.97,410.21C433.26,404.69 421.44,402.96 410.57,405.59Z" style="fill:rgb(0,63,78);fill-rule:nonzero;"/>
        </g>
        <g transform="matrix(2.99993,0,0,3.05743,-89.2902,-108.442)">
            <path d="M41.7,350.68C97.84,350.49 153.98,350.81 210.11,350.52C210.75,353.98 210.51,357.51 210.52,361C210.52,376.21 210.5,391.41 210.54,406.61C192.14,406.86 173.73,406.76 155.33,406.66C154.82,408.38 154.5,410.15 154.56,411.96C154.67,457.04 154.48,502.11 154.66,547.19C135.83,547.64 116.98,547.43 98.15,547.3C98.29,502.87 98.15,458.43 98.22,413.99C98.25,411.62 98.05,409.26 97.76,406.91C79.04,406.45 60.32,407 41.6,406.63C41.78,387.98 41.59,369.33 41.7,350.68Z" style="fill:rgb(0,63,78);fill-rule:nonzero;"/>
        </g>
        <g transform="matrix(2.99993,0,0,3.05743,-89.2902,-108.442)">
            <path d="M546.63,350.65C563.62,350.57 580.62,350.71 597.61,350.58C612.53,367.93 626.87,385.76 641.65,403.23C653.41,417.79 665.84,431.8 677.51,446.44C678.64,447.98 679.83,449.5 681.24,450.81C681.73,417.42 681.08,384.01 681.56,350.62C699.7,350.67 717.84,350.56 735.98,350.66C738.12,350.52 738.43,353.37 738.36,354.96C738.26,418.62 738.49,482.29 738.25,545.94C737.94,546.29 737.33,546.99 737.03,547.33C722.69,547.56 708.34,547.32 694,547.44C691.37,547.06 687.79,548.5 686,545.96C661.56,516.07 637.32,486.03 612.95,456.08C609.78,452.41 607.17,448.26 603.65,444.9C603.41,479.1 603.66,513.3 603.52,547.49C584.53,547.33 565.53,547.45 546.54,547.43C546.65,481.84 546.47,416.24 546.63,350.65Z" style="fill:rgb(0,63,78);fill-rule:nonzero;"/>
        </g>
        <g transform="matrix(2.99993,0,0,3.05743,-89.2902,-108.442)">
            <path d="M238.49,351.24C257.17,351.24 275.85,351.15 294.53,351.29C294.52,416.66 294.61,482.03 294.48,547.39C275.83,547.45 257.18,547.4 238.53,547.42C238.41,482.03 238.48,416.64 238.49,351.24Z" style="fill:rgb(0,63,78);fill-rule:nonzero;"/>
        </g>
        <g transform="matrix(2.99993,0,0,3.05743,-89.2902,-108.442)">
            <path d="M797.45,453.86C802.84,453.29 808.32,453.35 813.73,453.78C821.02,455.3 828.34,458.02 833.99,463.02C840.41,469.04 845.93,476.35 848.47,484.88C852.61,496.89 850.73,510.48 844.52,521.43C838.32,532.25 827.24,540.1 815.02,542.48C803.47,545.45 790.96,542.46 781.06,536.12C768,527.81 760.3,512.31 760.51,496.97C761.23,488.8 763.77,480.77 767.76,473.61C774.33,463.25 785.49,456.19 797.45,453.86Z" style="fill:rgb(0,204,255);fill-rule:nonzero;"/>
        </g>
    </g>
</svg>
