<?xml version="1.0" encoding="UTF-8" standalone="no"?>
<!DOCTYPE svg PUBLIC "-//W3C//DTD SVG 1.1//EN" "http://www.w3.org/Graphics/SVG/1.1/DTD/svg11.dtd">
<svg width="100%" height="100%" viewBox="0 0 300 150" version="1.1" xmlns="http://www.w3.org/2000/svg" xmlns:xlink="http://www.w3.org/1999/xlink" xml:space="preserve" xmlns:serif="http://www.serif.com/" style="fill-rule:evenodd;clip-rule:evenodd;stroke-linejoin:round;stroke-miterlimit:2;">
    <g transform="matrix(0.087931,0,0,0.087931,43.1044,55.0486)">
        <path d="M2339.3,366.1L2444.9,366.1L2335.9,6.5L2185.8,6.5L2076.8,366.1L2182.4,366.1L2201.7,299.5L2320,299.5L2339.3,366.1M2224.7,219.5L2260.6,95.3L2261.2,95.3L2297.1,219.5L2224.7,219.5ZM527.1,372.5C635.5,372.5 687.9,353.4 695.4,255.6C697.2,232.3 697.5,208.4 697.5,186.3C697.5,164.2 697.2,140.3 695.4,117C688,19.1 635.6,0 527.1,0C418.6,0 366.3,19.1 358.9,116.9C357.1,140.2 356.7,164.1 356.7,186.2C356.7,208.4 357.1,232.3 358.9,255.5C366.3,353.4 418.7,372.5 527.1,372.5M458.9,186.2C458.9,166.5 459.4,154.8 459.8,146.1C462.6,90.6 484.5,84.1 527.1,84.1C569.7,84.1 591.6,90.6 594.4,146.1C594.8,154.8 595.3,166.4 595.3,186.2C595.3,206 594.8,217.7 594.4,226.3C591.7,281.8 569.8,288.3 527.1,288.3C484.5,288.3 462.6,281.8 459.8,226.3C459.4,217.7 458.9,206 458.9,186.2ZM0,6.6L0,96.2L107.5,96.2L107.5,366.1L215,366.1L215,96.3L322.5,96.3L322.5,6.6L0,6.6ZM1649.8,366.1L1649.8,6.5L1547.8,6.5L1547.8,366.1L1649.8,366.1ZM1239.3,137.8L1239.3,6.5L1137.8,6.5L1137.8,366.1L1239.3,366.1L1239.3,227.4L1357.2,227.4L1357.2,366.1L1458.6,366.1L1458.6,6.5L1357.2,6.5L1357.2,137.8L1239.3,137.8ZM1985.5,178.1C2030.7,166.5 2044,139.5 2044,100.5C2044,21.5 1994.3,6.4 1923.6,6.4L1740.4,6.4L1740.4,366L1932.7,366C2021.2,366 2051,327.9 2051,269.2C2050.9,228.4 2041.5,192.3 1985.5,178.1M1841.7,218.4L1912.1,218.4C1940.5,218.4 1946.5,230.9 1946.5,251.1C1946.5,271.4 1935.4,283.9 1912.1,283.9L1841.7,283.9L1841.7,218.4ZM1841.7,88.7L1912.1,88.7C1930.5,88.7 1941.8,97.4 1941.8,118.4C1941.8,136.4 1930.6,147.4 1912.1,147.4L1841.7,147.4L1841.7,88.7ZM756.6,248.1L853.3,248.1C853.4,265.5 855.6,277.2 864.1,283.6C873.7,290.9 882.3,293.3 910.9,293.3C938.4,293.3 968.5,293.3 968.5,259.4C968.5,232.7 951.7,226.6 920.6,224.9C843.5,220.8 815.7,218.6 787,197.3C767.4,182.8 757.3,154.5 757.3,116.2C757.3,51.1 780,28.3 812.8,12.4C846.6,-4 979.3,-4 1015,12.4C1059.9,33.1 1061.2,77.9 1061.2,119.4L964.7,119.4C964.5,98.2 959.7,92.2 955.9,88.3C945.9,79.4 931.6,77.5 911,77.5C886.1,77.5 857.2,78.6 857.2,108.9C857.2,132 867.2,141.7 893.4,143.4C929.4,145.7 1000.4,148 1025.7,162.9C1061.2,183.9 1070.4,212.3 1070.4,258.6C1070.4,325.6 1046.4,345.2 1013.1,359.9C974.6,376.9 846.1,376.9 804.3,358.6C757.6,338.2 756.6,297.6 756.6,248.1" style="fill:rgb(255,0,0);fill-rule:nonzero;"/>
    </g>
</svg>
