<?xml version="1.0" encoding="UTF-8" standalone="no"?>
<!DOCTYPE svg PUBLIC "-//W3C//DTD SVG 1.1//EN" "http://www.w3.org/Graphics/SVG/1.1/DTD/svg11.dtd">
<svg width="100%" height="100%" viewBox="0 0 300 150" version="1.1" xmlns="http://www.w3.org/2000/svg" xmlns:xlink="http://www.w3.org/1999/xlink" xml:space="preserve" xmlns:serif="http://www.serif.com/" style="fill-rule:evenodd;clip-rule:evenodd;stroke-linejoin:round;stroke-miterlimit:2;">
    <g transform="matrix(0.0786927,0,0,0.0772128,49.5427,-24.4827)">
        <g transform="matrix(4.13416,0,0,4.2134,-72.498,1030.39)">
            <path d="M149,0L231.12,0C237.7,1.31 243.35,5.59 246.73,11.34C249.83,16.7 252.76,22.66 252.36,29.01C252.28,46.08 252.3,63.15 252.29,80.22C242.12,80.16 231.95,80.24 221.78,80.16C221.69,65.44 221.86,50.73 221.68,36.02C221.74,31.54 217.41,27.75 212.99,28.22C196.76,28.28 180.52,28.14 164.3,28.29C159.32,28.31 155.57,33.3 155.69,38.02C155.76,50.67 155.62,63.33 155.76,75.98C155.64,80.46 159.33,84.82 163.95,84.71C193.39,84.93 222.84,84.66 252.28,84.81C252.37,92.84 252.22,100.88 252.41,108.92C258.2,100.57 264.4,92.52 270.33,84.27C300.02,84.16 329.7,84.29 359.38,84.21C359.41,80.68 359.41,77.15 359.41,73.62C336.58,72.07 313.72,70.8 291.01,68C282.66,66.89 273.87,66.05 266.62,61.32C261.09,57.98 256.88,52.57 254.68,46.53C254.03,42.06 254.53,37.5 254.38,33C254.53,26.28 253.45,19.05 257.01,12.97C261.97,4.47 272.35,-0.14 282,0.59C352.99,0.61 423.99,0.62 494.98,0.59C499.84,0.41 503.93,3.63 507.49,6.57C512.2,11.14 515.7,17.37 516.03,24.02C515.62,42.34 516.04,60.68 516.05,79.01C515.36,84.71 516.99,90.63 514.99,96.15C512.17,104.59 505.09,111.64 496.46,114L407,114L409.08,113.69C397.17,110.27 389.88,97.91 389.58,86C389.58,68.9 389.57,51.8 389.57,34.7C400.14,34.76 410.71,34.67 421.28,34.74C421.18,44.16 421.16,53.59 421.14,63.01C421.11,68.96 420.29,74.98 421.37,80.87C421.97,84.38 425.58,86.42 428.96,86.14C443.96,86.16 458.96,86.1 473.96,86.12C477.1,86.08 480.43,86.6 483.41,85.32C486.01,83.94 486.52,80.7 486.44,78.02C486.37,64.68 486.42,51.33 486.41,37.98C486.46,35.51 486.07,32.6 483.85,31.1C481.3,29.26 477.98,29.81 475.03,29.71C446.35,29.75 417.66,29.77 388.98,29.71C388.72,21.3 388.92,12.89 388.83,4.49C381.69,13.17 374.48,21.8 367.2,30.37C341.58,30.44 315.95,30.39 290.33,30.4C290.26,34.62 290.27,38.85 290.43,43.08C307.65,43.62 324.83,45.14 342.04,45.87C351.93,46.97 362.49,45.7 371.63,50.38C379.63,54.17 385.51,61.83 387.53,70.39C388.06,75.92 387.58,81.49 387.75,87.03C387.95,93.19 386.73,99.78 382.51,104.51C377.17,110.95 368.54,112.89 360.65,114L148.92,114C144.47,112.79 139.77,111.84 135.99,109.01C128.8,103.8 125.49,94.62 125.3,85.99C125.28,65.64 125.27,45.29 125.3,24.94C125.21,18.67 126.94,12.06 131.48,7.51C135.99,2.72 142.61,0.69 149,0Z" style="fill:rgb(174,43,39);fill-rule:nonzero;"/>
        </g>
        <g transform="matrix(4.13416,0,0,4.2134,-72.498,1030.39)">
            <path d="M0,0.6C40.43,0.89 80.88,0.62 121.32,0.73C121.31,9.39 121.35,18.04 121.29,26.7C107.67,26.6 94.05,26.69 80.43,26.66C80.38,55.78 80.47,84.89 80.39,114L40.12,114C40.2,84.9 40.14,55.79 40.15,26.69C26.76,26.65 13.38,26.68 0,26.67L0,0.6Z" style="fill:rgb(174,43,39);fill-rule:nonzero;"/>
        </g>
        <g transform="matrix(4.13416,0,0,4.2134,-72.498,1030.39)">
            <path d="M518.74,0.69C559.16,0.77 599.58,0.69 640,0.74L640,26.17C638.48,27.03 636.63,26.6 634.98,26.71C623.06,26.6 611.13,26.72 599.21,26.65C599.15,55.77 599.28,84.88 599.14,114L558.57,114C558.94,84.9 558.57,55.79 558.76,26.69C545.41,26.61 532.06,26.75 518.71,26.62C518.69,17.98 518.69,9.34 518.74,0.69Z" style="fill:rgb(174,43,39);fill-rule:nonzero;"/>
        </g>
    </g>
</svg>
