<?xml version="1.0" encoding="UTF-8" standalone="no"?>
<!DOCTYPE svg PUBLIC "-//W3C//DTD SVG 1.1//EN" "http://www.w3.org/Graphics/SVG/1.1/DTD/svg11.dtd">
<svg width="100%" height="100%" viewBox="0 0 300 150" version="1.1" xmlns="http://www.w3.org/2000/svg" xmlns:xlink="http://www.w3.org/1999/xlink" xml:space="preserve" xmlns:serif="http://www.serif.com/" style="fill-rule:evenodd;clip-rule:evenodd;stroke-linejoin:round;stroke-miterlimit:2;">
    <g transform="matrix(0.0786927,0,0,0.0772128,49.5427,-24.4827)">
        <g transform="matrix(1.11484,0,0,1.13621,-78.9406,926.583)">
            <path d="M1174.05,27.12C1214.78,25.74 1256.44,34.31 1291.58,55.47C1323.46,74.4 1349.08,102.83 1366.91,135.16C1389.37,175.74 1400.6,221.87 1403.31,267.99C1405.7,315.55 1400.82,363.99 1384.89,409.08C1372.47,444.12 1352.76,477.01 1325.41,502.43C1296.8,529.47 1259.89,547.35 1221.12,553.85C1198.36,557.78 1175.05,558.04 1152.13,555.45C1114.9,551.19 1078.44,537.4 1049.07,513.89C1028.88,497.98 1012.17,477.86 999.32,455.64C986.68,433.97 977.77,410.27 971.56,386.01C962.81,351.07 959.68,314.89 960.33,278.94C961.21,240.86 967.32,202.63 981.11,167.01C991.59,139.73 1006.74,114.09 1026.57,92.55C1045.39,72.04 1068.51,55.4 1094.11,44.43C1119.28,33.46 1146.66,27.98 1174.05,27.12M1171.57,150.84C1155.1,152.7 1139.88,161.74 1129.61,174.62C1115.09,192.41 1107.98,214.92 1103.64,237.14C1098.04,267.69 1097.83,299.07 1101.43,329.87C1104.22,352.26 1109.36,374.77 1120.15,394.77C1128.79,410.96 1142.72,425.1 1160.57,430.66C1178.37,435.99 1198.44,434.73 1214.98,426.02C1228.84,418.67 1239.23,406.11 1246.25,392.28C1256.38,372.34 1260.87,350.09 1263.35,328.02C1265.93,301.82 1266.23,275.28 1262.46,249.19C1259.56,229.62 1254.54,210.15 1245.47,192.48C1237.77,177.7 1226.61,164.03 1211.41,156.58C1199.17,150.41 1185.02,149.21 1171.57,150.84Z" style="fill-rule:nonzero;"/>
        </g>
        <g transform="matrix(1.11484,0,0,1.13621,-78.9406,926.583)">
            <path d="M565.3,40.26C617,40.23 668.71,40.25 720.41,40.25C744.7,97 768.81,153.81 793.05,210.57C817.17,153.77 841.45,97.05 865.57,40.25C916.52,40.23 967.47,40.27 1018.42,40.24C966.95,144.46 915.24,248.57 863.74,352.78C862.84,354.79 861.26,356.65 861.27,358.95C861.22,420.55 861.29,482.16 861.23,543.76C814.98,543.75 768.73,543.74 722.48,543.77C722.51,486.85 722.49,429.94 722.49,373.02C722.14,368.5 723.23,363.71 721.91,359.35C669.7,252.99 617.53,146.61 565.3,40.26Z" style="fill-rule:nonzero;"/>
        </g>
        <g transform="matrix(1.11484,0,0,1.13621,-78.9406,926.583)">
            <path d="M1432.5,40.23C1488.35,40.27 1544.2,40.24 1600.05,40.25C1624.37,40.33 1648.73,39.73 1673,41.72C1695.08,43.49 1717.21,46.81 1738.27,53.87C1754.74,59.47 1770.62,67.6 1783.45,79.49C1798.13,92.85 1807.95,110.91 1813.01,129.98C1818.76,151.46 1819.94,173.93 1818.91,196.06C1817.57,220.64 1812,245.55 1799.03,266.72C1787.71,285.48 1769.66,300.09 1748.74,306.74C1765.17,314.16 1782.56,321.37 1794.85,335.1C1807.3,348.81 1812.9,367.12 1815.98,385.02C1822.6,424.41 1818.05,464.48 1820.55,504.14C1821.24,510.78 1821.62,517.88 1825.28,523.69C1827.23,526.9 1831,528.04 1834.54,528.45C1834.45,533.55 1834.53,538.65 1834.49,543.76C1787.68,543.76 1740.88,543.74 1694.08,543.76C1691.55,534.73 1690.64,525.35 1689.62,516.06C1687.27,491.76 1687.03,467.33 1686.96,442.94C1686.47,429.28 1685.8,415.41 1681.78,402.25C1679.2,394.35 1675.09,386.64 1668.51,381.37C1659.45,373.83 1647.56,371.02 1636.12,369.61C1624.8,368.11 1613.38,368.57 1602.01,368.51C1591.76,368.5 1581.51,368.53 1571.27,368.49C1571.22,426.91 1571.29,485.34 1571.24,543.76C1525,543.76 1478.75,543.73 1432.52,543.77C1432.48,375.93 1432.51,208.08 1432.5,40.23M1571.26,158.02C1571.25,191.25 1571.26,224.48 1571.25,257.72C1587.51,257.77 1603.77,257.73 1620.04,257.74C1632.75,257.83 1645.63,257.45 1657.99,254.2C1667.29,251.72 1676.51,247.24 1682.56,239.51C1688.28,232.29 1690.65,223.01 1691.11,213.95C1691.89,199.39 1688.36,183.7 1677.83,173.04C1669.8,164.85 1658.66,160.4 1647.46,158.78C1639.02,157.51 1630.47,158.16 1621.99,158C1605.08,158.01 1588.17,157.99 1571.26,158.02Z" style="fill-rule:nonzero;"/>
        </g>
        <g transform="matrix(1.11484,0,0,1.13621,-78.9406,926.583)">
            <path d="M1857.5,40.25C1903.75,40.23 1950,40.28 1996.25,40.22C1996.28,94.39 1996.16,148.57 1996.32,202.74C2036.49,148.47 2077.02,94.46 2117.27,40.25C2171.58,40.21 2225.88,40.31 2280.19,40.2C2228.83,103.51 2177.16,166.57 2125.9,229.95C2182.82,334.53 2239.64,439.16 2296.52,543.75L2130.26,543.75C2096.36,477.06 2062.77,410.2 2028.86,343.51C2017.91,357.02 2007.25,370.75 1996.27,384.23C1996.23,437.41 1996.25,490.59 1996.25,543.78C1950,543.72 1903.75,543.77 1857.5,543.75L1857.5,40.25Z" style="fill-rule:nonzero;"/>
        </g>
        <g transform="matrix(1.11484,0,0,1.13621,-78.9406,926.583)">
            <path d="M2316.5,43.76C2333.64,40.16 2352.64,46.66 2363.36,60.67C2377.45,78.16 2375.91,106.01 2359.75,121.68C2346.16,135.68 2323.66,139.36 2306.08,131.15C2289.79,124.07 2278.67,106.77 2279.22,88.99C2278.88,74.05 2286.7,59.4 2299.04,51.05C2304.27,47.46 2310.28,45.05 2316.5,43.76M2321.16,51.11C2311.4,52.31 2302.24,57.59 2296.37,65.47C2285.23,80.06 2286.24,102.66 2299,115.95C2309.61,127.56 2327.91,130.75 2342.01,124C2352.22,119.43 2359.8,109.77 2362.34,98.93C2365.61,85.87 2362.1,71.07 2352.43,61.52C2344.37,53.44 2332.44,49.53 2321.16,51.11Z" style="fill-rule:nonzero;"/>
        </g>
        <g transform="matrix(1.11484,0,0,1.13621,-78.9406,926.583)">
            <path d="M2308.23,62.25C2316.44,62.42 2324.67,61.92 2332.87,62.57C2338,62.96 2343.77,64.93 2346.13,69.91C2348.22,74.67 2348.27,80.42 2346.1,85.17C2343.75,89.67 2338.76,91.78 2333.99,92.53C2339.09,100.32 2344.09,108.17 2349.19,115.96C2345.98,115.72 2342.33,116.69 2339.42,115.48C2334.71,107.98 2330.18,100.37 2325.59,92.79C2322.55,92.75 2319.52,92.76 2316.52,92.75C2316.48,100.5 2316.51,108.26 2316.49,116.02C2313.72,116.01 2310.97,116 2308.23,116C2308.25,98.08 2308.24,80.16 2308.23,62.25M2316.51,69.5C2316.51,74.93 2316.45,80.36 2316.54,85.78C2322.28,85.42 2328.19,86.46 2333.82,84.94C2340.14,83.42 2340.77,72.73 2334.57,70.58C2328.77,68.56 2322.5,69.89 2316.51,69.5Z" style="fill-rule:nonzero;"/>
        </g>
        <g transform="matrix(1.11484,0,0,1.13621,-78.9406,926.583)">
            <path d="M43.74,35.75C95.18,35.72 146.62,35.75 198.06,35.74C198.22,61.58 198.31,87.43 198.25,113.28C189.9,115.59 181.64,118.24 173.64,121.58C163.25,109.33 154.28,95.96 144.78,83.02C138.35,73.97 131.75,65.04 125.55,55.83C115.07,62.96 105,70.66 94.7,78.03C110.27,100 126.52,121.5 142.35,143.29C136.93,150.39 131.5,157.54 127.01,165.29C100.39,158.22 74.72,148 48.43,139.89C46.97,144.75 45.51,149.61 43.81,154.39C43.65,114.85 43.81,75.3 43.74,35.75Z" style="fill:rgb(11,61,145);fill-rule:nonzero;"/>
        </g>
        <g transform="matrix(1.11484,0,0,1.13621,-78.9406,926.583)">
            <path d="M235.49,35.74C339.35,35.75 443.21,35.71 547.07,35.75C547.02,203.52 547.03,371.29 547.07,539.06C379.28,538.95 211.5,539.17 43.72,538.94C43.79,460.95 43.73,382.95 43.75,304.95C43.87,292.97 43.52,280.98 43.93,269.01C46.29,275.54 48.1,282.26 50.11,288.9C76.12,280.71 102.03,272.18 128,263.87C132.22,270.92 136.78,277.79 142.21,283.99C138.39,290.45 133.98,296.55 129.7,302.71C118.21,318.97 106.44,335.02 94.61,351.03C104.7,358.4 114.7,365.93 124.99,372.99C127.04,372.31 127.84,369.77 129.23,368.22C144.05,347.64 159,327.16 173.79,306.56C181.62,310.29 189.66,313.65 198.11,315.7C198.33,343.31 198.19,370.93 198.31,398.54C210.95,398.44 223.6,398.55 236.25,398.48C236.11,385.8 236.64,373.14 236.52,360.47C248.01,366.98 259.38,373.69 270.81,380.31C275.54,371.8 280.47,363.4 285.2,354.88C269,345.44 252.67,336.21 236.47,326.75C236.57,300.01 236.53,273.27 236.23,246.54C258.28,259.55 280.34,272.58 302.3,285.75C302.19,306.49 302.2,327.22 302.51,347.95C312.26,348 322.01,347.93 331.76,347.97C331.55,332.64 332.04,317.32 331.99,301.99C343.4,308.92 354.76,315.95 366.15,322.92C372.79,312.05 379.35,301.14 385.88,290.21C373.81,283.27 361.64,276.49 349.73,269.29C362.92,261.87 375.98,254.2 389.23,246.87C385.07,238.3 379.71,230.37 375.23,221.97C373.86,222.21 372.51,222.62 371.33,223.37C354.62,233.11 337.86,242.78 321.12,252.48C299.01,239.76 276.65,227.45 254.63,214.56C276.8,201.86 298.87,189.01 321.03,176.3C339.19,186.65 357.33,197.02 375.47,207.41C380.46,199.01 385.1,190.41 390.01,181.96C376.87,174.34 363.63,166.89 350.49,159.27C361.96,152.63 373.62,146.32 385.07,139.64C379.1,128.36 373.11,117.09 367.23,105.76C355.46,112.39 343.79,119.2 332.02,125.83C331.79,110.63 332.07,95.43 332.23,80.24C322.51,80.26 312.79,80.29 303.06,80.22C303.08,100.53 303.04,120.84 303.08,141.16C280.85,154.45 258.59,167.67 236.26,180.79C236.28,154.36 236.16,127.94 236.32,101.51C254.41,91.22 272.54,80.97 290.47,70.39C285.66,62.24 280.84,54.08 276.15,45.85C275.08,46.12 273.95,46.29 272.97,46.84C260.63,53.9 248.39,61.17 236.02,68.19C235.85,57.37 235.62,46.56 235.49,35.74Z" style="fill:rgb(11,61,145);fill-rule:nonzero;"/>
        </g>
        <g transform="matrix(1.11484,0,0,1.13621,-78.9406,926.583)">
            <path d="M149.21,197.96C154.64,173.34 173.96,151.38 199.02,145.89C199.08,187.6 199.01,229.31 199.05,271.02C199.09,275.01 199.14,279 198.86,282.99C183.8,279.45 170.36,270.1 161.37,257.57C148.96,240.71 144.34,218.34 149.21,197.96Z" style="fill:rgb(11,61,145);fill-rule:nonzero;"/>
        </g>
        <g transform="matrix(1.11484,0,0,1.13621,-78.9406,926.583)">
            <path d="M43.73,177.26C67.5,185.38 91.25,193.54 115,201.68C114.42,209.96 114.13,218.29 115.46,226.52C113.89,228.03 111.49,228.37 109.53,229.25C87.75,236.77 65.67,243.37 43.71,250.32C43.79,225.97 43.75,201.62 43.73,177.26Z" style="fill:rgb(11,61,145);fill-rule:nonzero;"/>
        </g>
    </g>
</svg>
