<?xml version="1.0" encoding="UTF-8" standalone="no"?>
<!DOCTYPE svg PUBLIC "-//W3C//DTD SVG 1.1//EN" "http://www.w3.org/Graphics/SVG/1.1/DTD/svg11.dtd">
<svg width="100%" height="100%" viewBox="0 0 300 150" version="1.1" xmlns="http://www.w3.org/2000/svg" xmlns:xlink="http://www.w3.org/1999/xlink" xml:space="preserve" xmlns:serif="http://www.serif.com/" style="fill-rule:evenodd;clip-rule:evenodd;stroke-linejoin:round;stroke-miterlimit:2;">
    <g transform="matrix(0.0786927,0,0,0.0772128,49.5427,-24.4827)">
        <path d="M381.83,933.59L43.734,933.59L43.734,1043.29L228.372,1043.29L31.737,1443.54L31.737,1569.15L381.921,1569.15L381.921,1455.74L183.859,1455.74L381.921,1043.3L381.83,933.59ZM637.14,1452.43L653.274,1569.13L792.829,1569.13L673.585,933.59L499.492,933.59C460.402,1145.46 421.211,1357.3 381.921,1569.13L520.464,1569.13L537.182,1452.43L637.14,1452.43ZM550.139,1346.02L586.428,1090.33L623.599,1346.02L550.139,1346.02ZM1171.65,933.59L1171.57,1569.13L1017.52,1569.13L926.716,1222.96L926.716,1569.23L792.842,1569.13L792.958,933.59L943.758,933.59L1042.11,1289.21L1042.22,933.59L1171.65,933.59ZM1516.83,1538.05C1522.17,1533.21 1527.35,1527.71 1531.87,1521.73C1536.4,1515.75 1540.33,1509.29 1543.52,1502.51C1546.71,1495.71 1549.21,1488.6 1550.99,1481.3C1555.54,1460.27 1558.17,1438.86 1558.86,1417.35L1559.67,1397.52L1559.67,933.59L1421.84,933.59L1421.89,1397.52C1421.65,1407.78 1421.02,1418.03 1420.01,1428.24C1419.66,1431.26 1419.15,1434.25 1418.49,1437.21C1417.92,1440 1417.22,1442.77 1416.39,1445.49C1414.44,1451.69 1412.16,1456.44 1406.61,1461.2C1402.07,1464.87 1395.5,1468.23 1389.54,1469.25C1383.01,1470.47 1375.99,1470.15 1369,1469.12C1365.5,1468.31 1362.13,1467.03 1358.97,1465.32C1355.88,1463.68 1353.08,1461.56 1350.66,1459.03C1346.25,1453.95 1344.15,1448.27 1342.37,1442.69C1341.44,1439.29 1340.76,1435.82 1340.35,1432.32C1339.71,1427.8 1339.05,1421.77 1338.57,1415.71C1338.39,1409.64 1338.19,1403.58 1338.14,1323.23C1338.09,1242.87 1338.19,1088.24 1338.27,933.59L1202.38,933.59L1202.28,1397.52C1203.14,1431.01 1202.87,1464.24 1219.22,1498.85C1225.15,1510.8 1233.03,1521.67 1242.53,1531.03C1254.11,1542.45 1267.39,1552 1281.92,1559.32C1289.3,1563.04 1296.96,1566.22 1309.53,1569.73C1322.1,1573.25 1339.52,1577.06 1357.21,1578.99C1374.86,1580.91 1392.75,1580.92 1410.44,1579.02C1428.11,1577.12 1445.55,1573.27 1457.48,1570.03C1469.41,1566.79 1475.84,1564.14 1482.07,1561.11C1488.29,1558.07 1494.38,1554.67 1500.16,1550.86C1505.93,1547.07 1511.48,1542.9 1516.83,1538.05ZM1625.37,959.62C1620.18,963.952 1613.94,969.762 1608.37,976.143C1602.77,982.538 1597.88,989.528 1593.7,996.908C1589.52,1004.29 1586.1,1012.1 1583.28,1020.33C1574.72,1045.73 1571.94,1072.78 1574.22,1099.07C1575.61,1116.54 1579.21,1134.62 1585.89,1152.16C1589.11,1160.66 1592.93,1168.95 1598.15,1177.85C1603.34,1186.76 1609.9,1196.27 1616.94,1205.44C1630.77,1223.62 1646.45,1239.78 1664.75,1256.16C1673.74,1264.29 1683.29,1272.67 1692.94,1280.96C1702.57,1289.25 1712.29,1297.44 1721.49,1305.17C1730.71,1312.9 1739.43,1320.17 1747.78,1327.82C1756.15,1335.48 1764.19,1343.48 1771.89,1351.81C1774.1,1354.42 1776.17,1357.13 1778.17,1359.92C1780.14,1362.71 1782.05,1365.57 1784.63,1370.58C1787.21,1375.59 1790.48,1382.76 1792.91,1390.2C1795.37,1397.65 1796.99,1405.37 1797.86,1413.17C1798.69,1420.99 1798.74,1428.88 1798.18,1434.99C1797.6,1441.1 1796.43,1445.4 1794.59,1449.4C1792.73,1453.42 1790.23,1457.1 1787.19,1460.33C1784.16,1463.52 1780.58,1466.25 1776.14,1468.42C1767.27,1472.77 1755.37,1474.67 1744.68,1472.34C1739.65,1471.24 1734.79,1469.46 1730.24,1467.04C1723.74,1463.62 1718.42,1458.32 1714.97,1451.84C1708.64,1438.3 1707.29,1422.94 1707.09,1408.15L1707.09,1349.8L1568.63,1349.8C1568.63,1369.44 1568.58,1389.06 1568.65,1408.7C1568.68,1412.29 1568.71,1415.92 1568.86,1421.34C1569.12,1432.45 1570.3,1448.71 1573.52,1462.65C1575.09,1469.72 1577.02,1476.72 1579.29,1483.33C1581.55,1489.93 1584.18,1496.13 1587.32,1502.05C1590.46,1508.01 1594.15,1513.67 1598.26,1518.98C1602.39,1524.29 1606.95,1529.25 1611.89,1533.8C1618.85,1539.8 1626.28,1545.23 1634.11,1550.03C1657.29,1564.6 1684.5,1571.92 1709.4,1576.05C1742.71,1581.34 1775.95,1582.35 1809.76,1576.1C1817.67,1574.64 1825.5,1572.78 1833.22,1570.52C1840.19,1568.42 1845.87,1566.2 1851.41,1563.66C1856.96,1561.11 1862.35,1558.24 1867.57,1555.09C1872.81,1551.94 1877.88,1548.51 1885.05,1542.29C1892.22,1536.06 1901.44,1527.02 1909.1,1516.76C1916.75,1506.5 1922.81,1495.01 1927.14,1482.91C1931.44,1470.8 1934.03,1458.1 1934.82,1445.26C1936.76,1423.98 1936.34,1402.56 1933.56,1381.37C1932.1,1369.84 1929.44,1358.5 1925.63,1347.52C1923.61,1341.56 1921.19,1335.74 1918.41,1330.09C1910.43,1313.78 1900.79,1298.33 1889.66,1283.98C1883.86,1276.59 1877.67,1269.52 1868.5,1259.97C1859.33,1250.43 1847.22,1238.38 1834.83,1226.62C1811.37,1204.2 1786.65,1183.19 1762.36,1161.77C1749.6,1150.33 1737.38,1137.9 1727.88,1125.34C1724.97,1121.64 1722.32,1117.74 1719.96,1113.66C1714.36,1104.06 1710.03,1091.47 1709.52,1079.84C1709.19,1074.14 1709.46,1068.43 1710.31,1062.79C1711.1,1057.98 1712.19,1054.49 1713.81,1051.26C1715.43,1048.01 1717.59,1045.05 1720.17,1042.5C1722.72,1039.94 1725.69,1037.82 1729.13,1036.05C1740.26,1030.47 1753.03,1029.08 1765.09,1032.12C1769.25,1033.22 1773.43,1034.96 1777.13,1037.48C1784.58,1042.25 1789.31,1051.04 1791.37,1058.71C1793.98,1068.18 1795.36,1077.95 1795.47,1087.77L1795.47,1137.86L1926.66,1137.86C1926.63,1127.41 1926.48,1116.96 1926.18,1106.52C1925.93,1096.67 1925.55,1086.84 1925.04,1077.01C1924.23,1060.36 1922.81,1048.76 1919.91,1035.04C1917.36,1022.33 1913.27,1008.83 1905.7,995.663C1902.08,989.351 1897.83,983.427 1893,977.985C1884.49,968.497 1874.63,960.304 1863.74,953.667C1859.09,950.788 1854.34,948.09 1849.48,945.561C1844.64,943.019 1839.7,940.632 1828,936.78C1816.35,932.928 1797.91,927.598 1779.04,924.809C1760.15,922.017 1740.99,921.751 1722.04,924.018C1703.14,926.288 1684.54,931.099 1672.94,934.549C1661.34,937.999 1656.73,940.1 1652.19,942.37C1647.68,944.64 1643.27,947.104 1638.99,949.776C1634.21,952.705 1629.65,955.996 1625.37,959.62ZM1948.65,1397.83C1948.63,1419.24 1948.58,1440.94 1953.55,1462.61C1955.09,1469.68 1957.02,1476.69 1959.29,1483.29C1961.56,1489.89 1964.21,1496.09 1967.35,1502.02C1970.48,1507.97 1974.15,1513.64 1978.29,1518.94C1982.43,1524.25 1986.96,1529.21 1991.92,1533.77C1998.88,1539.76 2006.31,1545.19 2014.14,1549.99C2037.29,1564.56 2064.5,1571.88 2089.4,1576.01C2122.74,1581.3 2155.95,1582.31 2189.76,1576.06C2197.68,1574.6 2205.52,1572.74 2213.25,1570.48C2220.19,1568.38 2225.9,1566.16 2231.43,1563.62C2236.99,1561.07 2242.36,1558.2 2247.6,1555.05C2252.84,1551.9 2257.91,1548.47 2265.08,1542.25C2272.22,1536.02 2281.47,1526.98 2289.12,1516.72C2296.78,1506.46 2302.83,1494.97 2306.96,1482.87C2311.08,1470.77 2313.29,1458.05 2314.51,1448.06C2315.75,1438.1 2316,1430.89 2316.05,1423.68C2316.11,1416.47 2315.94,1409.26 2315.52,1402.06C2315.11,1395.12 2314.45,1388.21 2313.55,1381.32C2312.11,1369.79 2309.46,1358.44 2305.65,1347.47C2303.61,1341.51 2301.19,1335.68 2298.4,1330.04C2290.43,1313.72 2280.79,1298.27 2269.64,1283.93C2263.03,1275.56 2255.97,1267.55 2248.52,1259.92C2237.53,1248.56 2226.3,1237.43 2214.82,1226.56C2191.38,1204.15 2166.66,1183.14 2142.35,1161.71C2125.93,1147.01 2110.45,1130.5 2100.35,1114.36C2090.72,1098.55 2087.23,1079.74 2090.55,1061.52C2091.08,1057.94 2092.17,1054.44 2093.81,1051.21C2095.43,1047.96 2097.59,1045 2100.14,1042.44C2102.79,1039.85 2105.82,1037.67 2109.13,1036C2120.26,1030.42 2133.03,1029.03 2145.1,1032.07C2149.25,1033.17 2153.43,1034.91 2157.13,1037.43C2164.58,1042.2 2169.31,1050.99 2171.35,1058.66C2174.29,1069.31 2175.22,1078.01 2175.47,1087.72L2175.47,1137.81L2306.63,1137.81C2306.61,1127.36 2306.45,1116.9 2306.18,1106.45C2305.93,1096.62 2305.55,1086.78 2305.04,1076.96C2304.21,1060.28 2302.81,1048.71 2299.91,1034.99C2297.33,1022.28 2293.28,1008.77 2285.7,995.611C2282.08,989.304 2277.82,983.381 2273,977.933C2264.48,968.444 2254.61,960.251 2243.72,953.615C2239.09,950.736 2234.31,948.038 2229.48,945.509C2224.61,942.967 2219.7,940.58 2208.03,936.728C2196.33,932.876 2177.88,927.546 2159.06,924.757C2140.18,921.966 2121.01,921.7 2102.05,923.966C2083.13,926.236 2064.55,931.048 2052.96,934.497C2041.35,937.947 2036.75,940.049 2032.21,942.318C2027.69,944.588 2023.27,947.059 2018.98,949.724C2014.7,952.409 2010.55,955.288 2005.37,959.633C2000.16,963.965 1993.92,969.775 1988.33,976.156C1982.75,982.55 1977.86,989.541 1973.69,996.921C1969.51,1004.3 1966.09,1012.11 1963.27,1020.34C1954.71,1045.74 1951.92,1072.79 1954.18,1099.08C1955.57,1116.55 1959.2,1134.63 1965.88,1152.17C1969.1,1160.68 1972.92,1168.96 1978.11,1177.86C1983.32,1186.77 1989.91,1196.28 1996.9,1205.45C2010.76,1223.63 2026.41,1239.79 2044.71,1256.17C2053.7,1264.31 2063.28,1272.68 2072.91,1280.97C2082.53,1289.26 2092.28,1297.46 2101.48,1305.19C2110.67,1312.92 2119.41,1320.18 2127.74,1327.85C2136.11,1335.5 2144.11,1343.55 2149.12,1348.95C2154.16,1354.34 2156.18,1357.1 2158.16,1359.91C2160.15,1362.72 2162.03,1365.59 2164.59,1370.59C2167.17,1375.61 2170.41,1382.77 2172.88,1390.22C2177.6,1404.64 2179.39,1419.87 2178.14,1435C2177.59,1441.11 2176.42,1445.41 2174.58,1449.41C2170.85,1457.5 2164.53,1464.12 2156.62,1468.22C2146.72,1473.1 2135.47,1474.55 2124.66,1472.34C2119.62,1471.24 2114.77,1469.45 2110.22,1467.04C2106.83,1465.27 2103.75,1462.97 2101.1,1460.23C2098.67,1457.73 2096.6,1454.9 2094.94,1451.84C2088.61,1438.3 2087.29,1422.94 2087.1,1408.15L2087.1,1349.8L1948.63,1349.8L1948.63,1397.83L1948.65,1397.83ZM2466.91,933.525L2330.52,933.525L2330.52,1569.15L2466.91,1569.15L2466.91,933.525Z"/>
    </g>
</svg>
