<?xml version="1.0" encoding="UTF-8" standalone="no"?>
<!DOCTYPE svg PUBLIC "-//W3C//DTD SVG 1.1//EN" "http://www.w3.org/Graphics/SVG/1.1/DTD/svg11.dtd">
<svg width="100%" height="100%" viewBox="0 0 300 150" version="1.1" xmlns="http://www.w3.org/2000/svg" xmlns:xlink="http://www.w3.org/1999/xlink" xml:space="preserve" xmlns:serif="http://www.serif.com/" style="fill-rule:evenodd;clip-rule:evenodd;stroke-linejoin:round;stroke-miterlimit:2;">
    <g transform="matrix(0.443349,0,0,0.443349,42.2234,37.025)">
        <path d="M127.4,27.45C138.47,27.47 149.54,27.43 160.6,27.48C160.52,63.09 160.61,98.7 160.55,134.32C149.52,134.26 138.48,134.27 127.45,134.31C127.4,98.69 127.49,63.07 127.4,27.45Z" style="fill:rgb(73,73,75);fill-rule:nonzero;"/>
    </g>
    <g transform="matrix(0.443349,0,0,0.443349,42.2234,37.025)">
        <path d="M15.42,27.45C46.7,27.47 77.99,27.39 109.27,27.49C109.19,34.46 109.14,41.44 109.3,48.41C89.56,69.67 69.06,90.23 49.12,111.31C69.84,111.28 90.57,111.43 111.3,111.24C111.39,118.93 111.43,126.63 111.27,134.32C77.38,134.25 43.49,134.25 9.61,134.32C9.58,126.84 9.6,119.36 9.6,111.88C29.37,91.45 49.16,71.03 68.74,50.41C50.97,50.4 33.2,50.39 15.44,50.42C15.45,42.77 15.48,35.11 15.42,27.45Z" style="fill:rgb(73,73,75);fill-rule:nonzero;"/>
    </g>
    <g transform="matrix(0.443349,0,0,0.443349,42.2234,37.025)">
        <path d="M179.44,134.33C179.34,98.7 179.44,63.07 179.39,27.44C190.46,27.44 201.53,27.52 212.6,27.39C212.79,54.1 212.66,80.82 212.67,107.53C234.49,107.57 256.31,107.49 278.13,107.59C281.84,107.607 281.486,106.724 281.75,105.88C268.03,105.36 254.47,102.72 240.82,101.28C237.21,88.21 237.12,74.18 240.73,61.09C244.43,48.02 254.28,36.77 266.99,31.82C274.59,28.71 282.84,27.36 291.04,27.45C326.03,27.51 361.01,27.38 396,27.52C409.28,47.15 422.74,66.67 436.06,86.28C436.06,66.69 436.19,47.1 435.99,27.52C446.48,27.44 456.98,27.48 467.48,27.49C467.39,63.09 467.51,98.69 467.42,134.29C456.98,134.25 446.53,134.29 436.09,134.26C422.81,114.93 409.56,95.58 396.35,76.2C396.16,95.56 396.34,114.93 396.25,134.29C385.76,134.27 375.27,134.31 364.78,134.27C364.79,107.29 364.81,80.31 364.77,53.34C339.86,53.4 314.94,53.31 290.03,53.36C282.29,53.55 274.52,58.55 272.31,66.19C269.68,75.08 269.44,84.79 271.83,93.76C273.45,99.02 277.35,104.75 283.18,105.46C283,106.02 282.62,107.13 282.43,107.68C289.97,107.25 298.36,108.73 304.92,104.02C312.77,98.44 313.41,87.75 313.49,78.97C313.22,70.61 311.48,60.21 303.08,56.19C302.16,55.98 302.34,55.13 302.64,54.47C315.89,56.54 329.25,57.78 342.55,59.5C346.79,73.11 346.56,88.02 342.72,101.68C338.78,115.89 327.06,127.56 312.91,131.62C307.12,133.32 301.09,134.29 295.05,134.31C256.51,134.31 217.98,134.25 179.44,134.33Z" style="fill:rgb(73,73,75);fill-rule:nonzero;"/>
    </g>
</svg>
